<?xml version="1.0" encoding="utf-8"?>
<svg viewBox="75.12 260.05 1063.23 184.77" xmlns="http://www.w3.org/2000/svg">
  <defs>
    <style>.cls-1{fill:#0c293a;stroke:#0c293a;stroke-miterlimit:10;stroke-width:.55px;}.cls-2{letter-spacing:-.13em;}.cls-3{letter-spacing:-.17em;}.cls-4{letter-spacing:-.01em;}.cls-5{font-family:OriyaSangamMN, 'Oriya Sangam MN';}.cls-5,.cls-6{font-size:12px;}.cls-5,.cls-6,.cls-7{fill:#221f20;}.cls-6{font-family:MyriadPro-Regular, 'Myriad Pro';}.cls-7,.cls-8,.cls-9,.cls-10{stroke-width:0px;}.cls-8{fill:#b2d6ef;}.cls-9{fill:#952b28;}.cls-10{fill:#f0b357;}.cls-11{letter-spacing:0em;}</style>
  </defs>
  <path class="cls-1" d="M 436.3 375.63 L 436.3 357.42 L 454.51 357.42 L 454.51 375.63 L 436.3 375.63 Z M 436.21 351.13 L 436.21 341.19 C 436.42 336.72 437.28 332.81 438.76 329.59 C 440.19 326.47 441.97 323.64 444.05 321.19 C 446.03 318.85 448.15 316.65 450.35 314.65 C 452.35 312.83 454.26 310.89 456 308.86 C 457.61 306.99 458.91 304.89 459.88 302.61 C 460.79 300.47 461.16 297.78 460.98 294.6 C 460.64 289.93 459.21 286.38 456.6 283.82 C 454.04 281.3 450.58 280.08 446.02 280.08 C 442.95 280.08 440.31 280.62 438.17 281.69 C 436 282.78 434.17 284.25 432.72 286.07 C 431.25 287.91 430.17 290.14 429.49 292.69 C 428.77 295.38 428.41 298.36 428.41 301.53 L 428.41 304.41 L 410.18 304.41 L 410.12 301.59 C 410.01 296.25 410.79 291.2 412.42 286.57 C 414.06 281.9 416.46 277.78 419.55 274.33 C 422.67 270.83 426.54 268.08 431.03 266.16 C 435.5 264.24 440.54 263.27 446.02 263.27 C 450.95 263.27 455.51 263.99 459.58 265.42 C 463.71 266.87 467.34 269 470.37 271.76 C 473.42 274.53 475.82 277.98 477.5 281.99 C 479.17 285.97 480.01 290.56 480.01 295.63 C 480.01 298.95 479.6 301.98 478.78 304.66 C 477.98 307.27 476.92 309.69 475.62 311.86 C 474.35 313.98 472.87 315.97 471.22 317.78 C 469.66 319.49 468.07 321.16 466.49 322.74 C 464.96 324.18 463.46 325.63 461.84 327.24 C 460.45 328.63 459.16 330.15 458.02 331.74 C 456.95 333.24 456.08 334.89 455.44 336.65 C 454.82 338.34 454.51 340.31 454.51 342.52 L 454.51 351.15 L 436.22 351.15 L 436.21 351.13 Z" transform="matrix(1, 0, 0, 1, -2.842170943040401e-14, 0)"/>
  <path class="cls-7" d="M 351.13 437.81 C 351.3 438.14 351.53 438.41 351.82 438.62 C 352.11 438.83 352.44 438.98 352.83 439.08 C 353.22 439.18 353.62 439.23 354.03 439.23 C 354.31 439.23 354.61 439.21 354.93 439.16 C 355.25 439.11 355.55 439.02 355.83 438.89 C 356.11 438.76 356.34 438.57 356.53 438.34 C 356.72 438.11 356.81 437.81 356.81 437.45 C 356.81 437.06 356.69 436.75 356.44 436.51 C 356.19 436.27 355.87 436.07 355.47 435.91 C 355.07 435.75 354.62 435.61 354.11 435.49 C 353.6 435.37 353.09 435.24 352.57 435.09 C 352.04 434.96 351.52 434.79 351.01 434.6 C 350.5 434.41 350.05 434.16 349.65 433.85 C 349.25 433.54 348.93 433.16 348.68 432.7 C 348.43 432.24 348.31 431.68 348.31 431.03 C 348.31 430.3 348.47 429.66 348.78 429.12 C 349.09 428.58 349.5 428.13 350.01 427.77 C 350.52 427.41 351.09 427.14 351.73 426.97 C 352.37 426.8 353.01 426.71 353.65 426.71 C 354.4 426.71 355.11 426.79 355.8 426.96 C 356.49 427.13 357.1 427.4 357.63 427.77 C 358.16 428.14 358.59 428.62 358.9 429.2 C 359.21 429.78 359.37 430.48 359.37 431.31 L 356.33 431.31 C 356.3 430.88 356.21 430.53 356.06 430.25 C 355.91 429.97 355.7 429.75 355.45 429.59 C 355.2 429.43 354.91 429.32 354.58 429.25 C 354.25 429.18 353.9 429.15 353.51 429.15 C 353.26 429.15 353 429.18 352.75 429.23 C 352.5 429.28 352.27 429.38 352.06 429.51 C 351.85 429.64 351.68 429.81 351.55 430.01 C 351.42 430.21 351.35 430.46 351.35 430.77 C 351.35 431.05 351.4 431.28 351.51 431.45 C 351.62 431.62 351.83 431.78 352.14 431.93 C 352.45 432.08 352.89 432.22 353.44 432.37 C 353.99 432.52 354.72 432.7 355.61 432.93 C 355.88 432.98 356.25 433.08 356.72 433.22 C 357.19 433.36 357.66 433.58 358.13 433.89 C 358.6 434.2 359 434.61 359.34 435.12 C 359.68 435.63 359.85 436.29 359.85 437.09 C 359.85 437.74 359.72 438.35 359.47 438.91 C 359.22 439.47 358.84 439.95 358.34 440.36 C 357.84 440.77 357.22 441.08 356.48 441.31 C 355.74 441.54 354.88 441.65 353.91 441.65 C 353.12 441.65 352.36 441.55 351.62 441.36 C 350.88 441.17 350.23 440.86 349.66 440.45 C 349.09 440.04 348.64 439.51 348.31 438.87 C 347.98 438.23 347.82 437.47 347.83 436.59 L 350.87 436.59 C 350.87 437.07 350.96 437.48 351.13 437.81 Z" transform="matrix(1, 0, 0, 1, -2.842170943040401e-14, 0)"/>
  <path class="cls-7" d="M 372.39 427.05 L 372.39 429.69 L 364.85 429.69 L 364.85 432.75 L 371.77 432.75 L 371.77 435.19 L 364.85 435.19 L 364.85 438.69 L 372.55 438.69 L 372.55 441.33 L 361.71 441.33 L 361.71 427.05 L 372.39 427.05 Z" transform="matrix(1, 0, 0, 1, -2.842170943040401e-14, 0)"/>
  <path class="cls-7" d="M 385.35 427.05 L 385.35 429.69 L 377.81 429.69 L 377.81 432.75 L 384.73 432.75 L 384.73 435.19 L 377.81 435.19 L 377.81 438.69 L 385.51 438.69 L 385.51 441.33 L 374.67 441.33 L 374.67 427.05 L 385.35 427.05 Z" transform="matrix(1, 0, 0, 1, -2.842170943040401e-14, 0)"/>
  <path class="cls-7" d="M 399.35 427.05 C 400.27 427.05 401.13 427.2 401.92 427.49 C 402.71 427.78 403.4 428.22 403.98 428.81 C 404.56 429.4 405.01 430.13 405.34 431.01 C 405.67 431.89 405.83 432.92 405.83 434.11 C 405.83 435.15 405.7 436.11 405.43 436.99 C 405.16 437.87 404.76 438.63 404.22 439.27 C 403.68 439.91 403.01 440.41 402.2 440.78 C 401.39 441.15 400.44 441.33 399.35 441.33 L 393.19 441.33 L 393.19 427.05 L 399.35 427.05 Z M 399.13 438.69 C 399.58 438.69 400.02 438.62 400.45 438.47 C 400.88 438.32 401.26 438.08 401.59 437.74 C 401.92 437.4 402.19 436.96 402.39 436.41 C 402.59 435.86 402.69 435.2 402.69 434.41 C 402.69 433.69 402.62 433.04 402.48 432.46 C 402.34 431.88 402.11 431.38 401.79 430.97 C 401.47 430.56 401.05 430.24 400.52 430.02 C 399.99 429.8 399.34 429.69 398.57 429.69 L 396.33 429.69 L 396.33 438.69 L 399.13 438.69 Z" transform="matrix(1, 0, 0, 1, -2.842170943040401e-14, 0)"/>
  <path class="cls-7" d="M 415.71 427.05 C 416.35 427.05 416.93 427.15 417.44 427.36 C 417.95 427.57 418.39 427.85 418.76 428.21 C 419.13 428.57 419.41 428.99 419.6 429.46 C 419.79 429.93 419.89 430.44 419.89 430.99 C 419.89 431.83 419.71 432.56 419.36 433.17 C 419.01 433.78 418.43 434.25 417.63 434.57 L 417.63 434.61 C 418.02 434.72 418.34 434.88 418.59 435.1 C 418.84 435.32 419.05 435.58 419.21 435.88 C 419.37 436.18 419.49 436.51 419.56 436.87 C 419.63 437.23 419.68 437.59 419.71 437.95 C 419.72 438.18 419.74 438.44 419.75 438.75 C 419.76 439.06 419.79 439.37 419.82 439.69 C 419.85 440.01 419.91 440.31 419.98 440.6 C 420.05 440.89 420.16 441.13 420.31 441.33 L 417.17 441.33 C 417 440.88 416.89 440.34 416.85 439.71 C 416.81 439.08 416.75 438.48 416.67 437.91 C 416.56 437.16 416.34 436.62 415.99 436.27 C 415.64 435.92 415.08 435.75 414.29 435.75 L 411.15 435.75 L 411.15 441.33 L 408.01 441.33 L 408.01 427.05 L 415.71 427.05 Z M 414.59 433.51 C 415.31 433.51 415.85 433.35 416.21 433.03 C 416.57 432.71 416.75 432.19 416.75 431.47 C 416.75 430.75 416.57 430.27 416.21 429.96 C 415.85 429.65 415.31 429.49 414.59 429.49 L 411.15 429.49 L 411.15 433.51 L 414.59 433.51 Z" transform="matrix(1, 0, 0, 1, -2.842170943040401e-14, 0)"/>
  <path class="cls-7" d="M 429.57 427.05 L 434.91 441.33 L 431.65 441.33 L 430.57 438.15 L 425.23 438.15 L 424.11 441.33 L 420.95 441.33 L 426.35 427.05 L 429.57 427.05 Z M 429.75 435.81 L 427.95 430.57 L 427.91 430.57 L 426.05 435.81 L 429.75 435.81 Z" transform="matrix(1, 0, 0, 1, -2.842170943040401e-14, 0)"/>
  <path class="cls-7" d="M 446.15 441.33 L 443.73 431.61 L 443.69 431.61 L 441.31 441.33 L 438.13 441.33 L 434.35 427.05 L 437.49 427.05 L 439.75 436.77 L 439.79 436.77 L 442.27 427.05 L 445.21 427.05 L 447.65 436.89 L 447.69 436.89 L 450.03 427.05 L 453.11 427.05 L 449.27 441.33 L 446.15 441.33 Z" transform="matrix(1, 0, 0, 1, -2.842170943040401e-14, 0)"/>
  <path class="cls-7" d="M 457.69 427.05 L 457.69 441.33 L 454.55 441.33 L 454.55 427.05 L 457.69 427.05 Z" transform="matrix(1, 0, 0, 1, -2.842170943040401e-14, 0)"/>
  <path class="cls-7" d="M 463.57 427.05 L 469.53 436.63 L 469.57 436.63 L 469.57 427.05 L 472.51 427.05 L 472.51 441.33 L 469.37 441.33 L 463.43 431.77 L 463.39 431.77 L 463.39 441.33 L 460.45 441.33 L 460.45 427.05 L 463.57 427.05 Z" transform="matrix(1, 0, 0, 1, -2.842170943040401e-14, 0)"/>
  <path class="cls-7" d="M 483.73 441.22 C 483.05 441.51 482.36 441.65 481.67 441.65 C 480.58 441.65 479.59 441.46 478.72 441.08 C 477.85 440.7 477.11 440.18 476.51 439.51 C 475.91 438.84 475.45 438.06 475.13 437.16 C 474.81 436.26 474.65 435.29 474.65 434.25 C 474.65 433.21 474.81 432.19 475.13 431.28 C 475.45 430.37 475.91 429.57 476.51 428.89 C 477.11 428.21 477.85 427.68 478.72 427.29 C 479.59 426.9 480.58 426.71 481.67 426.71 C 482.4 426.71 483.11 426.82 483.8 427.04 C 484.49 427.26 485.11 427.58 485.66 428.01 C 486.21 428.44 486.67 428.96 487.03 429.59 C 487.39 430.22 487.61 430.94 487.69 431.75 L 484.69 431.75 C 484.5 430.95 484.14 430.35 483.61 429.95 C 483.08 429.55 482.43 429.35 481.67 429.35 C 480.96 429.35 480.36 429.49 479.87 429.76 C 479.38 430.03 478.98 430.4 478.67 430.86 C 478.36 431.32 478.14 431.84 478 432.43 C 477.86 433.02 477.79 433.62 477.79 434.25 C 477.79 434.88 477.86 435.43 478 436 C 478.14 436.57 478.36 437.08 478.67 437.53 C 478.98 437.98 479.38 438.35 479.87 438.62 C 480.36 438.89 480.96 439.03 481.67 439.03 C 482.71 439.03 483.51 438.77 484.08 438.24 C 484.65 437.71 484.98 436.95 485.07 435.95 L 481.91 435.95 L 481.91 433.61 L 487.91 433.61 L 487.91 441.33 L 485.91 441.33 L 485.59 439.71 C 485.03 440.43 484.41 440.93 483.73 441.22 Z" transform="matrix(1, 0, 0, 1, -2.842170943040401e-14, 0)"/>
  <path class="cls-7" d="M 499.15 427.05 L 499.15 441.33 L 496.01 441.33 L 496.01 427.05 L 499.15 427.05 Z" transform="matrix(1, 0, 0, 1, -2.842170943040401e-14, 0)"/>
  <path class="cls-7" d="M 505.03 427.05 L 510.99 436.63 L 511.03 436.63 L 511.03 427.05 L 513.97 427.05 L 513.97 441.33 L 510.83 441.33 L 504.89 431.77 L 504.85 431.77 L 504.85 441.33 L 501.91 441.33 L 501.91 427.05 L 505.03 427.05 Z" transform="matrix(1, 0, 0, 1, -2.842170943040401e-14, 0)"/>
  <path class="cls-7" d="M 526.77 427.05 L 526.77 429.69 L 519.87 429.69 L 519.87 432.99 L 525.85 432.99 L 525.85 435.43 L 519.87 435.43 L 519.87 441.33 L 516.73 441.33 L 516.73 427.05 L 526.77 427.05 Z" transform="matrix(1, 0, 0, 1, -2.842170943040401e-14, 0)"/>
  <path class="cls-7" d="M 528.45 431.28 C 528.77 430.37 529.23 429.57 529.83 428.89 C 530.43 428.21 531.17 427.68 532.04 427.29 C 532.91 426.9 533.9 426.71 534.99 426.71 C 536.08 426.71 537.08 426.9 537.95 427.29 C 538.82 427.68 539.55 428.21 540.15 428.89 C 540.75 429.57 541.21 430.37 541.53 431.28 C 541.85 432.19 542.01 433.18 542.01 434.25 C 542.01 435.32 541.85 436.26 541.53 437.16 C 541.21 438.06 540.75 438.84 540.15 439.51 C 539.55 440.18 538.82 440.7 537.95 441.08 C 537.08 441.46 536.1 441.65 534.99 441.65 C 533.88 441.65 532.91 441.46 532.04 441.08 C 531.17 440.7 530.43 440.18 529.83 439.51 C 529.23 438.84 528.77 438.06 528.45 437.16 C 528.13 436.26 527.97 435.29 527.97 434.25 C 527.97 433.21 528.13 432.19 528.45 431.28 Z M 531.32 436 C 531.46 436.57 531.68 437.08 531.99 437.53 C 532.3 437.98 532.7 438.35 533.19 438.62 C 533.68 438.89 534.28 439.03 534.99 439.03 C 535.7 439.03 536.3 438.89 536.79 438.62 C 537.28 438.35 537.68 437.98 537.99 437.53 C 538.3 437.08 538.52 436.57 538.66 436 C 538.8 435.43 538.87 434.85 538.87 434.25 C 538.87 433.65 538.8 433.02 538.66 432.43 C 538.52 431.84 538.3 431.32 537.99 430.86 C 537.68 430.4 537.28 430.03 536.79 429.76 C 536.3 429.49 535.7 429.35 534.99 429.35 C 534.28 429.35 533.68 429.49 533.19 429.76 C 532.7 430.03 532.3 430.4 531.99 430.86 C 531.68 431.32 531.46 431.84 531.32 432.43 C 531.18 433.02 531.11 433.62 531.11 434.25 C 531.11 434.88 531.18 435.43 531.32 436 Z" transform="matrix(1, 0, 0, 1, -2.842170943040401e-14, 0)"/>
  <path class="cls-10" d="M 1033.32 327.1 C 1032.66 326.56 1031.84 326.09 1030.87 325.71 C 1030.53 325.58 1030.18 325.44 1029.82 325.31 L 1029.82 338.57 C 1030.23 338.48 1030.62 338.37 1030.99 338.24 C 1031.89 337.93 1032.64 337.5 1033.3 336.92 C 1033.92 336.37 1034.39 335.68 1034.74 334.82 C 1035.1 333.93 1035.29 332.82 1035.29 331.53 C 1035.29 330.45 1035.12 329.57 1034.78 328.9 C 1034.42 328.19 1033.94 327.6 1033.32 327.09 L 1033.32 327.1 Z" transform="matrix(1, 0, 0, 1, -2.842170943040401e-14, 0)"/>
  <path class="cls-10" d="M 1017.54 307.03 C 1017.54 308 1017.69 308.81 1017.98 309.44 C 1018.27 310.06 1018.66 310.57 1019.17 310.98 C 1019.78 311.47 1020.51 311.9 1021.36 312.26 C 1021.57 312.35 1021.78 312.44 1022 312.52 L 1022 300.65 C 1021 301 1020.11 301.51 1019.31 302.21 C 1018.12 303.26 1017.54 304.83 1017.54 307.02 L 1017.54 307.03 Z" transform="matrix(1, 0, 0, 1, -2.842170943040401e-14, 0)"/>
  <path class="cls-10" d="M 1073.76 320.09 C 1073.75 316.04 1076.8 313.01 1080.87 313 C 1081.63 313 1082.35 313.11 1083.04 313.32 C 1082.38 307.66 1080.91 302.25 1078.74 297.2 C 1077.41 298.64 1075.49 299.54 1073.36 299.53 C 1069.49 299.5 1066.32 296.26 1066.34 292.35 C 1066.35 288.98 1068.76 286.12 1071.91 285.41 C 1068.58 280.97 1064.63 277.02 1060.18 273.7 C 1059.41 276.99 1056.47 279.41 1053.05 279.31 C 1049.13 279.19 1046.04 275.96 1046.1 272.06 C 1046.14 269.99 1047 268.17 1048.39 266.9 C 1043.37 264.75 1037.99 263.29 1032.35 262.63 C 1032.56 263.3 1032.67 264 1032.67 264.74 C 1032.67 268.63 1029.46 271.87 1025.59 271.89 C 1021.65 271.9 1018.5 268.7 1018.51 264.69 C 1018.51 263.98 1018.62 263.29 1018.82 262.64 C 1013.18 263.3 1007.78 264.76 1002.76 266.92 C 1004.19 268.25 1005.07 270.15 1005.04 272.28 C 1004.99 276.15 1001.72 279.35 997.86 279.33 C 994.55 279.31 991.67 276.86 990.94 273.76 C 986.51 277.08 982.57 281.02 979.25 285.45 C 982.48 286.21 984.87 289.09 984.82 292.48 C 984.76 296.44 981.54 299.57 977.56 299.55 C 975.53 299.54 973.7 298.65 972.42 297.25 C 970.27 302.25 968.81 307.61 968.15 313.21 C 968.81 313 969.52 312.88 970.24 312.88 C 974.11 312.88 977.38 316.17 977.39 320.09 C 977.39 324.01 974.16 327.2 970.19 327.19 C 969.48 327.19 968.79 327.08 968.14 326.88 C 968.8 332.5 970.25 337.88 972.4 342.9 C 973.71 341.48 975.59 340.59 977.7 340.59 C 981.61 340.59 984.83 343.86 984.82 347.81 C 984.82 351.06 982.33 353.97 979.23 354.72 C 982.55 359.16 986.5 363.11 990.94 366.44 C 991.68 363.17 994.52 360.83 998.04 360.85 C 1001.9 360.88 1005.06 364.12 1005.05 368.04 C 1005.05 370.1 1004.14 371.95 1002.73 373.25 C 1007.74 375.41 1013.12 376.87 1018.74 377.54 C 1018.51 376.84 1018.39 376.11 1018.39 375.35 C 1018.4 371.44 1021.65 368.26 1025.63 368.28 C 1029.62 368.29 1032.71 371.43 1032.7 375.46 C 1032.7 376.19 1032.58 376.9 1032.38 377.56 C 1038.03 376.9 1043.43 375.44 1048.46 373.27 C 1047.01 371.94 1046.1 370.04 1046.12 367.94 C 1046.16 363.94 1049.32 360.83 1053.32 360.86 C 1056.71 360.88 1059.54 363.3 1060.21 366.48 C 1064.66 363.15 1068.62 359.2 1071.95 354.75 C 1068.73 354.04 1066.33 351.1 1066.36 347.62 C 1066.4 343.73 1069.65 340.56 1073.54 340.62 C 1075.62 340.65 1077.47 341.55 1078.77 342.96 C 1080.94 337.93 1082.4 332.52 1083.06 326.87 C 1082.4 327.08 1081.7 327.2 1080.97 327.2 C 1076.99 327.22 1073.79 324.07 1073.78 320.12 L 1073.76 320.09 Z M 1044.31 337.94 C 1043.42 340 1042.16 341.81 1040.58 343.31 C 1039.01 344.8 1037.13 345.99 1034.98 346.85 C 1033.39 347.49 1031.66 347.95 1029.83 348.22 L 1029.83 354.36 L 1022 354.36 L 1022 348.19 C 1017.54 347.45 1013.86 345.66 1011.07 342.83 C 1007.91 339.64 1006.09 335.24 1005.68 329.73 L 1005.52 327.66 L 1015.61 327.66 L 1015.67 329.53 C 1015.75 332.27 1016.54 334.35 1018.1 335.88 C 1019.21 336.98 1020.5 337.79 1022.01 338.32 L 1022.01 323.13 C 1019.98 322.59 1018.17 321.99 1016.6 321.36 C 1014.57 320.54 1012.83 319.54 1011.45 318.37 C 1009.98 317.13 1008.88 315.59 1008.19 313.8 C 1007.53 312.09 1007.19 310.03 1007.19 307.68 C 1007.19 305.33 1007.63 303 1008.5 300.96 C 1009.36 298.94 1010.56 297.15 1012.05 295.66 C 1013.54 294.17 1015.33 292.97 1017.35 292.11 C 1018.82 291.48 1020.37 291.04 1022 290.79 L 1022 285.81 L 1029.83 285.81 L 1029.83 290.94 C 1033.4 291.66 1036.35 293.22 1038.62 295.58 C 1041.17 298.23 1042.98 301.89 1044.02 306.46 L 1044.56 308.82 L 1034.42 308.82 L 1034.11 307.27 C 1033.49 304.18 1032.11 302.18 1029.83 301.11 L 1029.83 314.81 L 1032.74 315.58 C 1033.79 315.84 1035.05 316.31 1036.45 316.96 C 1037.91 317.64 1039.33 318.58 1040.67 319.76 C 1042.05 320.97 1043.22 322.49 1044.17 324.28 C 1045.16 326.14 1045.66 328.37 1045.66 330.89 C 1045.66 333.41 1045.21 335.88 1044.31 337.95 L 1044.31 337.94 Z" transform="matrix(1, 0, 0, 1, -2.842170943040401e-14, 0)"/>
  <path class="cls-7" d="M 922.61 431.49 C 922.42 431.19 922.19 430.93 921.91 430.7 C 921.63 430.47 921.31 430.3 920.96 430.17 C 920.61 430.04 920.24 429.98 919.85 429.98 C 919.14 429.98 918.54 430.12 918.05 430.39 C 917.56 430.66 917.16 431.03 916.85 431.49 C 916.54 431.95 916.32 432.47 916.18 433.06 C 916.04 433.65 915.97 434.25 915.97 434.88 C 915.97 435.51 916.04 436.06 916.18 436.63 C 916.32 437.2 916.54 437.71 916.85 438.16 C 917.16 438.61 917.56 438.98 918.05 439.25 C 918.54 439.52 919.14 439.66 919.85 439.66 C 920.81 439.66 921.56 439.37 922.1 438.78 C 922.64 438.19 922.97 437.42 923.09 436.46 L 926.13 436.46 C 926.05 437.35 925.84 438.16 925.51 438.88 C 925.18 439.6 924.74 440.21 924.19 440.72 C 923.64 441.23 923 441.61 922.27 441.88 C 921.54 442.15 920.73 442.28 919.85 442.28 C 918.76 442.28 917.77 442.09 916.9 441.71 C 916.03 441.33 915.29 440.81 914.69 440.14 C 914.09 439.47 913.63 438.69 913.31 437.79 C 912.99 436.89 912.83 435.92 912.83 434.88 C 912.83 433.84 912.99 432.82 913.31 431.91 C 913.63 431 914.09 430.2 914.69 429.52 C 915.29 428.84 916.03 428.31 916.9 427.92 C 917.77 427.53 918.76 427.34 919.85 427.34 C 920.64 427.34 921.38 427.45 922.08 427.68 C 922.78 427.91 923.41 428.24 923.96 428.67 C 924.51 429.1 924.97 429.64 925.33 430.28 C 925.69 430.92 925.92 431.65 926.01 432.48 L 922.97 432.48 C 922.92 432.12 922.8 431.79 922.61 431.49 Z" transform="matrix(1, 0, 0, 1, -2.842170943040401e-14, 0)"/>
  <path class="cls-7" d="M 931.41 427.68 L 931.41 439.32 L 938.37 439.32 L 938.37 441.96 L 928.27 441.96 L 928.27 427.68 L 931.41 427.68 Z" transform="matrix(1, 0, 0, 1, -2.842170943040401e-14, 0)"/>
  <path class="cls-7" d="M 947.25 427.68 L 952.59 441.96 L 949.33 441.96 L 948.25 438.78 L 942.91 438.78 L 941.79 441.96 L 938.63 441.96 L 944.03 427.68 L 947.25 427.68 Z M 947.43 436.44 L 945.63 431.2 L 945.59 431.2 L 943.73 436.44 L 947.43 436.44 Z" transform="matrix(1, 0, 0, 1, -2.842170943040401e-14, 0)"/>
  <path class="cls-7" d="M 956.97 427.68 L 956.97 441.96 L 953.83 441.96 L 953.83 427.68 L 956.97 427.68 Z" transform="matrix(1, 0, 0, 1, -2.842170943040401e-14, 0)"/>
  <path class="cls-7" d="M 964.15 427.68 L 967.49 437.5 L 967.53 437.5 L 970.69 427.68 L 975.11 427.68 L 975.11 441.96 L 972.17 441.96 L 972.17 431.84 L 972.13 431.84 L 968.63 441.96 L 966.21 441.96 L 962.71 431.94 L 962.67 431.94 L 962.67 441.96 L 959.73 441.96 L 959.73 427.68 L 964.15 427.68 Z" transform="matrix(1, 0, 0, 1, -2.842170943040401e-14, 0)"/>
  <path class="cls-7" d="M 992.59 431.49 C 992.4 431.19 992.17 430.93 991.89 430.7 C 991.61 430.47 991.29 430.3 990.94 430.17 C 990.59 430.04 990.22 429.98 989.83 429.98 C 989.12 429.98 988.52 430.12 988.03 430.39 C 987.54 430.66 987.14 431.03 986.83 431.49 C 986.52 431.95 986.3 432.47 986.16 433.06 C 986.02 433.65 985.95 434.25 985.95 434.88 C 985.95 435.51 986.02 436.06 986.16 436.63 C 986.3 437.2 986.52 437.71 986.83 438.16 C 987.14 438.61 987.54 438.98 988.03 439.25 C 988.52 439.52 989.12 439.66 989.83 439.66 C 990.79 439.66 991.54 439.37 992.08 438.78 C 992.62 438.19 992.95 437.42 993.07 436.46 L 996.11 436.46 C 996.03 437.35 995.82 438.16 995.49 438.88 C 995.16 439.6 994.72 440.21 994.17 440.72 C 993.62 441.23 992.98 441.61 992.25 441.88 C 991.52 442.15 990.71 442.28 989.83 442.28 C 988.74 442.28 987.75 442.09 986.88 441.71 C 986.01 441.33 985.27 440.81 984.67 440.14 C 984.07 439.47 983.61 438.69 983.29 437.79 C 982.97 436.89 982.81 435.92 982.81 434.88 C 982.81 433.84 982.97 432.82 983.29 431.91 C 983.61 431 984.07 430.2 984.67 429.52 C 985.27 428.84 986.01 428.31 986.88 427.92 C 987.75 427.53 988.74 427.34 989.83 427.34 C 990.62 427.34 991.36 427.45 992.06 427.68 C 992.76 427.91 993.39 428.24 993.94 428.67 C 994.49 429.1 994.95 429.64 995.31 430.28 C 995.67 430.92 995.9 431.65 995.99 432.48 L 992.95 432.48 C 992.9 432.12 992.78 431.79 992.59 431.49 Z" transform="matrix(1, 0, 0, 1, -2.842170943040401e-14, 0)"/>
  <path class="cls-7" d="M 1001.39 427.68 L 1001.39 433.16 L 1007.17 433.16 L 1007.17 427.68 L 1010.31 427.68 L 1010.31 441.96 L 1007.17 441.96 L 1007.17 435.8 L 1001.39 435.8 L 1001.39 441.96 L 998.25 441.96 L 998.25 427.68 L 1001.39 427.68 Z" transform="matrix(1, 0, 0, 1, -2.842170943040401e-14, 0)"/>
  <path class="cls-7" d="M 1020.19 427.68 L 1025.53 441.96 L 1022.27 441.96 L 1021.19 438.78 L 1015.85 438.78 L 1014.73 441.96 L 1011.57 441.96 L 1016.97 427.68 L 1020.19 427.68 Z M 1020.37 436.44 L 1018.57 431.2 L 1018.53 431.2 L 1016.67 436.44 L 1020.37 436.44 Z" transform="matrix(1, 0, 0, 1, -2.842170943040401e-14, 0)"/>
  <path class="cls-7" d="M 1036.81 427.68 L 1036.81 430.32 L 1029.91 430.32 L 1029.91 433.62 L 1035.89 433.62 L 1035.89 436.06 L 1029.91 436.06 L 1029.91 441.96 L 1026.77 441.96 L 1026.77 427.68 L 1036.81 427.68 Z" transform="matrix(1, 0, 0, 1, -2.842170943040401e-14, 0)"/>
  <path class="cls-7" d="M 1048.67 427.68 L 1048.67 430.32 L 1041.77 430.32 L 1041.77 433.62 L 1047.75 433.62 L 1047.75 436.06 L 1041.77 436.06 L 1041.77 441.96 L 1038.63 441.96 L 1038.63 427.68 L 1048.67 427.68 Z" transform="matrix(1, 0, 0, 1, -2.842170943040401e-14, 0)"/>
  <path class="cls-7" d="M 1053.63 427.68 L 1053.63 439.32 L 1060.59 439.32 L 1060.59 441.96 L 1050.49 441.96 L 1050.49 427.68 L 1053.63 427.68 Z" transform="matrix(1, 0, 0, 1, -2.842170943040401e-14, 0)"/>
  <path class="cls-7" d="M 1073.03 427.68 L 1073.03 430.32 L 1065.49 430.32 L 1065.49 433.38 L 1072.41 433.38 L 1072.41 435.82 L 1065.49 435.82 L 1065.49 439.32 L 1073.19 439.32 L 1073.19 441.96 L 1062.35 441.96 L 1062.35 427.68 L 1073.03 427.68 Z" transform="matrix(1, 0, 0, 1, -2.842170943040401e-14, 0)"/>
  <path class="cls-7" d="M 1087.31 427.68 C 1088.2 427.68 1088.96 427.81 1089.59 428.07 C 1090.22 428.33 1090.73 428.67 1091.12 429.1 C 1091.51 429.53 1091.8 430.01 1091.98 430.56 C 1092.16 431.11 1092.25 431.67 1092.25 432.26 C 1092.25 432.85 1092.16 433.4 1091.98 433.95 C 1091.8 434.5 1091.51 434.99 1091.12 435.42 C 1090.73 435.85 1090.22 436.19 1089.59 436.45 C 1088.96 436.71 1088.2 436.84 1087.31 436.84 L 1084.01 436.84 L 1084.01 441.96 L 1080.87 441.96 L 1080.87 427.68 L 1087.31 427.68 Z M 1086.45 434.4 C 1086.81 434.4 1087.16 434.37 1087.49 434.32 C 1087.82 434.27 1088.12 434.16 1088.37 434.01 C 1088.62 433.86 1088.83 433.64 1088.98 433.36 C 1089.13 433.08 1089.21 432.71 1089.21 432.26 C 1089.21 431.81 1089.13 431.44 1088.98 431.16 C 1088.83 430.88 1088.62 430.66 1088.37 430.51 C 1088.12 430.36 1087.82 430.25 1087.49 430.2 C 1087.16 430.15 1086.81 430.12 1086.45 430.12 L 1084.01 430.12 L 1084.01 434.4 L 1086.45 434.4 Z" transform="matrix(1, 0, 0, 1, -2.842170943040401e-14, 0)"/>
  <path class="cls-7" d="M 1101.91 427.68 C 1102.55 427.68 1103.13 427.78 1103.64 427.99 C 1104.15 428.2 1104.59 428.48 1104.96 428.84 C 1105.33 429.2 1105.61 429.62 1105.8 430.09 C 1105.99 430.56 1106.09 431.07 1106.09 431.62 C 1106.09 432.46 1105.91 433.19 1105.56 433.8 C 1105.21 434.41 1104.63 434.88 1103.83 435.2 L 1103.83 435.24 C 1104.22 435.35 1104.54 435.51 1104.79 435.73 C 1105.04 435.95 1105.25 436.21 1105.41 436.51 C 1105.57 436.81 1105.69 437.14 1105.76 437.5 C 1105.83 437.86 1105.88 438.22 1105.91 438.58 C 1105.92 438.81 1105.94 439.07 1105.95 439.38 C 1105.96 439.69 1105.99 440 1106.02 440.32 C 1106.05 440.64 1106.11 440.94 1106.18 441.23 C 1106.25 441.52 1106.36 441.76 1106.51 441.96 L 1103.37 441.96 C 1103.2 441.51 1103.09 440.97 1103.05 440.34 C 1103.01 439.71 1102.95 439.11 1102.87 438.54 C 1102.76 437.79 1102.54 437.25 1102.19 436.9 C 1101.84 436.55 1101.28 436.38 1100.49 436.38 L 1097.35 436.38 L 1097.35 441.96 L 1094.21 441.96 L 1094.21 427.68 L 1101.91 427.68 Z M 1100.79 434.14 C 1101.51 434.14 1102.05 433.98 1102.41 433.66 C 1102.77 433.34 1102.95 432.82 1102.95 432.1 C 1102.95 431.38 1102.77 430.9 1102.41 430.59 C 1102.05 430.28 1101.51 430.12 1100.79 430.12 L 1097.35 430.12 L 1097.35 434.14 L 1100.79 434.14 Z" transform="matrix(1, 0, 0, 1, -2.842170943040401e-14, 0)"/>
  <path class="cls-7" d="M 1111.79 427.68 L 1111.79 441.96 L 1108.65 441.96 L 1108.65 427.68 L 1111.79 427.68 Z" transform="matrix(1, 0, 0, 1, -2.842170943040401e-14, 0)"/>
  <path class="cls-7" d="M 1121.29 430.32 L 1114.23 430.32 L 1114.23 427.68 L 1125.47 427.68 L 1125.47 430.16 L 1117.81 439.32 L 1125.67 439.32 L 1125.67 441.96 L 1113.63 441.96 L 1113.63 439.48 L 1121.29 430.32 Z" transform="matrix(1, 0, 0, 1, -2.842170943040401e-14, 0)"/>
  <path class="cls-7" d="M 1138.19 427.68 L 1138.19 430.32 L 1130.65 430.32 L 1130.65 433.38 L 1137.57 433.38 L 1137.57 435.82 L 1130.65 435.82 L 1130.65 439.32 L 1138.35 439.32 L 1138.35 441.96 L 1127.51 441.96 L 1127.51 427.68 L 1138.19 427.68 Z" transform="matrix(1, 0, 0, 1, -2.842170943040401e-14, 0)"/>
  <path class="cls-9" d="M 812.52 285.38 C 812.81 284.75 812.55 283.97 811.89 283.54 L 811.76 283.46 C 811.25 283.13 810.63 283.13 810.16 283.41 C 809.42 283.84 808.41 283.82 807.56 283.27 C 806.72 282.72 806.3 281.82 806.41 280.98 C 806.49 280.42 806.15 279.83 805.62 279.48 L 805.37 279.32 C 804.86 278.99 804.24 278.99 803.77 279.27 C 803.03 279.7 802.02 279.68 801.17 279.13 C 800.33 278.58 799.91 277.68 800.02 276.84 C 800.1 276.28 799.76 275.69 799.23 275.34 L 798.98 275.18 C 798.47 274.85 797.85 274.85 797.38 275.13 C 796.64 275.56 795.63 275.54 794.79 274.99 C 793.95 274.44 793.53 273.54 793.64 272.7 C 793.72 272.14 793.38 271.55 792.85 271.2 L 792.6 271.04 C 792.09 270.71 791.47 270.71 791 270.99 C 790.26 271.42 789.24 271.4 788.41 270.85 C 787.57 270.3 787.15 269.4 787.26 268.56 C 787.34 268 787 267.41 786.47 267.06 L 786.22 266.9 C 785.71 266.57 785.09 266.57 784.62 266.85 C 783.88 267.28 782.87 267.26 782.03 266.71 C 781.19 266.16 780.77 265.26 780.88 264.42 C 780.96 263.86 780.62 263.27 780.09 262.92 L 780.04 262.89 C 779.4 262.48 778.61 262.55 778.14 263.03 C 775.42 265.93 770.52 266.33 766.63 263.82 L 766.63 263.84 C 766.63 263.84 747.53 293.03 747.53 293.03 L 747.47 292.99 L 738.76 306.4 L 722.33 286.73 L 722.28 286.78 L 699.85 260.07 L 699.85 260.05 C 696.28 263.01 691.37 263.19 688.32 260.64 C 687.81 260.21 687.01 260.24 686.42 260.72 L 686.37 260.76 C 685.88 261.16 685.62 261.79 685.76 262.34 C 685.97 263.15 685.66 264.1 684.89 264.74 C 684.13 265.38 683.11 265.53 682.33 265.18 C 681.82 264.96 681.21 265.03 680.75 265.42 L 680.52 265.61 C 680.03 266.01 679.77 266.64 679.91 267.19 C 680.12 268 679.81 268.95 679.04 269.59 C 678.28 270.23 677.26 270.38 676.48 270.03 C 675.97 269.81 675.36 269.88 674.9 270.27 L 674.67 270.46 C 674.18 270.86 673.92 271.49 674.06 272.04 C 674.27 272.85 673.96 273.8 673.19 274.44 C 672.43 275.08 671.41 275.23 670.63 274.88 C 670.12 274.66 669.51 274.73 669.05 275.12 L 668.82 275.31 C 668.33 275.71 668.07 276.34 668.21 276.89 C 668.42 277.7 668.11 278.65 667.34 279.29 C 666.58 279.93 665.56 280.08 664.78 279.73 C 664.27 279.51 663.66 279.58 663.2 279.97 L 662.97 280.16 C 662.48 280.56 662.22 281.19 662.36 281.74 C 662.57 282.55 662.26 283.5 661.49 284.14 C 660.73 284.78 659.71 284.93 658.93 284.58 C 658.42 284.36 657.81 284.43 657.35 284.82 L 657.23 284.92 C 656.63 285.43 656.47 286.23 656.83 286.82 C 658.87 290.19 657.89 294.88 654.34 297.83 L 654.44 297.94 L 681.19 329.81 L 704.95 358.26 L 705 358.21 L 721.76 378.27 L 721.76 378.29 C 725.33 375.33 730.24 375.15 733.29 377.7 C 733.8 378.13 734.6 378.1 735.19 377.62 L 735.24 377.58 C 735.61 377.28 735.84 376.85 735.88 376.43 C 736.33 376.45 736.78 376.59 737.2 376.86 C 738.04 377.41 738.46 378.31 738.35 379.15 C 738.27 379.71 738.61 380.3 739.14 380.65 L 739.39 380.81 C 739.9 381.14 740.52 381.14 740.99 380.86 C 741.73 380.43 742.75 380.45 743.58 381 C 744.42 381.55 744.84 382.45 744.73 383.29 C 744.65 383.85 744.99 384.44 745.52 384.79 L 745.57 384.82 C 746.21 385.23 747 385.16 747.47 384.68 C 750.19 381.78 755.09 381.38 758.98 383.89 L 758.98 383.87 C 758.98 383.87 773.23 361.95 773.23 361.95 L 773.29 361.99 L 793.48 330.91 L 816.23 296.07 L 816.31 295.95 C 812.44 293.44 810.9 288.9 812.53 285.32 L 812.52 285.38 Z" transform="matrix(1, 0, 0, 1, -2.842170943040401e-14, 0)"/>
  <path class="cls-7" d="M 603.11 430.22 C 603.75 430.22 604.33 430.32 604.84 430.53 C 605.35 430.74 605.79 431.02 606.16 431.38 C 606.53 431.74 606.81 432.16 607 432.63 C 607.19 433.1 607.29 433.61 607.29 434.16 C 607.29 435 607.11 435.73 606.76 436.34 C 606.41 436.95 605.83 437.42 605.03 437.74 L 605.03 437.78 C 605.42 437.89 605.74 438.05 605.99 438.27 C 606.24 438.49 606.45 438.75 606.61 439.05 C 606.77 439.35 606.89 439.68 606.96 440.04 C 607.03 440.4 607.08 440.76 607.11 441.12 C 607.12 441.35 607.14 441.61 607.15 441.92 C 607.16 442.23 607.19 442.54 607.22 442.86 C 607.25 443.18 607.31 443.48 607.38 443.77 C 607.45 444.06 607.56 444.3 607.71 444.5 L 604.57 444.5 C 604.4 444.05 604.29 443.51 604.25 442.88 C 604.21 442.25 604.15 441.65 604.07 441.08 C 603.96 440.33 603.74 439.79 603.39 439.44 C 603.04 439.09 602.48 438.92 601.69 438.92 L 598.55 438.92 L 598.55 444.5 L 595.41 444.5 L 595.41 430.22 L 603.11 430.22 Z M 601.99 436.68 C 602.71 436.68 603.25 436.52 603.61 436.2 C 603.97 435.88 604.15 435.36 604.15 434.64 C 604.15 433.92 603.97 433.44 603.61 433.13 C 603.25 432.82 602.71 432.66 601.99 432.66 L 598.55 432.66 L 598.55 436.68 L 601.99 436.68 Z" transform="matrix(1, 0, 0, 1, -2.842170943040401e-14, 0)"/>
  <path class="cls-7" d="M 616.97 430.22 L 622.31 444.5 L 619.05 444.5 L 617.97 441.32 L 612.63 441.32 L 611.51 444.5 L 608.35 444.5 L 613.75 430.22 L 616.97 430.22 Z M 617.15 438.98 L 615.35 433.74 L 615.31 433.74 L 613.45 438.98 L 617.15 438.98 Z" transform="matrix(1, 0, 0, 1, -2.842170943040401e-14, 0)"/>
  <path class="cls-7" d="M 626.69 430.22 L 626.69 444.5 L 623.55 444.5 L 623.55 430.22 L 626.69 430.22 Z" transform="matrix(1, 0, 0, 1, -2.842170943040401e-14, 0)"/>
  <path class="cls-7" d="M 631.85 440.98 C 632.02 441.31 632.25 441.58 632.54 441.79 C 632.83 442 633.16 442.15 633.55 442.25 C 633.94 442.35 634.34 442.4 634.75 442.4 C 635.03 442.4 635.33 442.38 635.65 442.33 C 635.97 442.28 636.27 442.19 636.55 442.06 C 636.83 441.93 637.06 441.74 637.25 441.51 C 637.44 441.28 637.53 440.98 637.53 440.62 C 637.53 440.23 637.41 439.92 637.16 439.68 C 636.91 439.44 636.59 439.24 636.19 439.08 C 635.79 438.92 635.34 438.78 634.83 438.66 C 634.32 438.54 633.81 438.41 633.29 438.26 C 632.76 438.13 632.24 437.96 631.73 437.77 C 631.22 437.58 630.77 437.33 630.37 437.02 C 629.97 436.71 629.65 436.33 629.4 435.87 C 629.15 435.41 629.03 434.85 629.03 434.2 C 629.03 433.47 629.19 432.83 629.5 432.29 C 629.81 431.75 630.22 431.3 630.73 430.94 C 631.24 430.58 631.81 430.31 632.45 430.14 C 633.09 429.97 633.73 429.88 634.37 429.88 C 635.12 429.88 635.83 429.96 636.52 430.13 C 637.21 430.3 637.82 430.57 638.35 430.94 C 638.88 431.31 639.31 431.79 639.62 432.37 C 639.93 432.95 640.09 433.65 640.09 434.48 L 637.05 434.48 C 637.02 434.05 636.93 433.7 636.78 433.42 C 636.63 433.14 636.42 432.92 636.17 432.76 C 635.92 432.6 635.63 432.49 635.3 432.42 C 634.97 432.35 634.62 432.32 634.23 432.32 C 633.98 432.32 633.72 432.35 633.47 432.4 C 633.22 432.45 632.99 432.55 632.78 432.68 C 632.57 432.81 632.4 432.98 632.27 433.18 C 632.14 433.38 632.07 433.63 632.07 433.94 C 632.07 434.22 632.12 434.45 632.23 434.62 C 632.34 434.79 632.55 434.95 632.86 435.1 C 633.17 435.25 633.61 435.39 634.16 435.54 C 634.71 435.69 635.44 435.87 636.33 436.1 C 636.6 436.15 636.97 436.25 637.44 436.39 C 637.91 436.53 638.38 436.75 638.85 437.06 C 639.32 437.37 639.72 437.78 640.06 438.29 C 640.4 438.8 640.57 439.46 640.57 440.26 C 640.57 440.91 640.44 441.52 640.19 442.08 C 639.94 442.64 639.56 443.12 639.06 443.53 C 638.56 443.94 637.94 444.25 637.2 444.48 C 636.46 444.71 635.6 444.82 634.63 444.82 C 633.84 444.82 633.08 444.72 632.34 444.53 C 631.6 444.34 630.95 444.03 630.38 443.62 C 629.81 443.21 629.36 442.68 629.03 442.04 C 628.7 441.4 628.54 440.64 628.55 439.76 L 631.59 439.76 C 631.59 440.24 631.68 440.65 631.85 440.98 Z" transform="matrix(1, 0, 0, 1, -2.842170943040401e-14, 0)"/>
  <path class="cls-7" d="M 653.11 430.22 L 653.11 432.86 L 645.57 432.86 L 645.57 435.92 L 652.49 435.92 L 652.49 438.36 L 645.57 438.36 L 645.57 441.86 L 653.27 441.86 L 653.27 444.5 L 642.43 444.5 L 642.43 430.22 L 653.11 430.22 Z" transform="matrix(1, 0, 0, 1, -2.842170943040401e-14, 0)"/>
  <path class="cls-7" d="M 665.37 430.22 L 668.71 440.04 L 668.75 440.04 L 671.91 430.22 L 676.33 430.22 L 676.33 444.5 L 673.39 444.5 L 673.39 434.38 L 673.35 434.38 L 669.85 444.5 L 667.43 444.5 L 663.93 434.48 L 663.89 434.48 L 663.89 444.5 L 660.95 444.5 L 660.95 430.22 L 665.37 430.22 Z" transform="matrix(1, 0, 0, 1, -2.842170943040401e-14, 0)"/>
  <path class="cls-7" d="M 678.95 434.45 C 679.27 433.54 679.73 432.74 680.33 432.06 C 680.93 431.38 681.67 430.85 682.54 430.46 C 683.41 430.07 684.4 429.88 685.49 429.88 C 686.58 429.88 687.58 430.07 688.45 430.46 C 689.32 430.85 690.05 431.38 690.65 432.06 C 691.25 432.74 691.71 433.54 692.03 434.45 C 692.35 435.36 692.51 436.35 692.51 437.42 C 692.51 438.49 692.35 439.43 692.03 440.33 C 691.71 441.23 691.25 442.01 690.65 442.68 C 690.05 443.35 689.32 443.87 688.45 444.25 C 687.58 444.63 686.6 444.82 685.49 444.82 C 684.38 444.82 683.41 444.63 682.54 444.25 C 681.67 443.87 680.93 443.35 680.33 442.68 C 679.73 442.01 679.27 441.23 678.95 440.33 C 678.63 439.43 678.47 438.46 678.47 437.42 C 678.47 436.38 678.63 435.36 678.95 434.45 Z M 681.82 439.17 C 681.96 439.74 682.18 440.25 682.49 440.7 C 682.8 441.15 683.2 441.52 683.69 441.79 C 684.18 442.06 684.78 442.2 685.49 442.2 C 686.2 442.2 686.8 442.06 687.29 441.79 C 687.78 441.52 688.18 441.15 688.49 440.7 C 688.8 440.25 689.02 439.74 689.16 439.17 C 689.3 438.6 689.37 438.02 689.37 437.42 C 689.37 436.82 689.3 436.19 689.16 435.6 C 689.02 435.01 688.8 434.49 688.49 434.03 C 688.18 433.57 687.78 433.2 687.29 432.93 C 686.8 432.66 686.2 432.52 685.49 432.52 C 684.78 432.52 684.18 432.66 683.69 432.93 C 683.2 433.2 682.8 433.57 682.49 434.03 C 682.18 434.49 681.96 435.01 681.82 435.6 C 681.68 436.19 681.61 436.79 681.61 437.42 C 681.61 438.05 681.68 438.6 681.82 439.17 Z" transform="matrix(1, 0, 0, 1, -2.842170943040401e-14, 0)"/>
  <path class="cls-7" d="M 697.77 430.22 L 703.73 439.8 L 703.77 439.8 L 703.77 430.22 L 706.71 430.22 L 706.71 444.5 L 703.57 444.5 L 697.63 434.94 L 697.59 434.94 L 697.59 444.5 L 694.65 444.5 L 694.65 430.22 L 697.77 430.22 Z" transform="matrix(1, 0, 0, 1, -2.842170943040401e-14, 0)"/>
  <path class="cls-7" d="M 720.15 430.22 L 720.15 432.86 L 712.61 432.86 L 712.61 435.92 L 719.53 435.92 L 719.53 438.36 L 712.61 438.36 L 712.61 441.86 L 720.31 441.86 L 720.31 444.5 L 709.47 444.5 L 709.47 430.22 L 720.15 430.22 Z" transform="matrix(1, 0, 0, 1, -2.842170943040401e-14, 0)"/>
  <path class="cls-7" d="M 720.89 430.22 L 724.41 430.22 L 727.75 435.86 L 731.07 430.22 L 734.57 430.22 L 729.27 439.02 L 729.27 444.5 L 726.13 444.5 L 726.13 438.94 L 720.89 430.22 Z" transform="matrix(1, 0, 0, 1, -2.842170943040401e-14, 0)"/>
  <path class="cls-7" d="M 751.37 430.22 L 751.37 432.86 L 744.47 432.86 L 744.47 436.16 L 750.45 436.16 L 750.45 438.6 L 744.47 438.6 L 744.47 444.5 L 741.33 444.5 L 741.33 430.22 L 751.37 430.22 Z" transform="matrix(1, 0, 0, 1, -2.842170943040401e-14, 0)"/>
  <path class="cls-7" d="M 753.05 434.45 C 753.37 433.54 753.83 432.74 754.43 432.06 C 755.03 431.38 755.77 430.85 756.64 430.46 C 757.51 430.07 758.5 429.88 759.59 429.88 C 760.68 429.88 761.68 430.07 762.55 430.46 C 763.42 430.85 764.15 431.38 764.75 432.06 C 765.35 432.74 765.81 433.54 766.13 434.45 C 766.45 435.36 766.61 436.35 766.61 437.42 C 766.61 438.49 766.45 439.43 766.13 440.33 C 765.81 441.23 765.35 442.01 764.75 442.68 C 764.15 443.35 763.42 443.87 762.55 444.25 C 761.68 444.63 760.7 444.82 759.59 444.82 C 758.48 444.82 757.51 444.63 756.64 444.25 C 755.77 443.87 755.03 443.35 754.43 442.68 C 753.83 442.01 753.37 441.23 753.05 440.33 C 752.73 439.43 752.57 438.46 752.57 437.42 C 752.57 436.38 752.73 435.36 753.05 434.45 Z M 755.92 439.17 C 756.06 439.74 756.28 440.25 756.59 440.7 C 756.9 441.15 757.3 441.52 757.79 441.79 C 758.28 442.06 758.88 442.2 759.59 442.2 C 760.3 442.2 760.9 442.06 761.39 441.79 C 761.88 441.52 762.28 441.15 762.59 440.7 C 762.9 440.25 763.12 439.74 763.26 439.17 C 763.4 438.6 763.47 438.02 763.47 437.42 C 763.47 436.82 763.4 436.19 763.26 435.6 C 763.12 435.01 762.9 434.49 762.59 434.03 C 762.28 433.57 761.88 433.2 761.39 432.93 C 760.9 432.66 760.3 432.52 759.59 432.52 C 758.88 432.52 758.28 432.66 757.79 432.93 C 757.3 433.2 756.9 433.57 756.59 434.03 C 756.28 434.49 756.06 435.01 755.92 435.6 C 755.78 436.19 755.71 436.79 755.71 437.42 C 755.71 438.05 755.78 438.6 755.92 439.17 Z" transform="matrix(1, 0, 0, 1, -2.842170943040401e-14, 0)"/>
  <path class="cls-7" d="M 776.45 430.22 C 777.09 430.22 777.67 430.32 778.18 430.53 C 778.69 430.74 779.13 431.02 779.5 431.38 C 779.87 431.74 780.15 432.16 780.34 432.63 C 780.53 433.1 780.63 433.61 780.63 434.16 C 780.63 435 780.45 435.73 780.1 436.34 C 779.75 436.95 779.17 437.42 778.37 437.74 L 778.37 437.78 C 778.76 437.89 779.08 438.05 779.33 438.27 C 779.58 438.49 779.79 438.75 779.95 439.05 C 780.11 439.35 780.23 439.68 780.3 440.04 C 780.37 440.4 780.42 440.76 780.45 441.12 C 780.46 441.35 780.48 441.61 780.49 441.92 C 780.5 442.23 780.53 442.54 780.56 442.86 C 780.59 443.18 780.65 443.48 780.72 443.77 C 780.79 444.06 780.9 444.3 781.05 444.5 L 777.91 444.5 C 777.74 444.05 777.63 443.51 777.59 442.88 C 777.55 442.25 777.49 441.65 777.41 441.08 C 777.3 440.33 777.08 439.79 776.73 439.44 C 776.38 439.09 775.82 438.92 775.03 438.92 L 771.89 438.92 L 771.89 444.5 L 768.75 444.5 L 768.75 430.22 L 776.45 430.22 Z M 775.33 436.68 C 776.05 436.68 776.59 436.52 776.95 436.2 C 777.31 435.88 777.49 435.36 777.49 434.64 C 777.49 433.92 777.31 433.44 776.95 433.13 C 776.59 432.82 776.05 432.66 775.33 432.66 L 771.89 432.66 L 771.89 436.68 L 775.33 436.68 Z" transform="matrix(1, 0, 0, 1, -2.842170943040401e-14, 0)"/>
  <path class="cls-7" d="M 797.91 434.03 C 797.72 433.73 797.49 433.47 797.21 433.24 C 796.93 433.01 796.61 432.84 796.26 432.71 C 795.91 432.58 795.54 432.52 795.15 432.52 C 794.44 432.52 793.84 432.66 793.35 432.93 C 792.86 433.2 792.46 433.57 792.15 434.03 C 791.84 434.49 791.62 435.01 791.48 435.6 C 791.34 436.19 791.27 436.79 791.27 437.42 C 791.27 438.05 791.34 438.6 791.48 439.17 C 791.62 439.74 791.84 440.25 792.15 440.7 C 792.46 441.15 792.86 441.52 793.35 441.79 C 793.84 442.06 794.44 442.2 795.15 442.2 C 796.11 442.2 796.86 441.91 797.4 441.32 C 797.94 440.73 798.27 439.96 798.39 439 L 801.43 439 C 801.35 439.89 801.14 440.7 800.81 441.42 C 800.48 442.14 800.04 442.75 799.49 443.26 C 798.94 443.77 798.3 444.15 797.57 444.42 C 796.84 444.69 796.03 444.82 795.15 444.82 C 794.06 444.82 793.07 444.63 792.2 444.25 C 791.33 443.87 790.59 443.35 789.99 442.68 C 789.39 442.01 788.93 441.23 788.61 440.33 C 788.29 439.43 788.13 438.46 788.13 437.42 C 788.13 436.38 788.29 435.36 788.61 434.45 C 788.93 433.54 789.39 432.74 789.99 432.06 C 790.59 431.38 791.33 430.85 792.2 430.46 C 793.07 430.07 794.06 429.88 795.15 429.88 C 795.94 429.88 796.68 429.99 797.38 430.22 C 798.08 430.45 798.71 430.78 799.26 431.21 C 799.81 431.64 800.27 432.18 800.63 432.82 C 800.99 433.46 801.22 434.19 801.31 435.02 L 798.27 435.02 C 798.22 434.66 798.1 434.33 797.91 434.03 Z" transform="matrix(1, 0, 0, 1, -2.842170943040401e-14, 0)"/>
  <path class="cls-7" d="M 806.71 430.22 L 806.71 435.7 L 812.49 435.7 L 812.49 430.22 L 815.63 430.22 L 815.63 444.5 L 812.49 444.5 L 812.49 438.34 L 806.71 438.34 L 806.71 444.5 L 803.57 444.5 L 803.57 430.22 L 806.71 430.22 Z" transform="matrix(1, 0, 0, 1, -2.842170943040401e-14, 0)"/>
  <path class="cls-7" d="M 825.51 430.22 L 830.85 444.5 L 827.59 444.5 L 826.51 441.32 L 821.17 441.32 L 820.05 444.5 L 816.89 444.5 L 822.29 430.22 L 825.51 430.22 Z M 825.69 438.98 L 823.89 433.74 L 823.85 433.74 L 821.99 438.98 L 825.69 438.98 Z" transform="matrix(1, 0, 0, 1, -2.842170943040401e-14, 0)"/>
  <path class="cls-7" d="M 839.79 430.22 C 840.43 430.22 841.01 430.32 841.52 430.53 C 842.03 430.74 842.47 431.02 842.84 431.38 C 843.21 431.74 843.49 432.16 843.68 432.63 C 843.87 433.1 843.97 433.61 843.97 434.16 C 843.97 435 843.79 435.73 843.44 436.34 C 843.09 436.95 842.51 437.42 841.71 437.74 L 841.71 437.78 C 842.1 437.89 842.42 438.05 842.67 438.27 C 842.92 438.49 843.13 438.75 843.29 439.05 C 843.45 439.35 843.57 439.68 843.64 440.04 C 843.71 440.4 843.76 440.76 843.79 441.12 C 843.8 441.35 843.82 441.61 843.83 441.92 C 843.84 442.23 843.87 442.54 843.9 442.86 C 843.93 443.18 843.99 443.48 844.06 443.77 C 844.13 444.06 844.24 444.3 844.39 444.5 L 841.25 444.5 C 841.08 444.05 840.97 443.51 840.93 442.88 C 840.89 442.25 840.83 441.65 840.75 441.08 C 840.64 440.33 840.42 439.79 840.07 439.44 C 839.72 439.09 839.16 438.92 838.37 438.92 L 835.23 438.92 L 835.23 444.5 L 832.09 444.5 L 832.09 430.22 L 839.79 430.22 Z M 838.67 436.68 C 839.39 436.68 839.93 436.52 840.29 436.2 C 840.65 435.88 840.83 435.36 840.83 434.64 C 840.83 433.92 840.65 433.44 840.29 433.13 C 839.93 432.82 839.39 432.66 838.67 432.66 L 835.23 432.66 L 835.23 436.68 L 838.67 436.68 Z" transform="matrix(1, 0, 0, 1, -2.842170943040401e-14, 0)"/>
  <path class="cls-7" d="M 849.67 430.22 L 849.67 444.5 L 846.53 444.5 L 846.53 430.22 L 849.67 430.22 Z" transform="matrix(1, 0, 0, 1, -2.842170943040401e-14, 0)"/>
  <path class="cls-7" d="M 851.31 432.86 L 851.31 430.22 L 863.01 430.22 L 863.01 432.86 L 858.73 432.86 L 858.73 444.5 L 855.59 444.5 L 855.59 432.86 L 851.31 432.86 Z" transform="matrix(1, 0, 0, 1, -2.842170943040401e-14, 0)"/>
  <path class="cls-7" d="M 863.11 430.22 L 866.63 430.22 L 869.97 435.86 L 873.29 430.22 L 876.79 430.22 L 871.49 439.02 L 871.49 444.5 L 868.35 444.5 L 868.35 438.94 L 863.11 430.22 Z" transform="matrix(1, 0, 0, 1, -2.842170943040401e-14, 0)"/>
  <path class="cls-8" d="M 100.53 373.71 C 99.63 373.88 98.7 373.32 98.34 372.33 L 98.27 372.14 C 98 371.38 98.19 370.58 98.7 370.05 C 99.48 369.23 99.77 367.9 99.32 366.64 C 98.87 365.38 97.82 364.56 96.71 364.45 C 95.96 364.38 95.29 363.76 95.02 362.96 L 94.89 362.58 C 94.62 361.82 94.81 361.02 95.32 360.49 C 96.1 359.67 96.39 358.34 95.94 357.08 C 95.49 355.82 94.44 355 93.33 354.89 C 92.58 354.82 91.91 354.2 91.64 353.4 L 91.51 353.02 C 91.24 352.26 91.43 351.46 91.94 350.93 C 92.72 350.11 93.01 348.78 92.56 347.52 C 92.11 346.26 91.06 345.44 89.95 345.33 C 89.2 345.26 88.53 344.64 88.26 343.84 L 88.13 343.46 C 87.86 342.7 88.05 341.9 88.56 341.37 C 89.34 340.55 89.63 339.22 89.18 337.96 C 88.73 336.7 87.68 335.88 86.57 335.77 C 85.82 335.7 85.15 335.08 84.88 334.28 L 84.75 333.9 C 84.48 333.14 84.67 332.34 85.18 331.81 C 85.96 330.99 86.25 329.66 85.8 328.4 C 85.35 327.14 84.3 326.32 83.19 326.21 C 82.44 326.14 81.77 325.52 81.5 324.72 L 81.47 324.64 C 81.13 323.68 81.47 322.67 82.24 322.23 C 86.83 319.58 88.86 313.36 86.79 307.55 L 86.82 307.55 C 86.82 307.55 130.53 291.77 130.53 291.77 L 130.5 291.68 L 176.99 275.05 L 218.22 260.31 L 218.4 260.24 C 220.46 266.03 225.87 269.41 231.01 268.4 C 231.91 268.23 232.84 268.79 233.2 269.78 L 233.27 269.97 C 233.54 270.73 233.35 271.53 232.84 272.06 C 232.06 272.88 231.77 274.21 232.22 275.47 C 232.67 276.73 233.72 277.55 234.83 277.66 C 235.58 277.73 236.25 278.35 236.52 279.15 L 236.65 279.53 C 236.92 280.29 236.73 281.09 236.22 281.62 C 235.44 282.44 235.15 283.77 235.6 285.03 C 236.05 286.29 237.1 287.11 238.21 287.22 C 238.96 287.29 239.63 287.91 239.9 288.71 L 240.03 289.09 C 240.3 289.85 240.11 290.65 239.6 291.18 C 238.82 292 238.53 293.33 238.98 294.59 C 239.43 295.85 240.48 296.67 241.59 296.78 C 242.34 296.85 243.01 297.47 243.28 298.27 L 243.41 298.65 C 243.68 299.41 243.49 300.21 242.98 300.74 C 242.2 301.56 241.91 302.89 242.36 304.15 C 242.81 305.41 243.86 306.23 244.97 306.34 C 245.72 306.41 246.39 307.03 246.66 307.83 L 246.79 308.21 C 247.06 308.97 246.87 309.77 246.36 310.3 C 245.58 311.12 245.29 312.45 245.74 313.71 C 246.19 314.97 247.24 315.79 248.35 315.9 C 249.1 315.97 249.77 316.59 250.04 317.39 L 250.07 317.47 C 250.41 318.43 250.07 319.44 249.3 319.88 C 244.71 322.53 242.68 328.75 244.75 334.56 L 244.72 334.56 C 244.72 334.56 211.93 346.3 211.93 346.3 L 211.96 346.39 L 165.47 363.02 L 113.33 381.82 L 113.15 381.89 C 111.09 376.1 105.68 372.72 100.54 373.73 L 100.53 373.71 Z" transform="matrix(1, 0, 0, 1, -2.842170943040401e-14, 0)"/>
  <path class="cls-7" d="M 81.84 428.69 C 82.52 428.69 83.14 428.75 83.7 428.87 C 84.26 428.99 84.74 429.19 85.14 429.46 C 85.54 429.73 85.85 430.1 86.07 430.55 C 86.29 431 86.4 431.56 86.4 432.23 C 86.4 432.95 86.24 433.55 85.91 434.03 C 85.58 434.51 85.1 434.9 84.46 435.21 C 85.34 435.46 86 435.91 86.43 436.54 C 86.86 437.17 87.08 437.94 87.08 438.83 C 87.08 439.55 86.94 440.17 86.66 440.7 C 86.38 441.23 86 441.66 85.53 441.99 C 85.06 442.32 84.52 442.57 83.91 442.73 C 83.3 442.89 82.68 442.97 82.04 442.97 L 75.12 442.97 L 75.12 428.69 L 81.84 428.69 Z M 81.44 434.47 C 82 434.47 82.46 434.34 82.82 434.07 C 83.18 433.8 83.36 433.37 83.36 432.77 C 83.36 432.44 83.3 432.16 83.18 431.95 C 83.06 431.74 82.9 431.57 82.7 431.45 C 82.5 431.33 82.27 431.25 82.01 431.2 C 81.75 431.15 81.48 431.13 81.2 431.13 L 78.26 431.13 L 78.26 434.47 L 81.44 434.47 Z M 81.62 440.53 C 81.93 440.53 82.22 440.5 82.5 440.44 C 82.78 440.38 83.03 440.28 83.24 440.14 C 83.45 440 83.62 439.81 83.75 439.57 C 83.88 439.33 83.94 439.02 83.94 438.65 C 83.94 437.92 83.73 437.39 83.32 437.08 C 82.91 436.77 82.36 436.61 81.68 436.61 L 78.26 436.61 L 78.26 440.53 L 81.62 440.53 Z" transform="matrix(1, 0, 0, 1, -2.842170943040401e-14, 0)"/>
  <path class="cls-7" d="M 99.7 441.88 C 98.62 442.82 97.13 443.29 95.22 443.29 C 93.31 443.29 91.79 442.82 90.73 441.89 C 89.67 440.96 89.14 439.52 89.14 437.57 L 89.14 428.69 L 92.28 428.69 L 92.28 437.57 C 92.28 437.96 92.31 438.34 92.38 438.71 C 92.45 439.08 92.59 439.41 92.8 439.7 C 93.01 439.99 93.31 440.22 93.69 440.4 C 94.07 440.58 94.58 440.67 95.22 440.67 C 96.34 440.67 97.11 440.42 97.54 439.92 C 97.97 439.42 98.18 438.64 98.18 437.57 L 98.18 428.69 L 101.32 428.69 L 101.32 437.57 C 101.32 439.5 100.78 440.94 99.7 441.88 Z" transform="matrix(1, 0, 0, 1, -2.842170943040401e-14, 0)"/>
  <path class="cls-7" d="M 102.48 428.69 L 106 428.69 L 109.34 434.33 L 112.66 428.69 L 116.16 428.69 L 110.86 437.49 L 110.86 442.97 L 107.72 442.97 L 107.72 437.41 L 102.48 428.69 Z" transform="matrix(1, 0, 0, 1, -2.842170943040401e-14, 0)"/>
  <path class="cls-7" d="M 121.38 428.69 L 124.9 428.69 L 128.24 434.33 L 131.56 428.69 L 135.06 428.69 L 129.76 437.49 L 129.76 442.97 L 126.62 442.97 L 126.62 437.41 L 121.38 428.69 Z" transform="matrix(1, 0, 0, 1, -2.842170943040401e-14, 0)"/>
  <path class="cls-7" d="M 136.12 432.92 C 136.44 432.01 136.9 431.21 137.5 430.53 C 138.1 429.85 138.84 429.32 139.71 428.93 C 140.58 428.54 141.57 428.35 142.66 428.35 C 143.75 428.35 144.75 428.54 145.62 428.93 C 146.49 429.32 147.22 429.85 147.82 430.53 C 148.42 431.21 148.88 432.01 149.2 432.92 C 149.52 433.83 149.68 434.82 149.68 435.89 C 149.68 436.96 149.52 437.9 149.2 438.8 C 148.88 439.7 148.42 440.48 147.82 441.15 C 147.22 441.82 146.49 442.34 145.62 442.72 C 144.75 443.1 143.77 443.29 142.66 443.29 C 141.55 443.29 140.58 443.1 139.71 442.72 C 138.84 442.34 138.1 441.82 137.5 441.15 C 136.9 440.48 136.44 439.7 136.12 438.8 C 135.8 437.9 135.64 436.93 135.64 435.89 C 135.64 434.85 135.8 433.83 136.12 432.92 Z M 138.99 437.64 C 139.13 438.21 139.35 438.72 139.66 439.17 C 139.97 439.62 140.37 439.99 140.86 440.26 C 141.35 440.53 141.95 440.67 142.66 440.67 C 143.37 440.67 143.97 440.53 144.46 440.26 C 144.95 439.99 145.35 439.62 145.66 439.17 C 145.97 438.72 146.19 438.21 146.33 437.64 C 146.47 437.07 146.54 436.49 146.54 435.89 C 146.54 435.29 146.47 434.66 146.33 434.07 C 146.19 433.48 145.97 432.96 145.66 432.5 C 145.35 432.04 144.95 431.67 144.46 431.4 C 143.97 431.13 143.37 430.99 142.66 430.99 C 141.95 430.99 141.35 431.13 140.86 431.4 C 140.37 431.67 139.97 432.04 139.66 432.5 C 139.35 432.96 139.13 433.48 138.99 434.07 C 138.85 434.66 138.78 435.26 138.78 435.89 C 138.78 436.52 138.85 437.07 138.99 437.64 Z" transform="matrix(1, 0, 0, 1, -2.842170943040401e-14, 0)"/>
  <path class="cls-7" d="M 162.32 441.88 C 161.24 442.82 159.75 443.29 157.84 443.29 C 155.93 443.29 154.41 442.82 153.35 441.89 C 152.29 440.96 151.76 439.52 151.76 437.57 L 151.76 428.69 L 154.9 428.69 L 154.9 437.57 C 154.9 437.96 154.93 438.34 155 438.71 C 155.07 439.08 155.21 439.41 155.42 439.7 C 155.63 439.99 155.93 440.22 156.31 440.4 C 156.69 440.58 157.2 440.67 157.84 440.67 C 158.96 440.67 159.73 440.42 160.16 439.92 C 160.59 439.42 160.8 438.64 160.8 437.57 L 160.8 428.69 L 163.94 428.69 L 163.94 437.57 C 163.94 439.5 163.4 440.94 162.32 441.88 Z" transform="matrix(1, 0, 0, 1, -2.842170943040401e-14, 0)"/>
  <path class="cls-7" d="M 174.34 428.69 C 174.98 428.69 175.56 428.79 176.07 429 C 176.58 429.21 177.02 429.49 177.39 429.85 C 177.76 430.21 178.04 430.63 178.23 431.1 C 178.42 431.57 178.52 432.08 178.52 432.63 C 178.52 433.47 178.34 434.2 177.99 434.81 C 177.64 435.42 177.06 435.89 176.26 436.21 L 176.26 436.25 C 176.65 436.36 176.97 436.52 177.22 436.74 C 177.47 436.96 177.68 437.22 177.84 437.52 C 178 437.82 178.12 438.15 178.19 438.51 C 178.26 438.87 178.31 439.23 178.34 439.59 C 178.35 439.82 178.37 440.08 178.38 440.39 C 178.39 440.7 178.42 441.01 178.45 441.33 C 178.48 441.65 178.54 441.95 178.61 442.24 C 178.68 442.53 178.79 442.77 178.94 442.97 L 175.8 442.97 C 175.63 442.52 175.52 441.98 175.48 441.35 C 175.44 440.72 175.38 440.12 175.3 439.55 C 175.19 438.8 174.97 438.26 174.62 437.91 C 174.27 437.56 173.71 437.39 172.92 437.39 L 169.78 437.39 L 169.78 442.97 L 166.64 442.97 L 166.64 428.69 L 174.34 428.69 Z M 173.22 435.15 C 173.94 435.15 174.48 434.99 174.84 434.67 C 175.2 434.35 175.38 433.83 175.38 433.11 C 175.38 432.39 175.2 431.91 174.84 431.6 C 174.48 431.29 173.94 431.13 173.22 431.13 L 169.78 431.13 L 169.78 435.15 L 173.22 435.15 Z" transform="matrix(1, 0, 0, 1, -2.842170943040401e-14, 0)"/>
  <path class="cls-7" d="M 185.52 431.33 L 185.52 428.69 L 197.22 428.69 L 197.22 431.33 L 192.94 431.33 L 192.94 442.97 L 189.8 442.97 L 189.8 431.33 L 185.52 431.33 Z" transform="matrix(1, 0, 0, 1, -2.842170943040401e-14, 0)"/>
  <path class="cls-7" d="M 202 428.69 L 202 442.97 L 198.86 442.97 L 198.86 428.69 L 202 428.69 Z" transform="matrix(1, 0, 0, 1, -2.842170943040401e-14, 0)"/>
  <path class="cls-7" d="M 213.92 432.5 C 213.73 432.2 213.5 431.94 213.22 431.71 C 212.94 431.48 212.62 431.31 212.27 431.18 C 211.92 431.05 211.55 430.99 211.16 430.99 C 210.45 430.99 209.85 431.13 209.36 431.4 C 208.87 431.67 208.47 432.04 208.16 432.5 C 207.85 432.96 207.63 433.48 207.49 434.07 C 207.35 434.66 207.28 435.26 207.28 435.89 C 207.28 436.52 207.35 437.07 207.49 437.64 C 207.63 438.21 207.85 438.72 208.16 439.17 C 208.47 439.62 208.87 439.99 209.36 440.26 C 209.85 440.53 210.45 440.67 211.16 440.67 C 212.12 440.67 212.87 440.38 213.41 439.79 C 213.95 439.2 214.28 438.43 214.4 437.47 L 217.44 437.47 C 217.36 438.36 217.15 439.17 216.82 439.89 C 216.49 440.61 216.05 441.22 215.5 441.73 C 214.95 442.24 214.31 442.62 213.58 442.89 C 212.85 443.16 212.04 443.29 211.16 443.29 C 210.07 443.29 209.08 443.1 208.21 442.72 C 207.34 442.34 206.6 441.82 206 441.15 C 205.4 440.48 204.94 439.7 204.62 438.8 C 204.3 437.9 204.14 436.93 204.14 435.89 C 204.14 434.85 204.3 433.83 204.62 432.92 C 204.94 432.01 205.4 431.21 206 430.53 C 206.6 429.85 207.34 429.32 208.21 428.93 C 209.08 428.54 210.07 428.35 211.16 428.35 C 211.95 428.35 212.69 428.46 213.39 428.69 C 214.09 428.92 214.72 429.25 215.27 429.68 C 215.82 430.11 216.28 430.65 216.64 431.29 C 217 431.93 217.23 432.66 217.32 433.49 L 214.28 433.49 C 214.23 433.13 214.11 432.8 213.92 432.5 Z" transform="matrix(1, 0, 0, 1, -2.842170943040401e-14, 0)"/>
  <path class="cls-7" d="M 222.72 428.69 L 222.72 434.61 L 228.3 428.69 L 232.22 428.69 L 226.64 434.33 L 232.76 442.97 L 228.82 442.97 L 224.52 436.55 L 222.72 438.37 L 222.72 442.97 L 219.58 442.97 L 219.58 428.69 L 222.72 428.69 Z" transform="matrix(1, 0, 0, 1, -2.842170943040401e-14, 0)"/>
  <path class="cls-7" d="M 244.7 428.69 L 244.7 431.33 L 237.16 431.33 L 237.16 434.39 L 244.08 434.39 L 244.08 436.83 L 237.16 436.83 L 237.16 440.33 L 244.86 440.33 L 244.86 442.97 L 234.02 442.97 L 234.02 428.69 L 244.7 428.69 Z" transform="matrix(1, 0, 0, 1, -2.842170943040401e-14, 0)"/>
  <path class="cls-7" d="M 245.86 431.33 L 245.86 428.69 L 257.56 428.69 L 257.56 431.33 L 253.28 431.33 L 253.28 442.97 L 250.14 442.97 L 250.14 431.33 L 245.86 431.33 Z" transform="matrix(1, 0, 0, 1, -2.842170943040401e-14, 0)"/>
</svg>