<svg data-v-423bf9ae="" xmlns="http://www.w3.org/2000/svg" viewBox="0 0 366 90" class="iconLeft"><!----><!----><!----><g data-v-423bf9ae="" id="71a39ace-66f1-4313-be22-5d515e900274" fill="#000000" transform="matrix(4.385964814437848,0,0,4.385964814437848,106.53508828962413,0.39473940989315537)"><path d="M10.42 15.26L10.42 15.26Q10.11 15.57 9.75 15.80Q9.39 16.04 9.01 16.23Q8.63 16.41 8.25 16.53Q7.88 16.66 7.53 16.75L7.53 16.75Q6.71 16.95 5.88 17.01L5.88 17.01Q4.71 16.99 3.77 16.66Q2.82 16.32 2.16 15.70Q1.50 15.08 1.14 14.19Q0.79 13.31 0.79 12.20L0.79 12.20Q0.79 11.29 1.12 10.51Q1.45 9.73 2.01 9.10Q2.57 8.46 3.31 7.97Q4.05 7.48 4.86 7.14Q5.67 6.81 6.51 6.63Q7.35 6.46 8.11 6.46L8.11 6.46Q8.33 6.46 8.60 6.47Q8.86 6.48 9.12 6.51Q9.37 6.54 9.60 6.59Q9.83 6.64 9.98 6.73Q10.14 6.82 10.20 6.94Q10.26 7.07 10.18 7.25L10.18 7.25Q10.08 7.31 9.84 7.46L9.84 7.46Q9.64 7.60 9.27 7.84Q8.89 8.08 8.27 8.48L8.27 8.48Q8.45 8.36 8.53 8.26Q8.61 8.16 8.61 8.06L8.61 8.06Q8.61 7.91 8.48 7.79Q8.35 7.68 8.14 7.59Q7.94 7.51 7.68 7.46Q7.43 7.41 7.20 7.38Q6.97 7.35 6.77 7.34Q6.58 7.33 6.49 7.33L6.49 7.33Q4.50 7.33 3.48 8.35Q2.46 9.37 2.46 11.36L2.46 11.36Q2.46 12.41 2.80 13.24Q3.14 14.07 3.75 14.66Q4.35 15.25 5.17 15.60Q6.00 15.95 6.97 16.04L6.97 16.04Q7.51 16.07 8.09 16.00L8.09 16.00Q8.59 15.93 9.20 15.77Q9.82 15.61 10.42 15.26ZM13.51 15.78L13.51 15.78L11.87 16.96Q11.90 15.18 11.93 13.77Q11.96 12.35 11.97 11.25Q11.99 10.14 12.00 9.33Q12.02 8.52 12.02 7.94L12.02 7.94Q12.04 6.58 12.04 6.03L12.04 6.03Q12.07 5.20 11.81 4.73Q11.55 4.27 11.02 4.27L11.02 4.27Q10.85 4.27 10.66 4.31Q10.48 4.35 10.27 4.46L10.27 4.46Q10.53 4.27 10.83 4.07Q11.12 3.87 11.43 3.71Q11.73 3.54 12.04 3.44Q12.35 3.33 12.66 3.33L12.66 3.33Q12.93 3.33 13.13 3.43Q13.32 3.53 13.44 3.70Q13.57 3.87 13.64 4.08Q13.71 4.30 13.74 4.53Q13.77 4.76 13.77 5.00Q13.78 5.23 13.78 5.43L13.78 5.43Q13.78 5.53 13.78 5.80Q13.77 6.07 13.77 6.47Q13.76 6.88 13.75 7.40Q13.74 7.92 13.73 8.51Q13.71 9.11 13.70 9.76Q13.69 10.41 13.67 11.08L13.67 11.08Q14 10.69 14.44 10.35Q14.89 10.01 15.37 9.77Q15.86 9.53 16.35 9.41Q16.85 9.29 17.29 9.34L17.29 9.34Q17.60 9.39 17.93 9.52Q18.26 9.65 18.54 9.91Q18.81 10.18 18.98 10.61Q19.15 11.05 19.14 11.70L19.14 11.70Q19.12 12.46 19.08 13.10Q19.03 13.74 19.03 14.23L19.03 14.23Q19.03 14.53 19.08 14.79Q19.13 15.05 19.24 15.25Q19.36 15.44 19.56 15.56Q19.77 15.67 20.08 15.67L20.08 15.67Q20.36 15.67 20.66 15.57Q20.96 15.46 21.27 15.24L21.27 15.24Q20.77 15.69 20.35 15.99Q19.94 16.29 19.59 16.47Q19.24 16.66 18.93 16.74Q18.61 16.82 18.33 16.81L18.33 16.81Q18.04 16.80 17.84 16.70Q17.64 16.59 17.51 16.37Q17.39 16.15 17.34 15.79Q17.29 15.44 17.31 14.93L17.31 14.93Q17.33 14.48 17.36 13.94Q17.39 13.39 17.39 12.86L17.39 12.86Q17.39 12.25 17.31 11.81Q17.23 11.38 17.02 11.09Q16.80 10.81 16.42 10.67Q16.04 10.53 15.44 10.53L15.44 10.53Q15.13 10.53 14.88 10.59Q14.62 10.64 14.46 10.75L14.46 10.75Q14.34 10.83 14.20 11.15Q14.05 11.47 13.92 12.08Q13.78 12.68 13.67 13.59Q13.56 14.51 13.51 15.78ZM31.08 15.49L31.08 15.49Q30.80 15.78 30.46 16.01Q30.13 16.25 29.80 16.42Q29.46 16.59 29.15 16.69Q28.83 16.80 28.57 16.81L28.57 16.81Q28.43 16.82 28.21 16.81Q27.98 16.79 27.77 16.69Q27.56 16.58 27.41 16.37Q27.26 16.15 27.26 15.74L27.26 15.74L27.26 14.93Q26.89 15.30 26.47 15.64Q26.05 15.98 25.61 16.24Q25.17 16.50 24.72 16.66Q24.27 16.81 23.83 16.81L23.83 16.81Q23.27 16.81 22.85 16.56Q22.42 16.31 22.13 15.91Q21.85 15.52 21.70 15.03Q21.56 14.53 21.56 14.05L21.56 14.05Q21.56 13.69 21.62 13.33Q21.67 12.98 21.76 12.67Q21.84 12.35 21.95 12.10Q22.07 11.85 22.19 11.68L22.19 11.68Q22.42 11.38 22.76 11.09Q23.11 10.80 23.53 10.55Q23.94 10.29 24.40 10.09Q24.87 9.88 25.33 9.73Q25.79 9.58 26.23 9.50Q26.67 9.42 27.04 9.42L27.04 9.42Q27.42 9.42 27.94 9.46Q28.46 9.50 29.12 9.61L29.12 9.61Q29.09 10.40 29.07 11.00Q29.05 11.60 29.04 12.08Q29.03 12.55 29.02 12.94Q29.01 13.33 29.01 13.70L29.01 13.70Q29.01 14.08 29.00 14.44Q28.98 14.80 29.05 15.09Q29.12 15.37 29.32 15.55Q29.52 15.73 29.95 15.73L29.95 15.73Q30.20 15.73 30.49 15.66Q30.78 15.60 31.08 15.49ZM27.28 10.60L27.28 10.60Q26.87 10.49 26.40 10.44Q25.94 10.40 25.51 10.40L25.51 10.40Q25.28 10.40 25.07 10.41Q24.86 10.42 24.69 10.45Q24.52 10.47 24.39 10.50Q24.26 10.53 24.19 10.57L24.19 10.57Q24.07 10.63 23.91 10.87Q23.74 11.10 23.59 11.45Q23.44 11.80 23.33 12.24Q23.23 12.67 23.23 13.14L23.23 13.14Q23.23 13.58 23.36 14.03Q23.49 14.48 23.74 14.83Q23.99 15.19 24.35 15.41Q24.72 15.63 25.19 15.63L25.19 15.63Q25.63 15.63 25.98 15.49Q26.32 15.35 26.57 15.10Q26.82 14.85 26.99 14.51Q27.16 14.18 27.26 13.79L27.26 13.79Q27.26 13.50 27.26 13.18Q27.26 12.85 27.26 12.46Q27.26 12.07 27.27 11.61Q27.27 11.15 27.28 10.60ZM37.93 9.04L37.93 9.04Q37.48 9.35 37.02 9.57Q36.57 9.79 36.09 9.93Q35.61 10.08 35.12 10.15Q34.63 10.23 34.13 10.27L34.13 10.27Q34.13 10.82 34.13 11.39Q34.13 11.96 34.12 12.49Q34.12 13.03 34.12 13.51Q34.12 13.99 34.12 14.36Q34.12 14.74 34.12 14.99Q34.12 15.24 34.12 15.33L34.12 15.33Q34.12 15.65 34.25 15.75Q34.38 15.85 34.64 15.85L34.64 15.85Q35.06 15.85 35.46 15.74Q35.85 15.63 36.22 15.49L36.22 15.49Q35.92 15.78 35.56 16.04Q35.20 16.31 34.82 16.51Q34.43 16.71 34.03 16.83Q33.63 16.95 33.24 16.95L33.24 16.95Q32.81 16.95 32.59 16.75Q32.37 16.55 32.37 16.28L32.37 16.28L32.37 10.32Q32.05 10.32 31.71 10.31Q31.36 10.29 30.96 10.27L30.96 10.27Q31.16 10.15 31.33 10.04Q31.49 9.92 31.62 9.82L31.62 9.82Q31.76 9.71 31.88 9.61L31.88 9.61Q31.96 9.53 32.05 9.41L32.05 9.41Q32.13 9.30 32.22 9.15Q32.31 8.99 32.40 8.77L32.40 8.77Q32.44 8.13 32.55 7.53Q32.66 6.92 32.87 6.39L32.87 6.39Q33.06 5.92 33.38 5.51Q33.70 5.11 34.12 4.78Q34.54 4.45 35.02 4.20Q35.51 3.94 36.02 3.77Q36.52 3.60 37.03 3.51Q37.54 3.42 38.00 3.42L38.00 3.42Q38.28 3.42 38.54 3.45Q38.79 3.47 39.01 3.51Q39.22 3.55 39.38 3.61Q39.55 3.66 39.65 3.71L39.65 3.71Q39.89 3.84 39.89 4.00L39.89 4.00Q39.89 4.12 39.79 4.25Q39.68 4.38 39.52 4.52Q39.36 4.65 39.16 4.78Q38.96 4.91 38.78 5.02Q38.60 5.13 38.45 5.21Q38.29 5.28 38.22 5.32L38.22 5.32Q38.31 5.24 38.34 5.17Q38.38 5.10 38.38 5.04L38.38 5.04Q38.38 4.83 38.21 4.68Q38.04 4.54 37.75 4.45Q37.47 4.36 37.10 4.33Q36.74 4.29 36.35 4.29L36.35 4.29Q36.01 4.29 35.73 4.33Q35.45 4.36 35.33 4.45L35.33 4.45Q35.17 4.55 34.99 4.79Q34.81 5.02 34.65 5.35Q34.49 5.69 34.37 6.10Q34.25 6.52 34.22 6.99L34.22 6.99Q34.20 7.28 34.18 7.87Q34.17 8.46 34.15 9.24L34.15 9.24Q34.38 9.25 34.60 9.25Q34.82 9.25 35.03 9.25L35.03 9.25Q35.68 9.25 36.21 9.22Q36.74 9.19 37.13 9.15L37.13 9.15Q37.57 9.10 37.93 9.04ZM44.80 9.04L44.80 9.04Q44.36 9.35 43.90 9.57Q43.44 9.79 42.96 9.93Q42.49 10.08 42.00 10.15Q41.51 10.23 41.01 10.27L41.01 10.27Q41.00 10.82 41.00 11.39Q41.00 11.96 41.00 12.49Q41.00 13.03 41.00 13.51Q41.00 13.99 41.00 14.36Q41.00 14.74 41.00 14.99Q41.00 15.24 41.00 15.33L41.00 15.33Q41.00 15.65 41.13 15.75Q41.26 15.85 41.51 15.85L41.51 15.85Q41.94 15.85 42.33 15.74Q42.73 15.63 43.10 15.49L43.10 15.49Q42.79 15.78 42.43 16.04Q42.08 16.31 41.69 16.51Q41.31 16.71 40.91 16.83Q40.51 16.95 40.11 16.95L40.11 16.95Q39.68 16.95 39.46 16.75Q39.25 16.55 39.25 16.28L39.25 16.28L39.25 10.32Q38.93 10.32 38.58 10.31Q38.23 10.29 37.84 10.27L37.84 10.27Q38.04 10.15 38.20 10.04Q38.37 9.92 38.49 9.82L38.49 9.82Q38.64 9.71 38.76 9.61L38.76 9.61Q38.84 9.53 38.93 9.41L38.93 9.41Q39.01 9.30 39.09 9.15Q39.18 8.99 39.28 8.77L39.28 8.77Q39.32 8.13 39.43 7.53Q39.54 6.92 39.75 6.39L39.75 6.39Q39.94 5.92 40.26 5.51Q40.58 5.11 41.00 4.78Q41.41 4.45 41.90 4.20Q42.38 3.94 42.89 3.77Q43.40 3.60 43.91 3.51Q44.42 3.42 44.88 3.42L44.88 3.42Q45.16 3.42 45.41 3.45Q45.67 3.47 45.88 3.51Q46.09 3.55 46.26 3.61Q46.42 3.66 46.53 3.71L46.53 3.71Q46.76 3.84 46.76 4.00L46.76 4.00Q46.76 4.12 46.66 4.25Q46.56 4.38 46.40 4.52Q46.24 4.65 46.04 4.78Q45.84 4.91 45.66 5.02Q45.47 5.13 45.32 5.21Q45.17 5.28 45.10 5.32L45.10 5.32Q45.19 5.24 45.22 5.17Q45.25 5.10 45.25 5.04L45.25 5.04Q45.25 4.83 45.08 4.68Q44.91 4.54 44.63 4.45Q44.34 4.36 43.98 4.33Q43.61 4.29 43.22 4.29L43.22 4.29Q42.89 4.29 42.61 4.33Q42.33 4.36 42.21 4.45L42.21 4.45Q42.05 4.55 41.87 4.79Q41.69 5.02 41.52 5.35Q41.36 5.69 41.24 6.10Q41.13 6.52 41.10 6.99L41.10 6.99Q41.08 7.28 41.06 7.87Q41.04 8.46 41.03 9.24L41.03 9.24Q41.26 9.25 41.48 9.25Q41.70 9.25 41.91 9.25L41.91 9.25Q42.56 9.25 43.09 9.22Q43.62 9.19 44.00 9.15L44.00 9.15Q44.45 9.10 44.80 9.04ZM50.33 15.29L50.33 15.29Q49.64 15.76 49.18 16.06Q48.71 16.37 48.37 16.55Q48.02 16.73 47.75 16.80Q47.47 16.86 47.16 16.86L47.16 16.86Q46.89 16.86 46.65 16.74Q46.40 16.61 46.20 16.27Q46.01 15.93 45.89 15.34Q45.77 14.75 45.77 13.82L45.77 13.82Q45.77 12.89 45.79 11.88Q45.81 10.87 45.84 9.85Q45.86 8.83 45.88 7.85Q45.90 6.88 45.90 6.03L45.90 6.03Q45.90 5.20 45.65 4.73Q45.40 4.27 44.88 4.27L44.88 4.27Q44.72 4.27 44.53 4.31Q44.34 4.35 44.13 4.46L44.13 4.46Q44.39 4.27 44.69 4.07Q44.98 3.87 45.28 3.71Q45.59 3.54 45.90 3.44Q46.21 3.33 46.52 3.33L46.52 3.33Q46.91 3.33 47.13 3.52Q47.35 3.72 47.46 4.01Q47.56 4.29 47.59 4.63Q47.61 4.97 47.61 5.26L47.61 5.26Q47.61 5.69 47.60 6.31Q47.58 6.92 47.57 7.63Q47.56 8.34 47.54 9.10Q47.53 9.86 47.52 10.59Q47.50 11.31 47.49 11.97Q47.48 12.63 47.47 13.13L47.47 13.13Q47.46 13.79 47.56 14.28Q47.67 14.77 47.88 15.09Q48.08 15.40 48.37 15.55Q48.66 15.70 49.01 15.70L49.01 15.70Q49.64 15.70 50.33 15.29ZM54.08 11.66L59.09 10.02Q58.30 10.40 57.63 10.70Q56.96 11.00 56.44 11.20L56.44 11.20Q55.85 11.44 55.35 11.63L55.35 11.63Q55.04 11.76 54.67 11.89Q54.30 12.02 53.89 12.15Q53.49 12.28 53.07 12.40Q52.65 12.53 52.24 12.65L52.24 12.65L52.24 12.79Q52.24 13.49 52.46 14.05Q52.68 14.62 53.08 15.01Q53.48 15.40 54.03 15.61Q54.58 15.82 55.25 15.82L55.25 15.82Q55.60 15.82 55.95 15.76Q56.29 15.71 56.60 15.62Q56.92 15.52 57.19 15.39Q57.46 15.26 57.67 15.11L57.67 15.11Q57.16 15.58 56.60 15.89Q56.05 16.21 55.50 16.40Q54.95 16.60 54.42 16.69Q53.88 16.78 53.39 16.78L53.39 16.78Q52.89 16.80 52.41 16.63Q51.93 16.46 51.53 16.12Q51.13 15.78 50.86 15.27Q50.59 14.76 50.50 14.08L50.50 14.08Q50.47 13.84 50.47 13.62Q50.48 13.40 50.52 13.18L50.52 13.18Q50.28 13.27 50.08 13.34Q49.89 13.42 49.77 13.49L49.77 13.49Q49.96 13.36 50.16 13.24Q50.36 13.12 50.55 13.02L50.55 13.02Q50.67 12.48 50.95 12.00Q51.24 11.51 51.64 11.09Q52.04 10.68 52.53 10.34Q53.02 10.00 53.55 9.76Q54.08 9.52 54.63 9.39Q55.17 9.26 55.69 9.26L55.69 9.26Q56.03 9.26 56.26 9.37Q56.50 9.47 56.58 9.73L56.58 9.73Q56.62 10.00 56.38 10.32L56.38 10.32Q56.28 10.45 56.11 10.61Q55.93 10.76 55.65 10.93Q55.38 11.10 54.99 11.29Q54.61 11.47 54.08 11.66L54.08 11.66ZM53.67 11.68L53.67 11.68Q53.96 11.55 54.20 11.40Q54.43 11.25 54.57 11.09Q54.70 10.92 54.71 10.75Q54.71 10.57 54.56 10.37L54.56 10.37Q54.46 10.22 54.28 10.16Q54.10 10.10 53.91 10.10L53.91 10.10Q53.73 10.10 53.57 10.14Q53.40 10.18 53.28 10.24L53.28 10.24Q53.20 10.29 53.05 10.45Q52.91 10.61 52.76 10.87Q52.61 11.12 52.48 11.46Q52.34 11.80 52.28 12.20L52.28 12.20Q52.71 12.04 53.06 11.92Q53.41 11.80 53.67 11.68Z"></path></g><defs data-v-423bf9ae=""><linearGradient data-v-423bf9ae="" gradientTransform="rotate(25)" id="15542b51-9ef9-4608-986b-825cafa84bac" x1="0%" y1="0%" x2="100%" y2="0%"><stop data-v-423bf9ae="" offset="0%" style="stop-color: rgb(1, 100, 139); stop-opacity: 1;"></stop><stop data-v-423bf9ae="" offset="100%" style="stop-color: rgb(91, 208, 164); stop-opacity: 1;"></stop></linearGradient></defs><g data-v-423bf9ae="" id="1829f24d-60f1-4380-8694-0ccb2e5cd647" transform="matrix(2.8125,0,0,2.8125,0,0)" stroke="none" fill="url(#15542b51-9ef9-4608-986b-825cafa84bac)"><path d="M9.571 20.464l8.064 4.47 8.065-4.47v-8.939l-8.065-4.469-8.064 4.469z"></path><path d="M32 0H0v32h32l-5.054-5.172H5.054V5.172h21.892z"></path></g><!----></svg>