<?xml version="1.0" encoding="UTF-8"?><svg id="Layer_1" xmlns="http://www.w3.org/2000/svg" viewBox="0 0 301.52 191.29"><defs><style>.cls-1{stroke:#00293b;stroke-width:.81px;}.cls-1,.cls-2{stroke-miterlimit:10;}.cls-1,.cls-3{fill:#00293b;}.cls-2{opacity:.73;stroke:#00223a;stroke-width:1.07px;}.cls-2,.cls-4{fill:#00223a;}.cls-5{opacity:.76;}.cls-6{fill:#152941;}.cls-6,.cls-7,.cls-8,.cls-4,.cls-3{stroke-width:0px;}.cls-7{fill:#a7d7f2;}.cls-8{fill:#80c8ef;}</style></defs><g class="cls-5"><path class="cls-6" d="m64.74,43.39c-.52-.86-.29-2.04.59-2.78l.17-.14c.68-.57,1.58-.67,2.32-.35,1.14.5,2.63.29,3.75-.65,1.13-.94,1.58-2.34,1.27-3.52-.21-.8.17-1.72.89-2.31l.34-.28c.68-.57,1.58-.67,2.32-.35,1.14.5,2.63.29,3.75-.65,1.13-.94,1.58-2.34,1.27-3.52-.21-.8.17-1.72.89-2.31l.34-.28c.68-.57,1.58-.67,2.32-.35,1.14.5,2.63.29,3.75-.65,1.13-.94,1.58-2.34,1.27-3.52-.21-.8.17-1.72.89-2.31l.34-.28c.68-.57,1.58-.67,2.32-.35,1.14.5,2.63.29,3.75-.65,1.13-.94,1.58-2.34,1.27-3.52-.21-.8.17-1.72.89-2.31l.34-.28c.68-.57,1.58-.67,2.32-.35,1.14.5,2.63.29,3.75-.65s1.58-2.34,1.27-3.52c-.21-.8.17-1.72.89-2.31l.07-.06c.86-.71,2.03-.75,2.78-.12,4.47,3.73,11.66,3.47,16.87-.87l.02.03,32.85,39.11.08-.07,34.79,41.66,30.85,36.95.14.16c-5.19,4.32-6.63,11.19-3.64,16.11.52.86.29,2.04-.59,2.78l-.17.14c-.68.57-1.58.67-2.32.35-1.14-.5-2.63-.29-3.75.65-1.13.94-1.58,2.34-1.27,3.52.21.8-.17,1.72-.89,2.31l-.34.28c-.68.57-1.58.67-2.32.35-1.14-.5-2.63-.29-3.75.65-1.13.94-1.58,2.34-1.27,3.52.21.8-.17,1.72-.89,2.31l-.34.28c-.68.57-1.58.67-2.32.35-1.14-.5-2.63-.29-3.75.65s-1.58,2.34-1.27,3.52c.21.8-.17,1.72-.89,2.31l-.34.28c-.68.57-1.58.67-2.32.35-1.14-.5-2.63-.29-3.75.65-1.13.94-1.58,2.34-1.27,3.52.21.8-.17,1.72-.89,2.31l-.34.28c-.68.57-1.58.67-2.32.35-1.14-.5-2.63-.29-3.75.65-1.13.94-1.58,2.34-1.27,3.52.21.8-.17,1.72-.89,2.31l-.07.06c-.86.71-2.03.75-2.78.12-4.47-3.73-11.66-3.47-16.87.87l-.02-.03-24.54-29.38-.08.07-34.79-41.66-39.17-46.67-.14-.16c5.19-4.32,6.63-11.19,3.64-16.11Z"/><path class="cls-6" d="m65.89,42.72c-.24-.5.12-1.08.59-1.31.66-.32,1.46.2,2.16.27,1.59.16,3.22-.5,4.3-1.68s1.42-2.55,1.26-4.08c-.07-.68.12-1.17.72-1.55.65-.42,1.25.03,1.93.14,3.1.54,6.28-2.15,5.95-5.36-.08-.76-.17-1.24.51-1.77.64-.49,1.04-.23,1.75-.06,1.55.39,3.2-.05,4.43-1.05,1.16-.94,1.92-2.39,1.89-3.9-.02-.84-.34-1.38.4-2.03.51-.45.89-.43,1.52-.23,3.03.97,6.45-1.3,6.64-4.51.04-.72-.34-1.47.12-2.1.36-.49.9-.74,1.48-.62,1.62.35,2.96.53,4.46-.39,1.31-.8,2.25-2.14,2.45-3.67.11-.88-.42-3.32,1.3-2.91.67.16,1.44,1.03,2.07,1.37.69.38,1.43.7,2.18.95,1.52.51,3.18.73,4.79.68,3.65-.12,7.02-1.57,9.83-3.85h-1.88c3.66,4.38,7.34,8.73,11.01,13.1l17.75,21.13c1.37,1.64,2.75,3.27,4.12,4.91.49.59,1.37.43,1.88,0l.08-.07h-1.88c3.58,4.29,7.16,8.58,10.74,12.87,6.06,7.26,12.12,14.52,18.18,21.77,2.37,2.84,4.74,5.68,7.11,8.51l15.94,19.09,8.76,10.49c1.56,1.87,3.04,3.91,4.73,5.66.11.12.21.25.32.38v-1.88c-2.82,2.4-4.86,5.72-5.41,9.41-.25,1.71-.2,3.45.23,5.13.2.8.5,1.57.86,2.31s.94,1.48,0,2.1c-.7.47-1.53-.12-2.28-.19-.96-.1-1.92.1-2.79.54-1.67.84-2.88,2.63-2.84,4.53.02.87.35,1.47-.48,2.11-.78.59-1.4.09-2.27-.03-1.96-.27-3.96.71-5.03,2.37-.44.69-.72,1.51-.77,2.33-.05.97.43,1.74-.49,2.45-.73.56-1.28.13-2.09,0-.96-.17-1.92-.04-2.81.34-1.73.74-3.07,2.43-3.16,4.34-.05.97.41,1.69-.45,2.41-.73.61-1.31.17-2.14.03-1.89-.33-3.84.51-4.98,2.04-.54.73-.88,1.56-.97,2.47-.09.99.41,1.84-.47,2.58-.69.58-1.19.21-1.97.05-.94-.2-1.93-.1-2.82.25-1.72.67-3.04,2.23-3.28,4.07-.12.91.45,2.14-.49,2.75-.84.55-1.49-.33-2.16-.77-1.67-1.11-3.62-1.73-5.6-1.97-4.34-.52-8.58,1.04-11.93,3.76h1.88c-7.16-8.57-14.32-17.15-21.48-25.72-1.03-1.23-2.06-2.46-3.08-3.69-.49-.59-1.37-.43-1.88,0l-.08.07h1.88c-4.34-5.2-8.69-10.41-13.03-15.61l-19.12-22.89c-2.49-2.98-4.99-5.96-7.49-8.94-6.66-7.93-13.32-15.87-19.97-23.8-4.72-5.62-9.42-11.26-14.15-16.86-.11-.13-.22-.26-.33-.39v1.88c5.06-4.31,7.36-11.73,3.85-17.72-.87-1.48-3.17-.14-2.3,1.35,2.93,5.01.71,10.95-3.44,14.49-.57.49-.44,1.38,0,1.88,4.06,4.69,7.98,9.51,11.97,14.26l20.54,24.48c2.71,3.23,5.43,6.46,8.14,9.7l17.81,21.33c5.11,6.12,10.07,12.43,15.36,18.4.09.11.18.22.27.33.49.59,1.37.43,1.88,0l.08-.07h-1.88c7.19,8.61,14.37,17.21,21.56,25.82,1,1.2,2,2.39,3,3.59.49.59,1.37.42,1.88,0,2.94-2.39,6.95-3.66,10.71-2.85,1.85.39,3.13,1.3,4.68,2.29,1.37.87,3.16.59,4.34-.48.68-.62,1.18-1.45,1.29-2.37.12-.97-.34-1.8.2-2.72.49-.82,1.49-1.39,2.46-1.26s1.69.57,2.71.33c1.49-.36,2.88-1.79,3.16-3.29.16-.87-.27-1.72.06-2.56.4-1,1.53-1.74,2.62-1.59.85.12,1.47.5,2.37.38.84-.12,1.52-.53,2.15-1.08s1.12-1.26,1.32-2.09c.23-.93-.26-1.85.1-2.74s1.3-1.58,2.28-1.6,1.71.53,2.71.39c1.59-.22,3.09-1.61,3.47-3.16.21-.88-.22-1.72.03-2.57.29-.99,1.32-1.76,2.35-1.77.88-.01,1.62.49,2.53.41s1.58-.47,2.24-1.03c.62-.52,1.13-1.19,1.36-1.98.27-.93-.19-1.84.07-2.75s1.1-1.58,1.99-1.74c.93-.17,1.77.44,2.71.4,1.89-.07,3.62-1.77,3.67-3.67.03-1.03-.5-1.76-.92-2.65s-.68-1.82-.81-2.77c-.55-4.21,1.59-8.19,4.72-10.85.57-.49.44-1.38,0-1.88-3.9-4.49-7.63-9.14-11.45-13.7-5.7-6.82-11.4-13.65-17.1-20.47-2.19-2.62-4.38-5.25-6.57-7.87-5.88-7.04-11.75-14.08-17.63-21.11l-8.36-10.01c-1.48-1.78-2.91-3.63-4.46-5.34-.07-.08-.14-.17-.21-.26-.49-.59-1.37-.43-1.88,0l-.08.07h1.88c-3.71-4.42-7.42-8.84-11.13-13.25-5.9-7.03-11.8-14.05-17.71-21.08-1.35-1.6-2.69-3.2-4.04-4.8-.49-.59-1.37-.42-1.88,0-2.58,2.09-5.85,3.25-9.18,3.06-1.47-.09-2.94-.48-4.25-1.17s-2.28-1.89-3.86-1.85c-1.4.03-2.73.95-3.37,2.18-.75,1.46.27,3.16-.94,4.39-1.41,1.44-2.83.17-4.46.4-1.35.19-2.65,1.25-3.23,2.48-.7,1.5.37,3.17-1.04,4.38s-2.85-.04-4.46.28c-1.33.26-2.61,1.36-3.12,2.62-.62,1.54.47,3.2-1.14,4.37-1.46,1.06-2.88-.23-4.47.15-1.25.3-2.47,1.41-2.95,2.59-.66,1.62.52,3.33-1.3,4.47-1.46.91-2.91-.35-4.47.1-1.48.42-2.82,1.89-3.02,3.42-.11.82.28,1.59-.04,2.39-.36.9-1.3,1.58-2.28,1.6-.87.02-1.62-.49-2.53-.41-.82.07-1.55.42-2.16.96-1.33,1.17-1.66,2.88-.88,4.46s3.06.19,2.3-1.35Z"/></g><path class="cls-8" d="m66.05,39.77c-.52-.86-.29-2.04.59-2.78l.17-.14c.68-.57,1.58-.67,2.32-.35,1.14.5,2.63.29,3.75-.65,1.13-.94,1.58-2.34,1.27-3.52-.21-.8.17-1.72.89-2.31l.34-.28c.68-.57,1.58-.67,2.32-.35,1.14.5,2.63.29,3.75-.65,1.13-.94,1.58-2.34,1.27-3.52-.21-.8.17-1.72.89-2.31l.34-.28c.68-.57,1.58-.67,2.32-.35,1.14.5,2.63.29,3.75-.65,1.13-.94,1.58-2.34,1.27-3.52-.21-.8.17-1.72.89-2.31l.34-.28c.68-.57,1.58-.67,2.32-.35,1.14.5,2.63.29,3.75-.65,1.13-.94,1.58-2.34,1.27-3.52-.21-.8.17-1.72.89-2.31l.34-.28c.68-.57,1.58-.67,2.32-.35,1.14.5,2.63.29,3.75-.65s1.58-2.34,1.27-3.52c-.21-.8.17-1.72.89-2.31l.07-.06c.86-.71,2.03-.75,2.78-.12,4.47,3.73,11.66,3.47,16.87-.87l.02.03,32.85,39.11.08-.07,34.79,41.66,30.85,36.95.14.16c-5.19,4.32-6.63,11.19-3.64,16.11.52.86.29,2.04-.59,2.78l-.17.14c-.68.57-1.58.67-2.32.35-1.14-.5-2.63-.29-3.75.65-1.13.94-1.58,2.34-1.27,3.52.21.8-.17,1.72-.89,2.31l-.34.28c-.68.57-1.58.67-2.32.35-1.14-.5-2.63-.29-3.75.65-1.13.94-1.58,2.34-1.27,3.52.21.8-.17,1.72-.89,2.31l-.34.28c-.68.57-1.58.67-2.32.35-1.14-.5-2.63-.29-3.75.65s-1.58,2.34-1.27,3.52c.21.8-.17,1.72-.89,2.31l-.34.28c-.68.57-1.58.67-2.32.35-1.14-.5-2.63-.29-3.75.65-1.13.94-1.58,2.34-1.27,3.52.21.8-.17,1.72-.89,2.31l-.34.28c-.68.57-1.58.67-2.32.35-1.14-.5-2.63-.29-3.75.65-1.13.94-1.58,2.34-1.27,3.52.21.8-.17,1.72-.89,2.31l-.07.06c-.86.71-2.03.75-2.78.12-4.47-3.73-11.66-3.47-16.87.87l-.02-.03-24.54-29.38-.08.07-34.79-41.66-39.17-46.67-.14-.16c5.19-4.32,6.63-11.19,3.64-16.11Z"/><path class="cls-6" d="m66.48,39.52c-.46-.93.03-1.95.89-2.44.92-.53,1.76.09,2.69.17,1.34.13,2.7-.45,3.6-1.45s1.13-2.03,1.04-3.28c-.07-.98.1-1.75.94-2.35.97-.71,1.71-.23,2.74-.07,2.68.42,5.1-1.9,4.9-4.56-.07-.97-.05-1.67.76-2.35.86-.72,1.58-.51,2.56-.27,1.3.33,2.69-.06,3.71-.9.96-.79,1.59-2,1.56-3.26-.03-1.04-.23-1.79.64-2.62.69-.65,1.44-.72,2.32-.44,2.51.8,5.42-1.02,5.59-3.72.06-.97-.36-1.82.36-2.69.57-.68,1.4-1.04,2.28-.83,1.39.34,2.53.48,3.82-.31,1.06-.65,1.85-1.72,2.04-2.95.12-.74-.23-1.57-.03-2.27.28-.99,1.39-1.66,2.36-1.41.79.21,1.55,1.02,2.28,1.43.63.35,1.3.64,1.98.87,1.46.49,3.03.7,4.57.65,3.42-.11,6.61-1.47,9.25-3.61h-.72c3.66,4.38,7.34,8.73,11.01,13.1,5.92,7.04,11.83,14.09,17.75,21.13,1.37,1.64,2.75,3.27,4.12,4.91.19.22.52.16.72,0l.08-.07h-.72c3.58,4.29,7.16,8.58,10.74,12.87,6.06,7.26,12.12,14.52,18.18,21.77,2.37,2.84,4.74,5.68,7.11,8.51,5.31,6.36,10.62,12.73,15.94,19.09,2.92,3.5,5.84,6.99,8.76,10.49l3.07,3.67c.54.65,1.05,1.41,1.66,1.99.11.11.22.26.32.38v-.72c-2.71,2.32-4.69,5.48-5.2,9.05-.22,1.56-.16,3.16.23,4.69.18.73.45,1.44.77,2.11.53,1.1,1.08,2.18-.12,3.1-1.04.81-1.88.14-2.97.03-.78-.07-1.56.09-2.26.44-1.43.7-2.47,2.2-2.43,3.82.02,1.08.25,1.87-.73,2.69-1.08.91-1.89.31-3.07.18-1.6-.18-3.23.65-4.1,1.99-.37.57-.61,1.24-.65,1.92-.07,1.19.36,2.11-.73,3.03-.98.83-1.8.37-2.9.2-.77-.12-1.55-.01-2.27.3-1.43.62-2.55,2-2.65,3.59-.08,1.2.34,2.03-.69,2.99-.96.9-1.84.41-2.94.24-1.53-.24-3.1.45-4.05,1.66-.47.6-.77,1.29-.85,2.05-.04.34,0,.65.02.98.06.95-.02,1.51-.73,2.18-.91.85-1.73.48-2.77.26-.79-.17-1.63-.05-2.38.25-1.36.55-2.44,1.81-2.67,3.27-.19,1.22.43,2.38-.73,3.33s-2.16.02-3.16-.64c-1.55-1.02-3.34-1.63-5.18-1.86-4.11-.51-8.17.94-11.34,3.52h.72c-7.16-8.57-14.32-17.15-21.48-25.72-1.03-1.23-2.06-2.46-3.08-3.69-.19-.22-.52-.16-.72,0l-.08.07h.72c-4.34-5.2-8.69-10.41-13.03-15.61-6.37-7.63-12.74-15.26-19.12-22.89-2.49-2.98-4.99-5.96-7.49-8.94-6.66-7.93-13.32-15.87-19.97-23.8-4.72-5.62-9.42-11.26-14.15-16.86-.11-.13-.22-.26-.33-.39v.72c4.78-4.07,7.05-11.03,3.72-16.72-.33-.56-1.2-.05-.87.51,3.11,5.32.86,11.71-3.57,15.49-.22.19-.17.52,0,.72,4.06,4.69,7.98,9.51,11.97,14.26l20.54,24.48c2.71,3.23,5.43,6.46,8.14,9.7,5.94,7.11,11.87,14.22,17.81,21.33,5.12,6.13,10.1,12.39,15.36,18.4.09.11.18.22.27.33.19.22.52.16.72,0l.08-.07h-.72c7.19,8.61,14.37,17.21,21.56,25.82,1,1.2,2,2.39,3,3.59.19.22.52.16.72,0,3.19-2.58,7.44-3.93,11.51-3.06,1.91.41,3.26,1.35,4.87,2.37,1.07.67,2.4.47,3.33-.35.55-.49.97-1.15,1.07-1.9.14-1.11-.34-1.94.3-3.03s2.07-1.88,3.39-1.64c.8.15,1.43.52,2.27.33,1.21-.27,2.4-1.49,2.59-2.72.14-.93-.26-1.73.1-2.66.54-1.38,2.12-2.34,3.6-2.07.67.12,1.22.45,1.93.38s1.26-.41,1.78-.86.95-1.03,1.11-1.72c.22-.97-.24-1.86.14-2.84.47-1.21,1.73-2.09,3.04-2.11.87-.01,1.61.51,2.49.42,1.3-.13,2.6-1.32,2.89-2.59.2-.87-.23-1.69.03-2.57.4-1.34,1.75-2.35,3.15-2.38.85-.01,1.57.49,2.42.43.69-.05,1.25-.37,1.77-.81s.96-.96,1.15-1.61c.27-.93-.2-1.82.07-2.75.34-1.16,1.4-2.06,2.57-2.31,1.07-.23,1.9.43,2.93.37,1.44-.07,2.8-1.39,2.85-2.85.03-.87-.45-1.48-.81-2.23-.48-1-.79-2.09-.92-3.18-.53-4.42,1.66-8.62,4.96-11.44.22-.19.17-.52,0-.72-3.9-4.49-7.63-9.14-11.45-13.7l-17.1-20.47c-2.19-2.62-4.38-5.25-6.57-7.87-5.88-7.04-11.75-14.08-17.63-21.11l-8.36-10.01c-1.48-1.77-2.89-3.65-4.46-5.34-.08-.08-.14-.17-.21-.26-.19-.22-.52-.16-.72,0l-.08.07h.72c-3.71-4.42-7.42-8.84-11.13-13.25-5.9-7.03-11.8-14.05-17.71-21.08-1.35-1.6-2.69-3.2-4.04-4.8-.19-.22-.52-.16-.72,0-2.75,2.23-6.21,3.51-9.76,3.3-1.62-.1-3.23-.52-4.66-1.28-1.14-.61-2.07-1.77-3.44-1.74-1.12.03-2.15.79-2.65,1.77-.23.46-.31.94-.28,1.45.08,1.21.14,2.17-.79,3.11-.78.79-1.97,1.21-3.07.95-.61-.15-1.11-.4-1.76-.34-1.1.11-2.22,1.01-2.69,2-.25.52-.28,1-.22,1.56.12,1.27-.05,2.28-1.07,3.15-.83.71-1.92.98-2.98.69-.62-.17-1.11-.38-1.76-.27-1.05.17-2.12,1.07-2.54,2.04-.25.58-.25,1.07-.17,1.67.17,1.26-.25,2.45-1.35,3.19-.8.55-1.79.74-2.73.48-.68-.19-1.22-.41-1.94-.24-.97.23-1.97,1.11-2.37,2.02-.3.7-.21,1.22-.13,1.94.13,1.23-.49,2.37-1.55,3.03-.84.51-1.8.62-2.72.32-.68-.22-1.25-.34-1.95-.13-1.16.34-2.27,1.52-2.43,2.73-.11.92.27,1.68-.09,2.6-.47,1.21-1.73,2.09-3.04,2.11-.85.01-1.57-.49-2.42-.43-.64.05-1.21.32-1.69.74-1.05.9-1.37,2.21-.76,3.46.29.58,1.16.07.87-.51Z"/><path class="cls-3" d="m127.85,6.93c-4.34,1.94-9.16,2.16-13.6.45-.57-.22-1.46.14-1.71.7-1.25,2.72-3.7,4.6-6.73,4.8-.66.04-1.3.44-1.46,1.11-.83,3.33-3.64,5.78-7.09,6-.66.04-1.3.44-1.46,1.11-.83,3.33-3.63,5.78-7.09,6-.66.04-1.3.44-1.46,1.11-.83,3.33-3.64,5.78-7.09,6-.66.04-1.3.44-1.46,1.11-.72,2.91-2.86,5.04-5.75,5.81-.83.22-1.23,1.07-1.06,1.87.97,4.6-.28,9.2-2.92,13.02-.41.59-.18,1.35.24,1.84,2.24,2.68,4.48,5.35,6.72,8.03l16.15,19.29c6.52,7.78,13.03,15.56,19.55,23.34,5.64,6.73,11.27,13.46,16.91,20.19l5.6,6.68c.87,1.04,1.7,2.17,2.64,3.15.04.04.08.1.12.14.56.67,1.56.49,2.15,0l.08-.07h-2.15c7.29,8.74,14.59,17.47,21.88,26.21l3.13,3.75c.46.55,1.26.5,1.84.24,4.34-1.94,9.16-2.16,13.6-.45.57.22,1.46-.14,1.71-.7,1.25-2.72,3.7-4.61,6.73-4.8.66-.04,1.3-.44,1.46-1.11.83-3.33,3.64-5.78,7.09-6,.66-.04,1.3-.44,1.46-1.11.83-3.33,3.63-5.78,7.09-6,.66-.04,1.3-.44,1.46-1.11.83-3.33,3.64-5.78,7.09-6,.66-.04,1.3-.44,1.46-1.11.72-2.91,2.86-5.04,5.75-5.81.83-.22,1.23-1.07,1.06-1.87-.97-4.6.28-9.2,2.92-13.02.41-.59.17-1.35-.24-1.84-1.97-2.36-3.93-4.71-5.9-7.07l-14.17-16.97c-5.72-6.85-11.43-13.69-17.15-20.54l-14.83-17.76-4.87-5.84c-.77-.93-1.5-1.94-2.34-2.81-.04-.04-.07-.08-.1-.12-.56-.67-1.56-.49-2.15,0l-.08.07h2.15c-3.76-4.48-7.53-8.96-11.29-13.44-5.97-7.11-11.94-14.21-17.91-21.32l-4.14-4.93c-1.26-1.5-3.39.66-2.15,2.15,3.76,4.48,7.53,8.96,11.29,13.44,5.97,7.11,11.94,14.21,17.91,21.32l4.14,4.93c.56.67,1.56.49,2.15,0l.08-.07h-2.15c1.97,2.36,3.93,4.71,5.9,7.07,4.72,5.66,9.45,11.32,14.17,16.97,5.72,6.85,11.43,13.69,17.15,20.54l14.83,17.76,4.87,5.84c.76.9,1.47,2.01,2.34,2.81.04.04.07.08.1.12l-.24-1.84c-3.11,4.5-4.36,9.98-3.23,15.36l1.06-1.87c-3.88,1.04-6.9,4.02-7.87,7.93l1.46-1.11c-4.78.31-8.85,3.54-10.02,8.23l1.46-1.11c-4.78.31-8.85,3.54-10.02,8.23l1.46-1.11c-4.78.31-8.85,3.54-10.02,8.23l1.46-1.11c-4.04.26-7.65,2.58-9.36,6.3l1.71-.7c-5.23-2.01-10.89-1.5-15.94.76l1.84.24c-7.29-8.74-14.59-17.47-21.88-26.21l-3.13-3.75c-.56-.67-1.56-.49-2.15,0l-.08.07h2.15c-2.24-2.68-4.48-5.35-6.72-8.03-5.38-6.43-10.77-12.86-16.15-19.29-6.52-7.78-13.03-15.56-19.55-23.34-5.64-6.73-11.27-13.46-16.91-20.19l-5.6-6.68c-.86-1.03-1.67-2.24-2.64-3.15-.04-.04-.08-.1-.12-.14l.24,1.84c3.11-4.5,4.36-9.98,3.23-15.36l-1.06,1.87c3.88-1.04,6.9-4.02,7.87-7.93l-1.46,1.11c4.78-.31,8.85-3.54,10.02-8.23l-1.46,1.11c4.78-.31,8.85-3.54,10.02-8.23l-1.46,1.11c4.78-.31,8.85-3.54,10.02-8.23l-1.46,1.11c4.04-.26,7.65-2.58,9.35-6.3l-1.71.7c5.23,2.01,10.89,1.5,15.94-.76,1.78-.8.24-3.41-1.53-2.62Z"/><path class="cls-2" d="m295.23,44.66c.42-.92.04-2.06-.92-2.69l-.19-.12c-.75-.48-1.65-.48-2.34-.07-1.08.63-2.57.6-3.81-.2-1.23-.8-1.85-2.13-1.68-3.35.12-.82-.38-1.69-1.15-2.19l-.37-.24c-.75-.48-1.65-.48-2.34-.07-1.08.63-2.57.6-3.81-.2-1.23-.8-1.85-2.13-1.68-3.35.12-.82-.38-1.69-1.15-2.19l-.37-.24c-.75-.48-1.65-.48-2.34-.07-1.08.63-2.57.6-3.8-.2-1.23-.8-1.85-2.13-1.68-3.35.12-.82-.38-1.69-1.15-2.19l-.37-.24c-.75-.48-1.65-.48-2.34-.07-1.08.63-2.57.6-3.8-.2-1.23-.8-1.85-2.13-1.68-3.35.12-.82-.38-1.69-1.15-2.19l-.37-.24c-.75-.48-1.65-.48-2.34-.07-1.08.63-2.57.6-3.8-.2s-1.85-2.13-1.68-3.35c.12-.82-.38-1.69-1.15-2.19l-.08-.05c-.93-.6-2.1-.5-2.78.21-3.99,4.24-11.16,4.84-16.85,1.15l-.02.03-27.95,42.75-.09-.06-29.57,45.52-26.22,40.37-.12.17c5.67,3.67,7.92,10.32,5.54,15.56-.42.92-.04,2.06.92,2.69l.19.12c.75.48,1.65.48,2.34.07,1.08-.63,2.57-.6,3.81.2,1.23.8,1.85,2.13,1.68,3.35-.12.82.38,1.69,1.15,2.19l.37.24c.75.48,1.65.48,2.34.07,1.08-.63,2.57-.6,3.81.2,1.23.8,1.85,2.13,1.68,3.35-.12.82.38,1.69,1.15,2.19l.37.24c.75.48,1.65.48,2.34.07,1.08-.63,2.57-.6,3.8.2s1.85,2.13,1.68,3.35c-.12.82.38,1.69,1.15,2.19l.37.24c.75.48,1.65.48,2.34.07,1.08-.63,2.57-.6,3.8.2,1.23.8,1.85,2.13,1.68,3.35-.12.82.38,1.69,1.15,2.19l.37.24c.75.48,1.65.48,2.34.07,1.08-.63,2.57-.6,3.8.2,1.23.8,1.85,2.13,1.68,3.35-.12.82.38,1.69,1.15,2.19l.08.05c.93.6,2.1.5,2.78-.21,3.99-4.24,11.16-4.84,16.85-1.15l.02-.03,20.85-32.1.09.06,29.57-45.52,33.32-51.02.12-.17c-5.67-3.67-7.92-10.32-5.54-15.56Z"/><path class="cls-7" d="m294.04,37.56c.42-.92.04-2.06-.92-2.69l-.19-.12c-.75-.48-1.65-.48-2.34-.07-1.08.63-2.57.6-3.81-.2-1.23-.8-1.85-2.13-1.68-3.35.12-.82-.38-1.69-1.15-2.19l-.37-.24c-.75-.48-1.65-.48-2.34-.07-1.08.63-2.57.6-3.81-.2-1.23-.8-1.85-2.13-1.68-3.35.12-.82-.38-1.69-1.15-2.19l-.37-.24c-.75-.48-1.65-.48-2.34-.07-1.08.63-2.57.6-3.8-.2-1.23-.8-1.85-2.13-1.68-3.35.12-.82-.38-1.69-1.15-2.19l-.37-.24c-.75-.48-1.65-.48-2.34-.07-1.08.63-2.57.6-3.8-.2-1.23-.8-1.85-2.13-1.68-3.35.12-.82-.38-1.69-1.15-2.19l-.37-.24c-.75-.48-1.65-.48-2.34-.07-1.08.63-2.57.6-3.8-.2s-1.85-2.13-1.68-3.35c.12-.82-.38-1.69-1.15-2.19l-.08-.05c-.93-.6-2.1-.5-2.78.21-3.99,4.24-11.16,4.84-16.85,1.15l-.02.03-27.95,42.75-.09-.06-29.57,45.52-26.22,40.37-.12.17c5.67,3.67,7.92,10.32,5.54,15.56-.42.92-.04,2.06.92,2.69l.19.12c.75.48,1.65.48,2.34.07,1.08-.63,2.57-.6,3.81.2,1.23.8,1.85,2.13,1.68,3.35-.12.82.38,1.69,1.15,2.19l.37.24c.75.48,1.65.48,2.34.07,1.08-.63,2.57-.6,3.81.2,1.23.8,1.85,2.13,1.68,3.35-.12.82.38,1.69,1.15,2.19l.37.24c.75.48,1.65.48,2.34.07,1.08-.63,2.57-.6,3.8.2s1.85,2.13,1.68,3.35c-.12.82.38,1.69,1.15,2.19l.37.24c.75.48,1.65.48,2.34.07,1.08-.63,2.57-.6,3.8.2,1.23.8,1.85,2.13,1.68,3.35-.12.82.38,1.69,1.15,2.19l.37.24c.75.48,1.65.48,2.34.07,1.08-.63,2.57-.6,3.8.2,1.23.8,1.85,2.13,1.68,3.35-.12.82.38,1.69,1.15,2.19l.08.05c.93.6,2.1.5,2.78-.21,3.99-4.24,11.16-4.84,16.85-1.15l.02-.03,20.85-32.1.09.06,29.57-45.52,33.32-51.02.12-.17c-5.67-3.67-7.92-10.32-5.54-15.56Z"/><path class="cls-4" d="m294.53,37.69c.81-2.32-1.68-4.42-3.88-3.6-1.05.39-1.84.71-2.96.27s-1.97-1.41-2.07-2.62c-.11-1.41-.14-2.38-1.45-3.26-.96-.65-1.94-.8-3.02-.35s-2.03.63-3.11.07c-.95-.5-1.69-1.42-1.78-2.5-.05-.68.08-1.26-.22-1.91-.27-.59-.74-1.03-1.27-1.38-1.03-.68-2-.74-3.12-.25-2.05.9-4.74-.33-4.75-2.78,0-1.33-.32-2.25-1.47-3.02-1.03-.69-2.01-.74-3.12-.25-2.18.96-4.77-.44-4.73-2.94.02-1.29-.47-2.2-1.57-2.91s-2.09-.56-3.29-.08c-2.14.87-4.52-.77-4.48-3.06.02-1.2-.41-2.19-1.47-2.84-1.2-.74-2.51-.53-3.51.42-1.35,1.28-2.85,2.24-4.64,2.78-3.9,1.17-8.07.31-11.47-1.83-.24-.15-.55-.04-.69.18-3.11,4.78-6.24,9.55-9.36,14.32l-15.1,23.1c-1.17,1.79-2.34,3.58-3.51,5.36l.69-.18-.09-.06c-.24-.15-.55-.04-.69.18-3.04,4.69-6.09,9.37-9.13,14.06-5.15,7.93-10.3,15.86-15.45,23.79-2.01,3.1-4.03,6.2-6.04,9.3l-13.55,20.85c-3.82,5.88-7.72,11.72-11.46,17.65-.09.14-.18.28-.27.41-.16.24-.03.55.18.69,3.24,2.15,5.71,5.53,6.16,9.47.2,1.77-.05,3.51-.7,5.16-.54,1.39-.3,2.74,1,3.62.49.33,1.04.54,1.64.55.93.02,1.62-.62,2.53-.7,1.31-.12,2.62.56,3.27,1.72.53.94.12,1.95.5,2.92.43,1.08,1.71,2.01,2.87,2.11.88.07,1.45-.41,2.25-.63,1.42-.38,3.02.38,3.72,1.65.47.85.17,1.7.38,2.57.19.75.72,1.36,1.35,1.79.48.33.99.6,1.57.66.9.09,1.49-.4,2.32-.62,1.29-.34,2.77.26,3.53,1.34.68.97.32,1.85.58,2.88.31,1.23,1.67,2.31,2.92,2.44.85.09,1.39-.32,2.15-.57,1.33-.44,2.91.17,3.7,1.3.65.92.37,1.7.55,2.71.14.77.61,1.38,1.22,1.84.49.38,1.04.68,1.66.77.88.11,1.43-.3,2.22-.56,1.14-.38,2.45.02,3.3.83.97.94.78,1.81.92,2.99.18,1.52,1.7,2.74,3.22,2.64.81-.05,1.33-.46,1.89-.99.81-.78,1.7-1.43,2.7-1.93,4.26-2.15,9.37-1.36,13.3,1.11.24.15.55.04.69-.18,6.09-9.37,12.17-18.73,18.25-28.1.87-1.35,1.75-2.69,2.62-4.04l-.69.18.09.06c.24.15.55.04.69-.18,3.69-5.68,7.38-11.37,11.08-17.05,5.42-8.34,10.83-16.68,16.25-25.01,2.12-3.26,4.24-6.51,6.37-9.77,5.66-8.67,11.33-17.34,16.99-26.01,4.01-6.14,8.01-12.3,12.04-18.43.09-.14.19-.28.28-.42.16-.24.03-.55-.18-.69-4.79-3.18-7.78-9.29-5.36-14.86.26-.59-.61-1.11-.87-.51-2.66,6.11.43,12.73,5.72,16.25l-.18-.69c-3.48,5.14-6.79,10.39-10.18,15.59-5.82,8.92-11.65,17.84-17.47,26.75-2.31,3.53-4.62,7.07-6.92,10.61l-15.14,23.3-8.36,12.87-3.02,4.65c-.55.84-1.22,1.68-1.68,2.58-.06.12-.16.24-.23.36l.69-.18-.09-.06c-.24-.15-.55-.04-.69.18-6.11,9.4-12.22,18.81-18.32,28.21-.85,1.31-1.7,2.62-2.55,3.92l.69-.18c-3.13-1.97-6.85-2.9-10.53-2.32-1.71.27-3.39.88-4.84,1.82-.67.44-1.26.95-1.85,1.49-.99.89-2.34.91-3.12-.3-.49-.77-.15-1.89-.46-2.76-.26-.74-.75-1.38-1.36-1.87-1.26-1-2.9-1.22-4.38-.62-.91.37-1.66.46-2.5-.15-1.22-.9-.68-2.01-1.04-3.23-.48-1.62-2.04-2.79-3.69-2.98s-3.11,1.27-4.61.17c-1.2-.88-.69-1.86-1-3.06-.2-.79-.66-1.5-1.27-2.04-1.23-1.09-2.92-1.43-4.46-.84-.95.36-1.68.56-2.57-.07-1.25-.88-.73-1.87-1.04-3.09-.4-1.57-1.8-2.78-3.37-3.1-.73-.15-1.5-.1-2.19.16-.99.36-1.77.74-2.74-.01-1.14-.89-.75-1.74-1-2.93-.17-.79-.59-1.52-1.17-2.08-1.1-1.08-2.8-1.55-4.28-1.09-.58.18-1.01.52-1.64.51s-1.34-.4-1.7-.97c-.62-.98.23-2.21.48-3.2.44-1.7.46-3.49.13-5.22-.75-3.86-3.27-7.1-6.49-9.24l.18.69c3.33-4.93,6.49-9.98,9.73-14.97,4.84-7.46,9.69-14.91,14.53-22.37,1.86-2.87,3.72-5.73,5.59-8.6,4.99-7.69,9.99-15.38,14.98-23.07l7.1-10.93,2.44-3.76c.43-.66,1.03-1.36,1.35-2.08.04-.1.12-.19.18-.28l-.69.18.09.06c.24.15.55.04.69-.18,3.16-4.83,6.31-9.66,9.47-14.49,5.02-7.68,10.04-15.36,15.06-23.04,1.14-1.75,2.29-3.5,3.43-5.25l-.69.18c4.9,3.08,11.6,3.57,16.31-.18.61-.49,1.2-1.33,1.99-1.47.94-.17,2.06.58,2.28,1.52.16.68-.05,1.36.16,2.05.18.6.53,1.15.95,1.61.92.99,2.31,1.53,3.66,1.38.66-.07,1.14-.4,1.75-.58.93-.27,2.03.21,2.58,1.04.45.68.16,1.51.32,2.26.14.64.45,1.25.87,1.75.83.99,2.11,1.6,3.41,1.6.64,0,1.19-.19,1.77-.43.86-.36,1.59-.33,2.35.23,1.01.74.79,1.51.91,2.56.08.69.35,1.34.77,1.89.75,1,1.94,1.68,3.2,1.78,1.52.12,2.91-1.22,4.29-.3,1.06.7.99,1.43,1.07,2.54.04.61.25,1.21.58,1.73.71,1.14,1.94,1.91,3.27,2.06,1.59.18,3.1-1.25,4.52-.23,1.07.78.88,1.5,1,2.62.08.76.4,1.45.88,2.04.92,1.14,2.41,1.78,3.87,1.62.84-.09,1.57-.69,2.39-.67,1.26.04,2.24,1.26,1.81,2.49-.22.62.76.88.98.27Z"/><path class="cls-3" d="m227.75,15.18c5.3,1.64,10.98,1.3,15.91-1.31l-2.08-.54c2.12,3.46,5.89,5.52,9.96,5.3l-1.46-1.11c1.7,4.48,5.97,7.42,10.81,7.16l-1.46-1.11c1.7,4.48,5.97,7.42,10.81,7.16l-1.46-1.11c1.7,4.48,5.97,7.42,10.81,7.16l-1.46-1.11c1.42,3.75,4.63,6.49,8.64,7.07l-1.11-1.46c-.48,5.48,1.59,10.72,5.19,14.79l-.24-1.84c-1.91,2.93-3.81,5.85-5.72,8.78-4.58,7.03-9.16,14.05-13.74,21.08-5.54,8.5-11.08,17.01-16.62,25.51-4.79,7.36-9.59,14.71-14.38,22.07-1.59,2.43-3.17,4.87-4.76,7.3-.73,1.12-1.66,2.25-2.25,3.45-.03.05-.07.11-.1.16l2.08-.54-.09-.06c-.71-.46-1.65-.12-2.08.54-6.2,9.54-12.4,19.09-18.6,28.63-.89,1.37-1.77,2.73-2.66,4.1l1.71-.7c-5.3-1.64-10.98-1.29-15.91,1.32l2.08.54c-2.12-3.46-5.89-5.52-9.96-5.3l1.46,1.11c-1.7-4.48-5.97-7.42-10.81-7.16l1.46,1.11c-1.7-4.48-5.97-7.42-10.81-7.16l1.46,1.11c-1.7-4.48-5.97-7.42-10.81-7.16l1.46,1.11c-1.42-3.75-4.62-6.49-8.64-7.07l1.11,1.46c.48-5.48-1.59-10.72-5.19-14.79l.24,1.84c1.67-2.57,3.34-5.15,5.02-7.72,4.01-6.18,8.03-12.36,12.04-18.54l14.58-22.44c4.2-6.47,8.4-12.94,12.6-19.41l4.14-6.38c.64-.98,1.5-2,1.99-3.07.02-.05.06-.09.09-.14l-2.08.54.09.06c.71.46,1.64.12,2.08-.54,3.2-4.9,6.4-9.79,9.6-14.69,5.08-7.77,10.16-15.54,15.24-23.31,1.17-1.8,2.35-3.59,3.52-5.39,1.07-1.64-1.55-3.16-2.62-1.53-3.2,4.9-6.4,9.79-9.6,14.69-5.08,7.77-10.16,15.54-15.24,23.31-1.17,1.8-2.35,3.59-3.52,5.39l2.08-.54-.09-.06c-.71-.46-1.65-.12-2.08.54-1.67,2.57-3.34,5.15-5.02,7.72l-12.04,18.54c-4.86,7.48-9.72,14.96-14.58,22.44l-12.6,19.41c-2.03,3.13-4.29,6.2-6.13,9.44-.03.05-.06.09-.09.14-.38.59-.2,1.35.24,1.84,3.1,3.5,4.72,7.97,4.3,12.65-.05.59.5,1.38,1.11,1.46,2.91.42,5.46,2.14,6.52,4.95.23.6.76,1.15,1.46,1.11,3.41-.18,6.65,1.68,7.88,4.93.23.6.76,1.15,1.46,1.11,3.41-.18,6.65,1.68,7.88,4.93.23.6.76,1.15,1.46,1.11,3.41-.18,6.65,1.68,7.88,4.93.23.6.76,1.15,1.46,1.11,3.01-.16,5.76,1.21,7.34,3.8.44.72,1.34.94,2.08.54,4.22-2.24,9.05-2.41,13.57-1.01.66.21,1.35-.14,1.71-.7,6.2-9.54,12.4-19.09,18.6-28.63l2.66-4.1-2.08.54.09.06c.71.46,1.65.12,2.08-.54,1.91-2.93,3.81-5.85,5.72-8.78,4.58-7.03,9.16-14.05,13.74-21.08,5.54-8.5,11.08-17.01,16.62-25.51,4.79-7.36,9.59-14.71,14.38-22.07,2.32-3.56,4.88-7.06,7.01-10.75.03-.05.07-.1.1-.16.38-.59.2-1.35-.24-1.84-3.1-3.5-4.71-7.97-4.3-12.65.05-.59-.5-1.38-1.11-1.46-2.91-.42-5.46-2.14-6.52-4.95-.23-.6-.76-1.15-1.46-1.11-3.41.18-6.65-1.68-7.88-4.93-.23-.6-.76-1.15-1.46-1.11-3.41.18-6.65-1.68-7.88-4.93-.23-.6-.76-1.15-1.46-1.11-3.41.18-6.65-1.68-7.88-4.93-.23-.6-.76-1.15-1.46-1.11-3.01.16-5.76-1.21-7.34-3.8-.44-.72-1.34-.94-2.08-.54-4.22,2.24-9.05,2.41-13.57,1.01-1.87-.58-2.67,2.35-.81,2.93Z"/><path class="cls-1" d="m200.53,126.93l-4.29,6.33c-.72,1.06-.44,2.49.62,3.21l7.83,5.31c1.06.72,1.33,2.15.62,3.21l-3.72,5.48c-.72,1.06-2.15,1.33-3.21.62l-27.32-18.52c-1.06-.72-1.33-2.15-.62-3.21l12.68-18.7c.72-1.06,2.15-1.33,3.21-.62l3.59,2.43c1.06.72,1.33,2.15.62,3.21l-6.36,9.39c-.72,1.06-.44,2.49.62,3.21l1.24.84c1.06.72,2.49.44,3.21-.62l4.29-6.33c.72-1.06,2.15-1.33,3.21-.62l3.18,2.16c1.06.72,1.33,2.15.62,3.21Z"/><path class="cls-1" d="m217.86,101.37l-4.29,6.33c-.72,1.06-.44,2.49.62,3.21l7.83,5.31c1.06.72,1.33,2.15.62,3.21l-3.72,5.48c-.72,1.06-2.15,1.33-3.21.62l-27.32-18.52c-1.06-.72-1.33-2.15-.62-3.21l12.68-18.7c.72-1.06,2.15-1.33,3.21-.62l3.59,2.43c1.06.72,1.33,2.15.62,3.21l-6.36,9.39c-.72,1.06-.44,2.49.62,3.21l1.24.84c1.06.72,2.49.44,3.21-.62l4.29-6.33c.72-1.06,2.15-1.33,3.21-.62l3.18,2.16c1.06.72,1.33,2.15.62,3.21Z"/><path class="cls-1" d="m244.02,75.55l3.82,2.59c1.06.72,1.33,2.15.62,3.21l-12.21,18.01c-.72,1.06-2.15,1.33-3.21.62l-27.32-18.52c-1.06-.72-1.33-2.15-.62-3.21l3.89-5.73c.72-1.06,2.15-1.33,3.21-.62l19.68,13.34c1.06.72,2.49.44,3.21-.62l5.73-8.45c.72-1.06,2.15-1.33,3.21-.62Z"/><path class="cls-1" d="m262.37,48.92l3.61,2.45c1.06.72,1.33,2.15.62,3.21l-13.29,19.61c-.72,1.06-2.15,1.33-3.21.62l-27.32-18.52c-1.06-.72-1.33-2.15-.62-3.21l13.29-19.61c.72-1.06,2.15-1.33,3.21-.62l3.36,2.28c1.06.72,1.33,2.15.62,3.21l-6.94,10.23c-.72,1.06-.44,2.49.62,3.21l.69.47c1.06.72,2.49.44,3.21-.62l5.11-7.54c.72-1.06,2.15-1.33,3.21-.62l3.09,2.09c1.06.72,1.33,2.15.62,3.21l-5.11,7.54c-.72,1.06-.44,2.49.62,3.21l1.26.86c1.06.72,2.49.44,3.21-.62l6.94-10.23c.72-1.06,2.15-1.33,3.21-.62Z"/><path class="cls-1" d="m111.91,53.43l3.04,4.36c.72,1.04.36,2.49-.79,3.03-2.77,1.3-5.48,1.68-8.14,1.14-3.33-.67-6.17-2.5-8.51-5.46-2.82-3.57-3.92-7.38-3.29-11.45.63-4.06,3.02-7.74,7.18-11.03s8.27-4.85,12.44-4.77c4.17.08,7.73,1.98,10.67,5.71,2.75,3.48,3.9,6.91,3.45,10.3-.36,2.72-1.54,5.24-3.54,7.56-.81.94-2.27.93-3.09,0l-3.53-4c-.7-.8-.72-2.01.02-2.78.91-.95,1.46-1.88,1.63-2.79.25-1.29.02-2.4-.71-3.31-2.01-2.54-5.57-1.79-10.68,2.25-2.86,2.26-4.55,4.13-5.05,5.6-.5,1.47-.28,2.81.66,4,1.4,1.78,3.3,2.1,5.69.99.9-.42,1.96-.17,2.53.64Z"/><path class="cls-1" d="m151.3,72.99l-23.06,18.23c-.89.7-2.19.55-2.89-.34l-3.83-4.84c-.7-.89-.55-2.19.34-2.89l7-5.53c.89-.7,1.04-2,.34-2.89l-2.32-2.93c-.7-.89-2-1.04-2.89-.34l-7,5.53c-.89.7-2.19.55-2.89-.34l-3.83-4.84c-.7-.89-.55-2.19.34-2.89l23.06-18.23c.89-.7,2.19-.55,2.89.34l3.83,4.84c.7.89.55,2.19-.34,2.89l-6.44,5.09c-.89.7-1.04,2-.34,2.89l2.32,2.93c.7.89,2,1.04,2.89.34l6.44-5.09c.89-.7,2.19-.55,2.89.34l3.83,4.84c.7.89.55,2.19-.34,2.89Z"/><path class="cls-1" d="m142.89,109.49l2.14-2.98c.52-.73.5-1.71-.06-2.41l-3.57-4.51c-.55-.69-1.48-.95-2.3-.62l-3.5,1.37c-.82.32-1.76.07-2.3-.62l-2.44-3.09c-.84-1.06-.41-2.63.85-3.11l27.95-10.82c.82-.32,1.75-.06,2.3.63l4.74,6c.54.69.58,1.65.08,2.37l-16.9,24.8c-.76,1.12-2.39,1.18-3.23.11l-3.71-4.7c-.55-.7-.58-1.69-.06-2.41Zm5.88-12.08h0c.82,1.04,2.41,1.01,3.19-.06h0c1.2-1.64-.52-3.82-2.4-3.03h0c-1.22.51-1.62,2.05-.8,3.09Z"/></svg>