<?xml version="1.0" encoding="UTF-8"?><svg id="Layer_1" xmlns="http://www.w3.org/2000/svg" viewBox="0 0 1224 792"><defs><style>.cls-1{letter-spacing:-.04em;}.cls-2{letter-spacing:-.04em;}.cls-3{letter-spacing:-.04em;}.cls-4{font-family:MyriadPro-Bold, 'Myriad Pro';font-size:23px;font-weight:700;}.cls-5{stroke-width:2.41px;}.cls-5,.cls-6{fill:#0088a8;}.cls-5,.cls-7{stroke:#0d2943;stroke-miterlimit:10;}.cls-8{letter-spacing:0em;}.cls-9{letter-spacing:-.03em;}.cls-10{letter-spacing:-.03em;}.cls-11{letter-spacing:0em;}.cls-12{letter-spacing:-.04em;}.cls-13{letter-spacing:-.04em;}.cls-14,.cls-15,.cls-6{stroke-width:0px;}.cls-16{letter-spacing:0em;}.cls-15,.cls-7{fill:#0d2943;}.cls-7{stroke-width:3.14px;}</style></defs><path class="cls-6" d="m674.63,398.25c-3.41.29-6.7.87-9.43,2.37-7.54,4.15-15.7,6.78-23.52,10.22-5.54,2.44-11.08,4.88-16.61,7.32l-3.41-7.91c11.03-4.9,22.04-9.84,33.02-14.86,2.98-1.36,4.1-2.51,3.75-6.4-.58-6.27-1.49-10.62-9.2-10.07-2.24.16-2.39-1.93-.66-3.26,1.2-.92,2.47-2.4,4.26-1.7,4.13,1.61,4.21-.84,3.99-3.76-.08-1.07-.25-2.19-.03-3.2.86-3.88-1.12-4.25-4.35-4.25-8.29-.02-16.59-.45-24.88-.63-2.45-.05-3.58-.91-3.62-3.54-.07-4.41-.61-8.81-.72-13.22-.22-8.44-.21-8.61-8.28-6.02-2.8.9-3.27-.18-3.45-2.34-.42-5.28-2.42-10.06-4.36-14.91-4.87-12.15-10.82-23.84-15.57-36.01-3.95-10.13-4.64-8.31,5.68-12.43,3.39-1.35,6.83-3.92,10.59-1.83,4.6,2.55,8.89-.77,13.32-.09,1.05.16,1.21-.8,1.2-1.65-.02-2.28-.11-4.55-.03-6.83.06-1.75-.8-2-2.24-1.72-15.1,2.93-30.04-1.62-45.09-.99-1.04.04-2.59.08-2.73-1.13-.35-2.93-2.39-2.3-4.11-2.24-2.14.08-4.29.2-6.39.6-2.01.38-2.98.03-3-2.25-.02-2.54-.39-5.07-.57-7.6-.58-8.38-.57-8.56,7.87-8.22,3.71.15,4.8-.84,4.54-4.62-.51-7.44-.28-7.45-7.67-7.55-1.07-.01-2.14-.03-3.21-.05q-5.42-.1-5.94-5.9c-.83.3-1.34.44-1.81.66-3.16,1.45-6.31,2.9-9.47,4.34l-3.22-7.47c3.48-1.65,6.95-3.32,10.4-5.03,2.89-1.43,6.34-2.4,4.16-6.98-.44-.93-.09-2.44.32-3.52,1.75-4.64,1.37-9.44,1.53-14.41-3.43.57-6.38,1.85-9.27,3.17-25.41,11.64-50.74,23.44-76.19,35-32.12,14.59-64.32,29-96.4,43.68l-65.03,28.96-.1.05c8.04,18.3,2.92,38.9-11.28,48.52-2.4,1.62-3.25,4.98-1.93,7.98l.11.25c1.1,2.5,3.38,4.35,5.83,4.39,3.62.07,7.21,2.49,8.96,6.46,1.74,3.96,1.14,8.33-1.21,11.17-1.5,1.82-1.94,4.45-.89,6.85l.52,1.18c1.1,2.5,3.38,4.35,5.83,4.39,3.62.07,7.21,2.49,8.95,6.46,1.74,3.96,1.14,8.33-1.21,11.17-1.5,1.82-1.94,4.45-.89,6.85l.52,1.18c1.1,2.5,3.38,4.35,5.83,4.39,3.62.07,7.21,2.49,8.96,6.46,1.74,3.96,1.14,8.33-1.21,11.17-1.5,1.82-1.94,4.45-.89,6.85l.52,1.18c1.1,2.5,3.38,4.35,5.83,4.39,3.62.07,7.21,2.49,8.95,6.46,1.74,3.96,1.14,8.33-1.21,11.17-1.5,1.82-1.94,4.45-.89,6.85l.52,1.18c1.1,2.5,3.38,4.35,5.83,4.39,3.62.07,7.21,2.49,8.95,6.45,1.74,3.96,1.14,8.33-1.21,11.17-1.5,1.82-1.94,4.45-.89,6.85l.27.6c1.36,3.09,4.52,4.71,7.39,3.93,16.37-4.45,34.67,5.22,42.68,23.45l.56-.26,1.77-.79c1.05.56,2.34.15,4.05-1.1,1.5-1.09,3.22-1.93,4.93-2.67,25.14-10.93,50.29-21.84,75.43-32.74,34.35-14.89,68.66-29.85,103.05-44.65,23.81-10.25,47-21.93,71.27-31.14,1.79-.68,2.13-1.72,2.13-3.31-.01-6.28,0-12.56,0-18.91Zm-51.8-15.72q.29-7.68,7.9-8.22c7.69-.55,7.78-.31,7.25,7.42-.21,3.1-1.44,4.06-4.15,3.17-1.87-.62-2.7-.49-3.18,1.71-.65,2.97-3.44,3.19-5.79,3.07-2.84-.14-1.76-2.72-2.05-4.35-.16-.9,0-1.86.03-2.79Zm-14.74-12.1c1.07-2.9,3.76-.43,5.63-1.39,1.55,1.55,5.48-1.91,5.48,3.29,0,3.58-.89,5.2-4.52,4.92-.39-.03-.79.07-1.19.11-6.52.65-7.69-.73-5.4-6.93Z"/><path class="cls-15" d="m674.63,397.25c-4.2.38-7.74,1.39-11.47,3.33-4.13,2.15-8.45,3.89-12.77,5.61-8.71,3.47-17.25,7.32-25.83,11.1l1.37.36c-1.14-2.64-2.27-5.27-3.41-7.91l-.36,1.37c8.73-3.88,17.45-7.78,26.15-11.73,2.06-.94,4.12-1.87,6.18-2.81,1.27-.58,2.62-1.16,3.6-2.19,1.83-1.94,1.43-4.79,1.14-7.2-.6-4.91-2.44-8.92-7.9-9.28-.64-.04-1.52.19-2.11.02l-.62-.04c-.21-.48-.11-.88.3-1.19.16-.22.54-.45.73-.61.77-.63,1.41-1.26,2.44-1.21.94.04,1.8.58,2.76.6,2.37.06,3.06-1.98,3.04-4-.01-1.72-.22-3.31.02-5.03.15-1.11.14-2.29-.55-3.22-1.55-2.09-5.35-1.47-7.54-1.5-4.78-.06-9.55-.23-14.33-.38-2.26-.07-4.52-.15-6.79-.2-1.97-.05-3.55.03-3.74-2.31-.36-4.46-.6-9-.73-13.47-.06-2.11.17-4.64-.66-6.64-.56-1.35-1.68-1.91-3.1-1.85-.91.04-1.83.3-2.7.54-1.03.29-3.81,1.73-4.76,1.21s-.72-3.63-.9-4.6c-.4-2.22-1.05-4.38-1.8-6.5-1.44-4.05-3.13-8.03-4.82-11.98-3.69-8.6-7.76-17.04-11.33-25.69-1.27-3.06-2.56-6.14-3.7-9.25-.4-1.09-1.02-2.28.05-3.1,1.69-1.29,4.29-1.82,6.23-2.58,1.81-.71,3.52-1.66,5.35-2.32.86-.31,1.76-.57,2.68-.58,1.41-.01,2.43.68,3.69,1.17,3.62,1.4,7.04-.29,10.68-.54,1.2-.08,2.7.46,3.61-.54s.6-2.87.58-4.1c-.03-1.82.32-4.01-.09-5.79-.23-1-.89-1.64-1.92-1.78-1.74-.23-3.82.53-5.54.71-2.38.26-4.77.36-7.17.35-9.09-.03-18.09-1.62-27.17-1.97-2.15-.08-4.29-.05-6.44,0-1.14.02-1.41.1-1.86-.93-.24-.55-.35-1.1-.77-1.57-.64-.71-1.55-.94-2.47-.97-1.75-.05-3.58.15-5.32.31-1.03.1-4.05,1.11-4.69.16-.4-.61-.16-2.09-.2-2.75-.07-1.27-.21-2.53-.33-3.8-.22-2.35-.93-5.62-.26-7.97.46-1.62,2.37-1.42,3.77-1.42,2.26,0,5.4.74,7.34-.78s1.42-4.36,1.27-6.45c-.12-1.7-.09-3.88-1.23-5.29-1.06-1.3-2.87-1.41-4.42-1.49-2.96-.15-6.02.18-8.96-.22-2.26-.31-1.93-2.95-2.09-4.78-.05-.6-.6-1.2-1.27-.97-3.95,1.38-7.72,3.36-11.52,5.1l1.37.36c-1.07-2.49-2.15-4.98-3.22-7.47l-.36,1.37c3.67-1.75,7.31-3.56,10.97-5.31,1.92-.92,4.2-1.89,4.69-4.2.24-1.15-.1-2.22-.48-3.3-.72-2.05.51-3.98.95-5.99.87-3.94.67-8,.78-12,.02-.7-.65-1.08-1.27-.97-6.01,1.09-11.56,4.21-17.06,6.74-6.06,2.79-12.12,5.58-18.18,8.37-12.35,5.69-24.69,11.39-37.05,17.05-24.51,11.22-49.11,22.26-73.67,33.37-14.2,6.42-28.35,12.96-42.59,19.3-11.15,4.96-22.29,9.93-33.44,14.89-8.23,3.67-16.68,7.04-24.76,11.03-.15.08-.32.14-.47.21-.54.24-.55.92-.36,1.37,4.52,10.46,5.1,22.77.41,33.29-2.15,4.82-5.34,9.15-9.46,12.47-1.88,1.51-3.76,2.53-4.55,4.97-.69,2.11-.34,4.33.62,6.29,1.04,2.11,2.93,3.92,5.27,4.46,1.15.27,2.34.16,3.48.53,1.49.48,2.84,1.36,3.9,2.51,2.25,2.42,3.33,5.92,2.7,9.18-.56,2.88-3.01,4.73-3.42,7.64-.58,4.07,2.44,9.24,6.55,10.19,1.15.27,2.34.17,3.48.53,1.49.47,2.84,1.37,3.9,2.51,2.26,2.41,3.32,5.93,2.7,9.18-.56,2.88-3.01,4.74-3.42,7.64-.28,1.95.33,3.73,1.15,5.46,1.05,2.22,2.94,4.16,5.39,4.73,1.16.27,2.33.16,3.48.53,1.41.45,2.68,1.27,3.71,2.31,2.39,2.41,3.53,6.03,2.89,9.37-.55,2.84-2.94,4.67-3.4,7.51-.66,4.11,2.39,9.36,6.53,10.32,1.16.27,2.33.16,3.48.53,1.41.45,2.67,1.26,3.71,2.31,2.39,2.41,3.53,6.03,2.89,9.37-.55,2.84-2.94,4.67-3.4,7.51-.32,1.99.29,3.82,1.13,5.6,1.05,2.22,2.93,4.15,5.39,4.73,1.15.27,2.34.16,3.48.53,1.41.45,2.67,1.26,3.71,2.31,2.31,2.34,3.48,5.83,2.94,9.09-.49,2.97-2.99,4.86-3.46,7.79-.69,4.29,2.53,9.14,6.96,9.6,2.38.25,4.85-.83,7.23-1.07s4.71-.2,7.03.1c10.53,1.36,19.87,7.92,25.77,16.6,1.54,2.27,2.84,4.67,3.96,7.17.24.53.93.57,1.37.36.33-.15.65-.3.98-.45.26-.12.52-.25.79-.35.3-.12.61-.08.31-.11-.53-.04.38.21.48.22.33.05.77-.01,1.09-.08,1.02-.22,1.88-.82,2.73-1.38,4.06-2.7,8.78-4.35,13.23-6.28,9.69-4.21,19.37-8.42,29.06-12.62,19.6-8.51,39.21-17,58.81-25.51,38.76-16.83,77.64-33.37,116.11-50.86,10.73-4.88,21.5-9.67,32.47-13.99,2-.79,4.84-1.3,6.44-2.81,1.33-1.25,1.17-3.08,1.17-4.75-.01-5.82,0-11.64,0-17.46,0-1.29-2.01-1.29-2.01,0,0,5.09,0,10.19,0,15.28,0,1.82.71,4.79-1.13,5.85-2.3,1.33-5.23,2.03-7.71,3.03-9.07,3.65-18.03,7.59-26.94,11.61-18.55,8.39-37.12,16.69-55.81,24.77-38.41,16.6-76.78,33.3-115.16,49.95-10.73,4.65-21.45,9.31-32.18,13.97-5.07,2.2-10.43,4.12-15.27,6.77-1.11.61-2.08,1.43-3.19,2.03-1.17.64-1.62.14-2.73.29-.83.11-1.8.79-2.58,1.15l1.37.36c-4.21-9.43-11.55-17.54-21.04-21.81-4.34-1.96-9.04-3.11-13.81-3.2-2.28-.04-4.57.16-6.81.6-1.17.23-2.38.71-3.58.65-1.64-.08-3.12-1.01-4.08-2.32-.71-.96-1.23-2.18-1.39-3.36-.26-1.96.52-3.28,1.6-4.82,1.55-2.21,2.2-4.94,1.96-7.62-.45-4.96-3.94-9.71-8.92-10.84-1.21-.27-2.48-.14-3.63-.64-1.57-.67-2.61-2-3.32-3.5-1.33-2.79-1.05-4.94.71-7.45,3.08-4.41,2.43-10.54-.91-14.62-1.54-1.87-3.67-3.3-6.05-3.83-1.21-.27-2.48-.14-3.63-.64-1.56-.67-2.61-2-3.32-3.5-1.32-2.78-1.04-4.95.71-7.45,1.48-2.12,2.16-4.74,1.98-7.31-.35-4.98-3.72-9.83-8.7-11.08-1.28-.32-2.65-.17-3.87-.69-1.57-.67-2.61-2-3.32-3.5-1.32-2.79-1.05-4.94.71-7.45,3.09-4.41,2.43-10.54-.91-14.62-1.48-1.81-3.53-3.21-5.81-3.78-1.15-.29-2.38-.17-3.5-.53-1.74-.56-2.93-2.08-3.69-3.66-1.32-2.78-1.04-4.95.71-7.45,1.48-2.12,2.16-4.74,1.98-7.31-.35-4.98-3.72-9.83-8.7-11.08-1.15-.29-2.38-.17-3.5-.53-1.7-.55-2.98-2.07-3.69-3.66-1.27-2.87-.38-5.54,2.09-7.31,4-2.86,7.32-6.59,9.76-10.86,5.29-9.24,6.4-20.49,3.91-30.77-.65-2.69-1.57-5.28-2.67-7.82l-.36,1.37c6.93-3.06,13.84-6.16,20.76-9.24l34.6-15.41c12.01-5.35,23.95-10.83,35.92-16.25,24.56-11.13,49.15-22.17,73.69-33.34,24.39-11.1,48.65-22.48,73.04-33.57,2.83-1.28,5.67-2.38,8.74-2.94l-1.27-.97c-.1,3.81.12,7.72-.71,11.47-.34,1.52-1.04,2.95-1.26,4.48s.33,2.24.66,3.6c.65,2.71-2.28,3.54-4.21,4.48-3.47,1.68-6.92,3.38-10.4,5.03-.53.25-.56.91-.36,1.37,1.07,2.49,2.15,4.98,3.22,7.47.23.53.93.56,1.37.36,3.64-1.67,7.26-3.58,11.05-4.9l-1.27-.97c.16,1.78.04,4.42,1.42,5.8s3.81,1.07,5.52,1.1,3.42.03,5.12.08c.99.03,2.15-.03,3.09.31,1.58.59,1.42,2.87,1.53,4.27.1,1.31.45,2.98.03,4.26-.49,1.46-2.14,1.32-3.44,1.29-2.12-.06-4.57-.43-6.62.28-3.81,1.31-2.4,7.42-2.14,10.33.18,2.08.33,4.14.46,6.22.07,1.08.19,2.23,1.14,2.91.78.56,1.78.51,2.69.39,2.32-.31,4.58-.52,6.91-.65.46-.03.94-.11,1.41-.08,1.17.09,1.03.63,1.39,1.6.42,1.14,1.06,1.65,2.28,1.83,1.73.26,3.61-.04,5.36-.02,2.27.03,4.53.15,6.8.31,9.04.67,18.08,2.14,27.17,1.61,2.01-.12,4.02-.33,6.01-.66.99-.16,2.11-.79,2.4.49.25,1.07-.03,2.65-.01,3.75.01.87.28,2.22.05,3.07s.16.43-.2.65c-.19.12-1.16-.09-1.44-.09-1.74.02-3.44.48-5.14.81-2.22.43-4.15.47-6.24-.5-1.64-.76-3.22-1.11-5.03-.77s-3.3,1.13-4.87,1.85c-1.68.77-3.4,1.41-5.12,2.06-2.67,1.02-6.06,2-5.28,5.52.51,2.31,1.7,4.55,2.56,6.74,1.63,4.13,3.37,8.22,5.17,12.28,3.73,8.42,7.62,16.75,11.04,25.31,1.59,4,3.15,8.07,3.63,12.38.25,2.25.59,4.63,3.45,4.3,1.38-.16,2.72-.76,4.04-1.15.83-.24,2.11-.79,3-.59,1.41.32,1.17,2.73,1.22,3.85.18,4.06.42,8.11.66,12.18.15,2.5-.52,6.38,2.25,7.73,1.23.6,2.71.5,4.03.53,2.51.06,5.03.15,7.54.23,4.65.15,9.3.31,13.95.36,1.3.01,3.43-.32,4.65.32,1.46.77.48,2.89.46,4.2s.53,3.06.13,4.41c-.51,1.73-2.75.07-4,.1-2.05.06-5.18,2.46-5.4,4.58-.31,3.06,3.29,2.39,5.17,2.57,2.7.26,4.36,1.72,5.1,4.29.63,2.21,1.63,6.36.27,8.41-.75,1.13-2.27,1.67-3.45,2.21-2.29,1.05-4.58,2.09-6.87,3.12-4.24,1.92-8.48,3.83-12.72,5.73s-8.49,3.8-12.74,5.68c-.54.24-.55.92-.36,1.37l3.41,7.91c.23.54.93.56,1.37.36,8.42-3.71,16.8-7.5,25.35-10.9,3.73-1.48,7.46-2.98,11.08-4.73,2.01-.97,3.94-2.22,6.07-2.93s4.34-1.01,6.56-1.21c1.28-.12,1.29-2.13,0-2.01Z"/><path class="cls-15" d="m623.84,382.53c.06-1.69,0-3.51.44-5.13.13-.47.27-.77.53-1.01.17-.15.01-.03.11-.1.09-.06.19-.12.29-.18.15-.08.33-.15.66-.24,1.66-.46,3.48-.46,5.19-.58,1.56-.11,3.54-.35,4.91-.03.12.03.23.06.35.1.23.08-.07-.05.14.06.04.02.28.19.19.11-.13-.1.23.26.14.14.03.04.17.31.17.33.04.12.07.23.1.35.01.04.08.42.06.28.24,1.77.05,3.78-.16,5.54-.08.65-.23,1.63-.86,1.94-.68.33-1.66-.1-2.36-.3-.86-.25-1.85-.4-2.66.1-.93.58-1.16,1.67-1.43,2.65-.3,1.11-1.08,1.72-2.17,1.98-.5.12-1.01.15-1.52.16s-1.15.08-1.62-.11c-.67-.28-.49-1.3-.47-1.91.01-.5,0-.98-.06-1.48-.11-.89,0-1.77.04-2.66.06-1.29-1.95-1.29-2.01,0-.04.89-.16,1.77-.05,2.66.06.5.08.98.07,1.49-.03.98-.05,2.02.54,2.86.74,1.04,2.02,1.16,3.19,1.17s2.39-.11,3.48-.6c1.17-.53,2-1.5,2.41-2.7.18-.52.19-1.21.54-1.66.14-.18.22-.19.52-.15,1.13.15,2.13.72,3.32.61,1.02-.1,1.9-.63,2.42-1.53.64-1.11.7-2.44.78-3.68.07-1.09.15-2.19.14-3.28-.02-1.39-.19-2.97-1.42-3.84s-3.07-.79-4.54-.72c-2.27.1-4.59.21-6.84.57-1.52.24-3.02.8-3.71,2.28-.92,1.95-.76,4.44-.83,6.53-.05,1.29,1.96,1.29,2.01,0Z"/><path class="cls-15" d="m609.06,370.7c.08-.21.19-.41.36-.56.1-.09.17-.12.36-.16.09-.02.27-.02.49,0s.33.03.6.08c1.17.2,2.26.38,3.37-.15l-1.22-.16c1.26,1.2,2.9.49,4.42.58.12,0-.08-.01-.08-.01.05,0,.1.02.14.03.07.02.14.04.21.06-.16-.05-.07-.04.02.02.02.01.12.08.02,0-.12-.09.05.04.07.07.12.14-.06-.12.05.05.05.08.09.15.13.23-.07-.14.05.14.06.19.04.13.07.27.09.41.17,1.07.09,2.34-.2,3.34-.07.25-.09.3-.16.44-.05.1-.11.2-.16.29-.02.04-.05.08-.08.12-.09.13.09-.1-.02.01-.06.07-.13.13-.19.2-.03.03-.07.06-.1.09.04-.03.14-.09-.02,0-.08.05-.16.1-.25.14-.13.06,0,.01-.18.07-.52.16-.92.19-1.49.18-.77-.01-1.49.06-2.26.13-1.09.09-2.21.17-3.3.04.17.02-.12-.02-.16-.03-.09-.02-.18-.03-.27-.06-.19-.04-.37-.1-.55-.17-.05-.02.13.08-.03-.02-.06-.04-.12-.07-.19-.11-.11-.06-.19-.15-.05-.02-.06-.05-.11-.11-.17-.16-.16-.13.05.1-.03-.03-.04-.08-.09-.15-.13-.23-.08-.12.03.17-.02-.04-.02-.09-.05-.19-.07-.28-.07-.22,0,.1-.02-.07,0-.1-.01-.19-.02-.29,0-.23,0-.45.03-.68.01-.15-.01.03.03-.19.03-.14.05-.29.08-.43.06-.3.14-.59.22-.88.2-.7.43-1.39.68-2.07.19-.51-.21-1.1-.7-1.24-.56-.15-1.05.19-1.24.7-.7,1.9-1.76,4.58-.68,6.53,1.02,1.85,3.58,1.88,5.42,1.79.79-.04,1.57-.14,2.36-.22.7-.08,1.41.05,2.11-.04,1.22-.15,2.3-.66,3-1.71s.82-2.38.86-3.59c.04-1.27.02-2.84-.93-3.81-.76-.78-1.84-.86-2.87-.76-.45.05-.89.12-1.34.12-.1,0-.2,0-.3-.01-.18,0,.02,0,.05,0-.05-.01-.09-.02-.14-.03s-.09-.03-.14-.04c.11.03.13.08.02,0-.03-.02-.06-.03-.09-.05-.2-.13.16.14-.02-.02-.35-.33-.8-.35-1.22-.16-.13.06-.3.09-.49.1-.2,0-.57-.02-.68-.04-.62-.09-1.22-.24-1.85-.27-1.54-.08-2.54.82-3.08,2.2-.2.51.22,1.1.7,1.24.57.16,1.04-.19,1.24-.7Z"/><path class="cls-5" d="m606.9,175.88c0,1.87,0,3.74,0,5.61.02,5.62,0,5.35-5.65,5.79-4.08.32-5.95-.64-5.19-5.03.29-1.69.01-3.47.06-5.2.22-8.24.58-8.61,8.32-10.96,1.97-.6,2.67-.44,2.53,1.79-.16,2.66-.04,5.33-.04,8,0,0-.02,0-.02,0Z"/><path class="cls-5" d="m901.06,83.75q7.72-.11,7.6,7.78c-.01.8-.14,1.62-.02,2.4.51,3.29-1.1,4.3-4.1,4.02-1.06-.1-2.15.1-3.2-.02-2.45-.27-6.08,1.32-7.12-.85-1.77-3.68-1.11-8.1-.62-12.22.15-1.23,1.35-1.08,2.26-1.1,1.74-.03,3.48-.01,5.21-.01Z"/><path class="cls-7" d="m640.06,284.28c1.05,3.44-.61,4.7-4.65,4.7-5.86,0-11.71.61-17.57,1-1.5.1-2.59-.11-2.91-1.89-.28-1.55-.49-2.94,1.3-3.71.24-.1.46-.34.71-.37,6.05-.63,10.96-4.7,16.96-5.53,6.13-.85,6.13-.91,6.17,5.79Z"/><path class="cls-7" d="m629.41,323.25c-6.24.41-6.75-.05-6.47-6.49.06-1.52-.07-2.91-.72-4.27-1.49-3.1.55-3.88,2.69-3.13,3.85,1.35,7.81,1.63,11.76,2.08,2.06.23,2.58.98,2.66,2.97.33,8.14.41,8.14-7.92,8.72-.67.05-1.33.08-2,.13Z"/><path class="cls-5" d="m878.7,334.01q.02,6.96-6.75,7.15-7.11.2-7.23-6.94-.11-6.81,6.88-7.13t7.1,6.93Z"/><path class="cls-5" d="m774.53,68.38q7.05-.18,6.91,6.82c-.01.67-.1,1.34-.02,2,.4,3.6-.94,5.24-4.7,4.35-.51-.12-1.08.05-1.6-.04-2.31-.4-5.73,1.44-6.75-.73-1.54-3.28-1.32-7.28-1.1-11.03.07-1.26,1.09-1.35,2.05-1.36,1.74-.02,3.47,0,5.21,0Z"/><path class="cls-5" d="m810.19,341.23c-6.31-.14-6.38-.14-6.31-6.24.09-8.43-.87-6.77,6.97-6.99,6.63-.19,6.64-.09,6.66,6.42q.03,6.97-7.32,6.81Z"/><path class="cls-5" d="m878.17,120.86c7.18-.16,6.28-1.08,6.19,5.82-.09,6.78-.12,6.87-7.17,6.8-7.3-.07-6.57,1.33-7.1-6.42-.4-5.72-.26-5.73,5.29-6.07.93-.06,1.86-.09,2.8-.13Z"/><path class="cls-5" d="m854.52,110.38q-.08,6.52-6.57,6.77c-.27.01-.53.03-.8.04q-5.36.19-5.76-5.07-.63-8.22,7.23-8.41,5.99-.15,5.9,6.68Z"/><path class="cls-5" d="m918.27,281.8q-.04,6.9-7.12,6.82c-1.2-.01-2.41-.12-3.61-.04-1.73.11-2.47-.61-2.37-2.33.05-.8-.02-1.6-.03-2.41-.12-9.01-.12-8.85,9.09-9.13,3.45-.1,4.58,1.01,4.06,4.27-.15.91-.02,1.87-.02,2.8Z"/><path class="cls-5" d="m788.51,420.95q-.06,6.67-6.94,6.41-5.84-.22-5.99-5.89-.17-6.8,6.65-7.3,6.35-.47,6.28,6.78Z"/><path class="cls-5" d="m765.34,238.58q-6.2-.29-6.57-6.56t5.98-6.2q7.29,0,7.68,5.65.51,7.46-7.09,7.1Z"/><path class="cls-5" d="m878.19,248.89q0,6.11-5.99,6.06-7.22-.07-7.22-7.26,0-5.58,5.64-5.93,7.56-.47,7.57,7.13Z"/><path class="cls-5" d="m877.07,173.25c8.32-.44,6.69-.09,6.56,6.34-.15,7.26,1.42,6.1-6.41,6.48-8,.39-6.78,1.06-7.24-6.4-.38-6.01-.21-6.02,7.1-6.42Z"/><path class="cls-5" d="m726.37,421.14q6.68-.09,6.75,6.78.05,5.4-5.31,5.64-8.16.36-8.13-7.49.02-4.84,6.69-4.94Z"/><path class="cls-5" d="m580.16,257.21q-6.08.31-6.44-5.07-.51-7.55,6.94-7.12c6.38.36,6.54.37,6.46,5.28-.04,2.32,1.97,5.32.02,6.68-1.6,1.12-4.6.23-6.98.23Z"/><path class="cls-5" d="m905.62,215.36c0,.35-.09,1.43.02,2.48.24,2.18-.55,3.15-2.86,3.15-11.03-.01-9.37,1.99-9.91-9.1-.15-3.16.55-4.89,4.06-4.3.39.07.8,0,1.2,0,8.79-.09,6.85-.87,7.49,7.76Z"/><path class="cls-5" d="m693.94,111.23q-.24,6.94-6.96,6.96c-5.86.01-5.94.01-5.94-5.81,0-7.44-1.22-6.4,6.45-6.83.27-.01.53-.01.8-.02q5.85-.18,5.64,5.7Z"/><path class="cls-5" d="m817.49,92.43q.07,6.44-8.74,6.51c-3.82.03-3.82-.28-4.07-9.49-.08-3.04,1.16-3.42,3.73-3.41,9,.02,9-.07,9.08,6.39Z"/><path class="cls-5" d="m799.51,146.95q-.05,5.67-5.56,5.78c-1.2.02-2.42-.08-3.61.05-2.24.24-3.07-.66-3.09-2.92-.1-12.07-1.83-9.52,8.78-9.91,2.91-.11,4.35.64,3.69,3.81-.21,1.04-.15,2.13-.21,3.2Z"/><path class="cls-5" d="m793,173.98c6.58.04,6.64.05,6.44,6.39-.23,7.27.6,6.16-6.26,6.22-6.09.06-6.09,0-6.47-6.13-.06-.94.02-1.89-.16-2.8-.54-2.71.26-4.08,3.25-3.7,1.05.14,2.14.02,3.21.02Z"/><path class="cls-5" d="m831.5,173.82q6.69.05,6.44,6.53-.22,5.56-5.65,5.71c-.4.01-.8,0-1.2,0q-6.07-.01-6.3-5.95-.25-6.34,6.72-6.29Z"/><path class="cls-5" d="m823.66,265.15c1.13-1.55-2.65-5.98,2.26-5.48,3.38.34,9.11-4.04,10.1,2.13,1.43,8.9.53,9.31-5.86,9.8q-5.99.46-6.49-6.45Z"/><path class="cls-5" d="m791.41,322.51c.84,0,.58,0,.31,0q-5.5.1-5.77-5.33-.33-6.71,6.35-6.72c1.07,0,2.14.09,3.2,0,2.19-.2,3.26.62,3.05,2.93-.08.92.04,1.86.06,2.79q.1,6.16-7.19,6.33Z"/><path class="cls-5" d="m721.88,379.77c1.79.4,5.15-.76,5.72.79,1.04,2.85,1.75,6.98.39,9.25-1.82,3.04-6.27.8-9.51,1.46-1.42.29-2.28-.28-2.35-1.87-.05-1.19-.3-2.38-.4-3.57q-.52-6.29,6.16-6.06Z"/><path class="cls-5" d="m838.81,385.69c1.35-1.4-2.7-5.53,2.63-5.48,9.21.07,9.21.05,9.24,4.03q.05,7.84-6.52,7.9-5.28.05-5.35-6.44Z"/><path class="cls-5" d="m738.6,152.63c-6.14-.18-5.82-.19-6.12-6.35-.2-4.02,1-5.18,4.96-5.21,7.13-.06,7.13-.32,7.03,6.91,0,.27-.05.54,0,.8.53,3.44-.61,5.04-4.28,3.98-.5-.14-1.06-.1-1.59-.14Z"/><path class="cls-5" d="m756.13,186.85q-6.18-.03-6.19-6.08-.01-5.29,5.26-5.39c7.68-.16,7.34-.15,7.44,7.46.08,6.2-4.33,3.18-6.5,4.02Z"/><path class="cls-5" d="m738.08,204.05q-5.35.4-5.08-5.06c.32-6.62.34-6.41,6.76-6.81,3.74-.23,5.36.4,5.28,4.75-.11,6.57.29,6.57-6.96,7.12Z"/><path class="cls-5" d="m817.69,128.62c-.44,2.34,1.66,6.33-3.98,5.76-9.27-.93-7.85.78-8.14-9.49-.12-4.4,4.48-2.13,6.81-2.29,5.41-.36,5.42-.06,5.31,6.02Z"/><path class="cls-5" d="m817.29,180.66c.67,3.59.43,5.86-4.32,5.65-7.4-.34-7.87-.04-7.44-8.99.27-5.62,5.28-2.01,8.02-2.62,6.12-1.36,2.92,3.77,3.74,5.97Z"/><path class="cls-5" d="m571.88,198.78c-.2,6.29-.2,6.07-6.57,5.85-3.83-.13-5.22-1-4.68-5.28,1.11-8.88.8-8.87,9.59-7.09,1.43.29,1.69.94,1.67,2.13-.02,1.46,0,2.93,0,4.39Z"/><path class="cls-5" d="m669.18,288.87c-1.37-1.56-6.01,3.15-5.67-3.06.45-8.36.28-8.72,5.48-8.1,2.25.27,6.74-2.43,6.59,3.3-.2,7.96-.15,7.96-6.4,7.87Z"/><path class="cls-5" d="m855.91,230.92q.43,6.17-5.72,6.18-5.2,0-5.56-6.12-.34-5.92,5.5-5.86,5.38.05,5.78,5.8Z"/><path class="cls-5" d="m794,277.3c.94,0,1.89.11,2.81-.02,2.51-.35,3.13.69,3.15,3.14.07,8.34.17,8.18-7.97,8.36-3.33.07-5.12-.56-4.33-4.27.05-.25-.01-.53-.01-.8q-.01-6.4,6.36-6.42Z"/><path class="cls-5" d="m589.04,198.66c.05,1.07.02,2.14.16,3.2.24,1.87-.39,2.81-2.39,2.55-.53-.07-1.07-.05-1.6-.06-7.26-.16-7.06-.17-7.56-7.4-.25-3.69.84-4.85,4.54-4.7,6.54.27,6.55.07,6.84,6.41Z"/><path class="cls-5" d="m845.85,282.46c-.03-5.67-.03-5.8,6.15-5.68,6.23.12,4.64-1.68,5.24,8.71.24,4.06-2.39,3.02-4.39,3.06-6.97.13-6.97.08-7-6.09Z"/><path class="cls-5" d="m756.15,288.66c-6.36-.11-6.85-.16-6.09-8.24.55-5.88,5.99-2.83,8.84-2.8,6.18.05,2.5,5.27,2.91,8.05.85,5.8-4.08,1.71-5.66,3Z"/><path class="cls-7" d="m669.64,339.7c-6.26-.08-6.15-.08-6.27-7.79-.09-5.69,4.1-2.85,6.24-2.98,5.78-.34,5.57-.07,5.78,7.57.16,5.82-3.98,2.28-5.74,3.2Z"/><path class="cls-5" d="m721.64,209.97q5.95-.09,6,5.67.05,5.49-5.36,5.56-6.63.08-6.67-6.28-.03-4.86,6.03-4.94Z"/><path class="cls-5" d="m663.54,300.61q0-6.24,5.78-6.25c6.11-.01,6.02-.01,6.12,7.5.09,6.71-4.89,2.79-7.46,3.52-5.16,1.45-4.68-2.3-4.43-4.77Z"/><path class="cls-5" d="m669.32,271.63c-1.06,0-2.14-.1-3.19.02-2.05.23-2.71-.44-2.67-2.64.12-8.28.03-8.2,8.29-8.22,2.69,0,4.46.38,3.69,3.64-.09.38-.01.79-.02,1.19q-.03,5.89-6.11,6.01Z"/><path class="cls-5" d="m778.54,380.68c1.58.8,5.66-2.39,5.19,2.29-.31,3.15,3.19,8.93-2.63,9.28-10.36.63-8.41,1.07-8.61-2.21q-.53-8.92,6.04-9.35Z"/><path class="cls-5" d="m646.3,198.94c1.61-1.59-2.63-5.73,2.86-5.66,8.58.1,8.58.02,8.64,4.33.09,7.22.08,6.97-7.82,7.41-5.81.32-2.43-3.94-3.68-6.07Z"/><path class="cls-5" d="m738.48,311.7c.67,0,1.35.08,2-.01,3-.44,4.18.45,4,3.82-.38,6.91-.2,6.56-6.88,7.34-4.48.52-5.68-.96-5.03-4.98.02-.13,0-.27,0-.4q-.12-5.94,5.93-5.77Z"/><path class="cls-5" d="m685.39,444.33c6.62-.04,6.97-.03,6.63,8.33-.25,6.09-5.52,2.82-8.2,2.95-7.08.36-3.05-5.52-3.6-8.42-1.08-5.72,4.14-1.11,5.17-2.86Z"/><path class="cls-5" d="m681.26,282.22c-1.4-3.79,1.09-5.03,4.7-4.53,2.38.33,6.81-2.19,6.59,2.74-.12,2.7,3.29,7.75-2.93,8.26-8.02.65-8.03.46-8.36-6.47Z"/><path class="cls-5" d="m674.98,148.44c.02,5.93-.01,5.58-5.79,6.09-4.54.4-5.15-1.49-5.02-5.33.23-6.67.03-6.68,5.96-6.73q4.83-.04,4.84,5.97Z"/><path class="cls-5" d="m805.5,231.26c.95-1.64-2.34-6.3,3.06-5.25,2.72.53,7.85-3.26,8.04,2.65.31,9.94,1.65,8.54-5.75,8.97-5.19.3-5.2.15-5.35-6.37Z"/><path class="cls-5" d="m669.48,254.85c-2.85-.25-6.3,1.37-6-3.86.4-7.05.12-6.88,8.1-7.15,6.8-.23,3.06,4.77,3.6,7.26,1.23,5.68-3.58,3.01-5.7,3.74Z"/><path class="cls-5" d="m651.86,221.83c-1.84-.54-5.92,1.93-5.09-3.05.48-2.89-2.67-7.61,2.16-8.3,2.52-.36,8.23-3.29,8.77,2.81.74,8.32.34,8.35-5.84,8.55Z"/><path class="cls-7" d="m686.63,311.72c6.26.09,6.86.15,6.02,8.82-.53,5.44-5.94,2.3-8.64,2.22-6.01-.2-2.26-5.38-2.74-8.19-.96-5.61,3.87-1.61,5.37-2.85Z"/><path class="cls-5" d="m687.19,339.59q-5.79.23-5.99-4.45c-.25-6.07-.22-6.45,4.41-6.08,2.46.2,6.89-2.9,7.27,2.73.5,7.56.37,7.56-5.69,7.8Z"/><path class="cls-5" d="m774.24,311.68c5.63-.06,5.22-.03,5.61,5.23.35,4.74-1.43,5.74-5.77,5.76-5.76.02-5.76.39-5.91-5.05q-.16-5.87,6.07-5.94Z"/><path class="cls-5" d="m737.99,186.61c-1.9-.67-6.54,2.18-5.34-3.42.56-2.63-3.32-7.94,3.24-7.49,2.68.19,7.68-3.32,8.11,2.67.57,8.08.23,8.11-6,8.24Z"/><path class="cls-5" d="m721.18,288.97q-5.5-.29-5.68-5.88t5.72-5.22,5.81,5.9-5.84,5.2Z"/><path class="cls-5" d="m669.41,322.52c-5.8.42-5.52.4-5.91-5.57-.26-3.94.39-5.56,4.87-5.25,6.91.47,6.79.15,7.03,7.25.1,2.88-.42,4.3-3.6,3.6-.76-.17-1.59-.03-2.39-.03Z"/><path class="cls-5" d="m756.69,157.77c1.45,1.21,5.44-2.79,5.48,2.6.06,8.56.13,8.56-2.77,8.59q-8.7.09-9.02-8.77-.08-2.25,6.31-2.42Z"/><path class="cls-7" d="m721.52,339.8c-1.07,0-2.15-.1-3.2.02-2.14.25-2.94-.69-2.72-2.73.04-.39-.1-.81-.02-1.2.43-2.3-1.89-5.81.13-6.6,2.88-1.12,6.53-.29,9.85-.21,1.28.03,1.32,1.09,1.34,2.06.02,1.07.01,2.13.01,3.2q-.01,5.57-5.4,5.46Z"/><path class="cls-5" d="m732.75,299.43c.99-1.48-2.5-5.95,2.82-5.02,2.82.49,7.75-2.87,8.26,2.17.9,8.75.34,8.81-8.35,8.88q-2.64.02-2.73-6.03Z"/><path class="cls-5" d="m686.61,271.68c-5.56.05-5.43.04-5.67-7.89-.09-2.82.93-3.32,3.44-3.25,9.86.26,8-.02,8.07,4.35.12,6.74.06,6.74-5.84,6.79Z"/><path class="cls-5" d="m652.03,271.5q-5.24.23-5.27-4.96c0-1.07-.04-2.13-.05-3.2,0-.53-.22-1.33.04-1.56,2.97-2.51,6.41-.69,9.64-.92,1.98-.14,2.05,1.17,1.67,2.68-.16.64-.17,1.32-.21,1.98q-.31,5.73-5.83,5.97Z"/><path class="cls-5" d="m703.89,311.69c6.08.2,5.84.2,5.93,6.16.06,3.94-.68,5.61-5.21,5.09-5.78-.66-5.83-.25-5.92-6.02q-.08-5.41,5.2-5.23Z"/><path class="cls-5" d="m787.03,265.57c.89-1.54-2.53-5.99,2.73-5.01,2.93.54,8.29-3.59,8.52,2.97.09,2.55,3.35,7.77-3.35,8.02-7.64.29-7.64.32-7.9-5.98Z"/><path class="cls-5" d="m774.59,277.39c5.73-.02,6.14.01,5.61,7.52-.46,6.47-5.92,2.36-8.97,3.2-4.03,1.12-2.33-2.58-2.38-4.15-.22-6.56-.1-6.56,5.75-6.57Z"/><path class="cls-5" d="m698.67,215.55c1.42-1.46-2.83-6.28,2.71-5.54,2.83.38,8.04-3.16,8.43,3.04.51,8.13.19,8.15-8.8,8.47q-2.2.08-2.33-5.97Z"/><path class="cls-5" d="m756.36,260.27c1.89,1.54,6.83-2.33,5.77,3.21-.51,2.65,3.68,7.82-2.94,8.06-8.58.3-8.54.12-8.57-8.39-.02-5.4,4.11-1.15,5.74-2.87Z"/><path class="cls-5" d="m732.57,283.59c-.06-5.86-.05-6.11,5.49-5.8,2.13.12,6.08-2.26,6.04,3.01-.05,8.29-.03,8.59-9.47,8.33-4.26-.12-.93-4.03-2.07-5.54Z"/><path class="cls-5" d="m829.71,277.21c1.53.74,5.71-2.16,4.77,2.74-.54,2.82,3.15,7.7-2.34,8.18-2.56.22-7.92,3.46-8.6-2.46-.93-8.12-.53-8.16,6.17-8.45Z"/><path class="cls-5" d="m720.7,192.75c7.59.57,6.19-1.76,6.14,8.39-.03,6.34-5.37,2.62-7.87,2.7-6.81.22-2.7-5.43-3.3-8.26-1.1-5.17,3.56-1.7,5.03-2.83Z"/><path class="cls-5" d="m873.82,380.03c1.39.99,5.75-2.42,4.79,2.58-.56,2.94,3.36,8.13-2.83,8.7-8.15.75-8.18.38-8.31-4.39q-.18-6.69,6.35-6.89Z"/><path class="cls-5" d="m738.35,271.7c-6.09.02-5.94.02-6.1-8.58-.06-3.15,1.95-3.16,3.5-2.5,2.66,1.13,7.85-3.54,8.02,3.12.21,7.93.04,7.94-5.42,7.95Z"/><path class="cls-5" d="m692.36,249.56c-.56,1.86,1.85,6.29-3.33,5.01-2.61-.64-7.58,3.6-7.78-2.98-.24-8.08-.13-8.09,5.93-8.15q5.1-.05,5.17,6.12Z"/><path class="cls-5" d="m703.77,305.35c-2-.39-6.16,1.61-4.84-3.21.72-2.63-3.74-7.82,2.76-7.71,2.61.04,7.84-3.39,8.08,3.13.29,7.7.13,7.71-6,7.78Z"/><path class="cls-5" d="m618.09,204.78c-6.28-.09-6.18-.09-6.15-8.4.02-4.65,3.45-2.44,5.13-2.4,7.44.17,5.65-1.36,6.18,7.74.3,5.15-3.41,2.42-5.16,3.06Z"/><path class="cls-5" d="m704.36,328.8c5.59.02,5.25.04,5.67,7.04.31,5.13-2.95,3.9-5.6,3.93-5.84.06-5.84,0-5.83-7.87q0-3.12,5.77-3.1Z"/><path class="cls-5" d="m704.27,288.65q-5.62,0-5.59-7.62c.03-6.42,4.97-2.65,7.58-3.5,3.31-1.08,3.81,1.03,3.74,3.91-.18,7.21-.06,7.21-5.73,7.21Z"/><path class="cls-5" d="m720.49,305.28c-1.48-.88-5.79,2.11-4.82-2.75.54-2.73-3.38-7.72,2.49-7.98,2.69-.12,8.09-3.48,8.63,2.91.64,7.55.34,7.57-6.3,7.83Z"/><path class="cls-5" d="m704.32,396.48c1.44,1.37,5.54-2.41,5.49,2.9-.07,7.55-1.58,9.62-9.32,8.56-3.87-.53-.99-5.1-1.63-7.77-1.2-4.98,2.8-3.32,5.47-3.69Z"/><path class="cls-5" d="m692.5,300.37c-.8,1.57,2.41,5.96-2.83,4.94-2.78-.54-8.16,3.47-7.97-3.02.07-2.41-3.94-7.47,2.41-7.91,8.15-.57,8.17-.32,8.39,6Z"/><path class="cls-5" d="m698.77,265.63c1.13-1.38-2.46-5.83,2.56-4.95,2.85.5,8.15-3.13,8.3,2.97.06,2.42,3.5,7.84-3.27,7.97-7.46.15-7.47.11-7.59-5.99Z"/><path class="cls-5" d="m669.11,372.98c-1.2,0-2.4-.04-3.6.01-1.23.06-2.03-.19-2.01-1.7.04-2.26-.07-4.53-.11-6.79,0-.26-.08-.66.06-.77,3.03-2.45,6.52-.57,9.78-.97,1.85-.23,2.24.98,2.08,2.53-.04.4-.02.8-.02,1.2q0,6.36-6.18,6.49Z"/><path class="cls-5" d="m669.42,221.54c-1.87-1.22-6.06,1.97-5.61-2.44.28-2.71-3.44-7.88,2.77-8.37,8.45-.67,8.29-.38,8.82,7.15.41,5.81-4.08,2.18-5.99,3.66Z"/><path class="cls-5" d="m617.92,210.71c5.3-.02,4.97,0,5.47,7.24.36,5.3-3.14,3.74-5.65,3.8-2.79.06-6.24,1.2-5.92-4.13.42-6.86.08-6.88,6.09-6.9Z"/><path class="cls-5" d="m756.53,339.49c-5.81.2-5.61.18-6.21-7.71-.24-3.15,1.22-3.08,3.41-3.13,8.26-.2,8.26-.25,8.54,7.37q.12,3.27-5.74,3.47Z"/><path class="cls-5" d="m753.11,390.87c-1.49-.35-4.21.98-4.9-.74-1.11-2.76-.73-6.01-.38-9.05.14-1.22,1.38-1.04,2.27-1.06,1.73-.03,3.47.13,5.19.04,3.52-.18,5,1.18,4.68,4.91-.54,6.33,1.49,5.52-6.87,5.89Z"/><path class="cls-5" d="m773.42,248.13c0-.93,0-1.86,0-2.79,0-.4-.22-.95-.03-1.17,2.51-2.9,5.72-.47,8.57-1.04,1.17-.23,2.89-.45,2.5,1.84-.13.78-.1,1.59-.21,2.38-.3,2.17,1.57,5.5-.3,6.27-2.76,1.14-6.24.56-9.41.63-1.17.03-1.03-.96-1.04-1.74,0-1.46,0-2.92,0-4.38h-.07Z"/><path class="cls-5" d="m634.22,254.68c-1.19-1.51-5.18,2.85-5.15-2.33q.06-8.74,7.22-8.75,4.4,0,4.23,9.28-.03,1.79-6.3,1.79Z"/><path class="cls-5" d="m635,170.31c-1.76-.69-5.59,2.27-5.42-3.18.24-7.8.11-7.92,6.99-7.98,2.12-.02,4.57-.87,4.47,3.07-.19,8,0,8-6.04,8.09Z"/><path class="cls-5" d="m652.56,311.63c1.46,1.57,5.43-2.36,5.32,2.8-.18,8.56-.13,8.91-8.67,8.47-5.66-.29-2.13-5.11-2.63-7.71-1.06-5.58,3.73-2.43,5.97-3.57Z"/><path class="cls-5" d="m669.19,238c-.8,0-1.61-.09-2.4.02-2.35.3-3.94.02-3.05-3.02.7-2.41-1.68-5.79.32-7.09,1.88-1.23,5.15-.18,7.78-.43,2.96-.28,4.31.64,3.59,3.74-.06.26-.03.53-.04.8q-.17,5.91-6.21,5.99Z"/><path class="cls-5" d="m692.32,215.81c0,5.39,0,5.46-7.04,5.39-5.09-.05-3.86,1.14-4.21-7.59-.09-2.26,0-3.67,3.06-3.6,8.18.2,8.18.05,8.19,5.8Z"/><path class="cls-5" d="m646.53,334.23c.05-2.77-1.04-6.44,3.48-5.18,2.61.73,7.52-3.33,7.7,3.05.21,7.52.07,7.36-7.99,7.69-5.58.23-2.06-3.97-3.19-5.56Z"/><path class="cls-5" d="m669.11,345.52c.93,0,1.87.08,2.79-.02,2.32-.25,3.17.47,3.16,3.05-.02,7.32.12,7.08-7,7.54-3.98.26-4.94-1.02-4.7-4.82.35-5.79.1-5.8,5.75-5.76Z"/><path class="cls-5" d="m664.05,197.97c.72-1.43-2.38-4.73,2.49-4.73,8.32,0,8.35-.2,8.6,8.11.04,1.35,1.03,3.27-1.84,3.41-8.61.44-8.95.27-9.25-6.78Z"/><path class="cls-5" d="m779.86,180.74c-.02,5.63-.08,6.22-8.7,5.43-5.27-.48-2.57-5.99-2.31-8.55.53-5.21,5.31-1.8,8.08-2.26,5.5-.91,1.75,3.85,2.93,5.39Z"/><path class="cls-5" d="m755.6,322.63c-5.67-.19-5.7-.19-5.47-8.46.09-3.15-1.5-2.61,8.58-2.61,3.13,0,3.13.07,2.83,8.4q-.11,2.86-5.93,2.67Z"/><path class="cls-5" d="m692.41,198.61q.15,5.62-5.6,5.62-5.1,0-5.24-5.36-.17-6.27,5.84-6.22,4.84.04,5,5.96Z"/><path class="cls-5" d="m720.5,271.48c-1.24-.36-4.11,1.18-4.59-.65-.79-2.99-.32-6.34-.23-9.54.02-.78.94-.73,1.62-.68,1.06.08,2.13.14,3.2.2,6.47.36,6.26.37,6.55,6.85.15,3.32-1.01,4.3-4.04,3.83-.65-.1-1.33-.01-2.51-.01Z"/><path class="cls-5" d="m755.6,294.21c2.69.23,6.26-1.48,5.92,4.01-.42,6.81-.09,7.25-8.55,6.93-5.89-.22-1.9-5.32-2.73-8.04-.81-2.65-.2-2.84,5.36-2.89Z"/><path class="cls-5" d="m634.04,271.61c-1.58-.83-5.27,2.36-5.2-2.96.1-7.61-.13-8.04,4.43-7.61,2.29.22,6.69-3.15,6.96,2.58.37,7.74.28,7.74-6.19,7.99Z"/><path class="cls-5" d="m582.62,228.11c1.58.37,4.43-1.08,5.27.64,1.31,2.68.21,5.95.1,8.97-.01.29-.45.8-.7.81-3.31.08-6.62.14-9.93.08-.78-.01-.88-.84-.87-1.53,0-1.06,0-2.12-.01-3.18q-.06-5.66,6.15-5.79Z"/><path class="cls-5" d="m686.68,153.6c-5.65-.05-5.88-.06-5.56-7.28.3-6.66,6.18-3.65,8.78-3.51,5.46.3,1.69,5.28,2.39,8.08.65,2.62.12,2.75-5.62,2.7Z"/><path class="cls-5" d="m810.84,271.73c-1.06-1.6-4.94,2.71-4.91-2.16.06-8.96.1-8.8,7.4-9.07,3.46-.13,3.53,1.72,3.51,4.23-.05,6.95,0,6.95-6,7Z"/><path class="cls-5" d="m692.61,232.62c-.29,6.04-.33,6.4-8.99,5.35-5.26-.64-2.61-5.73-2.27-8,.82-5.49,5.67-1.84,8.63-2.29,5.38-.82,1.47,3.72,2.64,4.94Z"/><path class="cls-5" d="m646.43,232.97c1.13-1.86-2.07-6.03,2.97-5.21,2.94.48,7.91-2.43,8.53,2.11,1.07,7.81.21,8.32-9.38,8.46-4.4.06-.35-3.9-2.12-5.35Z"/><path class="cls-5" d="m647.02,249.04c1.08-1.61-2.61-5.9,3.27-5.5,7.67.53,8,.3,7.37,8.39-.49,6.29-5.6,1.72-8.42,2.76-2.11.79-2.36.12-2.23-5.65Z"/><path class="cls-5" d="m652.3,288.64c-5.69-.04-5.61-.04-5.68-8.06-.02-2.24.44-2.96,2.85-2.91,8.56.19,8.5.09,8.61,8.42.04,3.17.4,2.57-5.78,2.55Z"/><path class="cls-5" d="m721,322.54q-5.71.24-5.6-4.69c.14-6.21.14-6.26,6.49-6.14,1.65.03,4.41-.83,4.73.73.63,3.02.74,6.53-.24,9.38-.59,1.73-3.91.08-5.38.72Z"/><path class="cls-5" d="m721.54,227.58c1.06,0,2.13.08,3.19-.01,2.25-.2,2.94.5,2.65,2.94-.83,7.12-.7,7-8.13,7.28-2.68.1-4.07-.37-3.54-3.33.07-.39,0-.8,0-1.19q-.07-5.71,5.83-5.68Z"/><path class="cls-5" d="m715.1,345.6c1.53,0,2.58,0,3.64,0,8.64-.06,8.61-.07,8.27,8.65-.04,1.15-.2,1.79-1.44,1.77-.27,0-.53.04-.8.01-3.22-.32-7.59,1.66-9.36-.83-1.43-2.01.15-6.1-.31-9.6Z"/><path class="cls-5" d="m600.35,210.77c1.65.85,5.44-1.88,5.38,3.08-.09,7.73-.06,7.68-8.89,7.88-2.64.06-2.29-1.4-2.32-3.03q-.13-7.84,5.83-7.94Z"/><path class="cls-5" d="m816.87,162.29c0,.93-.1,1.88.02,2.8.34,2.57-.91,3.03-3.22,3.1-7.66.25-7.51.34-7.92-7.39-.15-2.83.54-3.94,3.4-3.49.91.14,1.87.01,2.8,0q5.25-.11,4.92,4.99Z"/><path class="cls-5" d="m702.87,203.83c-1.54.11-5.17,1.32-4.16-3.76.51-2.57-2.38-6.97,2-7.45,8.62-.94,8.7-.45,9.01,8.43q.09,2.56-6.85,2.78Z"/><path class="cls-5" d="m703.65,243.59c6.31.22,6.85.28,5.94,8.26-.6,5.24-6.35,2.98-8.65,2.53-4.83-.93-1.63-5.78-1.99-8.81-.58-4.92,3.62-.43,4.7-1.98Z"/><path class="cls-5" d="m640.36,199.75c-1.07,1.29,2.25,5.25-1.48,4.66-3.02-.48-8.51,3.4-9.25-2.77-.95-7.95-.51-8,6.68-8.37q3.69-.19,4.05,6.48Z"/><path class="cls-5" d="m651.82,187.35c-1.2-1.43-5.77,2.86-4.89-2.41.46-2.76-3.26-8.06,3.19-8.03,2.58.02,7.35-2.88,7.88,2.42.78,7.87.38,7.9-6.17,8.02Z"/><path class="cls-5" d="m756.59,123.8c1.81.6,4.73-1.08,5.37,1.07.8,2.68.22,5.79.11,8.71-.03.8-.91.77-1.58.76-1.33,0-2.68.16-3.99-.02-1.79-.24-4.67,1.42-5.08,0-.88-3.1-1.1-6.71-.36-9.82.4-1.66,3.61-.16,5.53-.7Z"/><path class="cls-5" d="m720.48,186.85c-1.21-1.28-5.67,2.73-4.76-2.45.49-2.81-3.23-7.52,2.09-8.2,2.66-.34,8.06-2.85,8.77,2.24,1.12,8.09.52,8.17-6.09,8.41Z"/><path class="cls-5" d="m688.06,362.71c3.59-1.09,4.96.36,4.54,4.81-.51,5.39-.17,5.42-5.56,5.48-1.2.01-2.4,0-3.59.08-1.48.09-2.3-.38-2.04-2.04.08-.52,0-1.06-.03-1.59q-.37-6.59,6.68-6.74Z"/><path class="cls-5" d="m687.09,356.59c-1.92-1.8-6.66,2.09-5.69-3.19.48-2.63-3.62-7.64,2.54-7.95,8.45-.43,8.3-.08,8.56,7.7.18,5.41-4.06,1.42-5.42,3.44Z"/><path class="cls-5" d="m704.13,227.53c2.76.41,6.34-1.46,5.96,3.86-.46,6.53-.14,6.49-7.83,6.54-7.05.05-3.02-5.29-3.42-7.84-.83-5.27,3.93-.99,5.3-2.56Z"/><path class="cls-5" d="m634.81,238.3c-1.2,0-2.41-.13-3.58.03-2.58.35-1.86-1.77-1.59-2.58.89-2.66-3.1-6.3.97-7.87,2.4-.92,5.51.02,8.3.1,1.35.04,1.87.76,1.83,2.04-.03.8-.02,1.6-.02,2.39q0,5.76-5.91,5.89Z"/><path class="cls-5" d="m687.03,136.47c-1.54-.66-4.17,1.24-4.91-.76-.93-2.52-.69-5.48-.87-8.26-.05-.8.68-1.1,1.37-1.12,3.06-.09,6.11-.15,9.17-.17.35,0,1.01.28,1.01.43-.03,3.15-.04,6.31-.28,9.45-.05.68-1.11.43-1.75.42-1.2-.02-2.39,0-3.74,0Z"/><path class="cls-5" d="m594.65,233.73c.22-6.37.22-6.16,7.8-6.25,3.66-.04,3.31,1.97,3.23,4.29-.22,6.51-1.15,7.26-8.9,6.97-4.66-.18-.92-3.75-2.13-5.01Z"/><path class="cls-5" d="m669.72,176.97c5.54.05,5.22.08,5.69,5.8.33,4.05-1.03,4.87-4.78,4.71-6.57-.28-6.09-.1-6.76-6.25-.63-5.79,2.99-4.15,5.86-4.26Z"/><path class="cls-5" d="m750.86,408.58c-1.28-.32-3.88,1.07-4.42-.68-.92-3-.69-6.33-.23-9.51.1-.69,1.07-.62,1.74-.61.93,0,1.87,0,2.8,0,8.3.02,6.49-.49,6.9,6.76.18,3.28-1.06,4.29-4.03,4.06-.8-.06-1.6,0-2.75,0Z"/><path class="cls-5" d="m652.26,305.4c-1.84-.56-6.09,1.86-4.96-3.09.61-2.69-3.53-7.77,2.78-7.83,2.41-.02,7.27-3.23,7.63,2.77.48,7.99.32,8-5.44,8.15Z"/><path class="cls-5" d="m589.53,180.41c.49,6.2.47,5.9-5.71,6.27-3.87.23-5.22-.78-4.36-4.6.43-1.91-.84-4.64.82-5.68,2.29-1.44,5.24-1.86,7.93-2.62,1.13-.32,1.3.57,1.31,1.42.02,1.74,0,3.48,0,5.22Z"/><path class="cls-5" d="m770.57,146.81c.04-5.78.04-5.9,4.88-5.7,2.36.1,5.82-1.55,5.49,3.6-.47,7.34-.19,7.2-7.76,7.34-5.56.11-1.72-3.73-2.61-5.25Z"/><path class="cls-5" d="m793.28,133.53c-5.26.07-5.08.06-5.48-7.26-.17-3.23,1.43-3.96,3.71-3.16,2.58.91,7.63-3.25,7.57,3.41-.07,8.51.48,6.72-5.8,7Z"/><path class="cls-5" d="m687.29,170.27c-3.26.26-6.94,1.23-5.76-3.72.54-2.28-3.34-6.79,3.15-6.61,7.83.22,7.95-.01,7.82,8.23-.07,4.76-3.97.89-5.21,2.1Z"/><path class="cls-5" d="m737.9,345.09c1.84,1.65,6.39-2.45,5.63,2.79-.4,2.78,3.68,8.09-3.27,8.4-7.3.33-7.32.27-7.62-8.55-.19-5.43,4.1-.23,5.26-2.64Z"/><path class="cls-5" d="m595.11,197.97c1.55-1.17-2.67-5.26,1.91-5,10.25.57,8.43-.62,8.43,6.14,0,1.83,2.24,5.45-2.68,5.34-7.63-.17-7.63-.05-7.66-6.48Z"/><path class="cls-5" d="m634.83,221.47c-5.26.13-5.38.13-5.35-5.84.01-2.07-1.57-5.95,2.97-4.92,2.7.62,7.6-3.35,7.97,2.92.45,7.68.26,7.69-5.6,7.84Z"/><path class="cls-5" d="m721.86,254.41c-3.24-.25-7.46,1.25-6.19-4.08.53-2.22-3.07-6.71,3.01-6.47,10.07.39,7.48-.96,8.24,7.59.49,5.48-3.96,1.45-5.06,2.96Z"/><path class="cls-5" d="m692.72,402.87c-1.66,1.26,2.4,5.08-2.37,5.09-8.88.02-9.01-.02-8.69-8.05.25-6.13,5.03-2.38,7.57-2.91,5.55-1.16,2.66,3.47,3.48,5.87Z"/><path class="cls-5" d="m670.12,390.49c-5.66.29-5.43.27-6.03-5.67-.38-3.79.74-5.71,4.56-4.94,2.07.41,5.75-2.57,6.02,2.4q.43,7.96-4.55,8.21Z"/><path class="cls-5" d="m652.6,345.48c2.04.38,5.47-1.45,5.19,3.62-.36,6.74-.07,6.63-7.8,6.91-5.49.2-2.85-3.87-3.41-6.15-1.36-5.54,2.76-4.27,6.02-4.38Z"/><path class="cls-5" d="m774.08,117.07c-1.33-.33-4.14,1.26-4.39-.41-.45-3.03-1.54-7.41.56-9.15,1.95-1.62,6.14-1.08,9.21-.61,2.28.35.73,2.93,1.04,4.48.05.26-.05.54,0,.8.69,3.68-.52,5.53-4.53,4.78-.51-.1-1.06.06-1.88.12Z"/><path class="cls-5" d="m617.66,227.9c5.96.37,6.44.44,5.44,7.53-.8,5.66-6.01,2.55-8.65,2.36-5.14-.37-1.69-5.1-2.37-7.8-.57-2.29,0-2.44,5.58-2.09Z"/><path class="cls-5" d="m686.82,390.08c-2.21-.22-5.95,1.8-5.1-3.07.47-2.67-2.72-7.9,3.75-7.01,2.48.34,6.95-3.27,7.43,2.48.61,7.32.42,7.34-6.08,7.6Z"/><path class="cls-5" d="m845.92,197.31c-.06-5.49-.05-5.4,6.46-5.61,2.69-.09,4.76.36,3.72,3.52-.84,2.55,3.27,7.51-3.49,7.4-6.63-.11-6.63.02-6.68-5.31Z"/><path class="cls-5" d="m612,250.1c-.15-5.85-.15-5.83,6.47-6.02,2.33-.07,4.19-.37,4.1,3.26-.2,7.85.05,8.01-8.39,8.04-4.73.01-.7-4-2.19-5.28Z"/><path class="cls-5" d="m704.56,169.75c-5.63.11-5.58.11-5.78-7.47-.05-2.02,0-3.1,2.63-3.04,8.04.18,7.86.06,8.29,7.4.31,5.29-3.63,2.15-5.15,3.11Z"/><path class="cls-5" d="m720.81,159.25c6.04.07,5.8.08,6.06,6.88.22,5.7-3.84,3.1-6.04,3.23-5.05.3-5.13.06-5.03-7.94.06-4.61,3.78-.86,5-2.17Z"/><path class="cls-5" d="m603.9,250.34c-.3,2.33,1.43,5.65-3.64,5.38-7.19-.39-7.64-.1-7.22-8.49.23-4.45,4.6-1.59,7-2.21,5.12-1.31,3.62,2.71,3.86,5.32Z"/><path class="cls-5" d="m704.3,176.81c1.2,0,2.41.07,3.6-.02,1.64-.12,2.13.67,1.94,2.15-.05.4,0,.81-.08,1.2-.41,2.06.9,5.15-.71,6.04-2.57,1.41-5.99.04-9,.97-.76.24-1.11-.95-1.16-1.78-.06-.93-.11-1.87-.16-2.8q-.26-6.02,5.58-5.76Z"/><path class="cls-5" d="m739.27,237.4c-6.19.02-6.57-.01-6.03-7.58.38-5.41,5.06-2.06,7.48-2.3,6.96-.7,3.05,5.12,3.47,7.71.86,5.29-3.86.35-4.92,2.18Z"/><path class="cls-5" d="m805.01,316.36c1.09-1.19-2.69-4.49,1.94-4.69,8.27-.36,8.02-.37,8.8,6.75.51,4.67-2.76,3.27-4.82,3.45-5.61.48-5.62.37-5.93-5.51Z"/><path class="cls-5" d="m635.26,187.3c-5.81.02-5.67.02-5.87-7.55-.07-2.72.99-3,3.26-2.96,7.69.12,7.62.04,7.75,7.97.09,5.19-3.9,1.16-5.14,2.54Z"/><path class="cls-5" d="m582.39,221.31c-1.69-.62-5.25,2.49-5.11-2.85.18-7.02-.1-6.99,5.96-7.22,3.11-.12,5.69-.34,5.41,4.32-.33,5.54.03,5.56-6.26,5.74Z"/><path class="cls-5" d="m564.94,211.11c6.38.38,6.19.37,6.01,6.86-.13,4.75-3.44,3.1-5.69,3.07-5.21-.09-5.73-.93-5.34-7.26q.18-2.96,5.02-2.67Z"/><path class="cls-5" d="m623.25,183.12c-.76,1.27,2.01,5.14-2.39,4.17-2.74-.61-8.01,3.36-7.92-3.21.03-2.28-2.75-6.55,1.71-7.02,8.17-.87,8.43-.29,8.59,6.07Z"/><path class="cls-5" d="m778.94,214.48c-.14,5.07-.14,4.94-6.78,4.96-6.59.02-3.39-4.94-3.51-7.46-.27-5.57,4.34-2.21,6.67-2.73,4.69-1.04,3.7,2.56,3.62,5.23Z"/><path class="cls-5" d="m769.59,334.24c-.02-5.41-.02-5.31,6.26-5.48,2.78-.08,4.36.12,4.18,3.71-.34,6.66-.09,6.61-7.99,6.64-4.74.02-1.25-3.66-2.46-4.88Z"/><path class="cls-5" d="m658.35,148.87c-.23,6.25-2.28,7.72-8.82,6.43-.91-.18-1.29-.49-1.55-1.42-1.42-5.08-.58-6.83,4.28-8.61.25-.09.49-.22.74-.29,6.03-1.53,5.54-2.81,5.34,3.89Z"/><path class="cls-5" d="m674.8,165.54c-.8,1.48,2.46,5.04-2.67,4.97-7.51-.1-7.43.1-7.85-7.65-.12-2.23.3-2.96,2.7-2.95,7.67.03,7.67-.08,7.82,5.63Z"/><path class="cls-5" d="m703.54,363.18c6.55-.08,6.17-.1,5.95,5.35-.15,3.9-1.47,4.75-5.14,4.59-5.62-.25-5.21,0-5.83-5.44-.62-5.42,2.37-4.95,5.02-4.5Z"/><path class="cls-5" d="m732.97,249.13c-.06-5.45-.05-5.26,6.22-5.56,7.18-.34,3.85,5.16,3.9,7.74.12,5.67-4.69,2.1-7.14,2.66-5.19,1.18-2.09-3.33-2.98-4.84Z"/><path class="cls-5" d="m623.35,164.83c.15,5.88.15,5.94-5.88,5.63-1.64-.08-4.36.76-3.91-2.37.38-2.69-3.09-6.96,2.77-7.73.26-.03.51-.17.76-.24q6.1-1.84,6.26,4.71Z"/><path class="cls-5" d="m795.26,209.7c3.43-.8,4.93.57,4.62,4.82-.43,5.92-.16,6.13-7.23,5.73-5.27-.3-2.19-4.67-2.81-7.08-1.14-4.47,2.4-3.47,5.43-3.47Z"/><path class="cls-5" d="m709.23,350.73c-.24,6.09,1.5,4.74-8.21,4.9-4.97.08-1.07-5.06-2.2-7.59-.32-.71-1.14-2.73,1.26-2.8,8.76-.28,9.19-.03,9.15,5.49Z"/><path class="cls-5" d="m845.41,82.62c-4.97-.07-5.74-.68-5.04-7.48.51-4.94,4.83-1.59,7.31-2.29,3.56-1.01,2.93,1.9,2.9,3.93-.08,5.9-.09,5.9-5.17,5.83Z"/><path class="cls-5" d="m634.63,339.65c-1.29-1.21-5.08,2.51-5.07-2.57,0-6.98.19-7,7.13-7.64,4.45-.41,3.45,2.4,3.54,4.68.22,5.35.18,5.35-5.6,5.52Z"/><path class="cls-5" d="m704.04,380.28c6.27.33,4.7-1.66,5.18,7.83.11,2.25-.76,2.59-2.75,2.54-7.34-.18-7.95-.79-7.69-8.52q.06-1.94,5.27-1.85Z"/><path class="cls-5" d="m647.36,160.51c2.08.13,3.93.49,5.73.29,3.76-.4,5.45.88,4.66,4.78-.35,1.73.93,4.77-.66,5.01-2.91.43-6.04.21-9.08.29-.66.02-.64-1.04-.65-1.68-.02-2.9,0-5.8,0-8.69Z"/><path class="cls-5" d="m829.35,141.56c6.16.11,4.76-.66,5.04,6.46.24,5.85-4.18,2.25-6.36,2.95-2.27.72-4.29.39-4.06-3.23.39-6.17.14-6.19,5.37-6.17Z"/><path class="cls-5" d="m629.64,351.09c-.29-2.88-1.34-5.87,2.79-5.07,2.58.5,7.15-2.61,7.08,3.1-.03,2.06,2.62,6.04-2.63,6.24-2.12.08-4.46,1.07-6.29.44-2.38-.82-.12-3.62-.96-4.71Z"/><path class="cls-5" d="m709.36,148.75c-1.12,1.16,2.07,4.81-.98,4.21-2.83-.56-7.73,2.86-8.51-2.31-.32-2.13-3.3-6.86,1.65-7.54,7.5-1.02,7.56-.55,7.84,5.63Z"/><path class="cls-5" d="m777.47,300.5c.36,2.12.86,4.52-3.57,4.31-5.87-.28-5.84.04-6.07-7.22-.06-1.93-.19-3.2,2.53-3.17,6.96.06,6.96-.09,7.12,6.08Z"/><path class="cls-5" d="m738.64,107.38c1.65.6,4.16-1.18,4.75.8.78,2.6.47,5.55.45,8.35,0,.85-.92.69-1.59.58-1.18-.19-2.37-.4-3.57-.46-5.4-.28-6.85-2.15-5.39-7.46.87-3.15,3.69-.84,5.35-1.8Z"/><path class="cls-5" d="m755.24,362.95c1.61,1.55,5.56-2.01,5.4,3.04-.21,6.47-.43,6.98-8.13,6.45-4.74-.33-2.03-4.55-2.34-6.79-.63-4.57,3.47-1.25,5.07-2.69Z"/><path class="cls-5" d="m738.09,373.07c-5.03-.04-5.18-.04-4.86-7.07.21-4.74,4.02-1.74,6.1-2.34,2.96-.86,3.82.73,3.67,3.69-.29,5.75-.12,5.76-4.91,5.73Z"/><path class="cls-5" d="m827.82,329.58c3.42-.03,6.49-.78,5.99,4.17-.51,4.99-.15,5.05-7.18,4.9-5.58-.12-2.66-4.6-3.04-6.88-.74-4.46,3.44-.76,4.23-2.19Z"/><path class="cls-5" d="m766.8,367.5c.79-1.08-2.21-4.41,1.85-3.86,2.57.34,6.89-2.06,7.32,2.5.21,2.21,2.36,6.75-2.36,7.33-5.99.72-6.41.02-6.81-5.97Z"/><path class="cls-5" d="m851.02,166.63c-1.01-1.22-4.79,2.52-4.71-2.21.13-7.02.13-6.8,6.64-6.98,5.28-.15,2.75,3.56,3.22,5.76.93,4.41-2,3.88-5.15,3.42Z"/><path class="cls-5" d="m738.21,134.95c-3.15.4-5.24-.02-4.95-4.92.38-6.59,4.98-3.52,7.52-3.64,4.8-.22,1.92,3.88,2.29,5.95.48,2.69.08,2.76-4.86,2.61Z"/><path class="cls-5" d="m765.79,351.21c-1.74-5.2,1.87-4.64,4.96-4.75,2.13-.07,4.43-.19,3.62,2.93-.64,2.45,2.54,6.91-3.62,6.78-3.69-.08-6.49-.16-4.96-4.96Z"/><path class="cls-7" d="m634.68,304.73c-.87-.91-3.4,1.82-3.6-1.27-.43-6.43.93-7.68,7.14-8.14,3.37-.25,2.07,2.11,2.15,3.41.37,5.73.29,5.74-5.69,6Z"/><path class="cls-5" d="m805.92,298.66c.52-.58-2.05-3.86,1.51-3.24,2.44.43,7.2-1.92,6.68,3.96-.22,2.53.75,5.25-3.75,5.3-4.34.05-5.49-1.5-4.43-6.02Z"/><path class="cls-5" d="m898.31,166.47c-4.96,1.17-3.53-2.84-3.71-5.64-.38-5.63,3.97-2.9,6.17-3.18,5.16-.65,2.32,3.52,2.77,5.53,1,4.46-2.39,3.25-5.23,3.29Z"/><path class="cls-5" d="m828.87,217.17c-5.28,1.83-4.31-1.76-4.56-4.65-.45-5.12,3.17-3.55,5.73-3.68,5.31-.27,2.58,3.84,3,5.98.86,4.41-2.65,2.06-4.17,2.35Z"/><path class="cls-5" d="m796.13,352.97c-.06,1.77,1.3,4.3-2.2,3.7-2.52-.43-6.72,1.75-6.05-3.8.24-1.95-1.31-4.71,2.79-4.66,5.26.06,5.26-.16,5.46,4.75Z"/><path class="cls-5" d="m838.61,367.82c-.7-2.79.39-4.53,3.83-4,1.73.27,4.5-1.32,4.48,2.54-.04,6.32.04,6.4-4.38,6.49q-3.84.07-3.93-5.03Z"/><path class="cls-5" d="m813.66,248.84c.11,2.66.55,4.82-3.38,4.91-4.45.11-4.64-1.95-4.83-5.47-.21-3.95,1.83-3.65,4.56-3.93,4.21-.43,3.76,2.15,3.65,4.49Z"/><path class="cls-5" d="m670.05,127.93c5.6-1.32,4.45,2.67,4.42,5.47-.05,4.23-3.47,2.19-5.36,2.43-4.99.63-2.59-3.42-2.99-5.48-.77-3.98,2.43-2.15,3.93-2.42Z"/><path class="cls-5" d="m719.45,127.05c5.18.17,5.11.18,5.4,6.35.09,1.95-.94,1.34-1.95,1.28-7.48-.43-7.29-.42-7.4-5.49-.09-4.05,2.74-1.5,3.95-2.14Z"/><path class="cls-5" d="m870.94,295.12c3.1-.57,4.06,1.24,3.74,4.61-.2,2.04.3,3.79-3,3.54-5.4-.4-5.25-.13-5.48-5.14-.16-3.52,2.14-2.88,4.74-3.01Z"/><path class="cls-5" d="m656.98,119.13c-.31,1.53,1.41,4.22-2.34,3.97-2.83-.19-5.75.27-5.07-4.2.34-2.26-.59-4.71,3.38-4.7,3.85.01,4.53,1.74,4.03,4.94Z"/><path class="cls-5" d="m775.72,92.68c2.16-.08,4.16-.48,3.9,2.81-.35,4.35-.96,5.01-5.47,5.09-3.71.06-1.98-2.62-2.26-4.21-.55-3.16.83-4.45,3.84-3.68Z"/><path class="cls-5" d="m827.81,423.5c-2.89.78-3.72-.42-3.6-3.28.11-2.44.17-4.27,3.4-3.78,2.19.33,4.88-.82,4.85,3.31-.03,3.66-1.63,4.32-4.65,3.75Z"/><path class="cls-5" d="m759.18,215.89c.48,1.94-.23,2.97-2.58,3.04-2.96.08-5.47-.23-4.76-4.08.24-1.34-1.74-3.62,1.18-3.99,4.43-.56,5.91.71,6.17,5.03Z"/><path class="cls-5" d="m761.15,197.73c.32,3.15.13,5.32-3.58,4.77-1.52-.22-2.2-.44-1.7-2.11.17-.56-.1-1.3-.31-1.91-1.56-4.63-1.15-5.06,3.59-4.73,3.69.25,1.55,2.92,2,3.98Z"/><path class="cls-5" d="m841.07,297.59c3.63-.79,4.05.75,4.06,3.15,0,2.47-.64,3.25-3.34,3.43-3.96.27-3.36-2.23-3.64-4.48-.44-3.47,2.28-1.86,2.93-2.11Z"/><path class="cls-5" d="m915.23,319.95c-2.17.72-2.94.05-2.91-2.2.04-2.57-.17-4.91,3.58-4.45,1.56.19,3.42-.39,3.21,2.23-.2,2.5.2,5.51-3.88,4.43Z"/><path class="cls-5" d="m863.64,55.06c.39,2.61-.23,3.9-3.31,3.8-2.86-.09-2.67-1.52-2.75-3.55-.12-2.89.82-3.87,3.82-3.93,3.5-.06,2.04,2.19,2.24,3.68Z"/><path class="cls-5" d="m741.89,164.37c.61,2.74-.32,3.92-3.08,3.67-1.6-.15-3.49.35-2.83-2.35.43-1.77-.97-4.72,2.86-4.36,2.07.19,4.02.22,3.04,3.04Z"/><path class="cls-5" d="m630.38,153.73c3.25-1.46,5.49-2.55,7.81-3.46.88-.35,2.4-1.78,2.61.55.12,1.4.84,3.52-1.65,3.76-2.56.25-5.2.74-8.76-.84Z"/><path class="cls-5" d="m894.83,366.47c-2.37.59-2.43-.83-2.63-2.67-.32-3.03,1.59-2.68,3.48-2.85,2.19-.19,2.52.7,2.65,2.75.18,3-1.48,2.92-3.5,2.78Z"/><path class="cls-5" d="m562.87,186.56c1.46-2.6,3.55-3.45,5.51-4.37,1-.47,2.34-1.59,3.17-.66.59.66.2,2.25.13,3.42-.1,1.73-1.45,1.59-2.63,1.61-1.91.02-3.82,0-6.18,0Z"/><path class="cls-5" d="m752.2,245.52c.77.57,3.23-.86,2.47,1.6-.57,1.83,1.06,5-2.45,5.33-3.21.3-2.14-2.33-2.19-3.93-.04-1.32-.84-3.55,2.16-3Z"/><path class="cls-5" d="m712.77,94.27c-.28-1.93.57-2.61,2.47-2.53,1.83.07,3.1.36,2.92,2.65-.14,1.77-.86,2.75-2.67,2.69-1.76-.06-3.24-.51-2.73-2.8Z"/><path class="cls-5" d="m738,331.33c1.44.35,3.37-.35,3.31,1.98-.07,2.49-2.11,2.26-3.73,2.48-2.3.32-2.1-1.42-2.19-2.82-.16-2.39,1.76-1.22,2.61-1.64Z"/><path class="cls-5" d="m819.13,402.73c-.29-2.02,1.21-1.88,2.75-1.86,2.44.04,2.17,1.69,2.15,3.31-.02,1.76-.59,2.63-2.58,2.51-2.69-.17-2.25-2.02-2.32-3.95Z"/><path class="cls-5" d="m918.47,230.74c.39.07,1.86-.58,1.77,1.51-.09,2.13-1.34,2.43-3.1,2.71-1.88.3-1.89-.56-2-1.93-.17-2.12.97-2.5,3.33-2.28Z"/><path class="cls-5" d="m717.53,370.52q-.48-6.49,4.93-5.17c-1.56,1.63-2.98,3.13-4.93,5.17Z"/><path class="cls-5" d="m833.38,231.92c-.07,1.51-1.09,2.18-2.82,2.24-1.65.05-1.48-.92-1.53-2.05-.07-1.78.72-2.35,2.37-2.18,1.09.11,2.21.1,1.98,1.99Z"/><path class="cls-14" d="m825.92,740.15c.66-.7,2.67-.52,1.67-2.28-.57-1-1.69-2.07-.27-2.84,1.46-.79,1.53,1.29,2.4,1.79,1.71.97,3.77,1.49,4.55,4.72-2.83-1.65-5-2.74-7.29-.24-.94,1.03-.74-.73-.97-1.28,0,0-.09.13-.09.13Z"/><path class="cls-7" d="m444.82,391.5l14.83-5.07c3.53-1.21,7.36,1.02,7.95,4.7,1.42,8.9.28,16.9-3.41,24-4.62,8.89-12.09,15.44-22.41,19.67-12.41,5.09-24.12,5.09-35.13,0-11-5.08-19.47-14.86-25.41-29.33-5.88-14.33-7-27.38-3.38-39.14,3.63-11.76,11.91-20.3,24.86-25.61,12.1-4.96,22.77-5.43,32.02-1.39,7.42,3.24,13.6,8.64,18.54,16.19,2,3.06.78,7.19-2.52,8.76l-14.21,6.74c-2.83,1.34-6.29.39-7.86-2.32-1.96-3.37-4.15-5.67-6.57-6.9-3.46-1.76-6.78-1.99-9.95-.69-8.84,3.63-9.62,14.32-2.33,32.1,4.08,9.96,8.01,16.25,11.77,18.88,3.76,2.63,7.72,3.09,11.88,1.39,6.18-2.53,8.65-7.64,7.43-15.33-.46-2.89,1.12-5.7,3.88-6.65Z"/><path class="cls-7" d="m532.34,295.79l32.88,80.2c1.27,3.1-.21,6.65-3.31,7.92l-16.83,6.9c-3.1,1.27-6.65-.21-7.92-3.31l-9.98-24.33c-1.27-3.1-4.82-4.58-7.92-3.31l-10.2,4.18c-3.1,1.27-4.58,4.82-3.31,7.92l9.98,24.33c1.27,3.1-.21,6.65-3.31,7.92l-16.83,6.9c-3.1,1.27-6.65-.21-7.92-3.31l-32.88-80.2c-1.27-3.1.21-6.65,3.31-7.92l16.83-6.9c3.1-1.27,6.65.21,7.92,3.31l9.18,22.39c1.27,3.1,4.82,4.58,7.92,3.31l10.2-4.18c3.1-1.27,4.58-4.82,3.31-7.92l-9.18-22.39c-1.27-3.1.21-6.65,3.31-7.92l16.83-6.9c3.1-1.27,6.65.21,7.92,3.31Z"/><path class="cls-7" d="m611.35,336.6c-2.08-10.11-6.08-19.72-9.22-29.52-1.43-4.47-2.78-8.91-5.26-12.93-2.5-4.05-5.64-7.64-7.8-11.91-1.19-2.35-.19-5.11,2.4-5.9,2.21-.68,3.9-2.54,6.11-3.36,1.46-.55,2.97-.76,4.49-.84l-4.17-5.02c-1.65-1.99-4.4-2.67-6.79-1.69l-20.85,8.55c-2.4.98-3.88,3.42-3.65,6l7.92,88.03c.36,3.96,4.45,6.45,8.13,4.94l10.73-4.4c2.41-.99,3.89-3.43,3.64-6.02l-1.03-11.03c-.24-2.59,1.24-5.04,3.64-6.02l14.79-6.07c-1.45-.26-2.76-1.21-3.09-2.81Zm-11.88-13.77c-3.62,1.48-7.66-.89-8.12-4.78h0c-.7-5.95,6.86-9.05,10.54-4.32h0c2.4,3.09,1.2,7.62-2.42,9.1Z"/><path class="cls-6" d="m508.57,129.08q.29-7.68,7.9-8.22c7.69-.55,7.78-.31,7.25,7.42-.21,3.1-1.44,4.06-4.15,3.17-1.87-.62-2.7-.49-3.18,1.71-.65,2.97-3.44,3.19-5.79,3.07-2.84-.14-1.76-2.72-2.05-4.35-.16-.9,0-1.86.03-2.79Zm-14.74-12.1c1.07-2.9,3.76-.43,5.63-1.39,1.55,1.55,5.48-1.91,5.48,3.29,0,3.58-.89,5.2-4.52,4.92-.39-.03-.79.07-1.19.11-6.52.65-7.69-.73-5.4-6.93Z"/><path class="cls-15" d="m509.58,129.08c.06-1.69,0-3.51.44-5.13.13-.47.27-.77.53-1.01.17-.15.01-.03.11-.1.09-.06.19-.12.29-.18.15-.08.33-.15.66-.24,1.66-.46,3.48-.46,5.19-.58,1.56-.11,3.54-.35,4.91-.03.12.03.23.06.35.1.23.08-.07-.05.14.06.04.02.28.19.19.11-.13-.1.23.26.14.14.03.04.17.31.17.33.04.12.07.23.1.35.01.04.08.42.06.28.24,1.77.05,3.78-.16,5.54-.08.65-.23,1.63-.86,1.94-.68.33-1.66-.1-2.36-.3-.86-.25-1.85-.4-2.66.1-.93.58-1.16,1.67-1.43,2.65-.3,1.11-1.08,1.72-2.17,1.98-.5.12-1.01.15-1.52.16s-1.15.08-1.62-.11c-.67-.28-.49-1.3-.47-1.91.01-.5,0-.98-.06-1.48-.11-.89,0-1.77.04-2.66.06-1.29-1.95-1.29-2.01,0-.04.89-.16,1.77-.05,2.66.06.5.08.98.07,1.49-.03.98-.05,2.02.54,2.86.74,1.04,2.02,1.16,3.19,1.17s2.39-.11,3.48-.6c1.17-.53,2-1.5,2.41-2.7.18-.52.19-1.21.54-1.66.14-.18.22-.19.52-.15,1.13.15,2.13.72,3.32.61,1.02-.1,1.9-.63,2.42-1.53.64-1.11.7-2.44.78-3.68.07-1.09.15-2.19.14-3.28-.02-1.39-.19-2.97-1.42-3.84s-3.07-.79-4.54-.72c-2.27.1-4.59.21-6.84.57-1.52.24-3.02.8-3.71,2.28-.92,1.95-.76,4.44-.83,6.53-.05,1.29,1.96,1.29,2.01,0Z"/><path class="cls-15" d="m494.8,117.25c.08-.21.19-.41.36-.56.1-.09.17-.12.36-.16.09-.02.27-.02.49,0s.33.03.6.08c1.17.2,2.26.38,3.37-.15l-1.22-.16c1.26,1.2,2.9.49,4.42.58.12,0-.08-.01-.08-.01.05,0,.1.02.14.03.07.02.14.04.21.06-.16-.05-.07-.04.02.02.02.01.12.08.02,0-.12-.09.05.04.07.07.12.14-.06-.12.05.05.05.08.09.15.13.23-.07-.14.05.14.06.19.04.13.07.27.09.41.17,1.07.09,2.34-.2,3.34-.07.25-.09.3-.16.44-.05.1-.11.2-.16.29-.02.04-.05.08-.08.12-.09.13.09-.1-.02.01-.06.07-.13.13-.19.2-.03.03-.07.06-.1.09.04-.03.14-.09-.02,0-.08.05-.16.1-.25.14-.13.06,0,.01-.18.07-.52.16-.92.19-1.49.18-.77-.01-1.49.06-2.26.13-1.09.09-2.21.17-3.3.04.17.02-.12-.02-.16-.03-.09-.02-.18-.03-.27-.06-.19-.04-.37-.1-.55-.17-.05-.02.13.08-.03-.02-.06-.04-.12-.07-.19-.11-.11-.06-.19-.15-.05-.02-.06-.05-.11-.11-.17-.16-.16-.13.05.1-.03-.03-.04-.08-.09-.15-.13-.23-.08-.12.03.17-.02-.04-.02-.09-.05-.19-.07-.28-.07-.22,0,.1-.02-.07,0-.1-.01-.19-.02-.29,0-.23,0-.45.03-.68.01-.15-.01.03.03-.19.03-.14.05-.29.08-.43.06-.3.14-.59.22-.88.2-.7.43-1.39.68-2.07.19-.51-.21-1.1-.7-1.24-.56-.15-1.05.19-1.24.7-.7,1.9-1.76,4.58-.68,6.53,1.02,1.85,3.58,1.88,5.42,1.79.79-.04,1.57-.14,2.36-.22.7-.08,1.41.05,2.11-.04,1.22-.15,2.3-.66,3-1.71s.82-2.38.86-3.59c.04-1.27.02-2.84-.93-3.81-.76-.78-1.84-.86-2.87-.76-.45.05-.89.12-1.34.12-.1,0-.2,0-.3-.01-.18,0,.02,0,.05,0-.05-.01-.09-.02-.14-.03s-.09-.03-.14-.04c.11.03.13.08.02,0-.03-.02-.06-.03-.09-.05-.2-.13.16.14-.02-.02-.35-.33-.8-.35-1.22-.16-.13.06-.3.09-.49.1-.2,0-.57-.02-.68-.04-.62-.09-1.22-.24-1.85-.27-1.54-.08-2.54.82-3.08,2.2-.2.51.22,1.1.7,1.24.57.16,1.04-.19,1.24-.7Z"/><path class="cls-15" d="m659.33,390.27l-236.45,112.35c-8.94-9.12-20.36-14.97-32.36-16.61-.48-2.96-1.37-5.87-2.66-8.61-2.34-4.96-5.93-9.23-10.33-12.33.42-5.41-.59-10.84-2.98-15.91-2.33-4.96-5.93-9.22-10.32-12.33.42-5.41-.59-10.84-2.98-15.91-2.33-4.95-5.93-9.22-10.32-12.33.42-5.41-.59-10.84-2.98-15.91-2.33-4.96-5.93-9.22-10.33-12.33.42-5.41-.59-10.84-2.98-15.91-1.34-2.84-3.09-5.46-5.18-7.77,2.04-3.43,3.71-7.11,5-11.01,2.63-7.97,3.5-16.63,2.57-25.26l132.6-63.25-.12-.25,87.74-41.53c.24-1.86-.89-3.72-2.07-5.42l-93.38,44.21.13.27-131.23,62.59c1.63,9.04,1.07,18.33-1.73,26.84-1.66,5.02-4.03,9.63-7.02,13.7,3.11,2.42,5.69,5.6,7.46,9.36,2.45,5.21,3.12,10.94,1.95,16.39,4.83,2.49,8.89,6.62,11.35,11.85,2.45,5.21,3.12,10.94,1.95,16.39,4.83,2.49,8.89,6.62,11.35,11.85,2.45,5.21,3.12,10.94,1.95,16.39,4.83,2.49,8.89,6.62,11.35,11.85,2.45,5.21,3.12,10.94,1.95,16.39,4.83,2.49,8.89,6.62,11.35,11.85,1.72,3.66,2.57,7.58,2.51,11.48,13.68.46,26.87,7.1,36.36,18.33l239.39-113.75c0-1.97-.68-3.83-1.55-5.67Z"/><path class="cls-15" d="m658.57,388.97c-2.1,1-4.2,2-6.3,3-5.75,2.73-11.5,5.47-17.26,8.2-8.47,4.03-16.95,8.05-25.42,12.08-10.33,4.91-20.67,9.82-31,14.73l-33.96,16.14c-11.48,5.45-22.96,10.91-34.43,16.36-10.66,5.06-21.31,10.13-31.97,15.19l-27.02,12.84c-6.48,3.08-12.96,6.16-19.44,9.24-3.03,1.44-6.37,2.67-9.25,4.4-.12.07-.26.13-.39.19l1.83.24c-8.91-8.99-20.44-15.21-33.02-16.99l1.05,1.05c-1.51-8.84-6.41-16.61-13.68-21.84l.75,1.3c.79-11.61-4.64-22.77-14.05-29.54l.75,1.3c.78-11.61-4.64-22.77-14.05-29.54l.75,1.3c.79-11.62-4.64-22.77-14.05-29.54l.75,1.3c.61-9.09-2.57-17.96-8.6-24.75l.24,1.83c6.55-11.16,9.09-24.19,7.77-37.03l-.75,1.3c4.39-2.09,8.78-4.19,13.17-6.28,10.55-5.03,21.09-10.06,31.64-15.09,12.76-6.09,25.52-12.17,38.29-18.26l33.12-15.8,11-5.25c1.69-.81,3.54-1.5,5.15-2.46.07-.04.16-.08.24-.11.78-.37.86-1.38.54-2.06l-.12-.25-.54,2.06c9.9-4.69,19.81-9.38,29.71-14.07,15.76-7.46,31.52-14.92,47.28-22.38,3.58-1.7,7.16-3.39,10.75-5.09.49-.23.72-.8.75-1.3.14-2.34-1-4.31-2.27-6.18-.49-.72-1.28-.91-2.06-.54-10.55,4.99-21.09,9.99-31.64,14.98-16.74,7.93-33.48,15.85-50.22,23.78-3.84,1.82-7.68,3.63-11.52,5.45-.78.37-.86,1.38-.54,2.06l.13.27.54-2.06c-4.37,2.08-8.74,4.17-13.1,6.25l-31.31,14.93c-12.62,6.02-25.23,12.04-37.85,18.05l-32.85,15.67-10.74,5.12c-1.69.8-3.55,1.49-5.15,2.46-.07.04-.15.07-.22.11-.64.3-.8,1.08-.69,1.7,2.39,13.72-.37,28.03-8.6,39.38-.35.49-.25,1.44.24,1.83,7.27,5.79,10.88,15.12,9.02,24.28-.13.64.08,1.38.69,1.7,9.54,5.04,14.76,15.93,12.61,26.54-.13.64.08,1.38.69,1.7,9.54,5.04,14.76,15.93,12.61,26.54-.13.64.08,1.38.69,1.7,9.54,5.04,14.76,15.93,12.61,26.54-.13.64.08,1.38.69,1.7,8.16,4.31,13.14,12.81,13.12,22.03,0,.84.69,1.47,1.51,1.51,13.82.54,26.4,7.47,35.29,17.89.46.54,1.25.51,1.83.24,2.13-1.01,4.27-2.03,6.4-3.04,5.8-2.76,11.61-5.52,17.41-8.27,8.58-4.08,17.17-8.16,25.75-12.24,10.47-4.98,20.95-9.95,31.42-14.93,11.47-5.45,22.95-10.9,34.42-16.36s23.17-11.01,34.75-16.51c10.8-5.13,21.6-10.26,32.4-15.4,9.13-4.34,18.26-8.68,27.39-13.01,6.57-3.12,13.13-6.24,19.7-9.36,3.1-1.47,6.3-2.83,9.34-4.44.13-.07.27-.13.4-.19.46-.22.76-.81.75-1.3-.08-2.3-.79-4.36-1.75-6.43-.81-1.76-3.41-.23-2.6,1.52.73,1.58,1.28,3.16,1.34,4.91l.75-1.3c-2.13,1.01-4.27,2.03-6.4,3.04-5.8,2.76-11.61,5.52-17.41,8.27l-25.75,12.24c-10.47,4.98-20.95,9.95-31.42,14.93-11.47,5.45-22.95,10.9-34.42,16.36s-23.17,11.01-34.75,16.51c-10.8,5.13-21.6,10.26-32.4,15.4-9.13,4.34-18.26,8.68-27.39,13.01l-19.7,9.36c-3.06,1.46-6.42,2.7-9.34,4.44-.13.07-.27.13-.4.19l1.83.24c-9.41-11.02-22.84-18.2-37.42-18.77l1.51,1.51c.03-10.23-5.54-19.84-14.61-24.63l.69,1.7c2.41-11.89-3.22-24.25-13.99-29.94l.69,1.7c2.41-11.89-3.22-24.25-14-29.94l.69,1.7c2.41-11.89-3.22-24.25-14-29.94l.69,1.7c2.06-10.15-1.67-20.74-9.8-27.21l.24,1.83c8.71-12.01,11.43-27.21,8.9-41.7l-.69,1.7c4.37-2.08,8.74-4.17,13.1-6.25,10.44-4.98,20.87-9.95,31.31-14.93,12.62-6.02,25.23-12.04,37.85-18.05l32.85-15.67,10.74-5.12c1.69-.81,3.54-1.5,5.15-2.46.07-.04.15-.07.22-.11.78-.37.87-1.38.54-2.06l-.13-.27-.54,2.06c10.55-4.99,21.09-9.99,31.64-14.98,16.74-7.93,33.48-15.85,50.22-23.78,3.84-1.82,7.68-3.63,11.52-5.45l-2.06-.54c.97,1.43,1.97,2.86,1.86,4.66l.75-1.3c-9.9,4.69-19.81,9.38-29.71,14.07-15.76,7.46-31.52,14.92-47.28,22.38-3.58,1.7-7.16,3.39-10.75,5.09-.78.37-.86,1.38-.54,2.06l.12.25.54-2.06c-4.39,2.09-8.78,4.19-13.17,6.28-10.55,5.03-21.09,10.06-31.64,15.09-12.76,6.09-25.52,12.17-38.29,18.26-11.04,5.27-22.08,10.53-33.12,15.8l-11,5.25c-1.69.8-3.54,1.49-5.15,2.46-.07.04-.16.08-.24.11-.43.21-.8.82-.75,1.3,1.27,12.34-1.06,24.77-7.36,35.51-.36.61-.21,1.32.24,1.83,3.41,3.84,5.84,8.45,7.02,13.46.59,2.51.85,5.08.77,7.65-.03,1.02-.27,1.92.52,2.69.84.82,1.91,1.45,2.79,2.24,3.51,3.18,6.27,7.16,7.97,11.59.93,2.42,1.58,4.96,1.87,7.53.13,1.19.19,2.4.18,3.6,0,1.03-.38,2.33.35,3.17.67.77,1.76,1.32,2.54,2,.88.77,1.72,1.59,2.51,2.46,1.56,1.71,2.91,3.6,4.04,5.63,2.55,4.56,3.91,9.76,3.86,14.99,0,.95-.35,2.2.23,3.02s1.86,1.46,2.66,2.15c1.73,1.52,3.32,3.22,4.66,5.1,2.89,4.04,4.81,8.76,5.49,13.68.2,1.42.28,2.86.26,4.29-.01,1.15-.4,2.42.5,3.29s2.05,1.56,2.99,2.42,1.8,1.77,2.62,2.72c3.64,4.27,5.9,9.5,6.84,15.01.08.46.59.99,1.05,1.05,12.11,1.72,23.12,7.56,31.7,16.22.5.51,1.22.53,1.83.24,2.1-1,4.2-2,6.3-3,5.75-2.73,11.5-5.47,17.26-8.2,8.47-4.03,16.95-8.05,25.42-12.08,10.33-4.91,20.67-9.82,31-14.73l33.96-16.14c11.48-5.45,22.96-10.91,34.43-16.36,10.66-5.06,21.31-10.13,31.97-15.19,9.01-4.28,18.01-8.56,27.02-12.84,6.48-3.08,12.96-6.16,19.44-9.24,3.07-1.46,6.24-2.81,9.25-4.4.13-.07.26-.12.39-.19,1.75-.83.22-3.43-1.52-2.6Z"/><text class="cls-4" transform="translate(367.85 606.66)"><tspan x="0" y="0">WE </tspan><tspan class="cls-13" x="37.35" y="0">L</tspan><tspan class="cls-11" x="48.23" y="0">O</tspan><tspan x="64.56" y="0" xml:space="preserve">VE  USING</tspan><tspan class="cls-2" x="166.98" y="0"> </tspan><tspan x="170.73" y="0">TECHNO</tspan><tspan class="cls-12" x="257.5" y="0">L</tspan><tspan x="268.38" y="0">OGY</tspan><tspan class="cls-2" x="314.43" y="0"> </tspan><tspan class="cls-10" x="318.18" y="0">T</tspan><tspan class="cls-8" x="330.12" y="0">O SUPPORT </tspan><tspan class="cls-9" x="453.46" y="0">O</tspan><tspan x="469.31" y="0">THERS, </tspan><tspan x="-2.86" y="27.6">BUT SOM</tspan><tspan class="cls-16" x="92.33" y="27.6">E</tspan><tspan x="104.73" y="27.6">TIMES</tspan><tspan class="cls-2" x="168.05" y="27.6"> </tspan><tspan x="171.8" y="27.6">TECHNO</tspan><tspan class="cls-13" x="258.57" y="27.6">L</tspan><tspan x="269.45" y="27.6">OGY NEEDS SUPPORT</tspan><tspan class="cls-1" x="491.22" y="27.6"> </tspan><tspan class="cls-10" x="494.97" y="27.6">T</tspan><tspan x="506.9" y="27.6">O</tspan><tspan class="cls-3" x="523.39" y="27.6">O</tspan><tspan x="538.97" y="27.6">.</tspan><tspan x="173.71" y="55.2">HERE</tspan><tspan class="cls-1" x="227.75" y="55.2"> </tspan><tspan class="cls-10" x="231.5" y="55.2">T</tspan><tspan x="243.44" y="55.2">O HELP 24/7</tspan></text></svg>