<?xml version="1.0" encoding="UTF-8"?><svg id="Layer_1" xmlns="http://www.w3.org/2000/svg" viewBox="0 0 504 162"><defs><style>.cls-1{stroke-width:.46px;}.cls-1,.cls-2,.cls-3{fill:#00293b;stroke:#00293b;stroke-miterlimit:10;}.cls-2{stroke-width:.82px;}.cls-3{stroke-width:.72px;}.cls-4{fill:#052339;stroke-width:0px;}</style></defs><path class="cls-3" d="m382.17,97.09l-6.83-.04c-1.15,0-2.07.91-2.08,2.06l-.05,8.46c0,1.15-.94,2.06-2.08,2.06l-5.92-.04c-1.15,0-2.06-.94-2.06-2.08l.17-29.5c0-1.15.94-2.06,2.08-2.06l20.19.12c1.15,0,2.06.94,2.06,2.08l-.02,3.87c0,1.15-.94,2.06-2.08,2.06l-10.14-.05c-1.15,0-2.07.91-2.08,2.06v1.34c-.01,1.15.9,2.07,2.05,2.08l6.83.04c1.15,0,2.06.94,2.06,2.08l-.02,3.44c0,1.15-.94,2.06-2.08,2.06h-.02Z"/><path class="cls-3" d="m409.77,97.25l-6.83-.04c-1.15,0-2.07.91-2.08,2.06l-.05,8.46c0,1.15-.94,2.06-2.08,2.06l-5.92-.04c-1.15,0-2.06-.94-2.06-2.08l.17-29.5c0-1.15.94-2.06,2.08-2.06l20.19.12c1.15,0,2.06.94,2.06,2.08l-.02,3.87c0,1.15-.94,2.06-2.08,2.06l-10.14-.05c-1.15,0-2.07.91-2.08,2.06v1.34c-.01,1.15.9,2.07,2.05,2.08l6.83.04c1.15,0,2.06.94,2.06,2.08l-.02,3.44c0,1.15-.94,2.06-2.08,2.06h-.02Z"/><path class="cls-3" d="m441.96,103.83l-.02,4.12c0,1.15-.94,2.06-2.08,2.06l-19.45-.11c-1.15,0-2.06-.94-2.06-2.08l.17-29.5c0-1.15.94-2.06,2.08-2.06l6.19.04c1.15,0,2.06.94,2.06,2.08l-.12,21.25c0,1.15.91,2.07,2.06,2.08l9.12.05c1.15,0,2.06.94,2.06,2.08h0Z"/><path class="cls-3" d="m470.86,104.21l-.02,3.9c0,1.15-.94,2.06-2.08,2.06l-21.17-.12c-1.15,0-2.06-.94-2.06-2.08l.17-29.5c0-1.15.94-2.06,2.08-2.06l21.17.12c1.15,0,2.06.94,2.06,2.08l-.02,3.63c0,1.15-.94,2.06-2.08,2.06l-11.05-.07c-1.15,0-2.07.91-2.08,2.06v.75c-.01,1.15.91,2.07,2.05,2.08l8.14.04c1.15,0,2.06.94,2.06,2.08l-.02,3.33c0,1.15-.94,2.06-2.08,2.06l-8.14-.04c-1.15,0-2.07.91-2.08,2.06v1.36c-.02,1.15.9,2.07,2.04,2.08l11.05.07c1.15,0,2.06.94,2.06,2.08h-.01Z"/><path class="cls-2" d="m284.68,95.63l5.35.48c1.27.12,2.16,1.34,1.83,2.58-.79,2.99-2.26,5.34-4.41,7.05-2.68,2.14-5.95,3.16-9.76,3.05-4.6-.13-8.26-1.76-11.01-4.89-2.74-3.13-4.03-7.37-3.88-12.73.15-5.36,1.62-9.56,4.39-12.74,2.77-3.18,6.56-4.7,11.36-4.56,4.48.13,7.89,1.47,10.22,4.02,1.87,2.05,3.06,4.6,3.56,7.65.2,1.24-.75,2.36-2.01,2.39l-5.39.14c-1.07.02-2.03-.75-2.14-1.82-.14-1.32-.51-2.35-1.1-3.08-.84-1.03-1.85-1.57-3.03-1.6-3.27-.09-5.01,3.15-5.2,9.74-.11,3.68.24,6.21,1.06,7.55.81,1.34,2,2.04,3.53,2.09,2.29.07,3.77-1.19,4.46-3.77.26-.97,1.14-1.63,2.14-1.54h.02Z"/><path class="cls-2" d="m325.43,77.82l-.86,29.71c-.04,1.14-1,2.05-2.14,2.02l-6.24-.18c-1.14-.04-2.05-1-2.02-2.14l.26-9.02c.04-1.14-.87-2.11-2.02-2.14l-3.78-.11c-1.14-.04-2.11.87-2.14,2.02l-.26,9.02c-.04,1.14-1,2.05-2.14,2.02l-6.24-.18c-1.14-.04-2.05-1-2.02-2.14l.86-29.71c.04-1.14,1-2.05,2.14-2.02l6.24.18c1.14.04,2.05,1,2.02,2.14l-.24,8.3c-.04,1.14.87,2.11,2.02,2.14l3.78.11c1.14.04,2.11-.87,2.14-2.02l.24-8.3c.04-1.14,1-2.05,2.14-2.02l6.24.18c1.14.04,2.05,1,2.02,2.14h0Z"/><path class="cls-2" d="m348.25,108.05l-.92-3.59c-.23-.88-1-1.5-1.91-1.52l-5.81-.16c-.89-.02-1.7.53-1.97,1.38l-1.21,3.6c-.28.84-1.09,1.41-1.97,1.38l-3.98-.12c-1.37-.04-2.3-1.39-1.86-2.68l9.78-28.69c.28-.84,1.09-1.39,1.98-1.37l7.73.23c.89.03,1.66.62,1.89,1.48l8.23,29.21c.37,1.32-.64,2.62-2.01,2.57l-6.05-.18c-.9-.03-1.69-.65-1.91-1.52h0Zm-5.54-12.4h0c1.34.04,2.35-1.21,2.03-2.51h0c-.49-2-3.3-2.08-3.91-.11h0c-.4,1.28.54,2.59,1.87,2.63h0Z"/><g id="Layer_2"><g id="Layer_1-2"><path class="cls-1" d="m37.17,110.11v1.76c0,.22,0,.44.05.66.03.13.09.26.19.36.08.08.17.15.28.19.13.04.27.07.41.07v.1h-2.82v-.1c.14,0,.27-.02.4-.07.11-.04.21-.1.3-.18.09-.11.15-.24.18-.37.04-.22.06-.44.05-.66v-3.25c0-.2-.01-.39-.03-.59-.02-.24-.16-.46-.38-.58-.16-.08-.34-.12-.52-.12v-.1h4.61l.13,1.43-.1.02c-.05-.17-.12-.34-.2-.5-.13-.25-.33-.46-.58-.59-.15-.09-.32-.14-.5-.17-.26-.04-.52-.05-.78-.05h-.68v2.6h.18c.41.04.82-.09,1.13-.35.1-.1.18-.22.23-.35.06-.17.1-.35.11-.54h.1s-.03,2.68-.03,2.68h-.11c-.02-.24-.07-.47-.17-.69-.08-.16-.2-.3-.35-.39-.13-.08-.28-.13-.43-.16-.22-.04-.44-.05-.66-.05Z"/><path class="cls-1" d="m50.61,110.29c0-.48.1-.95.32-1.37.22-.43.54-.81.93-1.1.3-.23.63-.41.98-.54.34-.12.7-.19,1.06-.19.45,0,.9.1,1.31.3.42.2.8.49,1.11.84.5.55.78,1.26.78,2.01,0,.37-.07.74-.2,1.09-.14.35-.34.68-.59.96-.31.35-.7.64-1.13.83-.86.39-1.84.39-2.7,0-.42-.19-.8-.46-1.1-.81-.24-.27-.43-.59-.56-.93-.13-.35-.2-.72-.2-1.09Zm1.07.07c-.02.78.22,1.54.7,2.16.18.24.4.43.66.57.25.12.53.18.81.18.28,0,.56-.05.81-.18.26-.14.49-.34.67-.57.48-.62.72-1.39.7-2.17,0-.45-.06-.91-.19-1.34-.11-.39-.29-.75-.54-1.07-.17-.22-.38-.4-.63-.53-.26-.12-.54-.17-.82-.17-.28,0-.55.05-.81.16-.25.13-.46.31-.63.53-.25.32-.43.68-.54,1.07-.13.44-.19.9-.19,1.36h0Z"/><path class="cls-1" d="m70.68,107.24v.1c-.14,0-.28.03-.41.07-.11.04-.2.1-.28.19-.1.1-.16.23-.19.37-.04.25-.05.5-.05.76v2.49c0,.29,0,.59.05.88.03.18.09.35.19.5.12.21.3.39.52.5.25.11.51.17.78.16.3,0,.59-.05.87-.14.26-.08.49-.21.69-.39.11-.09.19-.21.25-.33.06-.15.1-.3.11-.46.01-.12.02-.41.02-.86v-2.46c0-.22-.01-.45-.05-.67-.03-.13-.09-.26-.19-.36-.08-.08-.17-.15-.28-.19-.13-.04-.27-.07-.41-.07v-.1h2.03v.1c-.14,0-.28.03-.41.07-.11.04-.2.1-.28.19-.09.1-.16.22-.19.36-.04.22-.06.44-.05.67v2.78c.01.31-.02.61-.09.91-.07.21-.2.4-.38.54-.53.4-1.18.6-1.84.56-.66.05-1.31-.13-1.84-.52-.26-.23-.42-.54-.46-.88-.02-.23-.03-.47-.03-.7v-2.68c0-.22,0-.45-.05-.67-.03-.13-.09-.26-.19-.36-.08-.08-.17-.15-.28-.19-.13-.04-.27-.07-.41-.07v-.1h2.82Z"/><path class="cls-1" d="m86.04,108.04v3.83c0,.22.01.45.05.67.03.13.09.26.19.36.08.08.17.15.28.19.13.04.27.07.41.07v.1h-2.03v-.1c.14,0,.28-.03.41-.07.11-.04.2-.1.28-.19.09-.1.16-.22.19-.36.04-.22.06-.44.05-.67v-3.25c0-.22-.01-.44-.05-.66-.03-.13-.09-.26-.19-.36-.08-.08-.17-.15-.28-.19-.13-.04-.27-.07-.41-.07v-.1h1.7l3.58,4.57v-3.18c0-.22-.01-.45-.05-.67-.03-.13-.09-.26-.19-.36-.08-.08-.17-.15-.28-.19-.13-.04-.27-.07-.41-.07v-.1h2.03v.1c-.25-.01-.5.08-.69.26-.09.1-.16.22-.19.36-.04.22-.06.44-.05.66v4.64h-.2l-4.15-5.22Z"/><path class="cls-1" d="m101.96,113.16c.14,0,.28-.03.41-.07.24-.09.41-.3.47-.54.04-.22.06-.44.05-.67v-3.25c0-.24-.01-.48-.06-.71-.04-.14-.12-.27-.23-.37-.18-.13-.41-.21-.63-.2v-.1h2.42c.54,0,.88,0,1.03.02.56.03,1.11.21,1.58.53.41.29.74.69.96,1.14.23.48.35,1.01.34,1.54,0,.39-.06.78-.2,1.15-.12.33-.3.64-.54.9-.33.34-.76.56-1.22.64-.37.07-.74.1-1.12.1h-3.26v-.1Zm1.89-5.78v4.38c0,.22.01.44.05.66.03.14.09.27.18.38.24.25.57.38.92.34.32,0,.64-.05.93-.18.27-.13.51-.33.69-.58.2-.27.36-.57.46-.89.11-.34.16-.7.16-1.06,0-.4-.06-.81-.19-1.19-.12-.36-.3-.69-.54-.99-.3-.37-.71-.64-1.17-.78-.31-.07-.63-.11-.94-.1h-.53Z"/><path class="cls-1" d="m125.28,113.26h-2.9v-.1c.19,0,.38-.05.55-.13.17-.1.28-.28.27-.48-.01-.17-.05-.33-.12-.48l-.07-.18-.42-1.04h-1.94l-.23.61-.11.27c-.11.24-.18.5-.2.76,0,.11.02.21.07.3.05.09.11.17.2.23.13.08.28.13.44.14v.1h-1.97v-.1c.14,0,.28-.04.41-.11.14-.08.25-.2.34-.33.11-.14.2-.3.28-.47.09-.19.21-.47.35-.85l1.61-4.16h.25l1.92,4.63c.1.26.21.51.34.75.07.13.16.25.28.34.07.05.16.1.24.12.13.04.27.06.41.07v.1Zm-2.77-2.6l-.93-2.28-.87,2.28h1.8Z"/><path class="cls-1" d="m137.99,107.38c-.19,0-.38,0-.6.02-.34,0-.69.06-1.01.17-.23.1-.42.26-.55.47-.15.26-.25.54-.3.84h-.1s.08-1.64.08-1.64h5.96l.08,1.63h-.1c-.05-.33-.18-.64-.37-.92-.19-.22-.45-.38-.74-.45-.46-.1-.92-.14-1.39-.12v4.5c0,.22.01.45.05.67.03.13.09.26.19.36.08.08.17.15.28.19.13.04.27.07.41.07v.1h-2.82v-.1c.14,0,.28-.03.41-.07.11-.04.2-.1.28-.19.09-.1.16-.22.19-.36.04-.22.06-.45.05-.67v-4.5Z"/><path class="cls-1" d="m154.83,107.24v.1c-.14,0-.28.03-.41.07-.11.04-.2.1-.28.19-.12.14-.2.31-.21.49-.02.18-.03.36-.03.54v3.25c0,.19,0,.39.04.58.02.12.05.23.11.34.07.11.17.2.3.26.15.06.32.1.48.1v.1h-2.82v-.1c.14,0,.28-.03.41-.07.1-.04.2-.1.28-.18.1-.1.16-.22.19-.36.04-.22.05-.45.05-.67v-3.25c0-.22,0-.45-.05-.67-.03-.13-.09-.26-.19-.36-.08-.08-.17-.15-.28-.19-.13-.04-.27-.07-.41-.07v-.1h2.82Z"/><path class="cls-1" d="m165.68,110.29c0-.48.1-.95.32-1.37.22-.43.54-.81.93-1.1.3-.23.63-.41.98-.54.34-.12.7-.19,1.06-.19.45,0,.9.1,1.31.3.42.2.8.49,1.11.84.5.55.78,1.26.78,2.01,0,.37-.07.74-.2,1.09-.14.35-.34.68-.59.96-.31.35-.7.64-1.13.83-.86.39-1.84.39-2.7,0-.42-.19-.8-.46-1.1-.81-.24-.27-.43-.59-.56-.93-.13-.35-.2-.72-.2-1.09Zm1.07.07c-.02.78.22,1.54.7,2.16.18.24.4.43.66.57.25.12.53.18.81.18.28,0,.56-.05.81-.18.26-.14.49-.34.67-.57.48-.62.72-1.39.7-2.17,0-.45-.06-.91-.19-1.34-.11-.39-.29-.75-.54-1.07-.17-.22-.38-.4-.63-.53-.26-.12-.54-.17-.82-.17-.28,0-.55.05-.81.16-.25.13-.46.31-.63.53-.25.32-.43.68-.54,1.07-.13.44-.19.9-.19,1.36h0Z"/><path class="cls-1" d="m184.11,108.04v3.83c0,.22.01.45.05.67.03.13.09.26.19.36.08.08.17.15.28.19.13.04.27.07.41.07v.1h-2.03v-.1c.14,0,.28-.03.41-.07.11-.04.2-.1.28-.19.09-.1.16-.22.19-.36.04-.22.06-.44.05-.67v-3.25c0-.22-.01-.44-.05-.66-.03-.13-.09-.26-.19-.36-.08-.08-.17-.15-.28-.19-.13-.04-.27-.07-.41-.07v-.1h1.7l3.58,4.57v-3.18c0-.22-.01-.45-.05-.67-.03-.13-.09-.26-.19-.36-.08-.08-.17-.15-.28-.19-.13-.04-.27-.07-.41-.07v-.1h2.03v.1c-.25-.01-.5.08-.69.26-.09.1-.16.22-.19.36-.04.22-.06.44-.05.66v4.64h-.2l-4.15-5.22Z"/><path class="cls-1" d="m74.4,128.6v-.08c.2.01.4-.06.55-.2.08-.08.13-.18.15-.29.03-.18.05-.36.04-.53v-2.6c0-.18,0-.37-.04-.55-.03-.11-.08-.21-.16-.29-.06-.06-.14-.11-.22-.13-.1-.03-.21-.05-.31-.05v-.08h2.25v.08c-.11,0-.21.02-.32.05-.08.03-.16.07-.22.13-.08.08-.14.18-.16.29-.03.18-.05.36-.04.55v2.03c0,.31,0,.55.02.7.01.13.04.26.1.37.08.16.21.29.37.37.2.09.42.13.65.12.24,0,.48-.03.71-.11.19-.07.35-.19.47-.34.08-.11.15-.23.2-.36.06-.17.11-.35.15-.53h.08s-.05,1.45-.05,1.45h-4.21Z"/><path class="cls-1" d="m79.01,125.68l1.02-.13v2.3c0,.12,0,.23.03.35.02.07.06.14.11.18.11.08.23.13.36.14v.07h-1.56v-.07c.1,0,.21-.04.3-.08.07-.04.12-.1.15-.17.03-.08.05-.16.05-.24.01-.11.02-.27.02-.47v-.87c0-.17,0-.34-.02-.51,0-.08-.03-.16-.08-.24-.03-.06-.08-.11-.14-.14-.08-.03-.16-.05-.24-.05v-.07Zm.74-1.39c-.09,0-.17-.03-.23-.09-.12-.12-.12-.32,0-.44.13-.12.33-.12.45,0,.12.12.12.32,0,.44-.06.06-.14.09-.23.09h0Z"/><path class="cls-1" d="m81.64,125.6h.9v.13h-.9v2.05c-.02.19.03.37.13.53.05.06.11.11.18.14.07.03.15.05.24.05.09,0,.18-.02.26-.07.09-.06.17-.15.23-.24l.05.05c-.07.14-.19.25-.33.31-.16.07-.34.11-.52.1-.21.02-.43-.04-.61-.16-.07-.05-.11-.12-.13-.2-.03-.14-.04-.28-.03-.42v-2.14h-.38v-.06c.16-.06.31-.16.42-.29.07-.08.14-.17.19-.26.06-.11.1-.22.13-.33l.04-.12h.13v.92Z"/><path class="cls-1" d="m83.51,125.6h.9v.13h-.9v2.05c-.02.19.03.37.13.53.05.06.11.11.18.14.07.03.15.05.24.05.09,0,.18-.02.26-.07.09-.06.17-.15.23-.24l.05.05c-.07.14-.19.25-.33.31-.16.07-.34.11-.52.1-.21.02-.43-.04-.61-.16-.07-.05-.11-.12-.13-.2-.03-.14-.04-.28-.03-.42v-2.14h-.38v-.06c.16-.06.31-.16.42-.29.07-.08.14-.17.19-.26.06-.11.1-.22.13-.33l.04-.12h.13v.92Z"/><path class="cls-1" d="m84.76,123.77l1.02-.13v4.2c0,.12,0,.24.03.35.02.07.06.14.11.18.11.08.23.13.36.14v.07h-1.56v-.07c.1,0,.21-.04.3-.08.07-.04.12-.1.15-.17.03-.08.05-.16.05-.24.01-.11.02-.27.02-.47v-2.76c0-.17,0-.34-.02-.51,0-.08-.03-.17-.08-.24-.03-.06-.08-.11-.14-.14-.08-.03-.16-.05-.24-.05v-.08Z"/><path class="cls-1" d="m87.04,126.68c0,.12-.01.2-.01.25,0,.2.03.41.09.6.05.18.13.34.24.49.22.27.54.42.88.42.12,0,.24-.02.36-.06.11-.04.2-.1.28-.18.1-.11.18-.25.22-.4l.07.02c-.05.25-.19.47-.39.62-.24.15-.52.22-.8.21-.25,0-.51-.04-.74-.14-.21-.09-.39-.24-.53-.42-.21-.28-.31-.63-.3-.98-.02-.48.19-.94.57-1.24.27-.22.6-.33.94-.33.18,0,.36.03.52.1.42.17.68.58.66,1.03h-2.07Zm1.54-.14c0-.19-.05-.37-.13-.54-.06-.11-.15-.21-.25-.27-.1-.07-.22-.1-.34-.1-.21,0-.4.1-.53.26-.16.19-.25.41-.27.66h1.52Z"/><path class="cls-1" d="m91.6,128.58v-1.46s.09,0,.09,0c.07.31.19.6.35.88.19.36.56.58.97.59.25,0,.49-.09.67-.27.18-.18.27-.43.26-.69,0-.12-.02-.25-.06-.37-.03-.11-.09-.22-.16-.32-.08-.1-.18-.19-.29-.26-.18-.12-.37-.23-.57-.32-.18-.09-.35-.18-.51-.29-.11-.07-.2-.15-.29-.24-.2-.22-.31-.51-.3-.81,0-.19.04-.39.12-.56.08-.18.19-.34.33-.47.24-.23.56-.35.89-.35.1,0,.21.01.31.03.13.03.26.08.38.13.12.05.2.08.24.09.04.01.07.02.11.02.08,0,.14-.06.17-.18h.08l.02,1.4h-.08c-.06-.22-.12-.39-.16-.51-.04-.11-.1-.23-.16-.33-.09-.16-.22-.3-.38-.41-.14-.09-.31-.14-.48-.13-.24-.01-.47.09-.62.27-.07.08-.12.16-.15.26-.04.09-.05.2-.05.3,0,.39.25.71.76.95l.5.24c.32.13.6.34.83.6.19.24.29.54.29.85,0,.21-.04.42-.13.62-.11.26-.31.49-.55.63-.26.15-.56.23-.86.22-.3,0-.6-.06-.87-.18-.15-.06-.23-.1-.26-.11-.03,0-.06-.01-.1-.01-.11,0-.2.07-.23.17h-.08Z"/><path class="cls-1" d="m95.91,125.55c.04.16.07.32.08.49.14-.15.31-.28.5-.36.18-.08.38-.13.58-.13.2,0,.39.05.55.17.12.1.22.22.31.36.15-.16.34-.3.54-.4.18-.09.38-.13.59-.13.25-.01.5.07.69.23.18.15.27.37.27.6v1.46c0,.12,0,.24.03.35.02.07.05.13.11.18.11.08.23.13.37.14v.07h-1.56v-.07c.1,0,.21-.04.3-.08.07-.04.12-.1.15-.17.03-.08.05-.16.05-.24.01-.11.02-.27.02-.47v-.67c0-.19,0-.38-.02-.57-.01-.11-.04-.21-.09-.31-.12-.2-.34-.32-.57-.3-.26-.02-.5.11-.63.32-.13.27-.19.57-.17.87v.95c0,.12,0,.24.03.35.02.07.05.13.11.18.11.08.23.13.37.14v.07h-1.56v-.07c.1,0,.21-.04.3-.08.07-.04.12-.1.15-.17.03-.08.05-.16.05-.24.01-.11.02-.27.02-.47v-.65c0-.2,0-.4-.03-.6-.01-.11-.05-.22-.1-.31-.05-.09-.13-.15-.22-.2-.1-.05-.21-.07-.32-.07-.13,0-.26.03-.38.1-.11.06-.21.15-.28.26-.07.11-.11.22-.14.35-.03.17-.04.35-.04.52v.9c0,.12,0,.24.03.35.02.07.06.14.11.18.11.08.23.13.36.14v.07h-1.56v-.07c.1,0,.21-.04.3-.08.07-.04.12-.1.15-.17.03-.08.05-.16.05-.24.01-.11.02-.27.02-.47v-.87c0-.17,0-.34-.02-.51,0-.08-.03-.17-.08-.24-.03-.06-.08-.11-.14-.14-.08-.03-.16-.05-.24-.05v-.07l.97-.12Z"/><path class="cls-1" d="m100.9,125.68l1.02-.13v2.3c0,.12,0,.23.03.35.02.07.06.14.11.18.11.08.23.13.36.14v.07h-1.56v-.07c.1,0,.21-.04.3-.08.07-.04.12-.1.15-.17.03-.08.05-.16.05-.24.01-.11.02-.27.02-.47v-.87c0-.17,0-.34-.02-.51,0-.08-.03-.16-.08-.24-.03-.06-.08-.11-.14-.14-.08-.03-.16-.05-.24-.05v-.07Zm.74-1.39c-.09,0-.17-.03-.23-.09-.12-.12-.12-.32,0-.44.13-.12.33-.12.45,0,.12.12.12.32,0,.44-.06.06-.14.09-.23.09h0Z"/><path class="cls-1" d="m102.65,123.77l1.02-.13v4.2c0,.12,0,.24.03.35.02.07.06.14.11.18.11.08.23.13.36.14v.07h-1.56v-.07c.1,0,.21-.04.3-.08.07-.04.12-.1.15-.17.03-.08.05-.16.05-.24.01-.11.02-.27.02-.47v-2.76c0-.17,0-.34-.02-.51,0-.08-.03-.17-.08-.24-.03-.06-.08-.11-.14-.14-.08-.03-.16-.05-.24-.05v-.08Z"/><path class="cls-1" d="m105.1,126.68c0,.12-.01.2-.01.25,0,.2.03.41.09.6.05.18.13.34.24.49.22.27.54.42.88.42.12,0,.24-.02.36-.06.11-.04.2-.1.28-.18.1-.11.18-.25.22-.4l.07.02c-.05.25-.19.47-.39.62-.24.15-.52.22-.8.21-.25,0-.51-.04-.74-.14-.21-.09-.39-.24-.53-.42-.21-.28-.31-.63-.3-.98-.02-.48.19-.94.57-1.24.27-.22.6-.33.94-.33.18,0,.36.03.52.1.42.17.68.58.66,1.03h-2.07Zm1.54-.14c0-.19-.05-.37-.13-.54-.06-.11-.15-.21-.25-.27-.1-.07-.22-.1-.34-.1-.21,0-.4.1-.53.26-.16.19-.25.41-.27.66h1.52Z"/><path class="cls-1" d="m107.67,128.6v-1h.06c.05.21.13.4.25.59.13.23.37.38.63.4.14,0,.28-.04.38-.13.12-.11.18-.26.18-.42,0-.14-.04-.28-.13-.39-.05-.06-.11-.12-.18-.16-.12-.08-.24-.15-.36-.21-.22-.1-.41-.24-.59-.39-.14-.14-.21-.33-.21-.52,0-.2.07-.4.21-.55.17-.18.4-.27.65-.26.11,0,.23.02.34.06l.12.05s.06.02.1.02c.04,0,.09-.04.13-.11h.07l.04.8h-.07c-.02-.09-.05-.18-.08-.27-.03-.07-.07-.14-.12-.2-.07-.09-.16-.16-.25-.21-.09-.05-.19-.07-.28-.08-.13,0-.25.05-.34.14-.09.09-.14.22-.14.35,0,.12.04.23.12.31.11.11.24.2.39.26l.37.17c.2.08.37.21.5.38.11.15.17.34.17.53,0,.23-.08.45-.24.61-.19.19-.44.29-.71.28-.16,0-.32-.03-.47-.09-.1-.04-.17-.06-.19-.07-.03,0-.05,0-.08,0-.08,0-.15.04-.19.11h-.06Z"/><path class="cls-1" d="m110.77,127.81c.11,0,.22.04.3.13.08.08.13.19.13.31,0,.24-.19.43-.43.43-.23,0-.42-.19-.43-.43,0-.24.19-.43.43-.43,0,0,0,0,0,0h0Z"/><path class="cls-1" d="m113.63,128.6v-.08c.11,0,.22-.02.33-.06.08-.03.16-.08.22-.15.08-.08.13-.18.15-.29.03-.18.04-.36.04-.54v-2.6c0-.18,0-.36-.04-.54-.02-.11-.07-.21-.15-.29-.06-.07-.14-.12-.22-.15-.11-.03-.22-.05-.33-.06v-.08h2.32c.24,0,.39,0,.46,0,.23.01.46.08.67.19.15.09.27.22.35.37.08.16.13.34.13.51.01.28-.09.55-.29.76-.07.07-.15.13-.23.18-.12.06-.25.12-.38.16.18.03.35.07.52.12.12.04.24.11.34.19.15.12.27.28.35.46.08.19.13.39.13.59,0,.2-.04.4-.13.59-.08.17-.2.32-.36.43-.15.1-.32.17-.5.2-.27.04-.54.06-.81.06h-2.58Zm1.51-4.7v2.09h.29c.14,0,.28,0,.42-.03.1-.01.2-.04.3-.07.07-.03.15-.06.21-.11.12-.09.22-.21.28-.34.07-.15.1-.3.1-.46,0-.17-.03-.35-.1-.51-.06-.15-.15-.27-.27-.38-.1-.08-.21-.13-.33-.16-.19-.03-.37-.05-.56-.04h-.33Zm0,2.2v1.45c0,.14,0,.29.04.43.06.34.39.57.73.51,0,0,0,0,0,0,.33.02.65-.09.9-.31.23-.22.35-.53.33-.85,0-.19-.03-.39-.1-.57-.06-.16-.15-.3-.28-.4-.29-.2-.64-.29-.99-.26h-.63Z"/><path class="cls-1" d="m118.27,125.68l1.02-.13v2.3c0,.12,0,.23.03.35.02.07.06.14.11.18.11.08.23.13.36.14v.07h-1.56v-.07c.1,0,.21-.04.3-.08.07-.04.12-.1.15-.17.03-.08.05-.16.05-.24.01-.11.02-.27.02-.47v-.87c0-.17,0-.34-.02-.51,0-.08-.03-.16-.08-.24-.03-.06-.08-.11-.14-.14-.08-.03-.16-.05-.24-.05v-.07Zm.74-1.39c-.09,0-.17-.03-.23-.09-.12-.12-.12-.32,0-.44.13-.12.33-.12.45,0,.12.12.12.32,0,.44-.06.06-.14.09-.23.09h0Z"/><path class="cls-1" d="m121.04,128.9l-.06.02c-.03-.05-.07-.1-.12-.14-.04-.03-.1-.04-.15-.04-.09,0-.18.04-.24.11-.07.08-.1.19-.09.29,0,.2.11.38.29.47.22.13.47.19.73.18.27.01.54-.06.76-.2.18-.11.29-.31.29-.53,0-.16-.07-.31-.19-.4-.17-.1-.36-.15-.55-.14h-.56c-.2,0-.39-.05-.56-.16-.13-.09-.22-.24-.22-.41,0-.16.09-.32.23-.4.14-.07.29-.12.44-.15-.19-.08-.35-.21-.48-.37-.11-.15-.17-.33-.17-.51,0-.24.1-.47.26-.63.1-.11.23-.2.37-.26.14-.06.28-.09.43-.09.25,0,.49.09.69.24.09-.07.19-.14.3-.18.09-.04.19-.06.29-.05.1,0,.2.02.28.07.08.05.13.13.13.23,0,.05-.02.1-.05.14-.03.04-.08.06-.12.05-.08,0-.16-.05-.21-.12l-.08-.11c-.05-.06-.12-.09-.19-.08-.1,0-.2.05-.27.13.18.2.28.45.29.72,0,.3-.15.58-.41.73-.13.09-.28.15-.44.18-.05,0-.2.02-.45.04-.35.02-.52.12-.52.29,0,.15.15.23.44.23h.58c.17,0,.35.02.52.05.13.03.26.09.37.17.21.15.32.39.31.65.01.28-.13.55-.36.72-.33.2-.71.29-1.09.26-.39.04-.78-.07-1.09-.31-.14-.13-.21-.31-.2-.5,0-.15.05-.29.15-.4.09-.11.23-.17.37-.16.1,0,.19.03.26.1.07.07.1.16.1.25v.04Zm-.15-2.34c0,.22.05.43.16.62.08.15.24.24.41.24.17,0,.32-.09.39-.24.1-.2.15-.43.14-.66.01-.25-.05-.49-.18-.7-.07-.12-.2-.19-.34-.19-.17,0-.33.1-.41.25-.06.1-.1.2-.12.31-.03.12-.05.24-.05.37h0Z"/><path class="cls-1" d="m125.02,128.52c.11,0,.22-.02.33-.06.19-.07.33-.24.37-.44.03-.18.05-.36.04-.53v-2.6c0-.19,0-.38-.05-.57-.03-.12-.09-.22-.19-.3-.15-.11-.33-.16-.51-.16v-.08h1.94c.43,0,.7,0,.82.01.45.02.89.17,1.26.42.33.23.6.55.77.92.18.38.28.81.27,1.23,0,.31-.05.62-.16.92-.09.27-.24.51-.44.72-.26.27-.61.45-.98.51-.29.05-.59.08-.89.08h-2.61v-.08Zm1.51-4.62v3.5c0,.18,0,.35.04.53.02.11.07.22.14.31.19.2.46.3.73.28.25,0,.51-.04.74-.14.22-.11.41-.27.55-.46.16-.21.29-.45.36-.71.08-.28.13-.56.13-.85,0-.32-.05-.65-.15-.95-.09-.29-.24-.56-.43-.79-.24-.3-.57-.52-.93-.62-.25-.06-.5-.09-.75-.08h-.43Z"/><path class="cls-1" d="m131.52,126.09c.07-.13.17-.24.29-.33.19-.14.43-.21.67-.21.12,0,.25.03.35.1.07.05.11.14.11.23,0,.06-.02.12-.07.16-.05.04-.11.07-.17.06-.08,0-.16-.04-.21-.1l-.11-.12c-.08-.09-.19-.14-.31-.14-.16,0-.28.1-.37.31-.1.28-.15.57-.13.86v.93c0,.12,0,.23.03.35.02.07.06.14.11.18.11.08.23.13.36.14v.07h-1.56v-.07c.1,0,.21-.04.3-.08.07-.04.12-.1.15-.17.03-.08.05-.16.05-.24.01-.11.02-.27.02-.47v-.87c0-.17,0-.34-.02-.51,0-.08-.03-.16-.08-.24-.03-.06-.08-.11-.14-.14-.08-.03-.16-.05-.24-.05v-.07l.91-.13c.04.18.06.36.06.54Z"/><path class="cls-1" d="m133.77,126.68c0,.12-.01.2-.01.25,0,.2.03.41.09.6.05.18.13.34.24.49.22.27.54.42.88.42.12,0,.24-.02.36-.06.11-.04.2-.1.28-.18.1-.11.18-.25.22-.4l.07.02c-.05.25-.19.47-.39.62-.24.15-.52.22-.8.21-.25,0-.51-.04-.74-.14-.21-.09-.39-.24-.53-.42-.21-.28-.31-.63-.3-.98-.02-.48.19-.94.57-1.24.27-.22.6-.33.94-.33.18,0,.36.03.52.1.42.17.68.58.66,1.03h-2.07Zm1.54-.14c0-.19-.05-.37-.13-.54-.06-.11-.15-.21-.25-.27-.1-.07-.22-.1-.34-.1-.21,0-.4.1-.53.26-.16.19-.25.41-.27.66h1.52Z"/><path class="cls-1" d="m139.3,128.26l.06.04c-.08.25-.32.4-.58.37-.15,0-.3-.04-.42-.12-.09-.08-.17-.17-.23-.28-.11.1-.23.2-.36.28-.16.09-.35.13-.53.13-.22.01-.44-.05-.62-.19-.15-.12-.24-.31-.23-.5,0-.18.06-.36.19-.49.07-.07.15-.13.24-.17.13-.06.26-.1.4-.13.2-.05.36-.1.45-.13.09-.03.17-.07.25-.13.07-.05.12-.11.15-.19.03-.1.05-.2.04-.3.02-.21-.04-.42-.15-.6-.05-.06-.11-.11-.18-.14-.07-.03-.15-.05-.23-.05-.09,0-.18.02-.26.07-.08.05-.13.12-.17.2l-.09.2c-.04.11-.14.17-.25.17-.08,0-.15-.03-.2-.08-.05-.05-.08-.12-.08-.2,0-.12.08-.22.25-.3.11-.05.22-.08.34-.1.13-.03.26-.04.4-.04.15,0,.31.02.46.06.14.03.27.08.4.14.14.07.24.19.29.34.02.12.03.24.03.36v1.3c0,.15,0,.3.03.45.02.15.14.26.29.25.06,0,.12-.01.17-.04.06-.04.11-.1.15-.16Zm-1.17-1.39c-.13.11-.27.2-.42.28-.12.06-.24.13-.35.21-.07.05-.13.11-.18.17-.11.13-.17.3-.17.48,0,.14.04.28.13.38.08.1.2.15.32.15.12,0,.23-.04.33-.11.1-.07.18-.17.23-.29.08-.22.12-.45.11-.68v-.59Z"/><path class="cls-1" d="m140.55,125.55c.04.16.07.32.08.49.14-.15.31-.28.5-.36.18-.08.38-.13.58-.13.2,0,.39.05.55.17.12.1.22.22.31.36.15-.16.34-.3.54-.4.18-.09.38-.13.59-.13.25-.01.5.07.69.23.18.15.27.37.27.6v1.46c0,.12,0,.24.03.35.02.07.05.13.11.18.11.08.23.13.37.14v.07h-1.56v-.07c.1,0,.21-.04.3-.08.07-.04.12-.1.15-.17.03-.08.05-.16.05-.24.01-.11.02-.27.02-.47v-.67c0-.19,0-.38-.02-.57-.01-.11-.04-.21-.1-.31-.12-.2-.34-.32-.57-.3-.26-.02-.5.11-.63.32-.13.27-.19.57-.17.87v.95c0,.12,0,.24.03.35.02.07.05.13.11.18.11.08.23.13.37.14v.07h-1.56v-.07c.1,0,.21-.04.3-.08.07-.04.12-.1.15-.17.03-.08.05-.16.05-.24.01-.11.02-.27.02-.47v-.65c0-.2,0-.4-.03-.6-.01-.11-.05-.22-.1-.31-.05-.09-.13-.15-.22-.2-.1-.05-.21-.07-.32-.07-.13,0-.26.03-.38.1-.11.06-.21.15-.28.26-.07.11-.11.22-.14.35-.03.17-.04.35-.04.52v.9c0,.12,0,.24.03.35.02.07.06.14.11.18.11.08.23.13.36.14v.07h-1.56v-.07c.1,0,.21-.04.3-.08.07-.04.12-.1.15-.17.03-.08.05-.16.05-.24.01-.11.02-.27.02-.47v-.87c0-.17,0-.34-.02-.51,0-.08-.03-.17-.08-.24-.03-.06-.08-.11-.14-.14-.08-.03-.16-.05-.24-.05v-.07l.97-.12Z"/><path class="cls-1" d="m145.38,128.6v-1h.06c.05.21.13.4.25.59.13.23.37.38.63.4.14,0,.28-.04.38-.13.12-.11.18-.26.18-.42,0-.14-.04-.28-.13-.39-.05-.06-.11-.12-.18-.16-.12-.08-.24-.15-.36-.21-.22-.1-.41-.24-.59-.39-.14-.14-.21-.33-.21-.52,0-.2.07-.4.21-.55.17-.18.4-.27.65-.26.11,0,.23.02.33.06l.12.05s.06.02.1.02c.04,0,.09-.04.13-.11h.07l.04.8h-.07c-.02-.09-.05-.18-.08-.27-.03-.07-.07-.14-.12-.2-.07-.09-.16-.16-.25-.21-.09-.05-.19-.07-.28-.08-.13,0-.25.05-.34.14-.09.09-.14.22-.14.35,0,.12.04.23.13.31.11.11.24.2.39.26l.37.17c.2.08.37.21.5.38.11.15.17.34.17.53,0,.23-.08.45-.24.61-.19.19-.44.29-.71.28-.16,0-.32-.03-.47-.09-.1-.04-.17-.06-.19-.07-.03,0-.05,0-.08,0-.08,0-.15.04-.19.11h-.06Z"/><path class="cls-1" d="m148.47,127.81c.11,0,.22.04.3.13.08.08.13.19.13.31,0,.24-.2.42-.43.42s-.42-.2-.42-.43c0-.23.19-.42.43-.42h0Z"/><path class="cls-1" d="m52.13,85.4c-.34,0-.67.06-.99.17-.26.1-.5.25-.69.45-.15.14-.27.31-.36.5-.09.22-.14.46-.16.7-.05.44-.08.89-.08,1.33v7.99c-.02.56.03,1.11.13,1.66.07.33.23.63.47.87.46.41,1.06.63,1.68.63v.25h-6.93v-.25c.35,0,.69-.07,1.01-.18.26-.1.49-.25.69-.45.23-.25.39-.55.46-.88.1-.54.14-1.09.12-1.64v-9.69l-5.58,13.1h-.23l-5.55-12.9v9.5c-.02.55.03,1.1.12,1.65.13.61.56,1.12,1.15,1.33.32.11.66.16,1,.17v.25h-5v-.25c.34,0,.68-.07,1-.17.26-.1.5-.25.69-.46.23-.25.39-.55.46-.88.1-.54.14-1.09.12-1.64v-7.99c0-.33-.01-.65-.03-.94,0-.4-.09-.8-.25-1.17-.16-.32-.42-.59-.74-.75-.39-.18-.82-.28-1.25-.29v-.25h4.71l4.7,11.59,4.87-11.59h4.46v.25Z"/><path class="cls-1" d="m61.7,98.9l.18.11c-.26.76-.86,1.14-1.79,1.14-.46.02-.91-.12-1.28-.38-.29-.24-.52-.54-.7-.87-.34.32-.7.61-1.1.86-.5.27-1.07.4-1.64.39-.68.04-1.35-.17-1.9-.57-.46-.38-.72-.95-.7-1.55-.02-.56.19-1.1.57-1.51.21-.22.47-.4.75-.54.4-.17.81-.31,1.23-.41.63-.16,1.09-.29,1.39-.4.27-.09.52-.22.75-.39.21-.14.38-.35.48-.59.1-.3.14-.62.13-.93.05-.65-.11-1.31-.48-1.85-.15-.19-.34-.33-.56-.43-.22-.11-.46-.16-.71-.16-.28,0-.56.07-.79.23-.23.15-.41.37-.52.63l-.27.63c-.12.32-.44.53-.78.51-.23,0-.45-.08-.62-.24-.17-.16-.26-.38-.25-.61,0-.37.26-.68.78-.93.34-.15.69-.25,1.05-.32.4-.08.81-.12,1.22-.12.47,0,.94.06,1.4.17.42.09.83.24,1.22.44.42.21.74.59.88,1.04.07.36.1.73.09,1.1v4.01c-.02.46.01.93.09,1.39.05.45.44.79.89.77.18,0,.37-.03.53-.12.18-.13.33-.29.45-.48Zm-3.59-4.27c-.4.33-.83.62-1.29.86-.38.19-.74.41-1.09.64-.21.15-.39.32-.55.52-.34.41-.52.93-.51,1.46-.02.43.12.85.39,1.18.24.3.61.47,1,.47.36,0,.71-.12,1-.33.31-.22.56-.53.71-.88.26-.67.37-1.39.34-2.1v-1.81Z"/><path class="cls-1" d="m65.27,100.88l-.2.05c-.09-.17-.22-.31-.37-.42-.14-.08-.3-.13-.46-.12-.29,0-.56.12-.74.35-.2.26-.3.58-.29.9.01.6.35,1.16.88,1.44.68.4,1.46.6,2.24.56.83.04,1.65-.18,2.35-.62.56-.35.9-.96.89-1.62.02-.49-.2-.95-.6-1.23-.51-.32-1.1-.47-1.7-.43h-1.72c-.61.03-1.21-.15-1.71-.5-.41-.28-.66-.75-.67-1.25,0-.51.27-.98.72-1.22.43-.21.88-.37,1.34-.47-.58-.25-1.08-.64-1.46-1.14-.34-.45-.52-1-.52-1.56,0-.73.29-1.43.81-1.95.64-.68,1.53-1.06,2.46-1.07.77.02,1.51.28,2.13.74.28-.23.59-.42.92-.57.28-.11.58-.17.89-.17.3-.01.6.07.86.23.24.15.39.41.39.69,0,.15-.05.3-.15.42-.1.11-.24.17-.38.17-.26-.01-.49-.15-.63-.37l-.25-.33c-.14-.18-.36-.27-.58-.26-.32.02-.62.17-.84.4.55.61.86,1.39.88,2.21.01.92-.47,1.78-1.26,2.25-.41.27-.87.46-1.36.55-.15.02-.61.06-1.38.11-1.06.07-1.59.36-1.59.89,0,.46.45.69,1.36.69h1.79c.54-.01,1.07.05,1.6.17.41.1.8.28,1.14.53.63.46.99,1.2.96,1.98.03.88-.39,1.71-1.11,2.2-.76.54-1.88.81-3.34.81-1.58,0-2.7-.32-3.36-.95-.42-.4-.64-.96-.63-1.54-.01-.46.16-.9.47-1.23.29-.33.7-.51,1.14-.5.29-.01.58.09.8.29.21.2.32.48.31.77v.12Zm-.47-7.21c-.03.67.14,1.33.49,1.91.26.45.74.73,1.26.74.51,0,.98-.28,1.21-.73.32-.63.47-1.33.43-2.03.04-.76-.16-1.5-.56-2.14-.23-.37-.63-.6-1.06-.6-.53,0-1.01.31-1.25.78-.17.3-.3.62-.38.95-.09.37-.14.75-.14,1.13Z"/><path class="cls-1" d="m72.6,90.96l3.12-.39v7.07c0,.36.03.72.1,1.08.05.22.17.42.34.57.32.25.71.4,1.12.44v.23h-4.79v-.23c.32-.03.64-.11.93-.24.21-.12.37-.31.46-.53.1-.24.15-.49.17-.75.03-.33.05-.82.05-1.45v-2.67c0-.52,0-1.04-.05-1.56-.02-.26-.1-.51-.24-.73-.1-.18-.26-.34-.44-.44-.24-.1-.49-.16-.75-.17v-.23Zm2.26-4.28c-.26,0-.52-.09-.7-.27-.37-.38-.37-.99,0-1.36.39-.37,1-.37,1.4,0,.38.37.38.98,0,1.36-.19.18-.44.28-.7.27h0Z"/><path class="cls-1" d="m85.75,97.9l.22.08c-.18.67-.59,1.26-1.16,1.66-.65.37-1.4.55-2.15.51-1.46,0-2.61-.43-3.44-1.3-.82-.87-1.25-2.04-1.21-3.23,0-.64.12-1.28.34-1.89.2-.59.52-1.13.92-1.59.44-.51,1-.9,1.62-1.16.67-.27,1.38-.41,2.1-.4.88-.05,1.75.2,2.46.71.32.22.52.57.54.95,0,.22-.08.43-.23.58-.14.15-.34.24-.55.23-.47,0-.82-.34-1.04-1.03-.06-.22-.15-.44-.24-.65-.06-.12-.16-.22-.26-.3-.24-.17-.53-.26-.82-.25-.42,0-.83.12-1.18.36-.32.21-.59.48-.81.79-.25.37-.44.77-.58,1.19-.25.69-.37,1.42-.38,2.15,0,.64.12,1.28.35,1.89.2.57.53,1.1.94,1.54.56.62,1.35.98,2.19.98.64.02,1.26-.22,1.72-.66.29-.33.51-.71.66-1.13Z"/><path class="cls-1" d="m96.16,98.9l.18.11c-.26.76-.86,1.14-1.79,1.14-.46.02-.91-.12-1.28-.38-.29-.24-.52-.54-.7-.87-.34.32-.7.61-1.1.86-.5.27-1.07.4-1.64.39-.68.04-1.35-.17-1.9-.57-.46-.38-.72-.95-.7-1.55-.02-.56.19-1.1.57-1.51.21-.22.47-.4.75-.54.4-.17.81-.31,1.23-.41.63-.16,1.09-.29,1.39-.4.27-.09.52-.22.75-.39.21-.14.38-.35.48-.59.1-.3.14-.62.13-.93.05-.65-.11-1.31-.48-1.85-.15-.19-.34-.33-.56-.43-.22-.11-.46-.16-.71-.16-.28,0-.56.07-.79.23-.23.15-.41.37-.52.63l-.27.63c-.12.32-.44.53-.78.51-.23,0-.45-.08-.62-.24-.17-.16-.26-.38-.25-.61,0-.37.26-.68.78-.93.34-.15.69-.25,1.05-.32.4-.08.81-.12,1.22-.12.47,0,.94.06,1.4.17.42.09.83.24,1.22.44.42.21.74.59.88,1.04.07.36.1.73.09,1.1v4.01c-.02.46.01.93.09,1.39.05.45.44.79.89.77.18,0,.37-.03.53-.12.18-.13.33-.29.45-.48Zm-3.59-4.27c-.4.33-.83.62-1.29.86-.38.19-.74.41-1.09.64-.21.15-.39.32-.55.52-.34.41-.52.93-.51,1.46-.02.43.12.85.39,1.18.24.3.61.47,1,.47.36,0,.71-.12,1-.33.31-.22.56-.53.71-.88.26-.67.37-1.39.34-2.1v-1.81Z"/><path class="cls-1" d="m97.14,85.11l3.12-.39v12.92c0,.36.03.72.1,1.08.05.22.17.42.34.57.32.25.71.4,1.12.44v.23h-4.79v-.23c.32-.03.64-.11.93-.24.21-.13.37-.31.46-.54.1-.24.15-.49.17-.75.03-.34.05-.82.05-1.46v-8.5c0-.52,0-1.04-.05-1.56-.02-.26-.1-.51-.24-.74-.1-.18-.26-.33-.44-.43-.24-.1-.49-.16-.75-.16v-.24Z"/><path class="cls-1" d="m126.91,85.4c-.34,0-.67.06-.99.17-.26.1-.5.25-.69.45-.15.14-.27.31-.36.5-.09.22-.14.46-.16.7-.05.44-.08.89-.08,1.33v7.99c-.02.56.03,1.11.13,1.66.07.33.23.63.47.87.46.41,1.06.63,1.68.63v.25h-6.93v-.25c.34,0,.69-.07,1.01-.18.26-.1.49-.25.69-.45.23-.25.39-.55.46-.88.1-.54.14-1.09.13-1.64v-9.69l-5.59,13.1h-.23l-5.55-12.9v9.5c-.02.55.03,1.1.12,1.65.13.61.56,1.12,1.15,1.33.32.11.66.16,1,.17v.25h-5v-.25c.34,0,.68-.07,1-.17.26-.1.5-.25.69-.46.23-.25.39-.55.46-.88.1-.54.14-1.09.12-1.64v-7.99c0-.33-.01-.65-.03-.94,0-.4-.09-.8-.25-1.17-.16-.32-.42-.59-.74-.75-.39-.18-.82-.28-1.25-.29v-.25h4.71l4.7,11.59,4.87-11.59h4.46v.25Z"/><path class="cls-1" d="m127.34,95.38c0-1.18.47-2.3,1.3-3.13,1.9-2.09,5.13-2.24,7.22-.34.12.11.23.22.34.34,1.71,1.72,1.74,4.48.07,6.24-1.98,2.12-5.31,2.24-7.43.25-.09-.08-.17-.17-.25-.25-.39-.42-.7-.92-.92-1.45-.21-.52-.32-1.08-.32-1.65Zm1.97-.12c-.04,1.12.26,2.24.85,3.2.64.97,1.41,1.46,2.33,1.46.4,0,.8-.12,1.14-.32.38-.23.71-.54.95-.91.31-.47.54-.98.68-1.52.17-.58.26-1.17.26-1.77,0-.61-.1-1.21-.28-1.79-.16-.56-.41-1.08-.74-1.55-.47-.75-1.29-1.21-2.18-1.22-.82,0-1.52.43-2.11,1.29-.62.93-.94,2.03-.9,3.15h0Z"/><path class="cls-1" d="m141.01,90.57c.13.49.21,1,.25,1.51.43-.47.96-.85,1.53-1.12.56-.26,1.16-.39,1.77-.39.61-.02,1.21.16,1.7.52.37.32.69.68.94,1.1.48-.5,1.04-.92,1.66-1.23.56-.26,1.18-.4,1.8-.39.77-.03,1.53.22,2.12.71.54.46.84,1.15.82,1.86v4.5c0,.36.03.72.1,1.08.05.22.16.41.33.57.33.25.72.4,1.13.44v.23h-4.79v-.23c.32-.03.63-.11.93-.24.2-.13.37-.31.46-.54.1-.24.15-.49.17-.75.03-.34.05-.82.05-1.45v-2.07c.01-.59-.01-1.17-.08-1.75-.04-.33-.14-.65-.29-.94-.35-.62-1.04-.98-1.75-.92-.78-.06-1.54.33-1.95,1-.35.57-.53,1.46-.53,2.66v2.91c0,.36.03.72.1,1.08.05.22.16.41.33.57.33.25.72.4,1.13.44v.23h-4.79v-.23c.32-.03.63-.11.93-.24.2-.13.37-.31.46-.54.1-.24.15-.49.17-.75.03-.34.05-.82.05-1.45v-2c.01-.62-.02-1.24-.08-1.86-.04-.34-.14-.66-.31-.96-.16-.26-.39-.47-.67-.61-.3-.15-.64-.23-.97-.22-.4,0-.8.1-1.16.29-.35.18-.64.46-.85.79-.21.33-.35.69-.42,1.07-.09.53-.13,1.07-.12,1.61v2.78c0,.36.03.72.1,1.08.05.22.17.42.34.57.32.25.71.4,1.12.44v.23h-4.79v-.23c.32-.03.64-.11.93-.24.21-.12.37-.31.46-.54.1-.24.15-.49.17-.75.03-.34.05-.82.05-1.45v-2.67c0-.52,0-1.04-.05-1.56-.02-.26-.1-.51-.24-.73-.1-.18-.26-.34-.44-.44-.24-.1-.49-.16-.75-.17v-.23l2.98-.37Z"/><path class="cls-1" d="m157.42,94.05c-.03.35-.04.61-.04.77,0,.62.09,1.25.28,1.84.15.54.41,1.05.75,1.5.66.82,1.66,1.3,2.71,1.3.38,0,.75-.06,1.11-.2.33-.12.62-.3.87-.54.31-.35.54-.76.67-1.21l.23.08c-.14.77-.57,1.46-1.21,1.91-.74.46-1.6.69-2.47.65-.78.02-1.56-.12-2.29-.42-.64-.29-1.2-.73-1.62-1.3-.63-.87-.96-1.94-.92-3.01-.07-1.48.58-2.91,1.75-3.83.82-.66,1.84-1.02,2.9-1.01.55,0,1.1.1,1.6.31,1.28.52,2.1,1.79,2.04,3.17h-6.35Zm4.73-.42c-.01-.58-.15-1.15-.4-1.67-.18-.34-.45-.63-.78-.84-.31-.2-.67-.31-1.04-.31-.64,0-1.23.3-1.62.8-.48.57-.77,1.27-.83,2.02h4.66Z"/><path class="cls-1" d="m167.66,90.57c.1.39.15.78.15,1.18v.17c.83-.87,1.99-1.36,3.2-1.35.8-.04,1.58.19,2.23.65.56.43.87,1.11.83,1.82v4.59c-.01.36.02.72.09,1.08.05.22.17.42.34.57.32.25.71.4,1.12.44v.23h-4.79v-.23c.32-.03.64-.11.93-.24.21-.13.37-.31.46-.54.1-.24.15-.49.17-.75.03-.34.05-.82.05-1.45v-2.3c.01-.58-.02-1.16-.08-1.73-.04-.32-.14-.62-.31-.89-.18-.26-.42-.47-.71-.59-.32-.14-.67-.22-1.03-.21-.39,0-.78.08-1.13.24-.33.14-.61.37-.83.65-.22.29-.36.62-.43.98-.08.6-.12,1.21-.1,1.81v2.92c0,.36.03.72.1,1.08.05.22.17.42.34.57.32.25.71.4,1.12.44v.23h-4.79v-.23c.32-.03.64-.11.93-.24.21-.12.37-.31.46-.53.1-.24.15-.49.17-.75.03-.33.05-.82.05-1.45v-2.67c0-.52,0-1.04-.05-1.56-.02-.26-.1-.51-.24-.73-.1-.18-.26-.34-.44-.44-.24-.1-.49-.16-.75-.17v-.23l2.97-.39Z"/><path class="cls-1" d="m178.94,90.74h2.75v.41h-2.75v6.31c-.05.57.09,1.14.39,1.63.14.18.33.33.54.42.23.1.47.15.72.15.28.01.56-.06.81-.2.28-.2.52-.45.71-.73l.16.14c-.22.42-.58.76-1,.97-.51.23-1.06.33-1.61.31-.66.06-1.32-.12-1.87-.5-.2-.16-.34-.38-.41-.62-.08-.43-.11-.87-.1-1.31v-6.57h-1.16v-.17c.5-.17.95-.48,1.3-.88.22-.24.42-.51.58-.8.17-.33.31-.67.42-1.02l.11-.36h.4v2.82Z"/><path class="cls-1" d="m183.31,99.95v-3.07h.17c.15.64.41,1.25.76,1.8.56.82,1.2,1.23,1.95,1.23.43,0,.85-.14,1.18-.41.37-.32.57-.8.54-1.29,0-.43-.13-.85-.39-1.19-.16-.19-.34-.36-.55-.5-.36-.23-.73-.45-1.11-.64-.66-.31-1.27-.72-1.82-1.21-.42-.43-.65-1.01-.65-1.6-.01-.62.22-1.23.65-1.68.51-.54,1.24-.83,1.98-.8.35,0,.7.06,1.03.2l.37.16c.1.04.2.06.3.06.14,0,.27-.11.39-.33h.22l.12,2.46h-.23c-.06-.29-.15-.56-.25-.84-.1-.22-.23-.43-.38-.61-.21-.27-.48-.49-.78-.65-.27-.15-.57-.23-.88-.23-.39,0-.77.15-1.03.44-.28.29-.44.68-.43,1.08,0,.36.14.7.38.96.34.34.74.61,1.18.79l1.15.52c.6.25,1.13.65,1.54,1.16.34.48.52,1.05.51,1.64.02.7-.24,1.38-.74,1.89-.57.58-1.36.9-2.17.87-.5,0-.99-.1-1.45-.28-.32-.12-.51-.19-.57-.21-.08-.02-.17-.03-.25-.03-.24,0-.46.12-.57.33h-.17Z"/><path class="cls-1" d="m105.31,34.55s.02-.02.03-.02c.13-.05.38-.06.38.3,0,.02,0,.03,0,.04-.18.22-.36.45-.53.68-2.08,2.75-3.61,5.88-4.49,9.22,0,0-.25.75-.44,1.29-.29.91-.33.52-.27-.08-.04.06.22-1.41.24-1.41.9-3.38,2.45-6.55,4.56-9.33.18-.23.36-.47.54-.69Z"/><path class="cls-1" d="m112.37,40.99s.03,0,.04,0c.13.04.34.18.14.46,0,.01-.02.02-.03.03-.28.08-.55.16-.83.25-3.29,1.04-6.35,2.71-9,4.92,0,0-.64.47-1.1.79-.76.57-.57.23-.18-.22-.06.03,1-1.02,1.01-1.01,2.69-2.23,5.79-3.92,9.12-4.97.28-.09.56-.17.85-.25Z"/><path class="cls-1" d="m114.41,50.32s.02.01.03.02c.09.11.18.34-.16.46-.01,0-.03,0-.05,0-.27-.1-.54-.19-.82-.28-3.28-1.06-6.75-1.47-10.19-1.2,0,0-.79.01-1.36,0-.96.02-.6-.14-.02-.28-.07-.01,1.4-.25,1.41-.24,3.48-.26,6.99.15,10.31,1.22.28.09.56.18.83.28Z"/><polygon class="cls-1" points="106.68 31.26 106.75 32.67 108.12 33.03 106.8 33.54 106.87 34.95 105.98 33.85 104.67 34.36 105.44 33.17 104.55 32.08 105.91 32.44 106.68 31.26"/><path class="cls-1" d="m98.2,46.06c-.04-.17-.07-.35-.08-.52h-.12s.06-.05.06-.05l.06.04s-.03-.3-.09-1.37c0-.04,0-.08,0-.1h0c-.02-3.89-.02-7.18,0-10.61v-.9s0,0,0,0c.04-.07.1-.12.18-.13.08.01.16.06.2.14,0,0,0,.01,0,.02v.89c-.03,3.79-.02,7.36,0,10.66,0,.04-.05.85-.13,1.43-.01.17-.04.35-.08.52Z"/><path class="cls-1" d="m98.2,52.42c-.04.17-.07.35-.08.52h-.12s.06.05.06.05l.06-.04s-.03.3-.09,1.37c0,.04,0,.08,0,.1h0c-.02,3.89-.02,7.18,0,10.61v.9s0,0,0,0c.04.07.1.12.18.13.08-.01.16-.06.2-.14,0,0,0-.01,0-.02v-.89c-.03-3.79-.02-7.36,0-10.66,0-.04-.05-.85-.13-1.43-.01-.17-.04-.35-.08-.52Z"/><polygon class="cls-1" points="116.63 49.04 116.69 50.29 117.9 50.61 116.74 51.06 116.8 52.31 116.01 51.34 114.85 51.78 115.53 50.73 114.74 49.76 115.95 50.09 116.63 49.04"/><path class="cls-1" d="m102.17,37.49s0-.02,0-.03c0-.1-.04-.28-.3-.19-.01,0-.02.01-.03.02-.12.19-.23.38-.33.57-.21.4-.39.82-.54,1.26-.04.12-.08.23-.11.35-.07.34-.12.68-.13,1.02-.02.72.1.44.21.02-.02.04.28-.99.3-.99.03-.1.06-.19.09-.29.14-.41.31-.81.52-1.2.1-.19.21-.37.32-.55Z"/><path class="cls-1" d="m110.53,48.84s.02,0,.03,0c.1-.02.27-.1.13-.33,0,0-.01-.02-.02-.03-.21-.08-.42-.15-.63-.22-.44-.13-.88-.23-1.34-.29-.12-.02-.24-.03-.37-.04-.34,0-.69.01-1.03.06-.71.12-.41.18.02.21-.04-.01,1.03.09,1.02.11.1,0,.2.02.3.04.43.06.86.15,1.28.28.2.06.4.13.6.21Z"/><path class="cls-1" d="m113.67,56.26s.02.02.02.03c.05.13.05.38-.3.38-.02,0-.03,0-.04,0-.22-.18-.45-.36-.68-.54-2.74-2.1-5.87-3.64-9.2-4.54,0,0-.75-.25-1.28-.45-.91-.3-.52-.34.08-.27-.06-.04,1.41.23,1.41.24,3.37.92,6.54,2.48,9.31,4.6.23.18.46.36.69.55Z"/><path class="cls-1" d="m107.2,63.29s0,.03,0,.04c-.04.13-.18.34-.46.13-.01,0-.02-.02-.03-.03-.08-.28-.16-.56-.24-.83-1.02-3.3-2.68-6.36-4.87-9.02,0,0-.47-.64-.79-1.11-.57-.77-.23-.57.22-.18-.03-.06,1.01,1,1,1.01,2.22,2.7,3.89,5.81,4.93,9.14.09.28.17.56.25.85Z"/><polygon class="cls-1" points="109.2 65.71 107.81 65.78 107.45 67.12 106.95 65.82 105.57 65.89 106.65 65.02 106.16 63.72 107.32 64.48 108.41 63.61 108.04 64.95 109.2 65.71"/><path class="cls-1" d="m110.75,53.11s.02,0,.03,0c.1,0,.28-.04.2-.29,0-.01-.01-.02-.02-.03-.19-.12-.38-.23-.57-.34-.4-.22-.82-.4-1.25-.55-.12-.04-.23-.08-.35-.11-.34-.08-.68-.12-1.02-.14-.72-.02-.44.1-.02.21-.04-.02.99.29.98.31.1.03.19.06.29.09.41.14.81.32,1.2.52.19.1.37.21.55.32Z"/><path class="cls-1" d="m91.26,34.55s-.02-.02-.03-.02c-.13-.05-.38-.06-.38.3,0,.02,0,.03,0,.04.18.22.36.45.53.68,2.08,2.75,3.61,5.88,4.49,9.22,0,0,.25.75.44,1.29.29.91.33.52.27-.08.04.06-.22-1.41-.24-1.41-.9-3.38-2.45-6.55-4.56-9.33-.18-.23-.36-.47-.54-.69Z"/><path class="cls-1" d="m84.2,40.99s-.03,0-.04,0c-.13.04-.34.18-.14.46,0,.01.02.02.03.03.28.08.55.16.83.25,3.29,1.04,6.35,2.71,9,4.92,0,0,.64.47,1.1.79.77.57.57.23.18-.22.06.03-1-1.02-1.01-1.01-2.69-2.23-5.79-3.92-9.12-4.97-.28-.09-.56-.17-.85-.25Z"/><path class="cls-1" d="m82.17,50.32s-.02.01-.03.02c-.09.11-.18.34.16.46.01,0,.03,0,.05,0,.27-.1.54-.19.82-.28,3.28-1.06,6.75-1.47,10.19-1.2,0,0,.79.01,1.36,0,.96.02.6-.14.02-.28.07-.01-1.4-.25-1.41-.24-3.48-.26-6.99.15-10.31,1.22-.28.09-.56.18-.84.28Z"/><polygon class="cls-1" points="89.9 31.26 89.82 32.67 88.46 33.03 89.78 33.54 89.7 34.95 90.59 33.85 91.91 34.36 91.14 33.17 92.03 32.08 90.66 32.44 89.9 31.26"/><polygon class="cls-1" points="79.95 49.04 79.88 50.29 78.67 50.61 79.84 51.06 79.77 52.31 80.56 51.34 81.73 51.78 81.05 50.73 81.84 49.76 80.63 50.09 79.95 49.04"/><path class="cls-1" d="m94.4,37.49s0-.02,0-.03c0-.1.04-.28.3-.19.01,0,.02.01.03.02.12.19.23.38.33.57.21.4.39.82.54,1.26.04.12.08.23.11.35.07.34.12.68.13,1.02.02.72-.1.44-.21.02.02.04-.28-.99-.3-.99-.03-.1-.06-.19-.09-.29-.14-.41-.31-.81-.52-1.2-.1-.19-.21-.37-.32-.55Z"/><path class="cls-1" d="m86.04,48.84s-.02,0-.03,0c-.1-.02-.27-.1-.13-.33,0,0,.01-.02.02-.03.21-.08.42-.15.63-.22.44-.13.88-.23,1.34-.29.12-.02.24-.03.37-.04.34,0,.69.01,1.03.06.71.12.41.18-.02.21.04-.01-1.03.09-1.03.11-.1,0-.2.02-.3.04-.43.06-.86.15-1.28.28-.2.06-.4.13-.6.21Z"/><path class="cls-1" d="m82.9,56.26s-.02.02-.02.03c-.05.13-.05.38.3.38.02,0,.03,0,.04,0,.22-.18.45-.36.68-.54,2.74-2.1,5.87-3.64,9.2-4.54,0,0,.75-.25,1.28-.45.91-.3.52-.34-.08-.27.06-.04-1.41.23-1.41.24-3.37.92-6.54,2.48-9.31,4.6-.23.18-.46.36-.69.55Z"/><path class="cls-1" d="m89.37,63.29s0,.03,0,.04c.04.13.18.34.46.13.01,0,.02-.02.03-.03.08-.28.16-.56.24-.83,1.02-3.3,2.68-6.36,4.87-9.02,0,0,.47-.64.79-1.11.57-.77.23-.57-.22-.18.03-.06-1.01,1-1.01,1.01-2.22,2.7-3.89,5.81-4.93,9.14-.09.28-.17.56-.25.85Z"/><polygon class="cls-1" points="87.37 65.71 88.76 65.78 89.13 67.12 89.62 65.82 91.01 65.89 89.92 65.02 90.42 63.72 89.25 64.48 88.17 63.61 88.53 64.95 87.37 65.71"/><path class="cls-1" d="m85.82,53.11s-.02,0-.03,0c-.1,0-.28-.04-.2-.29,0-.01.01-.02.02-.03.19-.12.38-.23.57-.34.4-.22.82-.4,1.25-.55.12-.04.23-.08.35-.11.34-.08.68-.12,1.02-.14.72-.02.44.1.02.21.04-.02-.99.29-.98.31-.1.03-.19.06-.29.09-.41.14-.81.32-1.2.52-.19.1-.37.21-.55.32Z"/><circle class="cls-1" cx="79.28" cy="43.94" r=".43"/><circle class="cls-1" cx="86.54" cy="33.53" r=".43"/><circle class="cls-1" cx="110.04" cy="33.95" r=".43"/><circle class="cls-1" cx="116.96" cy="43.94" r=".43"/><circle class="cls-1" cx="114.44" cy="61.25" r=".43"/><circle class="cls-1" cx="82.13" cy="61.35" r=".43"/><path class="cls-1" d="m103.77,28.09s.02-.03.04-.04c.18-.1.54-.18.62.34,0,.02,0,.05,0,.07-.21.37-.41.74-.6,1.12-2.33,4.51-3.76,9.44-4.2,14.5,0,0-.18,1.15-.31,1.97-.2,1.39-.35.84-.42-.04-.04.09-.03-2.1-.01-2.1.46-5.12,1.91-10.11,4.27-14.68.2-.38.4-.76.61-1.14Z"/><path class="cls-1" d="m114.86,34.82s.04-.01.05,0c.2.02.54.17.31.64-.01.02-.02.04-.04.05-.38.18-.76.37-1.14.57-4.51,2.33-8.53,5.52-11.81,9.39,0,0-.81.84-1.4,1.43-.97,1.02-.77.48-.32-.28-.08.05,1.19-1.73,1.21-1.72,3.34-3.91,7.41-7.14,11.98-9.5.38-.2.77-.39,1.16-.58Z"/><path class="cls-1" d="m120,46.74s.04.01.05.03c.15.14.34.45-.11.7-.02.01-.04.02-.06.02-.42-.07-.84-.14-1.26-.2-5.03-.71-10.15-.43-15.07.82,0,0-1.15.22-1.97.35-1.38.27-.91-.06-.1-.41-.1,0,1.97-.72,1.98-.7,4.99-1.26,10.17-1.53,15.26-.81.43.06.86.13,1.28.2Z"/><polygon class="cls-1" points="98.22 28.97 98.7 30.29 100.11 30.24 99 31.11 99.48 32.43 98.31 31.65 97.2 32.52 97.59 31.16 96.42 30.37 97.83 30.32 98.22 28.97"/><polygon class="cls-1" points="98.23 68.98 98.57 68.05 99.56 68.08 98.78 67.47 99.12 66.54 98.29 67.09 97.51 66.48 97.78 67.44 96.96 67.99 97.95 68.03 98.23 68.98"/><polygon class="cls-1" points="114.69 39.47 114.74 40.48 115.72 40.74 114.78 41.11 114.83 42.12 114.19 41.33 113.25 41.69 113.8 40.85 113.16 40.06 114.14 40.32 114.69 39.47"/><path class="cls-1" d="m103.99,40.46c.07-.21.16-.42.25-.62.31-.66.67-1.28,1.08-1.88h.01c.16-.22.33-.42.5-.62.64-.73,1.34-1.41,2.09-2.03.36-.29.73-.58,1.11-.85,0,0,.01,0,.02,0,.05,0,.1.01.15.02.08.01.14.06.18.13.03.1.03.21-.02.31h0c-.37.26-.73.54-1.08.83-.73.6-1.4,1.26-2.03,1.97-.14.16-.28.32-.41.48-.02.01-.03.02-.04.04-.14.14-.59.69-.78.93-.39.48-.55.67-.6.77h0c-.14.19-.28.36-.44.53Z"/><path class="cls-1" d="m107.82,44.92c.19-.12.39-.22.59-.32.66-.3,1.34-.55,2.04-.74h.02c.26-.05.52-.1.77-.14.96-.15,1.93-.22,2.91-.21.46,0,.93.03,1.39.07,0,0,.01,0,.02.01.04.03.07.07.1.11.05.06.07.14.06.22-.04.1-.12.18-.22.23h0c-.45-.04-.91-.06-1.36-.06-.94,0-1.88.06-2.82.2-.21.03-.42.07-.62.11-.02,0-.04,0-.06,0-.2.02-.9.15-1.19.21-.61.12-.85.16-.95.2h0c-.22.05-.45.1-.68.13Z"/><path class="cls-1" d="m120.15,54.76s.03.02.04.04c.1.18.17.54-.34.62-.02,0-.05,0-.07,0-.37-.21-.74-.41-1.12-.61-4.5-2.35-9.42-3.81-14.48-4.27,0,0-1.15-.18-1.97-.32-1.39-.2-.84-.36.04-.42-.09-.04,2.1-.02,2.1,0,5.12.48,10.1,1.96,14.65,4.34.38.2.76.41,1.14.62Z"/><path class="cls-1" d="m113.36,65.81s.01.04,0,.05c-.02.2-.17.54-.64.31-.02-.01-.04-.02-.05-.04-.18-.38-.37-.77-.56-1.14-2.31-4.53-5.48-8.56-9.33-11.86,0,0-.84-.82-1.42-1.41-1.02-.97-.48-.77.28-.31-.05-.08,1.72,1.2,1.71,1.21,3.89,3.36,7.1,7.44,9.44,12.03.2.38.39.77.57,1.17Z"/><path class="cls-1" d="m101.42,70.89s-.01.04-.03.05c-.14.15-.45.34-.7-.12,0-.02-.02-.04-.02-.06.08-.42.14-.84.21-1.26.74-5.02.49-10.15-.74-15.07,0,0-.21-1.15-.34-1.97-.27-1.38.06-.91.41-.1,0-.1.71,1.98.69,1.98,1.23,4.99,1.48,10.18.73,15.27-.06.43-.13.85-.21,1.28Z"/><polygon class="cls-1" points="116.96 57.65 115.56 57.72 115.18 59.08 114.68 57.76 113.28 57.83 114.38 56.94 113.88 55.62 115.06 56.4 116.16 55.51 115.78 56.88 116.96 57.65"/><path class="cls-1" d="m107.77,54.91c.21.07.42.16.62.25.65.31,1.28.67,1.87,1.09h.01c.2.17.41.35.6.52.73.65,1.4,1.35,2.02,2.1.29.36.58.73.84,1.11,0,0,0,.01,0,.02,0,.05-.01.1-.02.15-.01.08-.06.14-.13.18-.1.03-.21.03-.31-.02h0c-.26-.37-.53-.74-.82-1.08-.6-.73-1.25-1.41-1.96-2.04-.16-.14-.32-.28-.48-.41-.01-.02-.02-.03-.04-.04-.14-.14-.69-.59-.92-.78-.48-.39-.67-.55-.76-.61h0c-.19-.14-.36-.28-.53-.44Z"/><path class="cls-1" d="m103.29,58.72c.12.19.22.39.31.59.3.66.55,1.34.73,2.04v.02c.05.26.1.52.14.77.14.96.21,1.94.19,2.91,0,.46-.03.93-.07,1.39,0,0,0,.01-.01.02-.03.04-.07.07-.11.1-.06.05-.14.07-.22.06-.1-.04-.18-.12-.23-.22h0c.04-.45.07-.91.07-1.36.01-.94-.05-1.88-.19-2.82-.03-.21-.07-.42-.1-.62,0-.02,0-.04,0-.06-.02-.2-.15-.9-.2-1.19-.11-.61-.16-.85-.19-.95h0c-.05-.22-.1-.45-.12-.68Z"/><path class="cls-1" d="m92.81,28.09s-.02-.03-.04-.04c-.18-.1-.54-.18-.62.34,0,.02,0,.05,0,.07.21.37.41.74.6,1.12,2.33,4.51,3.76,9.44,4.2,14.5,0,0,.18,1.15.31,1.97.2,1.39.35.84.42-.04.04.09.03-2.1.01-2.1-.46-5.12-1.91-10.11-4.27-14.68-.2-.38-.4-.76-.61-1.14Z"/><path class="cls-1" d="m81.72,34.82s-.04-.01-.05,0c-.2.02-.54.17-.31.64.01.02.02.04.04.05.38.18.76.37,1.14.57,4.51,2.33,8.53,5.52,11.81,9.39,0,0,.81.84,1.4,1.43.97,1.02.77.48.32-.28.08.05-1.19-1.73-1.21-1.72-3.34-3.91-7.41-7.14-11.98-9.5-.38-.2-.77-.39-1.16-.58Z"/><path class="cls-1" d="m76.57,46.74s-.04.01-.05.03c-.15.14-.34.45.11.7.02.01.04.02.06.02.42-.07.84-.14,1.26-.2,5.03-.71,10.15-.43,15.07.82,0,0,1.15.22,1.97.35,1.38.27.91-.06.1-.41.1,0-1.97-.72-1.98-.7-4.99-1.26-10.17-1.53-15.26-.81-.43.06-.86.13-1.28.2Z"/><polygon class="cls-1" points="81.91 39.59 81.86 40.51 80.97 40.75 81.83 41.08 81.78 42 82.36 41.28 83.22 41.62 82.72 40.84 83.3 40.13 82.41 40.36 81.91 39.59"/><path class="cls-1" d="m92.59,40.46c-.07-.21-.16-.42-.25-.62-.31-.66-.67-1.28-1.08-1.88h-.01c-.16-.22-.33-.42-.5-.62-.64-.73-1.34-1.41-2.09-2.03-.36-.29-.73-.58-1.11-.85,0,0-.01,0-.02,0-.05,0-.1.01-.15.02-.08.01-.14.06-.18.13-.03.1-.03.21.02.31h0c.37.26.73.54,1.08.83.73.6,1.4,1.26,2.03,1.97.14.16.28.32.41.48.02.01.03.02.04.04.14.14.59.69.78.93.39.48.55.67.6.77h0c.14.19.28.36.44.53Z"/><path class="cls-1" d="m88.75,44.92c-.19-.12-.39-.22-.59-.32-.66-.3-1.34-.55-2.04-.74h-.02c-.26-.05-.52-.1-.77-.14-.96-.15-1.93-.22-2.91-.21-.46,0-.93.03-1.39.07,0,0-.01,0-.02.01-.04.03-.07.07-.1.11-.05.06-.07.14-.06.22.04.1.12.18.22.23h0c.45-.04.91-.06,1.36-.06.94,0,1.88.06,2.82.2.21.03.42.07.62.11.02,0,.04,0,.06,0,.2.02.9.15,1.19.21.61.12.85.16.95.2h0c.22.05.45.1.68.13Z"/><path class="cls-1" d="m76.42,54.76s-.03.02-.04.04c-.1.18-.17.54.34.62.02,0,.05,0,.07,0,.37-.21.74-.41,1.12-.61,4.5-2.35,9.42-3.81,14.48-4.27,0,0,1.15-.18,1.97-.32,1.39-.2.84-.36-.04-.42.09-.04-2.1-.02-2.1,0-5.12.48-10.1,1.96-14.66,4.34-.38.2-.76.41-1.14.62Z"/><path class="cls-1" d="m83.22,65.81s-.01.04,0,.05c.02.2.17.54.64.31.02-.01.04-.02.05-.04.18-.38.37-.77.56-1.14,2.31-4.53,5.48-8.56,9.33-11.86,0,0,.84-.82,1.42-1.41,1.02-.97.48-.77-.28-.31.05-.08-1.72,1.2-1.71,1.21-3.89,3.36-7.1,7.44-9.44,12.03-.2.38-.39.77-.57,1.17Z"/><path class="cls-1" d="m95.16,70.89s.01.04.03.05c.14.15.45.34.7-.12,0-.02.02-.04.02-.06-.08-.42-.14-.84-.21-1.26-.74-5.02-.49-10.15.74-15.07,0,0,.21-1.15.34-1.97.27-1.38-.06-.91-.41-.1,0-.1-.71,1.98-.69,1.98-1.23,4.99-1.48,10.18-.73,15.27.06.43.13.85.21,1.28Z"/><polygon class="cls-1" points="80.21 57.53 81.16 57.58 81.41 58.5 81.75 57.61 82.7 57.65 81.96 57.06 82.29 56.17 81.5 56.69 80.76 56.09 81.01 57.01 80.21 57.53"/><path class="cls-1" d="m88.8,54.91c-.21.07-.42.16-.62.25-.65.31-1.28.67-1.87,1.09h-.01c-.2.17-.4.35-.6.52-.73.65-1.4,1.35-2.02,2.1-.29.36-.58.73-.84,1.11,0,0,0,.01,0,.02,0,.05.01.1.02.15.01.08.06.14.13.18.1.03.21.03.31-.02h0c.26-.37.53-.74.82-1.08.6-.73,1.25-1.41,1.96-2.04.16-.14.32-.28.48-.41.01-.02.02-.03.04-.04.14-.14.69-.59.92-.78.48-.39.67-.55.76-.61h0c.19-.14.36-.28.53-.44Z"/><path class="cls-1" d="m93.28,58.72c-.12.19-.22.39-.31.59-.3.66-.55,1.34-.73,2.04v.02c-.05.26-.1.52-.14.77-.14.96-.21,1.94-.19,2.91,0,.46.03.93.07,1.39,0,0,0,.01.01.02.03.04.07.07.11.1.06.05.14.07.22.06.1-.04.18-.12.23-.22h0c-.04-.45-.07-.91-.07-1.36-.01-.94.05-1.88.19-2.82.03-.21.07-.42.1-.62,0-.02,0-.04,0-.06.02-.2.15-.9.2-1.19.11-.61.16-.85.19-.95h0c.05-.22.1-.45.12-.68Z"/><circle class="cls-1" cx="84.92" cy="53.18" r=".26"/><circle class="cls-1" cx="85.18" cy="48.76" r=".26"/><circle class="cls-1" cx="94.11" cy="36.53" r=".26"/><circle class="cls-1" cx="102.31" cy="36.53" r=".26"/><circle class="cls-1" cx="111.43" cy="49.01" r=".26"/><circle class="cls-1" cx="111.51" cy="53.37" r=".26"/><path class="cls-1" d="m132.28,66.61s.01,0,.01.01c.04.05.08.15-.07.2,0,0-.01,0-.02,0-.12-.04-.24-.09-.37-.13-1.47-.48-3.03-.66-4.57-.54,0,0-.36,0-.61,0-.43.01-.27-.06,0-.13-.03,0,.63-.11.63-.11,1.56-.12,3.13.07,4.63.55.13.04.25.08.37.13Z"/><polygon class="cls-1" points="128.81 58.06 128.85 58.69 129.46 58.85 128.87 59.08 128.9 59.71 128.5 59.22 127.91 59.45 128.26 58.91 127.86 58.42 128.47 58.59 128.81 58.06"/><path class="cls-1" d="m125.01,64.69c-.02-.08-.03-.16-.04-.23h-.05s.03-.02.03-.02l.03.02s-.01-.13-.04-.62c0-.02,0-.03,0-.04h0c0-1.74,0-3.22,0-4.76v-.4s0,0,0,0c.02-.03.05-.05.08-.06.04,0,.07.03.09.06h0s0,.41,0,.41c-.01,1.7,0,3.3,0,4.78,0,.02-.02.38-.06.64,0,.08-.02.16-.04.23Z"/><polygon class="cls-1" points="133.28 66.03 133.31 66.59 133.85 66.74 133.32 66.94 133.35 67.5 133 67.06 132.48 67.26 132.78 66.79 132.43 66.36 132.97 66.5 133.28 66.03"/><path class="cls-1" d="m126.79,60.85s0,0,0-.01c0-.04-.02-.13-.13-.09,0,0,0,0-.01,0-.05.08-.1.17-.15.26-.1.18-.18.37-.24.56-.02.05-.03.1-.05.16-.03.15-.05.3-.06.46,0,.32.05.2.09,0,0,.02.13-.45.13-.44.01-.04.03-.09.04-.13.06-.19.14-.37.23-.54.04-.08.09-.17.14-.25Z"/><path class="cls-1" d="m130.54,65.94s0,0,.01,0c.04,0,.12-.04.06-.15,0,0,0,0-.01-.01-.09-.04-.19-.07-.28-.1-.2-.06-.4-.1-.6-.13-.05,0-.11-.01-.16-.02-.15,0-.31,0-.46.03-.32.05-.18.08,0,.09-.02,0,.46.04.46.05.04,0,.09,0,.13.02.19.03.39.07.57.12.09.03.18.06.27.09Z"/><polygon class="cls-1" points="129.94 73.51 129.32 73.54 129.16 74.14 128.94 73.56 128.31 73.59 128.8 73.2 128.58 72.62 129.1 72.96 129.59 72.57 129.42 73.17 129.94 73.51"/><path class="cls-1" d="m130.64,67.86s0,0,.01,0c.04,0,.13-.02.09-.13,0,0,0,0,0-.01-.08-.05-.17-.1-.26-.15-.18-.1-.37-.18-.56-.25-.05-.02-.1-.03-.16-.05-.15-.03-.3-.06-.46-.06-.32,0-.2.04,0,.09-.02,0,.45.13.44.14.04.01.09.03.13.04.18.06.36.14.54.24.08.04.17.09.25.14Z"/><polygon class="cls-1" points="121.28 58.06 121.25 58.69 120.64 58.85 121.23 59.08 121.2 59.71 121.6 59.22 122.19 59.45 121.84 58.91 122.24 58.42 121.63 58.59 121.28 58.06"/><polygon class="cls-1" points="116.82 66.03 116.79 66.59 116.25 66.74 116.77 66.94 116.74 67.5 117.1 67.06 117.62 67.26 117.32 66.79 117.67 66.36 117.13 66.5 116.82 66.03"/><path class="cls-1" d="m123.31,60.85s0,0,0-.01c0-.04.02-.13.13-.09,0,0,0,0,.01,0,.05.08.1.17.15.26.1.18.18.37.24.56.02.05.03.1.05.16.03.15.05.3.06.46,0,.32-.05.2-.09,0,0,.02-.13-.45-.13-.44-.01-.04-.03-.09-.04-.13-.06-.19-.14-.37-.23-.54-.04-.08-.09-.17-.14-.25Z"/><path class="cls-1" d="m119.55,65.94s0,0-.01,0c-.04,0-.12-.04-.06-.15,0,0,0,0,.01-.01.09-.04.19-.07.28-.1.2-.06.4-.1.6-.13.05,0,.11-.01.16-.02.15,0,.31,0,.46.03.32.05.18.08,0,.09.02,0-.46.04-.46.05-.04,0-.09,0-.13.02-.19.03-.39.07-.57.12-.09.03-.18.06-.27.09Z"/><path class="cls-1" d="m128.2,59.53s0,0,.01,0c.06-.02.17-.02.17.13,0,0,0,.01,0,.02-.08.1-.16.2-.24.31-.93,1.23-1.62,2.64-2.01,4.14,0,0-.11.34-.2.58-.13.41-.15.23-.12-.03-.02.03.1-.63.11-.63.4-1.51,1.1-2.94,2.04-4.19.08-.11.16-.21.24-.31Z"/><path class="cls-1" d="m131.37,62.42s.01,0,.02,0c.06.02.15.08.06.21,0,0,0,.01-.02.01-.12.03-.25.07-.37.11-1.48.47-2.85,1.22-4.04,2.21,0,0-.29.21-.49.36-.34.26-.26.1-.08-.1-.03.01.45-.46.45-.45,1.21-1,2.6-1.76,4.09-2.23.13-.04.25-.08.38-.11Z"/><path class="cls-1" d="m125.01,67.55c-.02.08-.03.16-.04.23h-.05s.03.02.03.02l.03-.02s-.01.13-.04.62c0,.02,0,.03,0,.04h0c0,1.74,0,3.22,0,4.76v.4s0,0,0,0c.02.03.05.05.08.06.04,0,.07-.03.09-.06h0s0-.41,0-.41c-.01-1.7,0-3.3,0-4.78,0-.02-.02-.38-.06-.64,0-.08-.02-.16-.04-.23Z"/><path class="cls-1" d="m131.95,69.27s0,0,0,.01c.02.06.02.17-.13.17,0,0-.01,0-.02,0-.1-.08-.2-.16-.3-.24-1.23-.94-2.63-1.63-4.13-2.03,0,0-.34-.11-.58-.2-.41-.13-.23-.15.03-.12-.03-.02.63.1.63.11,1.51.41,2.93,1.11,4.18,2.07.1.08.21.16.31.25Z"/><path class="cls-1" d="m129.05,72.43s0,.01,0,.02c-.02.06-.08.15-.21.06,0,0-.01,0-.01-.02-.03-.13-.07-.25-.11-.37-.46-1.48-1.2-2.85-2.19-4.05,0,0-.21-.29-.35-.5-.26-.34-.1-.26.1-.08-.01-.03.45.45.45.45,1,1.21,1.75,2.6,2.21,4.1.04.13.08.25.11.38Z"/><path class="cls-1" d="m121.9,59.53s0,0-.01,0c-.06-.02-.17-.02-.17.13,0,0,0,.01,0,.02.08.1.16.2.24.31.93,1.23,1.62,2.64,2.01,4.14,0,0,.11.34.2.58.13.41.15.23.12-.03.02.03-.1-.63-.11-.63-.4-1.51-1.1-2.94-2.04-4.19-.08-.11-.16-.21-.24-.31Z"/><path class="cls-1" d="m118.73,62.42s-.01,0-.02,0c-.06.02-.15.08-.06.21,0,0,0,.01.02.01.12.03.25.07.37.11,1.48.47,2.85,1.22,4.04,2.21,0,0,.29.21.49.36.34.26.26.1.08-.1.03.01-.45-.46-.45-.45-1.21-1-2.6-1.76-4.09-2.23-.13-.04-.25-.08-.38-.11Z"/><path class="cls-1" d="m117.82,66.61s-.01,0-.01.01c-.04.05-.08.15.07.2,0,0,.01,0,.02,0,.12-.04.24-.09.37-.13,1.47-.48,3.03-.66,4.57-.54,0,0,.36,0,.61,0,.43.01.27-.06,0-.13.03,0-.63-.11-.63-.11-1.56-.12-3.13.07-4.63.55-.13.04-.25.08-.37.13Z"/><path class="cls-1" d="m118.15,69.27s0,0,0,.01c-.02.06-.02.17.13.17,0,0,.01,0,.02,0,.1-.08.2-.16.3-.24,1.23-.94,2.63-1.63,4.13-2.03,0,0,.34-.11.58-.2.41-.13.23-.15-.03-.12.03-.02-.63.1-.63.11-1.51.41-2.93,1.11-4.18,2.07-.1.08-.21.16-.31.25Z"/><path class="cls-1" d="m121.05,72.43s0,.01,0,.02c.02.06.08.15.21.06,0,0,0,0,.01-.02.03-.13.07-.25.11-.37.46-1.48,1.2-2.85,2.19-4.05,0,0,.21-.29.35-.5.26-.34.1-.26-.1-.08.01-.03-.45.45-.45.45-1,1.21-1.75,2.6-2.21,4.1-.04.13-.08.25-.11.38Z"/><polygon class="cls-1" points="120.15 73.51 120.78 73.54 120.94 74.14 121.16 73.56 121.78 73.59 121.3 73.2 121.52 72.62 121 72.96 120.51 72.57 120.67 73.17 120.15 73.51"/><path class="cls-1" d="m119.46,67.86s0,0-.01,0c-.04,0-.13-.02-.09-.13,0,0,0,0,0-.01.08-.05.17-.1.26-.15.18-.1.37-.18.56-.25.05-.02.1-.03.16-.05.15-.03.3-.06.46-.06.32,0,.2.04,0,.09.02,0-.45.13-.44.14-.04.01-.09.03-.13.04-.18.06-.36.14-.54.24-.08.04-.17.09-.25.14Z"/><circle class="cls-1" cx="116.52" cy="63.74" r=".19"/><circle class="cls-1" cx="119.78" cy="59.07" r=".19"/><circle class="cls-1" cx="130.32" cy="59.26" r=".19"/><circle class="cls-1" cx="133.43" cy="63.74" r=".19"/><circle class="cls-1" cx="132.29" cy="71.51" r=".19"/><circle class="cls-1" cx="127.81" cy="74.61" r=".19"/><circle class="cls-1" cx="122.29" cy="74.61" r=".19"/><circle class="cls-1" cx="117.8" cy="71.55" r=".19"/><path class="cls-1" d="m127.51,56.63s.01-.01.02-.02c.08-.04.24-.08.28.15,0,.01,0,.02,0,.03-.09.17-.18.33-.27.5-1.05,2.02-1.69,4.23-1.88,6.5,0,0-.08.52-.14.89-.09.62-.16.38-.19-.02-.02.04-.01-.94,0-.94.21-2.3.86-4.53,1.91-6.58.09-.17.18-.34.28-.51Z"/><path class="cls-1" d="m132.48,59.66s.02,0,.02,0c.09.01.24.08.14.28,0,0-.01.02-.02.02-.17.08-.34.17-.51.25-2.02,1.05-3.82,2.48-5.3,4.21,0,0-.36.38-.63.64-.43.46-.35.22-.14-.12-.04.02.53-.77.54-.77,1.5-1.75,3.32-3.2,5.37-4.26.17-.09.35-.18.52-.26Z"/><path class="cls-1" d="m134.79,65s.02,0,.02.01c.07.06.15.2-.05.31,0,0-.02,0-.03,0-.19-.03-.38-.06-.56-.09-2.26-.32-4.55-.2-6.76.37,0,0-.51.1-.88.16-.62.12-.41-.03-.04-.18-.04,0,.88-.32.89-.32,2.24-.56,4.56-.69,6.85-.36.19.03.38.06.57.09Z"/><polygon class="cls-1" points="125.02 57.03 125.23 57.62 125.87 57.6 125.37 57.99 125.58 58.58 125.06 58.23 124.56 58.62 124.74 58.01 124.21 57.66 124.84 57.64 125.02 57.03"/><polygon class="cls-1" points="125.02 74.98 125.17 74.56 125.62 74.57 125.27 74.3 125.42 73.88 125.05 74.13 124.7 73.86 124.82 74.28 124.45 74.53 124.9 74.55 125.02 74.98"/><polygon class="cls-1" points="132.41 61.74 132.43 62.19 132.87 62.31 132.44 62.47 132.47 62.93 132.18 62.57 131.76 62.74 132.01 62.36 131.72 62.01 132.16 62.12 132.41 61.74"/><path class="cls-1" d="m127.61,62.18c.03-.1.07-.19.11-.28.14-.29.3-.58.48-.84h0c.07-.1.15-.19.23-.28.29-.33.6-.63.94-.91.16-.13.33-.26.5-.38h0s.05,0,.07,0c.03,0,.06.03.08.06.02.05.01.1,0,.14h0c-.17.12-.33.24-.48.37-.33.27-.63.56-.91.88-.06.07-.12.14-.18.22,0,0-.01.01-.02.02-.06.06-.27.31-.35.42-.18.22-.24.3-.27.34h0c-.06.08-.13.16-.2.24Z"/><path class="cls-1" d="m129.33,64.19c.09-.05.17-.1.27-.14.29-.14.6-.25.91-.33h0c.11-.02.23-.04.35-.06.43-.07.87-.1,1.3-.09.21,0,.42.01.62.03h0s.03.04.04.06c.02.03.03.06.03.1-.02.04-.05.08-.1.1h0c-.2-.02-.41-.03-.61-.03-.42,0-.85.03-1.26.09-.09.01-.19.03-.28.05,0,0-.02,0-.03,0-.09,0-.4.07-.54.09-.27.05-.38.07-.43.09h0c-.1.02-.2.04-.3.06Z"/><path class="cls-1" d="m134.86,68.6s.01.01.02.02c.04.08.08.24-.15.28-.01,0-.02,0-.03,0-.17-.09-.33-.18-.5-.27-2.02-1.06-4.22-1.71-6.49-1.92,0,0-.52-.08-.88-.15-.62-.09-.38-.16.02-.19-.04-.02.94,0,.94,0,2.3.22,4.53.88,6.57,1.95.17.09.34.18.51.28Z"/><path class="cls-1" d="m131.81,73.56s0,.02,0,.02c-.01.09-.08.24-.29.14,0,0-.02-.01-.02-.02-.08-.17-.16-.34-.25-.51-1.03-2.03-2.46-3.84-4.18-5.32,0,0-.37-.37-.64-.63-.46-.44-.21-.35.12-.14-.02-.04.77.54.77.54,1.75,1.51,3.18,3.34,4.23,5.39.09.17.17.35.26.52Z"/><path class="cls-1" d="m126.45,75.83s0,.02-.01.02c-.06.07-.2.15-.31-.05,0,0,0-.02,0-.03.03-.19.06-.38.09-.56.33-2.25.22-4.55-.33-6.76,0,0-.09-.52-.15-.88-.12-.62.03-.41.18-.04,0-.04.32.89.31.89.55,2.24.66,4.57.33,6.85-.03.19-.06.38-.09.57Z"/><polygon class="cls-1" points="133.43 69.89 132.79 69.92 132.63 70.53 132.4 69.94 131.77 69.97 132.27 69.58 132.04 68.99 132.57 69.33 133.06 68.94 132.9 69.55 133.43 69.89"/><path class="cls-1" d="m129.3,68.67c.1.03.19.07.28.11.29.14.57.3.84.49h0c.09.08.18.15.27.23.33.29.63.6.91.94.13.16.26.33.38.5h0s0,.05-.01.08c0,.03-.03.06-.06.08-.05.01-.1.01-.14,0h0c-.12-.17-.24-.33-.37-.49-.27-.33-.56-.63-.88-.91-.07-.06-.14-.12-.21-.18,0,0-.01-.01-.02-.02-.06-.06-.31-.27-.41-.35-.22-.18-.3-.25-.34-.27h0c-.08-.06-.16-.13-.24-.2Z"/><path class="cls-1" d="m127.29,70.38c.05.09.1.18.14.27.13.3.24.6.33.91h0c.02.12.04.24.06.35.06.43.09.87.09,1.3,0,.21-.01.42-.03.62h0s-.03.04-.05.05c-.03.02-.06.03-.1.03-.04-.02-.08-.05-.1-.1h0c.02-.2.03-.41.03-.61,0-.42-.02-.85-.08-1.26-.01-.09-.03-.19-.05-.28,0,0,0-.02,0-.03,0-.09-.07-.4-.09-.54-.05-.27-.07-.38-.09-.43h0c-.02-.1-.04-.2-.06-.31Z"/><path class="cls-1" d="m122.59,56.63s-.01-.01-.02-.02c-.08-.04-.24-.08-.28.15,0,.01,0,.02,0,.03.09.17.18.33.27.5,1.05,2.02,1.69,4.23,1.88,6.5,0,0,.08.52.14.89.09.62.16.38.19-.02.02.04.01-.94,0-.94-.21-2.3-.86-4.53-1.91-6.58-.09-.17-.18-.34-.28-.51Z"/><path class="cls-1" d="m117.61,59.66s-.02,0-.02,0c-.09.01-.24.08-.14.28,0,0,.01.02.02.02.17.08.34.17.51.25,2.02,1.05,3.82,2.48,5.3,4.21,0,0,.36.38.63.64.43.46.35.22.14-.12.04.02-.53-.77-.54-.77-1.5-1.75-3.32-3.2-5.37-4.26-.17-.09-.35-.18-.52-.26Z"/><path class="cls-1" d="m115.31,65s-.02,0-.02.01c-.07.06-.15.2.05.31,0,0,.02,0,.03,0,.19-.03.38-.06.56-.09,2.26-.32,4.55-.2,6.76.37,0,0,.51.1.88.16.62.12.41-.03.04-.18.04,0-.88-.32-.89-.32-2.24-.56-4.56-.69-6.85-.36-.19.03-.38.06-.57.09Z"/><polygon class="cls-1" points="117.7 61.79 117.68 62.21 117.28 62.31 117.67 62.46 117.64 62.87 117.9 62.55 118.29 62.7 118.06 62.36 118.33 62.03 117.93 62.14 117.7 61.79"/><path class="cls-1" d="m122.49,62.18c-.03-.1-.07-.19-.11-.28-.14-.29-.3-.58-.48-.84h0c-.07-.1-.15-.19-.23-.28-.29-.33-.6-.63-.94-.91-.16-.13-.33-.26-.5-.38h0s-.05,0-.07,0c-.03,0-.06.03-.08.06-.02.05-.01.1,0,.14h0c.17.12.33.24.48.37.33.27.63.56.91.88.06.07.12.14.18.22,0,0,.01.01.02.02.06.06.27.31.35.42.18.22.24.3.27.34h0c.06.08.13.16.2.24Z"/><path class="cls-1" d="m120.77,64.19c-.09-.05-.17-.1-.27-.14-.29-.14-.6-.25-.91-.33h0c-.11-.02-.23-.04-.35-.06-.43-.07-.87-.1-1.3-.09-.21,0-.42.01-.62.03h0s-.03.04-.04.06c-.02.03-.03.06-.03.1.02.04.05.08.1.1h0c.2-.02.41-.03.61-.03.42,0,.85.03,1.26.09.09.01.19.03.28.05,0,0,.02,0,.03,0,.09,0,.4.07.54.09.27.05.38.07.43.09h0c.1.02.2.04.3.06Z"/><path class="cls-1" d="m115.24,68.6s-.01.01-.02.02c-.04.08-.08.24.15.28.01,0,.02,0,.03,0,.17-.09.33-.18.5-.27,2.02-1.06,4.22-1.71,6.49-1.92,0,0,.52-.08.88-.15.62-.09.38-.16-.02-.19.04-.02-.94,0-.94,0-2.3.22-4.53.88-6.57,1.95-.17.09-.34.18-.51.28Z"/><path class="cls-1" d="m118.29,73.56s0,.02,0,.02c.01.09.08.24.29.14,0,0,.02-.01.02-.02.08-.17.16-.34.25-.51,1.03-2.03,2.46-3.84,4.18-5.32,0,0,.37-.37.64-.63.46-.44.21-.35-.12-.14.02-.04-.77.54-.77.54-1.75,1.51-3.18,3.34-4.23,5.39-.09.17-.17.35-.26.52Z"/><path class="cls-1" d="m123.64,75.83s0,.02.01.02c.06.07.2.15.31-.05,0,0,0-.02,0-.03-.03-.19-.06-.38-.09-.56-.33-2.25-.22-4.55.33-6.76,0,0,.09-.52.15-.88.12-.62-.03-.41-.18-.04,0-.04-.32.89-.31.89-.55,2.24-.66,4.57-.33,6.85.03.19.06.38.09.57Z"/><polygon class="cls-1" points="116.94 69.84 117.37 69.86 117.48 70.27 117.63 69.88 118.06 69.9 117.72 69.63 117.87 69.23 117.52 69.46 117.18 69.2 117.3 69.61 116.94 69.84"/><path class="cls-1" d="m120.79,68.67c-.1.03-.19.07-.28.11-.29.14-.57.3-.84.49h0c-.09.08-.18.15-.27.23-.33.29-.63.6-.91.94-.13.16-.26.33-.38.5h0s0,.05.01.08c0,.03.03.06.06.08.05.01.1.01.14,0h0c.12-.17.24-.33.37-.49.27-.33.56-.63.88-.91.07-.06.14-.12.21-.18,0,0,.01-.01.02-.02.06-.06.31-.27.41-.35.22-.18.3-.25.34-.27h0c.08-.06.16-.13.24-.2Z"/><path class="cls-1" d="m122.8,70.38c-.05.09-.1.18-.14.27-.13.3-.24.6-.33.91h0c-.02.12-.04.24-.06.35-.06.43-.09.87-.09,1.3,0,.21.01.42.03.62h0s.03.04.05.05c.03.02.06.03.1.03.04-.02.08-.05.1-.1h0c-.02-.2-.03-.41-.03-.61,0-.42.02-.85.08-1.26.01-.09.03-.19.05-.28,0,0,0-.02,0-.03,0-.09.07-.4.09-.54.05-.27.07-.38.09-.43h0c.02-.1.04-.2.06-.31Z"/><circle class="cls-1" cx="119.05" cy="67.89" r=".12"/><circle class="cls-1" cx="119.17" cy="65.91" r=".12"/><circle class="cls-1" cx="123.18" cy="60.42" r=".12"/><circle class="cls-1" cx="126.85" cy="60.42" r=".12"/><circle class="cls-1" cx="130.94" cy="66.02" r=".12"/><circle class="cls-1" cx="130.98" cy="67.98" r=".12"/><path class="cls-1" d="m116.39,72.63c-.76.58-1.47,1.24-2.11,1.95-.65.71-1.26,1.47-1.8,2.27-.55.8-1.04,1.64-1.47,2.51-.43.87-.8,1.77-1.12,2.69.28-.93.63-1.84,1.03-2.73.4-.89.87-1.75,1.39-2.57.52-.83,1.11-1.62,1.74-2.36.63-.76,1.34-1.45,2.1-2.07.09-.07.21-.06.28.03.07.09.06.21-.03.28,0,0,0,0,0,0h0s-.01.01-.01.01Z"/><path class="cls-1" d="m104.12,68.37c.83.83,1.55,1.75,2.16,2.76.61.98,1.11,2.03,1.49,3.12.39,1.08.65,2.2.79,3.34.14,1.13.16,2.28.06,3.41.03-1.13-.06-2.27-.26-3.38-.2-1.11-.52-2.19-.96-3.23-.43-1.03-.97-2.02-1.62-2.93-.62-.91-1.36-1.74-2.18-2.48l-.02-.02c-.17-.14-.18-.4-.04-.56.14-.17.4-.18.56-.04,0,0,.01.01.02.02Z"/></g></g><path class="cls-4" d="m230.6,92.41l7.33-8.09c.93-1.02.85-2.62-.17-3.55s-2.62-.85-3.55.17l-7,7.72-7.11-7.84c-.93-1.02-2.52-1.1-3.55-.17-1.02.93-1.1,2.52-.17,3.55l7.44,8.2-7.44,8.2c-.93,1.02-.85,2.62.17,3.55h0c1.02.93,2.62.85,3.55-.17l7.11-7.84,7,7.72c.93,1.02,2.52,1.1,3.55.17,1.02-.93,1.1-2.52.17-3.55l-7.33-8.09Z"/></svg>