<?xml version="1.0" encoding="utf-8"?>
<svg viewBox="215.7307 73.8612 255.2793 36.3088" xmlns="http://www.w3.org/2000/svg">
  <defs>
    <style>.cls-1{stroke-width:.46px;}.cls-1,.cls-2,.cls-3{fill:#00293b;stroke:#00293b;stroke-miterlimit:10;}.cls-2{stroke-width:.82px;}.cls-3{stroke-width:.72px;}.cls-4{fill:#052339;stroke-width:0px;}</style>
  </defs>
  <path class="cls-3" d="m382.17,97.09l-6.83-.04c-1.15,0-2.07.91-2.08,2.06l-.05,8.46c0,1.15-.94,2.06-2.08,2.06l-5.92-.04c-1.15,0-2.06-.94-2.06-2.08l.17-29.5c0-1.15.94-2.06,2.08-2.06l20.19.12c1.15,0,2.06.94,2.06,2.08l-.02,3.87c0,1.15-.94,2.06-2.08,2.06l-10.14-.05c-1.15,0-2.07.91-2.08,2.06v1.34c-.01,1.15.9,2.07,2.05,2.08l6.83.04c1.15,0,2.06.94,2.06,2.08l-.02,3.44c0,1.15-.94,2.06-2.08,2.06h-.02Z" transform="matrix(0.9999999999999999, 0, 0, 1, 0, 0)"/>
  <path class="cls-3" d="m409.77,97.25l-6.83-.04c-1.15,0-2.07.91-2.08,2.06l-.05,8.46c0,1.15-.94,2.06-2.08,2.06l-5.92-.04c-1.15,0-2.06-.94-2.06-2.08l.17-29.5c0-1.15.94-2.06,2.08-2.06l20.19.12c1.15,0,2.06.94,2.06,2.08l-.02,3.87c0,1.15-.94,2.06-2.08,2.06l-10.14-.05c-1.15,0-2.07.91-2.08,2.06v1.34c-.01,1.15.9,2.07,2.05,2.08l6.83.04c1.15,0,2.06.94,2.06,2.08l-.02,3.44c0,1.15-.94,2.06-2.08,2.06h-.02Z" transform="matrix(0.9999999999999999, 0, 0, 1, 0, 0)"/>
  <path class="cls-3" d="m441.96,103.83l-.02,4.12c0,1.15-.94,2.06-2.08,2.06l-19.45-.11c-1.15,0-2.06-.94-2.06-2.08l.17-29.5c0-1.15.94-2.06,2.08-2.06l6.19.04c1.15,0,2.06.94,2.06,2.08l-.12,21.25c0,1.15.91,2.07,2.06,2.08l9.12.05c1.15,0,2.06.94,2.06,2.08h0Z" transform="matrix(0.9999999999999999, 0, 0, 1, 0, 0)"/>
  <path class="cls-3" d="m470.86,104.21l-.02,3.9c0,1.15-.94,2.06-2.08,2.06l-21.17-.12c-1.15,0-2.06-.94-2.06-2.08l.17-29.5c0-1.15.94-2.06,2.08-2.06l21.17.12c1.15,0,2.06.94,2.06,2.08l-.02,3.63c0,1.15-.94,2.06-2.08,2.06l-11.05-.07c-1.15,0-2.07.91-2.08,2.06v.75c-.01,1.15.91,2.07,2.05,2.08l8.14.04c1.15,0,2.06.94,2.06,2.08l-.02,3.33c0,1.15-.94,2.06-2.08,2.06l-8.14-.04c-1.15,0-2.07.91-2.08,2.06v1.36c-.02,1.15.9,2.07,2.04,2.08l11.05.07c1.15,0,2.06.94,2.06,2.08h-.01Z" transform="matrix(0.9999999999999999, 0, 0, 1, 0, 0)"/>
  <path class="cls-2" d="m284.68,95.63l5.35.48c1.27.12,2.16,1.34,1.83,2.58-.79,2.99-2.26,5.34-4.41,7.05-2.68,2.14-5.95,3.16-9.76,3.05-4.6-.13-8.26-1.76-11.01-4.89-2.74-3.13-4.03-7.37-3.88-12.73.15-5.36,1.62-9.56,4.39-12.74,2.77-3.18,6.56-4.7,11.36-4.56,4.48.13,7.89,1.47,10.22,4.02,1.87,2.05,3.06,4.6,3.56,7.65.2,1.24-.75,2.36-2.01,2.39l-5.39.14c-1.07.02-2.03-.75-2.14-1.82-.14-1.32-.51-2.35-1.1-3.08-.84-1.03-1.85-1.57-3.03-1.6-3.27-.09-5.01,3.15-5.2,9.74-.11,3.68.24,6.21,1.06,7.55.81,1.34,2,2.04,3.53,2.09,2.29.07,3.77-1.19,4.46-3.77.26-.97,1.14-1.63,2.14-1.54h.02Z" transform="matrix(0.9999999999999999, 0, 0, 1, 0, 0)"/>
  <path class="cls-2" d="m325.43,77.82l-.86,29.71c-.04,1.14-1,2.05-2.14,2.02l-6.24-.18c-1.14-.04-2.05-1-2.02-2.14l.26-9.02c.04-1.14-.87-2.11-2.02-2.14l-3.78-.11c-1.14-.04-2.11.87-2.14,2.02l-.26,9.02c-.04,1.14-1,2.05-2.14,2.02l-6.24-.18c-1.14-.04-2.05-1-2.02-2.14l.86-29.71c.04-1.14,1-2.05,2.14-2.02l6.24.18c1.14.04,2.05,1,2.02,2.14l-.24,8.3c-.04,1.14.87,2.11,2.02,2.14l3.78.11c1.14.04,2.11-.87,2.14-2.02l.24-8.3c.04-1.14,1-2.05,2.14-2.02l6.24.18c1.14.04,2.05,1,2.02,2.14h0Z" transform="matrix(0.9999999999999999, 0, 0, 1, 0, 0)"/>
  <path class="cls-2" d="m348.25,108.05l-.92-3.59c-.23-.88-1-1.5-1.91-1.52l-5.81-.16c-.89-.02-1.7.53-1.97,1.38l-1.21,3.6c-.28.84-1.09,1.41-1.97,1.38l-3.98-.12c-1.37-.04-2.3-1.39-1.86-2.68l9.78-28.69c.28-.84,1.09-1.39,1.98-1.37l7.73.23c.89.03,1.66.62,1.89,1.48l8.23,29.21c.37,1.32-.64,2.62-2.01,2.57l-6.05-.18c-.9-.03-1.69-.65-1.91-1.52h0Zm-5.54-12.4h0c1.34.04,2.35-1.21,2.03-2.51h0c-.49-2-3.3-2.08-3.91-.11h0c-.4,1.28.54,2.59,1.87,2.63h0Z" transform="matrix(0.9999999999999999, 0, 0, 1, 0, 0)"/>
  <path class="cls-4" d="m230.6,92.41l7.33-8.09c.93-1.02.85-2.62-.17-3.55s-2.62-.85-3.55.17l-7,7.72-7.11-7.84c-.93-1.02-2.52-1.1-3.55-.17-1.02.93-1.1,2.52-.17,3.55l7.44,8.2-7.44,8.2c-.93,1.02-.85,2.62.17,3.55h0c1.02.93,2.62.85,3.55-.17l7.11-7.84,7,7.72c.93,1.02,2.52,1.1,3.55.17,1.02-.93,1.1-2.52.17-3.55l-7.33-8.09Z" transform="matrix(0.9999999999999999, 0, 0, 1, 0, 0)"/>
</svg>