<?xml version="1.0" encoding="utf-8"?>
<svg viewBox="149.8462 13.0271 228.2263 129.9829" xmlns="http://www.w3.org/2000/svg">
  <defs>
    <style>.cls-1{isolation:isolate;opacity:.73;stroke:#052339;stroke-width:1.3px;}.cls-1,.cls-2,.cls-3{stroke-miterlimit:10;}.cls-1,.cls-4{fill:#052339;}.cls-2{stroke-width:.57px;}.cls-2,.cls-3{stroke:#00293b;}.cls-2,.cls-3,.cls-5{fill:#00293b;}.cls-3{stroke-width:.51px;}.cls-6{fill:#a9d7f2;}.cls-6,.cls-5,.cls-4{stroke-width:0px;}</style>
  </defs>
  <path class="cls-1" d="m369.75,108c1.19-.3,1.99-1.53,1.86-2.92l-.03-.27c-.11-1.08-.8-1.94-1.71-2.28-1.42-.55-2.52-1.99-2.7-3.78-.17-1.78.62-3.38,1.91-4.14.87-.51,1.32-1.65,1.21-2.76l-.05-.53c-.11-1.08-.8-1.94-1.71-2.28-1.42-.55-2.52-1.99-2.7-3.78-.17-1.78.62-3.38,1.91-4.14.87-.51,1.32-1.65,1.21-2.76l-.05-.53c-.11-1.08-.8-1.94-1.71-2.28-1.42-.55-2.52-1.99-2.7-3.77-.17-1.78.62-3.38,1.91-4.14.87-.51,1.32-1.65,1.21-2.76l-.05-.53c-.11-1.08-.8-1.94-1.71-2.28-1.42-.55-2.52-1.99-2.7-3.77-.17-1.78.62-3.38,1.91-4.14.87-.51,1.32-1.65,1.21-2.76l-.05-.53c-.11-1.08-.8-1.94-1.71-2.28-1.42-.55-2.52-1.99-2.7-3.77-.17-1.78.62-3.38,1.91-4.14.87-.51,1.32-1.65,1.21-2.76v-.11c-.15-1.34-1.13-2.38-2.33-2.49-7.07-.58-13.09-6.95-13.9-15.17h-.04s-61.93,5.88-61.93,5.88v-.13s-65.81,6.44-65.81,6.44l-58.35,5.71h-.25c.81,8.2-3.81,15.4-10.6,17.11-1.19.3-1.99,1.53-1.86,2.92l.03.27c.11,1.08.8,1.94,1.71,2.28,1.42.55,2.52,1.99,2.7,3.78.17,1.78-.62,3.38-1.91,4.14-.87.51-1.32,1.65-1.21,2.76l.05.53c.11,1.08.8,1.94,1.71,2.28,1.42.55,2.52,1.99,2.7,3.78.17,1.78-.62,3.38-1.91,4.14-.87.51-1.32,1.65-1.21,2.76l.05.53c.11,1.08.8,1.94,1.71,2.28,1.42.55,2.52,1.99,2.7,3.77.17,1.78-.62,3.38-1.91,4.14-.87.51-1.32,1.65-1.21,2.76l.05.53c.11,1.08.8,1.94,1.71,2.28,1.42.55,2.52,1.99,2.7,3.77s-.62,3.38-1.91,4.14c-.87.51-1.32,1.65-1.21,2.76l.05.53c.11,1.08.8,1.94,1.71,2.28,1.42.55,2.52,1.99,2.7,3.77.17,1.78-.62,3.38-1.91,4.14-.87.51-1.32,1.65-1.21,2.76v.11c.15,1.34,1.13,2.38,2.33,2.49,7.07.58,13.09,6.95,13.9,15.17h.04s46.4-4.54,46.4-4.54v.13s65.81-6.44,65.81-6.44l73.89-7.04h.25c-.81-8.2,3.81-15.4,10.6-17.11h0Z" transform="matrix(0.9999999999999999, 0, 0, 1, -7.105427357601002e-15, 0)"/>
  <path class="cls-6" d="m375.6,101.48c1.19-.3,1.99-1.53,1.86-2.92l-.03-.27c-.11-1.08-.8-1.94-1.71-2.28-1.42-.55-2.52-1.99-2.7-3.78-.17-1.78.62-3.38,1.91-4.14.87-.51,1.32-1.65,1.21-2.76l-.05-.53c-.11-1.08-.8-1.94-1.71-2.28-1.42-.55-2.52-1.99-2.7-3.78-.17-1.78.62-3.38,1.91-4.14.87-.51,1.32-1.65,1.21-2.76l-.05-.53c-.11-1.08-.8-1.94-1.71-2.28-1.42-.55-2.52-1.99-2.7-3.77-.17-1.78.62-3.38,1.91-4.14.87-.51,1.32-1.65,1.21-2.76l-.05-.53c-.11-1.08-.8-1.94-1.71-2.28-1.42-.55-2.52-1.99-2.7-3.77-.17-1.78.62-3.38,1.91-4.14.87-.51,1.32-1.65,1.21-2.76l-.05-.53c-.11-1.08-.8-1.94-1.71-2.28-1.42-.55-2.52-1.99-2.7-3.77-.17-1.78.62-3.38,1.91-4.14.87-.51,1.32-1.65,1.21-2.76v-.11c-.15-1.34-1.13-2.38-2.33-2.49-7.07-.58-13.09-6.95-13.9-15.17h-.04s-61.93,5.88-61.93,5.88v-.13s-65.81,6.44-65.81,6.44l-58.35,5.71h-.25c.81,8.2-3.81,15.4-10.6,17.11-1.19.3-1.99,1.53-1.86,2.92l.03.27c.11,1.08.8,1.94,1.71,2.28,1.42.55,2.52,1.99,2.7,3.78.17,1.78-.62,3.38-1.91,4.14-.87.51-1.32,1.65-1.21,2.76l.05.53c.11,1.08.8,1.94,1.71,2.28,1.42.55,2.52,1.99,2.7,3.78.17,1.78-.62,3.38-1.91,4.14-.87.51-1.32,1.65-1.21,2.76l.05.53c.11,1.08.8,1.94,1.71,2.28,1.42.55,2.52,1.99,2.7,3.77.17,1.78-.62,3.38-1.91,4.14-.87.51-1.32,1.65-1.21,2.76l.05.53c.11,1.08.8,1.94,1.71,2.28,1.42.55,2.52,1.99,2.7,3.77.17,1.78-.62,3.38-1.91,4.14-.87.51-1.32,1.65-1.21,2.76l.05.53c.11,1.08.8,1.94,1.71,2.28,1.42.55,2.52,1.99,2.7,3.77s-.62,3.38-1.91,4.14c-.87.51-1.32,1.65-1.21,2.76v.11c.15,1.34,1.13,2.38,2.33,2.49,7.07.58,13.09,6.95,13.9,15.17h.04s46.4-4.54,46.4-4.54v.13s65.81-6.44,65.81-6.44l73.89-7.04h.25c-.81-8.2,3.81-15.4,10.6-17.11h0Z" transform="matrix(0.9999999999999999, 0, 0, 1, -7.105427357601002e-15, 0)"/>
  <path class="cls-4" d="m375.85,102.04c2.82-.99,2.93-4.96.48-6.43-1.17-.7-2.07-1.21-2.51-2.61-.43-1.4-.15-2.95.92-3.96,1.26-1.18,2.16-1.94,2-3.86-.11-1.41-.71-2.45-1.96-3.14-1.25-.69-2.14-1.45-2.43-2.91-.25-1.28.07-2.69,1.03-3.59.61-.56,1.26-.88,1.65-1.66.36-.71.42-1.49.35-2.26-.14-1.5-.82-2.47-2.13-3.16-2.41-1.27-3.29-4.76-.96-6.63,1.27-1.01,1.9-2.01,1.76-3.69-.13-1.5-.82-2.48-2.13-3.16-2.57-1.35-3.21-4.88-.79-6.74,1.24-.96,1.74-2.12,1.58-3.71-.16-1.59-1.05-2.42-2.42-3.19-2.45-1.38-2.7-4.89-.49-6.59,1.16-.89,1.77-2.05,1.59-3.56-.21-1.7-1.4-2.79-3.07-3.02-2.24-.31-4.3-1.01-6.17-2.31-4.08-2.82-6.43-7.45-6.97-12.31-.04-.34-.38-.55-.7-.52-6.91.67-13.83,1.32-20.74,1.97l-33.46,3.18c-2.59.25-5.19.49-7.77.73l.7.52v-.13c-.05-.34-.39-.55-.71-.52-6.77.67-13.55,1.32-20.32,1.99-11.46,1.12-22.92,2.24-34.39,3.37-4.48.44-8.96.87-13.44,1.32l-30.14,2.94c-8.5.83-17.02,1.56-25.51,2.5-.2.02-.4.04-.6.05-.35.03-.55.39-.52.7.41,4.72-.93,9.64-4.34,13.06-1.53,1.54-3.38,2.62-5.44,3.25-1.73.54-2.84,1.8-2.69,3.7.06.72.28,1.4.72,1.98.69.9,1.82,1.07,2.59,1.88,1.11,1.16,1.46,2.92.85,4.42-.49,1.22-1.77,1.6-2.4,2.69-.7,1.23-.61,3.16.17,4.34.6.89,1.49,1.07,2.31,1.66,1.44,1.06,1.93,3.16,1.26,4.8-.45,1.09-1.49,1.45-2.16,2.31-.57.75-.75,1.72-.68,2.65.05.71.18,1.4.56,2,.6.93,1.51,1.11,2.35,1.74,1.3.97,1.86,2.83,1.41,4.38-.41,1.38-1.52,1.71-2.3,2.74-.94,1.23-.93,3.34-.1,4.63.56.88,1.36,1.08,2.18,1.61,1.43.93,2.05,2.9,1.57,4.51-.38,1.32-1.34,1.64-2.16,2.58-.63.72-.85,1.63-.82,2.56.01.76.14,1.51.53,2.17.56.92,1.37,1.13,2.22,1.69,1.23.8,1.84,2.35,1.72,3.77-.16,1.64-1.13,2.12-2.15,3.15-1.31,1.33-1.32,3.7-.07,5.07.66.73,1.45.92,2.38,1.05,1.36.18,2.65.53,3.89,1.1,5.28,2.42,8.41,7.89,9.05,13.5.04.34.38.55.7.52,13.55-1.32,27.08-2.65,40.62-3.98,1.95-.2,3.89-.38,5.84-.58l-.7-.52v.13c.05.34.39.55.71.52,8.21-.8,16.43-1.61,24.65-2.41,12.06-1.18,24.11-2.36,36.16-3.53,4.71-.46,9.42-.91,14.14-1.36,12.55-1.2,25.12-2.39,37.67-3.59,8.89-.85,17.8-1.72,26.69-2.54.2-.02.41-.03.61-.05.35-.03.55-.39.52-.7-.61-6.98,2.93-14.47,10.07-16.39.76-.2.59-1.42-.18-1.22-7.84,2.11-11.79,10.08-11.12,17.79l.52-.7c-7.54.59-15.05,1.43-22.58,2.15-12.91,1.24-25.84,2.46-38.74,3.69-5.12.48-10.24.97-15.36,1.47l-33.68,3.29-18.6,1.82-6.72.66c-1.22.11-2.53.12-3.73.36-.16.03-.35.03-.52.05l.7.52v-.13c-.05-.34-.39-.55-.71-.52-13.59,1.33-27.19,2.66-40.78,3.99-1.89.19-3.79.37-5.67.55l.7.52c-.5-4.48-2.44-8.72-5.79-11.79-1.56-1.42-3.41-2.56-5.41-3.22-.93-.3-1.86-.48-2.82-.63-1.6-.27-2.64-1.54-2.08-3.2.36-1.05,1.69-1.58,2.28-2.53.51-.81.74-1.76.75-2.72,0-1.96-1.04-3.69-2.74-4.64-1.04-.59-1.7-1.23-1.76-2.49-.07-1.85,1.4-2.17,2.28-3.44,1.18-1.69,1.11-4.06.03-5.78s-3.57-2-3.66-4.26c-.07-1.81,1.25-2.07,2.15-3.28.6-.79.93-1.77.98-2.76.1-2-.86-3.87-2.59-4.88-1.06-.63-1.81-1.17-1.89-2.5-.11-1.86,1.23-2.12,2.15-3.34,1.19-1.57,1.28-3.83.39-5.56-.41-.81-1.04-1.5-1.82-1.96-1.09-.67-2.05-1.12-2.07-2.62-.02-1.76,1.09-2.04,2.03-3.18.62-.76,1-1.72,1.09-2.69.19-1.87-.65-3.84-2.21-4.9-.61-.42-1.26-.57-1.73-1.17-.47-.61-.64-1.58-.37-2.36.46-1.33,2.28-1.46,3.41-1.97,1.95-.87,3.67-2.21,5.07-3.84,3.1-3.65,4.27-8.51,3.87-13.2l-.52.7c7.22-.58,14.43-1.4,21.64-2.11,10.78-1.06,21.56-2.1,32.34-3.16,4.15-.41,8.28-.81,12.43-1.21,11.11-1.09,22.23-2.18,33.34-3.27l15.8-1.55,5.43-.53c.96-.09,2.08-.05,3.01-.3.13-.04.27-.03.4-.04l-.7-.52v.13c.05.34.39.55.71.52,7-.66,13.99-1.33,20.99-1.99,11.13-1.06,22.25-2.11,33.38-3.17,2.53-.24,5.07-.48,7.6-.72l-.7-.52c.79,7,5.42,13.76,12.56,15.39.93.21,2.18.13,2.91.78.88.77,1.01,2.4.29,3.33-.53.67-1.33.99-1.83,1.71-.43.63-.69,1.38-.81,2.13-.24,1.63.3,3.36,1.47,4.53.57.58,1.25.78,1.88,1.23.96.68,1.34,2.09.97,3.25-.31.95-1.32,1.3-1.91,2.02-.5.62-.85,1.38-1,2.16-.31,1.54.08,3.22,1.07,4.46.49.61,1.09.99,1.75,1.36,1,.55,1.52,1.26,1.57,2.41.06,1.52-.84,1.9-1.75,2.81-.6.6-1.01,1.35-1.21,2.17-.38,1.47-.13,3.12.74,4.4,1.04,1.54,3.37,1.84,3.55,3.86.14,1.54-.61,2.03-1.61,2.95-.55.5-.96,1.16-1.21,1.87-.55,1.54-.34,3.3.52,4.68,1.04,1.65,3.55,2,3.65,4.13.07,1.61-.76,1.98-1.73,2.94-.66.65-1.08,1.48-1.27,2.39-.39,1.74.14,3.65,1.4,4.92.72.73,1.85.97,2.45,1.77.92,1.23.5,3.09-1,3.62-.76.26-.26,1.39.49,1.14l.02-.14Z" transform="matrix(0.9999999999999999, 0, 0, 1, -7.105427357601002e-15, 0)"/>
  <path class="cls-5" d="m346.54,21.36c2.47,6.29,7.1,11.44,13.34,14.15l-1.07-2.39c-1.68,4.65-.78,9.8,2.52,13.51l-.05-2.23c-2.97,5.02-2.53,11.32,1.4,15.73l-.05-2.23c-2.97,5.02-2.53,11.32,1.4,15.73l-.05-2.23c-2.97,5.02-2.53,11.32,1.4,15.73l-.05-2.23c-2.49,4.2-2.66,9.34-.17,13.6l.55-2.17c-5.58,3.71-9,9.66-10.14,16.18l1.57-1.63c-4.24.41-8.46.82-12.7,1.23-10.17.98-20.34,1.95-30.51,2.94-12.3,1.18-24.61,2.38-36.91,3.56-10.65,1.03-21.29,2.05-31.94,3.08-3.52.33-7.04.68-10.57,1.02-1.62.16-3.4.13-4.99.48-.07,0-.16.02-.23.03l2.09,1.57v-.13c-.11-1.03-1.15-1.66-2.11-1.57-13.79,1.35-27.6,2.7-41.39,4.05-1.98.19-3.94.39-5.92.58l1.97,1.1c-2.47-6.29-7.11-11.43-13.35-14.14l1.07,2.39c1.68-4.65.78-9.8-2.52-13.51l.05,2.23c2.97-5.02,2.53-11.32-1.4-15.73l.05,2.23c2.97-5.02,2.53-11.32-1.4-15.73l.05,2.23c2.97-5.02,2.53-11.32-1.4-15.73l.05,2.23c2.49-4.2,2.67-9.33.17-13.6l-.55,2.17c5.58-3.71,9-9.66,10.14-16.18l-1.57,1.63c3.72-.36,7.44-.73,11.16-1.09,8.93-.88,17.87-1.75,26.8-2.62l32.44-3.17c9.35-.92,18.7-1.83,28.05-2.75l9.22-.91c1.42-.14,3.04-.09,4.43-.44.06-.02.13-.01.2-.02l-2.09-1.57v.13c.11,1.03,1.14,1.65,2.11,1.57,7.1-.68,14.18-1.35,21.28-2.02,11.26-1.07,22.51-2.13,33.77-3.2,2.6-.25,5.2-.49,7.81-.74,2.37-.23,1.83-3.88-.53-3.66-7.1.68-14.18,1.35-21.28,2.02-11.26,1.07-22.51,2.13-33.77,3.2-2.6.25-5.2.49-7.81.74l2.09,1.57v-.13c-.11-1.03-1.15-1.66-2.11-1.57-3.72.36-7.44.73-11.16,1.09l-26.8,2.62c-10.81,1.06-21.63,2.11-32.44,3.17l-28.05,2.75c-4.52.45-9.16.63-13.64,1.34-.07,0-.13.01-.2.02-.85.09-1.44.84-1.57,1.63-.98,5.61-4,10.55-8.78,13.71-.6.4-.93,1.52-.55,2.17,1.81,3.09,2.11,6.82.24,9.97-.4.67-.52,1.6.05,2.23,2.76,3.11,3.45,7.61,1.29,11.25-.4.67-.52,1.6.05,2.23,2.76,3.11,3.45,7.61,1.29,11.25-.4.67-.52,1.6.05,2.23,2.76,3.11,3.45,7.61,1.29,11.25-.4.67-.52,1.6.05,2.23,2.44,2.74,3.22,6.4,1.96,9.87-.35.97.12,1.99,1.07,2.39,5.34,2.32,9.17,6.78,11.27,12.15.3.79,1.16,1.18,1.97,1.1,13.79-1.35,27.6-2.7,41.39-4.05l5.92-.58-2.09-1.57v.13c.11,1.03,1.15,1.66,2.11,1.57,4.24-.41,8.46-.82,12.7-1.23,10.17-.98,20.34-1.95,30.51-2.94,12.3-1.18,24.61-2.38,36.91-3.56,10.65-1.03,21.29-2.05,31.94-3.08,5.15-.5,10.43-.72,15.56-1.49.07,0,.15,0,.23-.03.85-.09,1.44-.84,1.57-1.63.98-5.61,4.01-10.54,8.78-13.71.6-.4.93-1.52.55-2.17-1.81-3.09-2.11-6.82-.24-9.97.4-.67.52-1.6-.05-2.23-2.76-3.11-3.45-7.61-1.29-11.25.4-.67.52-1.6-.05-2.23-2.76-3.11-3.45-7.61-1.29-11.25.4-.67.52-1.6-.05-2.23-2.76-3.11-3.45-7.61-1.29-11.25.4-.67.52-1.6-.05-2.23-2.44-2.74-3.22-6.4-1.96-9.87.35-.97-.12-1.99-1.07-2.39-5.34-2.32-9.17-6.78-11.27-12.15-.87-2.22-4.27-.76-3.4,1.46h0Z" transform="matrix(0.9999999999999999, 0, 0, 1, -7.105427357601002e-15, 0)"/>
  <path class="cls-3" d="m274.36,71.28l-4.77.41c-.8.07-1.38.77-1.32,1.57l.51,5.9c.07.8-.52,1.5-1.32,1.57l-4.13.35c-.8.07-1.5-.52-1.57-1.32l-1.77-20.6c-.07-.8.52-1.5,1.32-1.57l14.1-1.21c.8-.07,1.5.52,1.57,1.32l.23,2.7c.07.8-.52,1.5-1.32,1.57l-7.08.61c-.8.07-1.38.77-1.32,1.57l.08.93c.07.8.77,1.38,1.57,1.32l4.77-.41c.8-.07,1.5.52,1.57,1.32l.2,2.4c.07.8-.52,1.5-1.32,1.57h-.01Z" transform="matrix(0.9999999999999999, 0, 0, 1, -7.105427357601002e-15, 0)"/>
  <path class="cls-3" d="m293.63,69.63l-4.77.41c-.8.07-1.38.77-1.32,1.57l.51,5.9c.07.8-.52,1.5-1.32,1.57l-4.13.35c-.8.07-1.5-.52-1.57-1.32l-1.77-20.6c-.07-.8.52-1.5,1.32-1.57l14.1-1.21c.8-.07,1.5.52,1.57,1.32l.23,2.7c.07.8-.52,1.5-1.32,1.57l-7.08.61c-.8.07-1.38.77-1.32,1.57l.08.93c.07.8.77,1.38,1.57,1.32l4.77-.41c.8-.07,1.5.52,1.57,1.32l.2,2.4c.07.8-.52,1.5-1.32,1.57h-.01Z" transform="matrix(0.9999999999999999, 0, 0, 1, -7.105427357601002e-15, 0)"/>
  <path class="cls-3" d="m316.51,72.16l.25,2.88c.07.8-.52,1.5-1.32,1.57l-13.58,1.17c-.8.07-1.5-.52-1.57-1.32l-1.77-20.6c-.07-.8.52-1.5,1.32-1.57l4.32-.37c.8-.07,1.5.52,1.57,1.32l1.28,14.84c.07.8.77,1.38,1.57,1.32l6.37-.55c.8-.07,1.5.52,1.57,1.32h0Z" transform="matrix(0.9999999999999999, 0, 0, 1, -7.105427357601002e-15, 0)"/>
  <path class="cls-3" d="m336.71,70.58l.23,2.72c.07.8-.52,1.5-1.32,1.57l-14.78,1.27c-.8.07-1.5-.52-1.57-1.32l-1.77-20.6c-.07-.8.52-1.5,1.32-1.57l14.78-1.27c.8-.07,1.5.52,1.57,1.32l.22,2.53c.07.8-.52,1.5-1.32,1.57l-7.71.66c-.8.07-1.38.77-1.32,1.57l.04.52c.07.8.77,1.38,1.57,1.32l5.68-.49c.8-.07,1.5.52,1.57,1.32l.2,2.33c.07.8-.52,1.5-1.32,1.57l-5.68.49c-.8.07-1.38.77-1.32,1.57l.08.95c.07.8.77,1.38,1.57,1.32l7.71-.66c.8-.07,1.5.52,1.57,1.32h0Z" transform="matrix(0.9999999999999999, 0, 0, 1, -7.105427357601002e-15, 0)"/>
  <path class="cls-2" d="m206.24,76.5h3.77c.9,0,1.6.79,1.45,1.67-.36,2.14-1.24,3.87-2.62,5.2-1.73,1.67-3.95,2.58-6.62,2.75-3.22.2-5.88-.7-8-2.71-2.11-2.01-3.29-4.88-3.52-8.63-.24-3.75.52-6.77,2.25-9.17,1.73-2.4,4.27-3.7,7.63-3.91,3.14-.2,5.6.52,7.39,2.15,1.44,1.31,2.43,3.01,2.97,5.11.22.85-.38,1.7-1.25,1.8l-3.75.44c-.75.08-1.46-.39-1.61-1.13-.19-.91-.5-1.61-.97-2.08-.65-.67-1.39-.98-2.21-.92-2.29.14-3.29,2.52-3,7.13.16,2.58.57,4.32,1.22,5.2.65.88,1.52,1.3,2.6,1.23,1.6-.1,2.56-1.07,2.87-2.91.12-.69.69-1.21,1.39-1.21h.01Z" transform="matrix(0.9999999999999999, 0, 0, 1, -7.105427357601002e-15, 0)"/>
  <path class="cls-2" d="m233.53,61.47l1.3,20.79c.05.8-.56,1.5-1.37,1.55l-4.36.28c-.8.05-1.5-.56-1.55-1.37l-.39-6.31c-.05-.8-.74-1.41-1.55-1.37l-2.64.17c-.8.05-1.41.74-1.37,1.55l.39,6.31c.05.8-.56,1.5-1.37,1.55l-4.36.28c-.8.05-1.5-.56-1.55-1.37l-1.3-20.79c-.05-.8.56-1.5,1.37-1.55l4.36-.28c.8-.05,1.5.56,1.55,1.37l.36,5.81c.05.8.74,1.41,1.55,1.37l2.64-.17c.8-.05,1.41-.74,1.37-1.55l-.36-5.81c-.05-.8.56-1.5,1.37-1.55l4.36-.28c.8-.05,1.5.56,1.55,1.37h0Z" transform="matrix(0.9999999999999999, 0, 0, 1, -7.105427357601002e-15, 0)"/>
  <path class="cls-2" d="m251.39,81.1l-.87-2.45c-.22-.6-.79-.98-1.43-.94l-4.07.26c-.62.04-1.15.48-1.29,1.09l-.62,2.59c-.14.61-.67,1.05-1.29,1.09l-2.78.17c-.96.06-1.7-.82-1.47-1.75l4.99-20.64c.14-.61.67-1.04,1.3-1.08l5.41-.34c.62-.04,1.19.33,1.41.91l7.61,19.86c.35.89-.28,1.87-1.24,1.93l-4.23.26c-.63.04-1.22-.34-1.43-.94h0Zm-4.66-8.3h0c.94-.06,1.56-1,1.25-1.88h0c-.47-1.36-2.43-1.24-2.73.17h0c-.2.92.54,1.77,1.48,1.71h0Z" transform="matrix(0.9999999999999999, 0, 0, 1, -7.105427357601002e-15, 0)"/>
  <path class="cls-5" d="m199.12,98.2c.06.67.19,1.24.4,1.71.21.47.46.86.76,1.15.3.3.62.51.98.63.35.13.71.17,1.05.14s.68-.13.96-.3c.28-.17.52-.39.72-.65.2-.26.36-.55.48-.87s.19-.65.23-.98l1.67-.14c-.06.56-.19,1.09-.38,1.59-.19.5-.45.94-.78,1.32-.33.39-.73.7-1.19.94-.46.24-.99.39-1.59.44-.69.06-1.32,0-1.89-.19-.57-.19-1.07-.49-1.5-.9s-.78-.94-1.04-1.57c-.27-.63-.44-1.36-.51-2.19-.06-.65,0-1.27.14-1.89.15-.61.39-1.17.74-1.66.34-.49.78-.9,1.31-1.22s1.15-.51,1.86-.57c.6-.05,1.15-.01,1.64.12.49.13.92.33,1.31.61s.72.61.99,1c.28.4.51.84.7,1.32l-1.71.15c-.31-.67-.69-1.16-1.15-1.46-.46-.3-1.02-.43-1.67-.37-.42.04-.79.16-1.12.38-.33.22-.6.5-.83.85-.22.35-.38.75-.49,1.2-.1.45-.13.92-.09,1.41Z" transform="matrix(0.9999999999999999, 0, 0, 1, -7.105427357601002e-15, 0)"/>
  <path class="cls-5" d="m209.2,92.58l.72,8.31,4.67-.4.12,1.41-6.32.55-.84-9.71,1.64-.14Z" transform="matrix(0.9999999999999999, 0, 0, 1, -7.105427357601002e-15, 0)"/>
  <path class="cls-5" d="m217.28,91.88l.84,9.71-1.64.14-.84-9.71,1.64-.14Z" transform="matrix(0.9999999999999999, 0, 0, 1, -7.105427357601002e-15, 0)"/>
  <path class="cls-5" d="m221.41,96.28c.06.67.19,1.24.4,1.71.21.47.46.86.76,1.15.3.3.62.51.98.63.36.13.71.17,1.05.14s.68-.13.96-.3c.28-.17.52-.39.72-.65.2-.26.36-.55.48-.87s.19-.65.23-.98l1.67-.14c-.06.56-.19,1.09-.38,1.59-.19.5-.45.94-.78,1.32-.33.39-.73.7-1.19.94-.46.24-.99.39-1.59.44-.69.06-1.32,0-1.89-.19-.57-.19-1.07-.49-1.5-.9s-.78-.94-1.04-1.57c-.27-.63-.44-1.36-.51-2.19-.06-.65,0-1.27.14-1.89.15-.61.39-1.17.74-1.66s.78-.9,1.31-1.22,1.15-.51,1.86-.57c.6-.05,1.15-.01,1.64.12.49.13.92.33,1.31.61.38.27.71.61.99,1s.51.84.7,1.32l-1.71.15c-.31-.67-.69-1.16-1.15-1.46s-1.02-.43-1.67-.37c-.42.04-.79.16-1.12.38-.33.22-.61.5-.83.85-.22.35-.38.75-.49,1.2-.1.45-.13.92-.09,1.41Z" transform="matrix(0.9999999999999999, 0, 0, 1, -7.105427357601002e-15, 0)"/>
  <path class="cls-5" d="m231.51,90.65l.37,4.25,3.88-4.62,2.11-.18-3.6,4.26,4.54,5.44-1.98.17-3.58-4.38-1.19,1.39.29,3.38-1.66.14-.84-9.71,1.66-.14Z" transform="matrix(0.9999999999999999, 0, 0, 1, -7.105427357601002e-15, 0)"/>
  <path class="cls-5" d="m249.77,89.07l.12,1.39-3.07.27.72,8.33-1.64.14-.72-8.33-3.08.27-.12-1.39,7.79-.67Z" transform="matrix(0.9999999999999999, 0, 0, 1, -7.105427357601002e-15, 0)"/>
  <path class="cls-5" d="m259.89,93.07c.06.75.02,1.45-.12,2.1-.15.65-.39,1.21-.73,1.7s-.78.88-1.32,1.18c-.54.3-1.16.48-1.88.54s-1.37,0-1.94-.21-1.08-.52-1.5-.94-.76-.93-1.01-1.55c-.25-.61-.41-1.29-.48-2.05s-.03-1.45.12-2.09c.14-.64.39-1.2.73-1.68.34-.48.78-.87,1.32-1.16s1.16-.47,1.88-.53,1.37,0,1.95.21c.58.2,1.08.51,1.5.92.42.41.76.92,1.01,1.53.25.61.41,1.28.48,2.04Zm-1.64.13c-.05-.59-.17-1.11-.36-1.55-.19-.45-.42-.82-.71-1.11-.28-.29-.61-.5-.97-.64-.36-.13-.74-.18-1.14-.15s-.77.15-1.1.34c-.33.19-.61.46-.84.8-.23.33-.39.74-.5,1.21-.11.47-.13,1-.08,1.59s.17,1.11.36,1.56c.19.45.42.83.7,1.13s.6.52.96.66c.36.14.74.19,1.15.16s.76-.15,1.1-.35c.33-.2.61-.47.84-.82s.4-.76.51-1.23c.11-.48.14-1.01.09-1.6Z" transform="matrix(0.9999999999999999, 0, 0, 1, -7.105427357601002e-15, 0)"/>
  <path class="cls-5" d="m264.65,87.79l3.84-.33c.5-.04.95,0,1.35.14.4.14.74.34,1.03.59s.51.55.68.88c.17.33.26.67.3,1.02.03.37,0,.73-.11,1.09-.11.36-.28.69-.52.99-.24.29-.55.54-.92.74s-.8.32-1.3.36l-2.2.19.34,3.91-1.64.14-.84-9.71Zm2.03,4.29l1.85-.16c.34-.03.62-.09.84-.2.22-.1.4-.23.53-.38.13-.15.22-.32.26-.52s.06-.4.04-.62-.07-.41-.17-.59-.22-.32-.39-.44c-.16-.12-.36-.21-.59-.26-.23-.05-.49-.07-.79-.04l-1.85.16.26,3.04Z" transform="matrix(0.9999999999999999, 0, 0, 1, -7.105427357601002e-15, 0)"/>
  <path class="cls-5" d="m275.12,86.89l.56,6.43c.03.34.11.64.25.89.13.26.3.47.5.64.2.17.43.29.68.36.25.07.51.1.77.08.28-.02.55-.09.81-.2.26-.11.49-.26.68-.46.19-.19.34-.43.44-.7.1-.28.14-.59.11-.94l-.56-6.46,1.64-.14.55,6.39c.05.58-.01,1.1-.19,1.56-.18.46-.43.86-.76,1.19-.33.33-.72.6-1.17.79-.45.19-.92.31-1.42.35s-.94,0-1.39-.11c-.46-.11-.87-.3-1.24-.57-.37-.27-.67-.62-.92-1.05-.24-.43-.39-.95-.44-1.54l-.55-6.36,1.64-.14Z" transform="matrix(0.9999999999999999, 0, 0, 1, -7.105427357601002e-15, 0)"/>
  <path class="cls-5" d="m290.98,88.39c.04.43-.04.84-.23,1.23-.19.39-.5.75-.92,1.06.22.06.41.15.58.27.17.13.3.27.42.44.11.17.2.35.26.54.06.19.1.39.12.58l.12,1.41c.02.18.08.38.18.61.11.23.24.46.41.7l-1.8.16c-.08-.11-.15-.22-.2-.33s-.1-.23-.13-.35-.05-.22-.07-.32-.03-.19-.03-.27l-.13-1.48c-.01-.14-.05-.29-.11-.43-.06-.14-.15-.26-.27-.37-.12-.1-.27-.18-.45-.24-.18-.06-.4-.07-.65-.05l-2.48.21.34,3.98-1.64.14-.84-9.71,4.12-.36c.5-.04.95,0,1.36.13s.75.32,1.04.57.52.53.68.86c.17.33.26.67.29,1.01Zm-5.48,1.99l2.48-.21c.2-.02.39-.07.56-.16.17-.09.32-.2.45-.34.13-.14.22-.3.28-.49.06-.19.09-.39.07-.61s-.07-.41-.16-.59c-.09-.18-.21-.33-.35-.45-.14-.12-.31-.21-.5-.27-.19-.06-.39-.08-.6-.06l-2.48.21.26,2.97Z" transform="matrix(0.9999999999999999, 0, 0, 1, -7.105427357601002e-15, 0)"/>
  <path class="cls-5" d="m294.78,89.95c.06.67.19,1.24.4,1.71.21.47.46.86.76,1.15.3.3.62.51.98.63.36.13.71.17,1.05.14s.68-.13.96-.3c.28-.17.52-.39.72-.65.2-.26.36-.55.48-.87s.19-.65.23-.98l1.67-.14c-.06.56-.19,1.09-.38,1.59-.19.5-.45.94-.78,1.32-.33.39-.73.7-1.19.94-.46.24-.99.39-1.59.44-.69.06-1.32,0-1.89-.19-.57-.19-1.07-.49-1.5-.9s-.78-.94-1.04-1.57c-.27-.63-.44-1.36-.51-2.19-.06-.65,0-1.27.14-1.89.15-.61.39-1.17.74-1.66s.78-.9,1.31-1.22,1.15-.51,1.86-.57c.6-.05,1.15-.01,1.64.12.49.13.92.33,1.31.61.38.27.71.61.99,1s.51.84.7,1.32l-1.71.15c-.31-.67-.69-1.16-1.15-1.46s-1.02-.43-1.67-.37c-.42.04-.79.16-1.12.38-.33.22-.61.5-.83.85-.22.35-.38.75-.49,1.2-.1.45-.13.92-.09,1.41Z" transform="matrix(0.9999999999999999, 0, 0, 1, -7.105427357601002e-15, 0)"/>
  <path class="cls-5" d="m304.87,84.32l.35,4,4.39-.38-.35-4,1.64-.14.84,9.71-1.64.14-.38-4.35-4.39.38.38,4.35-1.64.14-.84-9.71,1.64-.14Z" transform="matrix(0.9999999999999999, 0, 0, 1, -7.105427357601002e-15, 0)"/>
  <path class="cls-5" d="m318.19,83.17l4.39,9.41-1.72.15-1.29-2.75-3.5.3c-.13.48-.26.97-.4,1.47-.14.49-.27.98-.4,1.47l-1.7.15,2.71-10.02,1.89-.16Zm-.78,2.12l-.94,3.56,2.47-.21-1.53-3.35Z" transform="matrix(0.9999999999999999, 0, 0, 1, -7.105427357601002e-15, 0)"/>
  <path class="cls-5" d="m325.19,88.93c.05.33.15.63.28.9.14.27.31.49.51.67.2.18.43.32.69.41.26.09.54.12.84.09.26-.02.52-.07.76-.15.24-.08.45-.19.62-.33.18-.14.31-.32.4-.53.09-.21.13-.46.1-.76-.02-.26-.12-.48-.3-.64-.18-.16-.4-.3-.67-.42-.27-.11-.58-.21-.92-.29-.34-.08-.69-.16-1.05-.25s-.71-.19-1.05-.31c-.35-.12-.66-.27-.94-.46s-.51-.42-.7-.71-.3-.63-.33-1.05.01-.81.15-1.15.35-.64.64-.89.63-.45,1.04-.6.87-.25,1.37-.29c.67-.06,1.23,0,1.69.15.46.16.84.38,1.13.66.3.29.52.61.67.98s.26.73.31,1.09l-1.68.14c-.05-.31-.14-.57-.27-.79-.12-.22-.28-.4-.46-.53-.18-.13-.38-.23-.6-.28-.22-.05-.45-.07-.69-.05-.22.02-.43.06-.64.12-.21.06-.39.15-.55.27-.16.11-.28.26-.37.42-.09.17-.12.37-.1.6.02.27.12.49.3.66.18.17.4.31.67.43.27.11.58.21.92.29s.69.16,1.05.25c.36.09.71.19,1.06.31.35.12.66.27.94.45s.51.42.7.7c.19.28.3.62.33,1.03.04.5-.01.94-.16,1.33-.15.39-.38.72-.69.99-.31.27-.68.49-1.11.66-.44.16-.92.27-1.46.32-.48.04-.95,0-1.41-.13-.46-.13-.89-.33-1.27-.62-.38-.29-.7-.64-.96-1.07-.26-.43-.42-.93-.48-1.49l1.68-.14Z" transform="matrix(0.9999999999999999, 0, 0, 1, -7.105427357601002e-15, 0)"/>
  <path class="cls-5" d="m339.15,81.36l.12,1.39-5.22.45.23,2.63,4.9-.42.12,1.39-4.9.42.25,2.9,5.44-.47.12,1.41-7.08.61-.84-9.71,6.86-.59Z" transform="matrix(0.9999999999999999, 0, 0, 1, -7.105427357601002e-15, 0)"/>
</svg>