<?xml version="1.0" encoding="UTF-8"?><svg id="Layer_1" xmlns="http://www.w3.org/2000/svg" viewBox="0 0 288 288"><defs><style>.cls-1{isolation:isolate;opacity:.73;stroke:#052339;stroke-miterlimit:10;stroke-width:1.5px;}.cls-1,.cls-2{fill:#052339;}.cls-3{fill:#fff;}.cls-3,.cls-4,.cls-2{stroke-width:0px;}.cls-4{fill:#00293b;}</style></defs><path class="cls-1" d="m265.26,180.8c1.4-.23,2.44-1.56,2.43-3.17v-.32c-.03-1.25-.73-2.3-1.75-2.79-1.58-.77-2.7-2.54-2.73-4.61-.02-2.06,1.05-3.82,2.61-4.57,1.05-.5,1.68-1.76,1.66-3.05v-.62c-.03-1.25-.73-2.3-1.75-2.79-1.58-.77-2.7-2.54-2.73-4.61-.02-2.06,1.05-3.82,2.61-4.57,1.05-.5,1.68-1.76,1.66-3.05v-.62c-.03-1.25-.73-2.3-1.75-2.79-1.58-.77-2.7-2.54-2.72-4.6-.02-2.06,1.05-3.82,2.61-4.57,1.05-.5,1.68-1.76,1.66-3.05v-.62c-.03-1.25-.73-2.3-1.75-2.79-1.58-.77-2.7-2.54-2.72-4.6-.02-2.06,1.05-3.82,2.61-4.57,1.05-.5,1.68-1.76,1.66-3.05v-.62c-.03-1.25-.73-2.3-1.75-2.79-1.58-.77-2.7-2.54-2.72-4.6s1.05-3.82,2.61-4.57c1.05-.5,1.68-1.76,1.66-3.05v-.13c-.03-1.55-1.05-2.84-2.41-3.08-8.06-1.36-14.34-9.27-14.46-18.79h-.05s-71.71.62-71.71.62v-.15s-76.2.89-76.2.89l-67.58.79h-.29c.13,9.47-5.89,17.28-13.87,18.58-1.4.23-2.44,1.56-2.43,3.17v.32c.03,1.25.73,2.3,1.75,2.79,1.58.77,2.7,2.54,2.73,4.61.02,2.06-1.05,3.82-2.61,4.57-1.05.5-1.68,1.76-1.66,3.05v.62c.03,1.25.73,2.3,1.75,2.79,1.58.77,2.7,2.54,2.73,4.61.02,2.06-1.05,3.82-2.61,4.57-1.05.5-1.68,1.76-1.66,3.05v.62c.03,1.25.73,2.3,1.75,2.79,1.58.77,2.7,2.54,2.72,4.6.02,2.06-1.05,3.82-2.61,4.57-1.05.5-1.68,1.76-1.66,3.05v.62c.03,1.25.73,2.3,1.75,2.79,1.58.77,2.7,2.54,2.72,4.6s-1.05,3.82-2.61,4.57c-1.05.5-1.68,1.76-1.66,3.05v.62c.03,1.25.73,2.3,1.75,2.79,1.58.77,2.7,2.54,2.72,4.6.02,2.06-1.05,3.82-2.61,4.57-1.05.5-1.68,1.76-1.66,3.05v.13c.03,1.55,1.05,2.84,2.41,3.08,8.06,1.36,14.34,9.27,14.46,18.79h.05s53.74-.63,53.74-.63v.15s76.2-.89,76.2-.89l85.55-.79h.29c-.13-9.47,5.89-17.28,13.87-18.58h0Z"/><path class="cls-3" d="m272.63,173.89c1.4-.23,2.44-1.56,2.43-3.17v-.32c-.03-1.25-.73-2.3-1.75-2.79-1.58-.77-2.7-2.54-2.73-4.61-.02-2.06,1.05-3.82,2.61-4.57,1.05-.5,1.68-1.76,1.66-3.05v-.62c-.03-1.25-.73-2.3-1.75-2.79-1.58-.77-2.7-2.54-2.73-4.61-.02-2.06,1.05-3.82,2.61-4.57,1.05-.5,1.68-1.76,1.66-3.05v-.62c-.03-1.25-.73-2.3-1.75-2.79-1.58-.77-2.7-2.54-2.72-4.6-.02-2.06,1.05-3.82,2.61-4.57,1.05-.5,1.68-1.76,1.66-3.05v-.62c-.03-1.25-.73-2.3-1.75-2.79-1.58-.77-2.7-2.54-2.72-4.6-.02-2.06,1.05-3.82,2.61-4.57,1.05-.5,1.68-1.76,1.66-3.05v-.62c-.03-1.25-.73-2.3-1.75-2.79-1.58-.77-2.7-2.54-2.72-4.6-.02-2.06,1.05-3.82,2.61-4.57,1.05-.5,1.68-1.76,1.66-3.05v-.13c-.03-1.55-1.05-2.84-2.41-3.08-8.06-1.36-14.34-9.27-14.46-18.79h-.05s-71.71.62-71.71.62v-.15s-76.2.89-76.2.89l-67.58.79h-.29c.13,9.47-5.89,17.28-13.87,18.58-1.4.23-2.44,1.56-2.43,3.17v.32c.03,1.25.73,2.3,1.75,2.79,1.58.77,2.7,2.54,2.73,4.61.02,2.06-1.05,3.82-2.61,4.57-1.05.5-1.68,1.76-1.66,3.05v.62c.03,1.25.73,2.3,1.75,2.79,1.58.77,2.7,2.54,2.73,4.61.02,2.06-1.05,3.82-2.61,4.57-1.05.5-1.68,1.76-1.66,3.05v.62c.03,1.25.73,2.3,1.75,2.79,1.58.77,2.7,2.54,2.72,4.6s-1.05,3.82-2.61,4.57c-1.05.5-1.68,1.76-1.66,3.05v.62c.03,1.25.73,2.3,1.75,2.79,1.58.77,2.7,2.54,2.72,4.6s-1.05,3.82-2.61,4.57c-1.05.5-1.68,1.76-1.66,3.05v.62c.03,1.25.73,2.3,1.75,2.79,1.58.77,2.7,2.54,2.72,4.6s-1.05,3.82-2.61,4.57c-1.05.5-1.68,1.76-1.66,3.05v.13c.03,1.55,1.05,2.84,2.41,3.08,8.06,1.36,14.34,9.27,14.46,18.79h.05s53.74-.63,53.74-.63v.15s76.2-.89,76.2-.89l85.55-.79h.29c-.13-9.47,5.89-17.28,13.87-18.58h0Z"/><path class="cls-2" d="m272.86,174.56c3.34-.86,3.86-5.4,1.19-7.34-1.27-.92-2.26-1.6-2.62-3.25s.11-3.4,1.45-4.46c1.56-1.23,2.67-2.02,2.68-4.23.01-1.63-.58-2.89-1.94-3.8-1.37-.91-2.32-1.88-2.5-3.58-.16-1.5.34-3.08,1.54-4.03.76-.59,1.53-.89,2.06-1.74.48-.77.63-1.67.62-2.56,0-1.73-.69-2.91-2.14-3.84-2.65-1.69-3.3-5.79-.45-7.71,1.55-1.04,2.38-2.13,2.38-4.07,0-1.74-.7-2.92-2.14-3.84-2.82-1.8-3.2-5.92-.25-7.82,1.52-.98,2.2-2.26,2.18-4.1-.03-1.84-.97-2.88-2.47-3.91-2.68-1.82-2.62-5.88.09-7.62,1.42-.91,2.24-2.18,2.17-3.93-.07-1.98-1.33-3.35-3.22-3.77-2.55-.58-4.84-1.59-6.86-3.26-4.4-3.65-6.64-9.19-6.79-14.83-.01-.4-.38-.67-.75-.67-8.01.09-16.02.14-24.02.21l-38.74.34c-3,.03-6,.05-8.99.07l.75.67v-.15c-.01-.4-.38-.67-.75-.67-7.85.1-15.69.18-23.53.28-13.27.16-26.55.31-39.82.47-5.19.06-10.38.12-15.57.18l-34.91.4c-9.84.11-19.7.1-29.54.35-.23,0-.47,0-.69,0-.4,0-.67.39-.67.75.01,5.46-2.02,10.98-6.27,14.57-1.91,1.61-4.14,2.67-6.57,3.2-2.04.45-3.43,1.78-3.45,3.99,0,.83.18,1.64.63,2.34.7,1.1,1.99,1.41,2.79,2.41,1.16,1.44,1.39,3.5.54,5.16-.69,1.35-2.18,1.66-3.02,2.86-.93,1.34-1.02,3.56-.23,5,.6,1.08,1.61,1.37,2.49,2.14,1.55,1.36,1.91,3.82.97,5.63-.63,1.21-1.85,1.52-2.71,2.44-.73.81-1.03,1.9-1.04,2.97-.01.82.07,1.62.45,2.35.6,1.12,1.63,1.43,2.53,2.23,1.4,1.24,1.85,3.44,1.18,5.17-.6,1.55-1.91,1.81-2.91,2.92-1.2,1.32-1.4,3.75-.58,5.31.56,1.06,1.46,1.37,2.34,2.07,1.55,1.21,2.07,3.53,1.36,5.33-.57,1.48-1.7,1.76-2.74,2.75-.79.76-1.14,1.79-1.2,2.86-.06.87.02,1.74.39,2.54.56,1.11,1.46,1.44,2.38,2.16,1.33,1.04,1.88,2.88,1.6,4.5-.34,1.87-1.51,2.32-2.78,3.4-1.64,1.39-1.88,4.12-.58,5.82.69.91,1.57,1.2,2.63,1.44,1.54.34,2.99.87,4.36,1.65,5.83,3.3,8.88,9.89,9.06,16.4.01.4.38.67.75.67,15.69-.18,31.36-.36,47.04-.55,2.25-.03,4.51-.05,6.76-.08l-.75-.67v.15c.01.4.38.67.75.67,9.51-.11,19.03-.23,28.55-.33,13.96-.16,27.92-.33,41.87-.48,5.46-.06,10.91-.11,16.37-.16,14.54-.14,29.08-.26,43.62-.4,10.3-.09,20.61-.22,30.91-.28.23,0,.48,0,.71,0,.4,0,.67-.39.67-.75-.01-8.07,4.8-16.32,13.19-17.83.89-.16.82-1.58-.08-1.41-9.21,1.65-14.54,10.41-14.53,19.33l.67-.75c-8.71-.06-17.43.16-26.14.24-14.95.14-29.91.28-44.85.41-5.92.05-11.86.11-17.78.17l-39.01.45-21.54.25-7.78.09c-1.41.01-2.91-.12-4.32.05-.19.02-.4,0-.6.01l.75.67v-.15c-.01-.4-.38-.67-.75-.67-15.74.18-31.49.37-47.22.56-2.19.03-4.38.05-6.57.07l.75.67c-.13-5.19-1.94-10.26-5.49-14.11-1.65-1.79-3.67-3.28-5.89-4.24-1.04-.44-2.09-.73-3.18-1-1.81-.46-2.88-2.03-2.08-3.88.52-1.17,2.09-1.65,2.87-2.69.66-.88,1.03-1.95,1.13-3.04.19-2.25-.83-4.34-2.69-5.6-1.14-.78-1.83-1.58-1.77-3.04.1-2.13,1.82-2.36,2.96-3.73,1.52-1.82,1.67-4.56.61-6.63-1.06-2.08-3.9-2.64-3.79-5.25.09-2.09,1.64-2.25,2.8-3.55.77-.85,1.24-1.94,1.39-3.07.32-2.29-.6-4.52-2.49-5.86-1.16-.83-1.96-1.53-1.92-3.06.06-2.15,1.62-2.31,2.8-3.62,1.52-1.69,1.85-4.27,1-6.35-.39-.97-1.05-1.83-1.89-2.43-1.19-.88-2.24-1.49-2.12-3.21.15-2.02,1.45-2.23,2.64-3.45.79-.81,1.32-1.87,1.52-2.99.41-2.13-.37-4.48-2.06-5.85-.66-.54-1.39-.78-1.87-1.52s-.58-1.88-.19-2.74c.66-1.49,2.76-1.45,4.11-1.93,2.33-.81,4.44-2.18,6.2-3.91,3.93-3.88,5.75-9.35,5.74-14.78l-.67.75c8.35.05,16.71-.19,25.06-.29,12.48-.15,24.96-.29,37.45-.44,4.8-.06,9.59-.11,14.4-.16,12.87-.16,25.75-.3,38.62-.46l18.3-.21,6.29-.08c1.11-.01,2.39.14,3.48-.04.15-.03.32,0,.47,0l-.75-.67v.15c.01.4.38.67.75.67,8.1-.07,16.2-.15,24.3-.22,12.88-.11,25.76-.23,38.64-.34,2.93-.03,5.87-.05,8.8-.08l-.75-.67c.22,8.12,4.86,16.33,12.91,18.92,1.05.33,2.49.37,3.27,1.18.93.97.93,2.86,0,3.85-.67.72-1.63,1-2.27,1.78-.56.68-.93,1.51-1.14,2.36-.44,1.85.01,3.89,1.24,5.35.6.72,1.35,1.02,2.04,1.59,1.04.88,1.33,2.54.79,3.82-.44,1.06-1.64,1.36-2.39,2.13-.64.66-1.11,1.5-1.37,2.38-.51,1.74-.23,3.71.79,5.23.5.75,1.15,1.24,1.88,1.73,1.09.72,1.62,1.6,1.56,2.92-.08,1.76-1.15,2.1-2.28,3.06-.74.63-1.29,1.45-1.61,2.37-.58,1.65-.45,3.57.41,5.12,1.04,1.87,3.69,2.45,3.69,4.78,0,1.78-.9,2.27-2.13,3.23-.68.52-1.22,1.23-1.57,2.02-.78,1.72-.72,3.75.14,5.42,1.03,2,3.87,2.65,3.79,5.1-.08,1.86-1.07,2.2-2.28,3.21-.83.69-1.38,1.6-1.7,2.62-.62,1.96-.2,4.2,1.12,5.78.76.91,2.03,1.3,2.64,2.27.93,1.5.27,3.6-1.5,4.05-.9.23-.44,1.57.45,1.36l.03-.16Z"/><path class="cls-4" d="m247.17,79.01c2.21,7.47,7.03,13.84,13.92,17.57l-.99-2.85c-2.39,5.17-1.86,11.18,1.56,15.76l.16-2.57c-3.91,5.47-4.02,12.75.05,18.2l.16-2.57c-3.91,5.47-4.02,12.75.05,18.2l.16-2.57c-3.91,5.47-4.02,12.75.05,18.2l.16-2.57c-3.28,4.58-3.98,10.46-1.53,15.6l.84-2.43c-6.78,3.71-11.29,10.2-13.24,17.58l1.96-1.71c-4.91.05-9.8.1-14.71.15-11.78.12-23.55.24-35.33.36-14.24.14-28.5.3-42.74.44-12.33.13-24.65.25-36.98.38-4.08.03-8.16.09-12.23.12-1.88.02-3.92-.19-5.78.06-.08,0-.18,0-.26,0l2.25,2.01v-.15c-.02-1.19-1.14-2.02-2.25-2.01-15.97.18-31.96.37-47.93.56-2.29.03-4.57.06-6.86.08l2.15,1.45c-2.21-7.47-7.04-13.83-13.93-17.56l.99,2.85c2.39-5.17,1.86-11.18-1.56-15.76l-.16,2.57c3.91-5.47,4.02-12.75-.05-18.2l-.16,2.57c3.91-5.47,4.02-12.75-.05-18.2l-.16,2.57c3.91-5.47,4.02-12.75-.05-18.2l-.16,2.57c3.28-4.58,3.99-10.45,1.53-15.6l-.84,2.43c6.78-3.71,11.29-10.2,13.24-17.58l-1.96,1.71c4.3-.05,8.62-.11,12.93-.14,10.34-.13,20.69-.24,31.03-.37l37.57-.43c10.83-.13,21.66-.26,32.49-.39l10.68-.13c1.64-.02,3.5.2,5.14-.06.07-.02.15,0,.23,0l-2.25-2.01v.15c.02,1.19,1.14,2.01,2.25,2.01,8.22-.08,16.42-.14,24.64-.22,13.03-.11,26.07-.23,39.1-.34,3.01-.03,6.02-.05,9.04-.08,2.75-.03,2.49-4.27-.25-4.25-8.22.08-16.42.14-24.64.22-13.03.11-26.07.23-39.1.34-3.01.03-6.02.05-9.04.08l2.25,2.01v-.15c-.02-1.19-1.14-2.02-2.25-2.01-4.3.05-8.62.11-12.93.14l-31.03.37c-12.52.14-25.05.29-37.57.43l-32.49.39c-5.24.06-10.58-.19-15.8.19-.08,0-.15,0-.23,0-.99.02-1.73.82-1.96,1.71-1.68,6.35-5.64,11.72-11.43,14.87-.73.4-1.22,1.66-.84,2.43,1.77,3.73,1.75,8.05-.71,11.47-.52.74-.75,1.78-.16,2.57,2.86,3.84,3.21,9.08.37,13.04-.52.74-.75,1.78-.16,2.57,2.86,3.84,3.21,9.08.37,13.04-.52.74-.75,1.78-.16,2.57,2.86,3.84,3.21,9.08.37,13.04-.52.74-.75,1.78-.16,2.57,2.53,3.39,3.07,7.67,1.27,11.53-.5,1.07-.06,2.3.99,2.85,5.9,3.19,9.86,8.7,11.74,15.07.27.93,1.21,1.47,2.15,1.45,15.97-.18,31.96-.37,47.93-.56l6.86-.08-2.25-2.01v.15c.02,1.19,1.14,2.02,2.25,2.01,4.91-.05,9.8-.1,14.71-.15,11.78-.12,23.55-.24,35.33-.36,14.24-.14,28.5-.3,42.74-.44,12.33-.13,24.65-.25,36.98-.38,5.97-.06,12.05.21,18.02-.18.08,0,.17,0,.26,0,.99-.02,1.73-.82,1.96-1.71,1.68-6.35,5.65-11.71,11.43-14.87.73-.4,1.22-1.66.84-2.43-1.77-3.73-1.75-8.05.71-11.47.52-.74.75-1.78.16-2.57-2.86-3.84-3.21-9.08-.37-13.04.52-.74.75-1.78.16-2.57-2.86-3.84-3.21-9.08-.37-13.04.52-.74.75-1.78.16-2.57-2.86-3.84-3.21-9.08-.37-13.04.52-.74.75-1.78.16-2.57-2.53-3.39-3.07-7.67-1.27-11.53.5-1.07.06-2.3-.99-2.85-5.9-3.19-9.86-8.7-11.74-15.07-.78-2.64-4.82-1.29-4.05,1.33h0Z"/></svg>